<svg width="18" height="21" viewBox="0 0 18 21" fill="none" xmlns="http://www.w3.org/2000/svg">
<path d="M17.7548 19.698C17.7548 20.062 17.6282 20.37 17.3749 20.622C17.135 20.874 16.8418 21 16.4952 21H1.49942C1.16618 21 0.872926 20.867 0.619664 20.601C0.379732 20.349 0.259766 20.048 0.259766 19.698V2.625H3.37889V0H4.61854V2.625H13.3761V0H14.6157V2.625H17.7548V19.698ZM1.49942 6.552H16.4952V3.927H1.49942V6.552ZM1.49942 19.698H16.4952V7.875H1.49942V19.698ZM4.97844 13.335L7.19781 15.666L12.7362 9.849L13.716 10.878L7.19781 17.724L3.99871 14.364L4.97844 13.335Z" fill="#979797"/>
</svg>
