<svg xmlns="http://www.w3.org/2000/svg" width="17" height="17" fill="none" viewBox="0 0 17 17">
  <path fill-rule="evenodd" d="M16.5171 3.4872c.1136.2557.1724.5324.1724.8122V15.125c0 .621-.504 1.125-1.125 1.125h-13.5c-.621 0-1.125-.504-1.125-1.125V4.2994a2 2 0 0 1 .1723-.8123l.7998-1.7994A2 2 0 0 1 3.7392.5h10.1505a2 2 0 0 1 1.8276 1.1877l.7998 1.7995ZM2.0645 3.875h13.5l-.6486-1.6214a1 1 0 0 0-.9285-.6286H3.6414a1 1 0 0 0-.9284.6286L2.0644 3.875Zm13.5 11.25h-13.5V5h13.5v10.125Z" clip-rule="evenodd"/>
  <path fill-rule="evenodd" d="m12.8489 10.443-3.5797 3.5797a.5624.5624 0 0 1-.7955 0L4.894 10.443a.5625.5625 0 1 1 .7955-.7955l2.6194 2.6195V6.6875a.5625.5625 0 0 1 1.125 0v5.5795l2.6195-2.6195a.5625.5625 0 0 1 .7955.7955Z" clip-rule="evenodd"/>
</svg>
