<svg xmlns="http://www.w3.org/2000/svg" width="24" height="24" viewBox="0 0 24 24">
  <path fill-rule="nonzero" d="M6.0101 20.625C7.7089 21.807 9.7735 22.5 12 22.5c2.2265 0 4.291-.693 5.9899-1.875C16.2911 19.443 14.2265 18.75 12 18.75c-2.2265 0-4.291.693-5.9899 1.875Zm-1.2063-.9787C6.8088 18.1415 9.3003 17.25 12 17.25s5.1913.8915 7.1962 2.3963C21.2302 17.7313 22.5 15.014 22.5 12c0-5.799-4.701-10.5-10.5-10.5S1.5 6.201 1.5 12c0 3.014 1.2699 5.7313 3.3038 7.6463ZM12 24C5.3726 24 0 18.6274 0 12S5.3726 0 12 0s12 5.3726 12 12-5.3726 12-12 12Zm0-9.75c-2.071 0-3.75-1.679-3.75-3.75 0-2.071 1.679-3.75 3.75-3.75 2.071 0 3.75 1.679 3.75 3.75 0 2.071-1.679 3.75-3.75 3.75Zm0-1.5c1.2426 0 2.25-1.0074 2.25-2.25S13.2426 8.25 12 8.25 9.75 9.2574 9.75 10.5s1.0074 2.25 2.25 2.25Z"/>
</svg>
