<svg xmlns="http://www.w3.org/2000/svg" width="19" height="19" fill="none" viewBox="0 0 19 19">
  <path fill-rule="evenodd" d="M18.4395 9.25c0-4.9703-4.0298-9-9-9-4.971 0-9 4.0297-9 9 0 2.4897 1.0109 4.7433 2.6448 6.3728l.8802-.7173c-1.4792-1.4325-2.4-3.4384-2.4-5.6555 0-4.3425 3.5324-7.875 7.875-7.875 4.3425 0 7.875 3.5325 7.875 7.875 0 4.3425-3.5325 7.875-7.875 7.875a7.8422 7.8422 0 0 1-2.6314-.452l-.4013 1.0533c.9475.339 1.9685.5237 3.0327.5237 4.9702 0 9-4.0297 9-9Zm-8.4372.1875h5.0175v1.125H8.8773V4.42h1.125v5.0175Z" clip-rule="evenodd"/>
</svg>
