<svg xmlns="http://www.w3.org/2000/svg" width="32" height="33" fill="none" viewBox="0 0 32 33">
  <path fill="#474747" fill-rule="evenodd" d="M26.5 13V7h-3.75V4h-1.5v3h-10.5V4h-1.5v3H5.5v19.5A1.5 1.5 0 0 0 7 28h18a1.5 1.5 0 0 0 1.5-1.5V13ZM25 11.5H7v-3h18v3Zm-18 15h18V13H7v13.5Zm15-3V25h1.5v-1.5H22Z" clip-rule="evenodd"/>
  <rect width="18" height="18" x="14" y="15" fill="#fff" rx="9"/>
  <path fill="#474747" fill-rule="evenodd" d="M23 17.25a6.75 6.75 0 1 1 0 13.5 6.75 6.75 0 0 1 0-13.5Zm0 12.656A5.913 5.913 0 0 0 28.906 24 5.913 5.913 0 0 0 23 18.094 5.913 5.913 0 0 0 17.094 24 5.913 5.913 0 0 0 23 29.906Zm4.185-6.328h-3.763v-3.763h-.844v4.607h4.607v-.844Z" clip-rule="evenodd"/>
  <path fill="#474747" d="M23.422 23.578h-.25v.25h.25v-.25Zm3.763 0h.25v-.25h-.25v.25Zm-3.763-3.763h.25v-.25h-.25v.25Zm-.844 0v-.25h-.25v.25h.25Zm0 4.607h-.25v.25h.25v-.25Zm4.607 0v.25h.25v-.25h-.25ZM30 24a7 7 0 0 0-7-7v.5a6.5 6.5 0 0 1 6.5 6.5h.5Zm-7 7a7 7 0 0 0 7-7h-.5a6.5 6.5 0 0 1-6.5 6.5v.5Zm-7-7a7 7 0 0 0 7 7v-.5a6.5 6.5 0 0 1-6.5-6.5H16Zm7-7a7 7 0 0 0-7 7h.5a6.5 6.5 0 0 1 6.5-6.5V17Zm5.656 7A5.663 5.663 0 0 1 23 29.656v.5A6.163 6.163 0 0 0 29.156 24h-.5ZM23 18.344A5.663 5.663 0 0 1 28.656 24h.5A6.163 6.163 0 0 0 23 17.844v.5ZM17.344 24A5.663 5.663 0 0 1 23 18.344v-.5A6.163 6.163 0 0 0 16.844 24h.5ZM23 29.656A5.663 5.663 0 0 1 17.344 24h-.5A6.163 6.163 0 0 0 23 30.156v-.5Zm.422-5.828h3.763v-.5h-3.763v.5Zm-.25-4.013v3.763h.5v-3.763h-.5Zm-.594.25h.844v-.5h-.844v.5Zm.25 4.357v-4.607h-.5v4.607h.5Zm4.357-.25h-4.607v.5h4.607v-.5Zm-.25-.594v.844h.5v-.844h-.5Z"/>
</svg>
