<svg xmlns="http://www.w3.org/2000/svg" width="17" height="16" fill="none" viewBox="0 0 17 16">
    <path d="M14.75 14.713c-.219.438-.875 1.186-1.79 1.186a1.84 1.84 0 0 1-.437-.055c-.746-.184-1.026-.726-1.232-1.122-.206-.396-.317-.587-.656-.657-.812-.181-1.622.782-1.628.792a.437.437 0 1 1-.672-.549c.046-.057 1.151-1.39 2.488-1.094.755.167 1.037.713 1.245 1.112.208.398.32.593.656.678.779.19 1.23-.656 1.25-.685a.438.438 0 0 1 .772.396l.004-.002Zm1.532-6.82a.438.438 0 0 1-.61.075s-.688-.5-2.243-.5c-.202.001-.404.016-.604.045.74 1.135 1.072 2.207.514 2.763a.874.874 0 0 1-.396.219l-9.697 5.039a.42.42 0 0 1-.162.048h-.079a1.948 1.948 0 0 1-1.358-.613 1.902 1.902 0 0 1-.61-1.44.462.462 0 0 1 .045-.16L6.09 3.68a.917.917 0 0 1 .237-.41c.757-.75 2.444.126 3.966 1.415a.875.875 0 0 0 .193-.438c.033-.341-.103-.538-.291-.812-.219-.332-.516-.746-.407-1.41C9.983.836 11.287.515 12.026.513a.438.438 0 0 1 0 .875c-.01 0-1.26.02-1.387.78-.05.307.057.478.265.777.324.39.481.89.437 1.394a1.781 1.781 0 0 1-.411.93l.204.2c.4.4.778.823 1.128 1.268.38-.09.77-.136 1.16-.136 1.855 0 2.689.615 2.779.685a.438.438 0 0 1 .08.606Zm-4.78 2.38c-.946-.42-2.04-1.264-2.972-2.187-.932-.923-1.783-2.035-2.199-2.98l-4.437 8.572a1.273 1.273 0 0 0 1.04 1.04l8.567-4.444Zm.437-2.526c-.265.1-.513.242-.733.42a.439.439 0 0 1-.58-.657c.235-.194.494-.356.772-.48a12.75 12.75 0 0 0-.875-.96l-.219-.218a4.95 4.95 0 0 1-.932.54.438.438 0 0 1-.17.035.438.438 0 0 1-.171-.831c.208-.095.408-.207.6-.333-1.34-1.129-2.263-1.409-2.58-1.409a.254.254 0 0 0-.083.014l-.057.105c-.015.356.367 1.634 2.225 3.5 1.857 1.866 3.135 2.24 3.5 2.223l.11-.057c.09-.199-.123-.906-.807-1.892Zm-9.73-4.223c.392 1.505.083 2.293.083 2.297a.438.438 0 0 0 .219.571.438.438 0 0 0 .571-.225c.046-.103.438-1.068-.037-2.862C2.607 1.601 1.495.857 1.45.825a.438.438 0 0 0-.481.723c.041.024.883.609 1.24 1.976Zm12.154-.634a.595.595 0 1 0 0 1.19.595.595 0 0 0 0-1.19ZM1.216 7.948a.595.595 0 1 0-.005 1.19.595.595 0 0 0 .005-1.19Zm13.983 2.783-.795.786.786.787.785-.787-.776-.786ZM5.104.953l-.786.786.786.78.787-.785-.787-.78Z"/>
</svg>
