<svg xmlns="http://www.w3.org/2000/svg" width="24" height="24" viewBox="0 0 24 24">
  <path fill-rule="evenodd" d="M3.5625 17.4829V23.25l4.878-3.0487a9.8811 9.8811 0 0 0 2.1533.2362h2.8124c5.4366 0 9.8438-4.4072 9.8438-9.8437C23.25 5.1572 18.8428.75 13.4062.75h-2.8124C5.1572.75.75 5.1572.75 10.5938c0 2.6821 1.0727 5.1137 2.8125 6.8891Zm4.6215 1.2203-3.2152 2.0096v-3.804l-.4019-.4101c-1.5362-1.5677-2.4107-3.6655-2.4107-5.905 0-4.6599 3.7776-8.4375 8.4376-8.4375h2.8124c4.66 0 8.4376 3.7776 8.4376 8.4375 0 4.66-3.7776 8.4375-8.4376 8.4375h-2.8124c-.628 0-1.246-.0683-1.847-.2024l-.5628-.1256Z" clip-rule="evenodd"/>
</svg>
