<svg xmlns="http://www.w3.org/2000/svg" width="23" height="23" fill="none" viewBox="0 0 23 23">
  <path d="m21.39 9.66 1.196-1.196c.276 1.058.414 2.07.414 3.036 0 1.564-.299 3.059-.897 4.485-.5827 1.3647-1.4107 2.576-2.484 3.634-1.058 1.0733-2.2693 1.9013-3.634 2.484-1.426.598-2.921.897-4.485.897-1.564 0-3.059-.299-4.485-.897-1.3647-.5827-2.5837-1.4107-3.657-2.484C2.3 18.561 1.4797 17.3497.897 15.985.299 14.559 0 13.064 0 11.5c0-1.564.299-3.059.897-4.485.5827-1.3647 1.403-2.576 2.461-3.634C4.4313 2.3077 5.6503 1.4797 7.015.897 8.441.299 9.936 0 11.5 0c2.0547 0 3.979.5213 5.773 1.564l-1.058 1.058c-1.4567-.7973-3.0283-1.196-4.715-1.196-1.8093 0-3.496.46-5.06 1.38-1.518.8893-2.7217 2.093-3.611 3.611-.92 1.564-1.38 3.2583-1.38 5.083s.46 3.519 1.38 5.083c.8893 1.518 2.093 2.7217 3.611 3.611 1.564.92 3.2507 1.38 5.06 1.38 1.8247 0 3.519-.46 5.083-1.38 1.518-.8893 2.7217-2.093 3.611-3.611.92-1.564 1.38-3.2583 1.38-5.083 0-.5827-.0613-1.196-.184-1.84Zm-13.041.322 2.806 2.806 9.568-9.591 1.012 1.012-10.58 10.626-3.841-3.841 1.035-1.012Z"/>
</svg>
