<svg xmlns="http://www.w3.org/2000/svg" width="24" height="24" viewBox="0 0 24 24">
  <path fill="#175D2D" fill-rule="nonzero" d="M4.2679 23.9865H19.732c1.4046 0 2.4671-.358 3.1874-1.0737C23.6398 22.197 24 21.1458 24 19.759V4.241c0-1.3867-.3602-2.4401-1.0805-3.1604C22.1992.3602 21.1367 0 19.7321 0H4.268C2.8723 0 1.812.358 1.0872 1.0737.3624 1.7895 0 2.8452 0 4.241V19.759c0 1.3957.3624 2.4491 1.0872 3.1604.7248.7113 1.785 1.067 3.1807 1.067Zm6.3613-5.686c-.2612 0-.4953-.0563-.7024-.1688-.207-.1126-.4051-.2814-.5942-.5065l-3.0929-3.7681c-.243-.2972-.3646-.6123-.3646-.9455 0-.3421.1193-.6347.3579-.8778.2386-.2431.529-.3647.8711-.3647.2071 0 .3962.045.5673.135.171.0901.3376.2387.4997.4458l2.4175 3.0253 5.1998-8.3197c.2881-.4682.6483-.7023 1.0805-.7023.3331 0 .6303.108.8914.3242.261.216.3916.4997.3916.8508 0 .1531-.0315.3084-.0945.466a2.314 2.314 0 0 1-.2431.4525l-5.9696 9.2515c-.3062.4682-.7113.7023-1.2155.7023Z"/>
</svg>
