<svg width="25" height="25" viewBox="0 0 25 25" fill="none" xmlns="http://www.w3.org/2000/svg">
<g id="circle-warning">
<path id="Vector" d="M12 0C10.448 0 8.95197 0.288 7.51197 0.864C6.08797 1.44 4.81597 2.264 3.69597 3.336C2.59197 4.392 1.71997 5.632 1.07997 7.056C0.439972 8.48 0.0879723 9.96 0.0239723 11.496C-0.0400277 13.032 0.183972 14.528 0.695972 15.984C1.20797 17.44 1.97597 18.752 2.99997 19.92L4.05597 21C5.54397 22.312 7.25597 23.2 9.19197 23.664C11.064 24.128 12.936 24.128 14.808 23.664C16.728 23.2 18.432 22.312 19.92 21L21 19.92C22.024 18.752 22.792 17.44 23.304 15.984C23.832 14.528 24.064 13.032 24 11.496C23.936 9.96 23.584 8.48 22.944 7.056C22.304 5.632 21.424 4.392 20.304 3.336C19.184 2.264 17.912 1.44 16.488 0.864C15.064 0.288 13.568 0 12 0ZM12 1.512C13.904 1.512 15.672 1.992 17.304 2.952C18.888 3.864 20.144 5.112 21.072 6.696C22.032 8.328 22.512 10.096 22.512 12C22.512 13.904 22.032 15.664 21.072 17.28C20.144 18.864 18.888 20.12 17.304 21.048C15.672 22.008 13.904 22.488 12 22.488C10.096 22.488 8.32797 22.008 6.69597 21.048C5.11197 20.136 3.86397 18.888 2.95197 17.304C1.99197 15.672 1.51197 13.904 1.51197 12C1.51197 10.096 1.99197 8.328 2.95197 6.696C3.86397 5.112 5.11197 3.864 6.69597 2.952C8.32797 1.992 10.096 1.512 12 1.512ZM12 15.504C11.728 15.504 11.488 15.6 11.28 15.792C11.088 15.984 10.992 16.216 10.992 16.488C10.992 16.76 11.088 17 11.28 17.208C11.488 17.4 11.728 17.496 12 17.496C12.272 17.496 12.504 17.4 12.696 17.208C12.904 17 13.008 16.76 13.008 16.488C13.008 16.216 12.904 15.984 12.696 15.792C12.504 15.6 12.272 15.504 12 15.504ZM12 5.496C11.728 5.496 11.488 5.6 11.28 5.808C11.088 6 10.992 6.232 10.992 6.504V12.504C10.992 12.776 11.088 13.008 11.28 13.2C11.488 13.392 11.728 13.488 12 13.488C12.272 13.488 12.504 13.392 12.696 13.2C12.904 13.008 13.008 12.776 13.008 12.504V6.504C13.008 6.232 12.904 6 12.696 5.808C12.504 5.6 12.272 5.496 12 5.496Z" fill="#474747"/>
</g>
</svg>
