<svg xmlns="http://www.w3.org/2000/svg" width="20" height="19" fill="none" viewBox="0 0 20 19">
  <path fill-rule="evenodd" d="m.7835 6.1533 9.2247-4.6275 9.2245 4.6304.5173-1.2025L10 .0625.25 4.9595l.5335 1.1938ZM10 9.8125a3.0492 3.0492 0 0 1-3.0469-3.0517c.0027-1.682 1.368-3.0438 3.0501-3.042 1.6821.0017 3.0446 1.3663 3.0437 3.0484C13.046 8.4493 11.6821 9.8125 10 9.8125Zm0-4.9956c-1.0744 0-1.9461.8695-1.9488 1.944A1.9488 1.9488 0 1 0 10 4.8168ZM1.4687 8.596c.0013 1.3453 1.0922 2.4352 2.4375 2.4351a2.4375 2.4375 0 1 0-2.4375-2.4351Zm2.4375-1.389A1.3797 1.3797 0 0 0 2.5265 8.587c0 .762.6177 1.3797 1.3797 1.3797.762 0 1.3797-.6177 1.3797-1.3797 0-.762-.6177-1.3797-1.3797-1.3797Zm9.7501 1.389c.0025 1.3438 1.0913 2.4326 2.4351 2.4351a2.4374 2.4374 0 1 0-.9315-4.6889 2.4372 2.4372 0 0 0-1.5036 2.2538Zm2.4351-1.3866c-.762 0-1.3797.6177-1.3797 1.3797 0 .762.6177 1.3797 1.3797 1.3797.762 0 1.3797-.6177 1.3797-1.3797 0-.762-.6177-1.3797-1.3797-1.3797Zm2.7196 6.3216a7.4233 7.4233 0 0 0-3.2492-.6988 8.2789 8.2789 0 0 0-1.2112.0918v-.2295l-.3218-.1632a9.2056 9.2056 0 0 0-4.0654-.8901 9.246 9.246 0 0 0-3.9948.8569l-.3296.1607v.255a8.4637 8.4637 0 0 0-1.2008-.0892 7.4217 7.4217 0 0 0-3.2492.6987l-.3296.1607v5.269h18.2812v-5.2588l-.3296-.1632ZM2.055 17.7902h3.584v-3.6904a6.9023 6.9023 0 0 0-3.584.3265v3.3639Zm11.1026 0H6.8424v-4.4045a8.2943 8.2943 0 0 1 3.121-.5814 8.2122 8.2122 0 0 1 3.1942.612v4.3739Zm4.7875 0v-3.3639a6.9134 6.9134 0 0 0-3.5945-.3265v3.6904h3.5945Z" clip-rule="evenodd"/>
</svg>
