<svg width="20" height="21" viewBox="0 0 20 21" fill="none" xmlns="http://www.w3.org/2000/svg">
<g clip-path="url(#clip0_11764_212779)">
<path d="M17.95 5.86111L12.7972 0.677778C12.6861 0.563889 12.5333 0.5 12.375 0.5H2.475C2.14444 0.5 1.875 0.769444 1.875 1.10278V19.8972C1.875 20.2306 2.14444 20.5 2.475 20.5H17.525C17.8556 20.5 18.125 20.2306 18.125 19.8972V6.28889C18.125 6.12778 18.0611 5.975 17.95 5.86389V5.86111ZM12.9722 2.55833L16.0778 5.68333H12.9722V2.55833ZM3.07222 19.2944V1.70556H11.7722V6.89167H16.925V19.2944H3.07222ZM9.42778 9.17778V15.2944L7.775 13.6417C7.66111 13.5278 7.51667 13.475 7.36944 13.475C7.22222 13.475 7.075 13.5306 6.96389 13.6417C6.73889 13.8667 6.73889 14.2306 6.96389 14.4528L10.0028 17.4917L13.0417 14.4528C13.2667 14.2278 13.2667 13.8639 13.0417 13.6417C12.8167 13.4194 12.4528 13.4167 12.2306 13.6417L10.5778 15.2944V9.17778H9.43056H9.42778Z" fill="white"/>
</g>
<defs>
<clipPath id="clip0_11764_212779">
<rect width="20" height="20" fill="white" transform="translate(0 0.5)"/>
</clipPath>
</defs>
</svg>
