<svg xmlns="http://www.w3.org/2000/svg" width="247" height="217" viewBox="0 0 247 217" fill="none">
    <path d="M128.562 203.68L52.5319 64.8778L0 82.6566L17.0382 115.788L15.9594 113.937L12.7675 114.997C12.4497 115.103 12.1587 115.277 11.9144 115.506C11.6701 115.736 11.4783 116.015 11.3522 116.326C11.226 116.636 11.1685 116.97 11.1837 117.305C11.1988 117.64 11.2861 117.967 11.4397 118.265L19.8407 134.601C20.3762 135.646 21.2303 136.493 22.2793 137.02C23.3283 137.546 24.5178 137.726 25.6754 137.531L28.0055 137.142L68.9253 216.715L128.562 203.68Z" fill="#415385"/>
    <path d="M177.679 4.94725C176.862 5.39376 175.901 5.498 175.007 5.23712C174.113 4.97625 173.359 4.37154 172.91 3.55559L170.963 -0.000152588L52.5317 64.8779L128.562 203.68L247 138.808L205.608 63.2436C205.161 62.4274 205.057 61.4675 205.318 60.5746C205.579 59.6817 206.184 58.9289 206.999 58.4814C207.404 58.2598 207.761 57.9606 208.05 57.601C208.339 57.2413 208.554 56.8283 208.683 56.3854C208.813 55.9426 208.853 55.4786 208.803 55.02C208.753 54.5614 208.613 54.1171 208.391 53.7127L182.441 6.33891C181.993 5.5234 181.241 4.91881 180.348 4.65789C179.455 4.39696 178.495 4.50104 177.679 4.94725Z" fill="#9AA4BE"/>
    <path d="M52.5321 64.8777L7.13086 29.7288L34.1469 80.4094C34.7853 81.6351 33.0936 81.8649 31.37 80.7796C29.6272 79.688 27.91 79.9306 28.593 81.1691L42.6053 106.64C42.828 107.003 43.121 107.318 43.4672 107.566L50.3105 112.724C50.6665 112.975 50.9647 113.299 51.1851 113.675L79.5353 167.522L128.569 203.68L52.5321 64.8777Z" fill="#9AA4BE"/>
    <path opacity="0.25" d="M52.5321 64.8777L7.13086 29.7288L34.1469 80.4094C34.7853 81.6351 33.0936 81.8649 31.37 80.7796C29.6272 79.688 27.91 79.9306 28.593 81.1691L42.6054 106.64C42.828 107.003 43.121 107.318 43.4672 107.566L50.3105 112.724C50.6665 112.975 50.9647 113.299 51.1851 113.675L79.5353 167.522L128.569 203.68L52.5321 64.8777Z" fill="#415385"/>
    <path d="M183.779 11.7531L85.6982 40.1711L123.761 171.54L221.842 143.122L183.779 11.7531Z" fill="white" stroke="#415385" stroke-width="0.489703" stroke-linecap="round" stroke-linejoin="round"/>
    <line x1="105.491" y1="82.487" x2="188.744" y2="58.365" stroke="#415385" stroke-opacity="0.1" stroke-width="0.489703"/>
    <line x1="116.258" y1="119.645" x2="199.511" y2="95.5231" stroke="#415385" stroke-opacity="0.1" stroke-width="0.489703"/>
    <line x1="122.39" y1="140.811" x2="205.644" y2="116.689" stroke="#415385" stroke-opacity="0.1" stroke-width="0.489703"/>
    <path d="M170.655 18.1189L75.4141 54.9509L124.747 182.516L219.987 145.684L170.655 18.1189Z" fill="white" stroke="#415385" stroke-width="0.489703" stroke-linecap="round" stroke-linejoin="round"/>
    <line x1="98.8087" y1="95.3873" x2="179.651" y2="64.1233" stroke="#415385" stroke-opacity="0.1" stroke-width="0.489703"/>
    <line x1="112.763" y1="131.47" x2="193.605" y2="100.206" stroke="#415385" stroke-opacity="0.1" stroke-width="0.489703"/>
    <line x1="120.711" y1="152.023" x2="201.554" y2="120.759" stroke="#415385" stroke-opacity="0.1" stroke-width="0.489703"/>
    <path d="M149.705 17.1398L61.2129 68.0949L129.462 186.622L217.955 135.667L149.705 17.1398Z" fill="white" stroke="#415385" stroke-width="0.489703" stroke-linecap="round" stroke-linejoin="round"/>
    <path d="M123.067 66.8052L115.428 71.2037C114.725 71.6086 114.483 72.5068 114.888 73.21C115.293 73.9131 116.191 74.1549 116.894 73.75L124.533 69.3515C125.236 68.9466 125.478 68.0484 125.073 67.3453C124.668 66.6421 123.77 66.4004 123.067 66.8052Z" fill="white" stroke="#9AA4BE" stroke-width="0.489703" stroke-linecap="round" stroke-linejoin="round"/>
    <path d="M135.374 59.7187L127.735 64.1173C127.032 64.5221 126.79 65.4203 127.195 66.1235C127.6 66.8266 128.498 67.0684 129.201 66.6635L136.84 62.265C137.543 61.8601 137.785 60.9619 137.38 60.2588C136.975 59.5557 136.077 59.3139 135.374 59.7187Z" fill="white" stroke="#9AA4BE" stroke-width="0.489703" stroke-linecap="round" stroke-linejoin="round"/>
    <path d="M147.68 52.6323L140.042 57.0308C139.339 57.4356 139.097 58.3339 139.502 59.037C139.907 59.7401 140.805 59.9819 141.508 59.577L149.147 55.1785C149.85 54.7736 150.092 53.8754 149.687 53.1723C149.282 52.4692 148.384 52.2274 147.68 52.6323Z" fill="white" stroke="#9AA4BE" stroke-width="0.489703" stroke-linecap="round" stroke-linejoin="round"/>
    <path d="M127.284 47.4243L107.923 58.5729C107.219 58.9778 106.978 59.876 107.382 60.5791L107.814 61.328C108.219 62.0311 109.117 62.2729 109.82 61.868L129.181 50.7195C129.884 50.3146 130.126 49.4164 129.721 48.7133L129.29 47.9644C128.885 47.2613 127.987 47.0195 127.284 47.4243Z" fill="#415385"/>
    <path d="M139.416 46.6562L110.257 63.5127C109.766 63.7968 109.598 64.4255 109.882 64.9169C110.166 65.4083 110.795 65.5764 111.286 65.2923L140.445 48.4358C140.937 48.1517 141.105 47.523 140.821 47.0316C140.537 46.5402 139.908 46.3721 139.416 46.6562Z" fill="#9AA4BE"/>
    <path d="M90.1846 90.6534C90.2422 90.4558 90.3863 90.1467 90.5986 89.7777C90.7356 89.5276 90.8645 89.3231 90.9745 89.157C91.9176 87.6888 93.5161 85.6925 94.914 84.7642C96.6346 83.6227 97.0223 82.7965 98.6966 82.5862C99.2892 82.4848 101.616 81.6934 103.69 81.5473C103.714 81.5406 105.612 81.1602 108.79 82.4417C110.001 78.393 109.621 73.8768 107.345 69.9244C102.959 62.3077 93.2277 59.6881 85.6111 64.0739C77.9945 68.4596 75.3749 78.1913 79.7606 85.8079C81.9624 89.6316 85.5161 92.1973 89.4647 93.2471C89.6417 92.1859 89.9077 91.3269 90.1817 90.6483L90.1846 90.6534Z" fill="#8490B0"/>
    <path d="M108.79 82.4415C105.61 81.1549 103.714 81.5405 103.691 81.5472C101.621 81.6903 99.2896 82.4846 98.6969 82.586C97.0226 82.7963 96.635 83.6226 94.9144 84.7641C93.5164 85.6924 91.9128 87.6916 90.9748 89.1568C90.8597 89.3259 90.7308 89.5304 90.599 89.7776C90.3866 90.1466 90.2425 90.4557 90.185 90.6533C89.908 91.3267 89.645 92.1908 89.468 93.2521C93.3842 94.2933 97.7051 93.8474 101.498 91.6634C105.291 89.4794 107.67 86.1974 108.798 82.4437L108.79 82.4415Z" fill="white"/>
    <path d="M89.213 79.5151C89.213 79.5151 87.2312 77.1682 87.1366 75.0641C87.0182 72.4186 89.5351 69.7564 93.1984 70.251C95.7864 70.6042 97.1631 75.2799 97.1631 75.2799L90.5725 76.0803L89.2079 79.518L89.213 79.5151Z" fill="#9A6C44"/>
    <path d="M98.7897 82.5323L97.9301 85.4189L95.0071 84.7103L92.9947 80.4418L96.1082 78.649L98.7897 82.5323Z" fill="#E9A97F"/>
    <path d="M96.1681 74.2563C95.051 72.3162 92.7494 71.9488 90.8143 73.063C88.8793 74.1773 88.0416 76.3522 89.1588 78.2924C89.1588 78.2924 90.4298 80.8567 90.5009 80.9802C91.5618 82.8226 94.6537 82.9678 96.0484 82.1648C97.6592 81.2373 98.6148 78.1721 97.8087 76.7723C97.7406 76.6539 96.1579 74.2623 96.1579 74.2623L96.1681 74.2563Z" fill="#E9A97F"/>
    <path d="M89.6101 78.67C89.6101 78.67 88.9964 78.6396 88.9183 79.3013C88.8402 79.963 90.0674 81.5588 90.932 81.061C91.7966 80.5631 89.6182 78.6721 89.6182 78.6721L89.6101 78.67Z" fill="#E9A97F"/>
    <path d="M96.2996 74.8179C96.2996 74.8179 96.5814 74.2719 97.1929 74.5365C97.8044 74.8011 98.5685 76.6637 97.7039 77.1615C96.8393 77.6594 96.3026 74.823 96.3026 74.823L96.2996 74.8179Z" fill="#E9A97F"/>
    <line x1="90.5126" y1="104.481" x2="165.627" y2="61.2285" stroke="#415385" stroke-opacity="0.1" stroke-width="0.489703"/>
    <line x1="109.817" y1="138.006" x2="184.932" y2="94.7543" stroke="#415385" stroke-opacity="0.1" stroke-width="0.489703"/>
    <line x1="120.813" y1="157.104" x2="195.928" y2="113.852" stroke="#415385" stroke-opacity="0.1" stroke-width="0.489703"/>
    <path d="M107.397 108.75C108.083 109.942 108.313 111.27 108.144 112.536C108.102 112.854 108.034 113.166 107.942 113.472C106.743 112.987 106.027 113.132 106.018 113.134C105.237 113.189 104.358 113.487 104.134 113.526C104.133 113.526 104.132 113.526 104.13 113.526C104.099 113.531 104.07 113.535 104.041 113.54L104.04 113.541C103.518 113.633 103.342 113.907 102.807 114.28C102.775 114.302 102.743 114.325 102.708 114.348C102.444 114.523 102.161 114.799 101.899 115.1C101.638 115.402 101.398 115.729 101.22 116.006C101.177 116.068 101.129 116.146 101.077 116.241C100.998 116.381 100.943 116.496 100.922 116.571C100.818 116.826 100.717 117.15 100.65 117.552C100.496 117.51 100.344 117.464 100.194 117.411C98.8876 116.95 97.7332 116.039 96.988 114.745C96.5893 114.053 96.3446 113.314 96.242 112.569C95.9185 110.219 97.0131 107.801 99.195 106.544C101.238 105.368 103.683 105.527 105.521 106.75C106.269 107.247 106.917 107.92 107.396 108.752L107.397 108.75Z" fill="#8490B0"/>
    <path d="M107.942 113.472C107.517 114.889 106.572 116.154 105.189 116.951C103.806 117.747 102.13 117.943 100.651 117.55C100.717 117.149 100.818 116.824 100.923 116.569C100.943 116.495 100.999 116.379 101.078 116.239C101.13 116.144 101.178 116.067 101.221 116.004C101.24 115.975 101.259 115.945 101.279 115.915C101.639 115.372 102.208 114.678 102.708 114.346C103.358 113.917 103.504 113.603 104.135 113.524C104.343 113.489 105.109 113.231 105.841 113.149C105.901 113.143 105.96 113.137 106.019 113.133C106.028 113.131 106.744 112.987 107.943 113.471L107.942 113.472Z" fill="#FB7C4D"/>
    <path d="M106.043 112.076C106.029 112.172 105.937 112.758 105.84 113.15C105.107 113.232 104.341 113.49 104.134 113.525C103.502 113.604 103.357 113.917 102.707 114.347C102.206 114.679 101.638 115.373 101.278 115.916L101.186 115.966C101.186 115.966 100.949 115.265 100.005 114.706C99.061 114.148 100.202 113.635 99.0926 112.789C97.9828 111.944 99.5112 112.01 99.0243 111.008C98.6328 110.204 98.7486 109.845 98.752 109.825C99.0211 108.424 100.025 107.741 101.554 107.708C102.547 107.687 102.571 107.769 103.28 108.294C104.272 109.028 103.737 110.21 105.101 110.335C106.165 110.431 106.116 111.576 106.042 112.077L106.043 112.076Z" fill="#9A6C44"/>
    <path d="M107.942 113.472C106.743 112.987 106.027 113.132 106.018 113.135C105.237 113.189 104.359 113.487 104.134 113.526C104.358 113.488 105.237 113.189 106.018 113.135C106.027 113.133 106.743 112.987 107.942 113.472ZM104.13 113.526C104.099 113.53 104.069 113.535 104.04 113.54C104.04 113.54 104.04 113.54 104.041 113.54C104.07 113.535 104.099 113.53 104.129 113.527" fill="#FFB600"/>
    <path d="M102.807 114.279C102.994 114.197 103.18 114.105 103.361 114.001C103.602 113.862 103.828 113.707 104.039 113.539C103.517 113.632 103.341 113.906 102.806 114.279L102.807 114.279Z" fill="#2D2D2D"/>
    <path d="M100.324 112.059C100.324 112.059 99.5753 111.172 99.5394 110.377C99.4954 109.378 100.441 108.268 101.829 108.559C102.796 108.762 103.327 110.46 103.327 110.46L100.838 110.762L100.323 112.06L100.324 112.059Z" fill="#9A6C44"/>
    <path d="M102.951 110.073C102.529 109.34 101.988 108.584 100.729 109.309C99.5777 109.972 99.8818 110.864 100.304 111.597C100.304 111.597 100.785 112.565 100.812 112.611C101.213 113.308 102.575 113.7 103.103 113.396C103.712 113.045 103.877 111.548 103.574 111.02C103.548 110.975 102.951 110.073 102.951 110.073Z" fill="#E9A97F"/>
    <path d="M100.474 111.741C100.474 111.741 100.242 111.729 100.212 111.979C100.181 112.229 100.645 112.832 100.971 112.644C101.298 112.456 100.473 111.741 100.473 111.741L100.474 111.741Z" fill="#E9A97F"/>
    <path d="M103.001 110.286C103.001 110.286 103.107 110.079 103.338 110.179C103.569 110.278 103.858 110.982 103.532 111.17C103.205 111.358 103.001 110.286 103.001 110.286Z" fill="#E9A97F"/>
    <path d="M104.158 113.511L103.835 114.6L102.732 114.333L101.972 112.723L103.148 112.046L104.158 113.511Z" fill="#E9A97F"/>
    <rect x="109.526" y="105.116" width="19.5141" height="1.87635" rx="0.938173" transform="rotate(-29.9339 109.526 105.116)" fill="#415385"/>
    <rect x="111.323" y="108.236" width="11.6371" height="0.862009" rx="0.431004" transform="rotate(-29.9339 111.323 108.236)" fill="#9AA4BE"/>
    <rect x="112.627" y="142.887" width="4.40733" height="0.979406" rx="0.489703" transform="rotate(-29.9339 112.627 142.887)" fill="#9AA4BE"/>
    <rect x="114.338" y="145.857" width="4.40733" height="0.979406" rx="0.489703" transform="rotate(-29.9339 114.338 145.857)" fill="#9AA4BE"/>
    <rect x="116.048" y="148.828" width="4.40733" height="0.979406" rx="0.489703" transform="rotate(-29.9339 116.048 148.828)" fill="#9AA4BE"/>
    <rect x="121.115" y="137.999" width="22.0366" height="0.979406" rx="0.489703" transform="rotate(-29.9339 121.115 137.999)" fill="#9AA4BE"/>
    <rect x="122.825" y="140.97" width="18.119" height="0.979406" rx="0.489703" transform="rotate(-29.9339 122.825 140.97)" fill="#9AA4BE"/>
    <rect x="124.536" y="143.941" width="24.9749" height="0.979406" rx="0.489703" transform="rotate(-29.9339 124.536 143.941)" fill="#9AA4BE"/>
    <rect x="117.759" y="151.798" width="4.40733" height="0.979406" rx="0.489703" transform="rotate(-29.9339 117.759 151.798)" fill="#9AA4BE"/>
    <rect x="126.246" y="146.911" width="24.9749" height="0.979406" rx="0.489703" transform="rotate(-29.9339 126.246 146.911)" fill="#9AA4BE"/>
    <rect x="123.624" y="161.984" width="4.40733" height="0.979406" rx="0.489703" transform="rotate(-29.9339 123.624 161.984)" fill="#9AA4BE"/>
    <rect x="125.334" y="164.954" width="4.40733" height="0.979406" rx="0.489703" transform="rotate(-29.9339 125.334 164.954)" fill="#9AA4BE"/>
    <rect x="127.044" y="167.925" width="4.40733" height="0.979406" rx="0.489703" transform="rotate(-29.9339 127.044 167.925)" fill="#9AA4BE"/>
    <rect x="132.111" y="157.096" width="24.9749" height="0.979406" rx="0.489703" transform="rotate(-29.9339 132.111 157.096)" fill="#9AA4BE"/>
    <rect x="133.821" y="160.067" width="18.119" height="0.979406" rx="0.489703" transform="rotate(-29.9339 133.821 160.067)" fill="#9AA4BE"/>
    <rect x="135.532" y="163.038" width="16.1602" height="0.979406" rx="0.489703" transform="rotate(-29.9339 135.532 163.038)" fill="#9AA4BE"/>
    <rect x="128.755" y="170.896" width="4.40733" height="0.979406" rx="0.489703" transform="rotate(-29.9339 128.755 170.896)" fill="#9AA4BE"/>
    <rect x="137.243" y="166.008" width="22.0366" height="0.979406" rx="0.489703" transform="rotate(-29.9339 137.243 166.008)" fill="#9AA4BE"/>
    <rect x="116.368" y="116.999" width="17.4118" height="1.87635" rx="0.938173" transform="rotate(-29.9339 116.368 116.999)" fill="#415385"/>
    <rect x="118.165" y="120.119" width="11.6371" height="0.862009" rx="0.431004" transform="rotate(-29.9339 118.165 120.119)" fill="#9AA4BE"/>
    <path d="M108.527 128.086C108.687 127.471 109.278 127.014 109.851 126.635C110.5 126.205 110.646 125.893 111.278 125.813C111.619 125.718 112.361 125.376 113.026 125.422C113.026 125.422 113.76 125.31 115.025 125.957C115.558 124.381 115.436 122.594 114.541 121.039C112.886 118.165 109.214 117.176 106.34 118.831C103.466 120.486 102.477 124.158 104.132 127.032C105.047 128.621 106.578 129.632 108.25 129.941C108.248 128.665 108.527 128.086 108.527 128.086Z" fill="#8490B0"/>
    <path d="M109.61 121.17C109.61 121.17 106.568 122.012 106.676 122.878C106.932 124.929 107.071 127.722 107.525 129.759C107.762 129.834 108.007 129.895 108.252 129.94C109.606 130.189 113.366 128.529 113.775 128.084C113.826 125.083 109.612 121.169 109.612 121.169L109.61 121.17Z" fill="#434343"/>
    <path d="M115.024 125.955C113.759 125.308 113.024 125.419 113.024 125.419C112.359 125.374 111.618 125.716 111.277 125.811C110.645 125.891 110.499 126.203 109.85 126.633C109.275 127.013 108.684 127.47 108.526 128.084C108.526 128.084 108.247 128.66 108.249 129.939C109.603 130.189 111.046 129.978 112.332 129.238C113.617 128.498 114.574 127.293 115.024 125.955Z" fill="#FB7C4D"/>
    <path d="M107.403 124.221C107.403 124.221 106.68 123.414 106.644 122.62C106.599 121.622 107.521 120.434 108.907 120.725C109.871 120.928 110.403 122.623 110.403 122.623L107.918 122.924L107.403 124.221Z" fill="#434343"/>
    <path d="M111.278 125.814C111.278 125.814 110.694 126.74 109.851 126.636L109.093 125.027L110.269 124.349L111.28 125.813L111.278 125.814Z" fill="#9A6C44"/>
    <path d="M110.028 122.238C109.607 121.506 108.738 121.367 108.008 121.788C107.278 122.208 106.962 123.029 107.383 123.761C107.383 123.761 107.863 124.729 107.89 124.775C108.59 125.991 109.651 125.863 110.178 125.56C110.786 125.21 111.289 124.302 110.647 123.187C110.622 123.143 110.024 122.24 110.024 122.24L110.028 122.238Z" fill="#9A6C44"/>
    <path d="M107.554 123.904C107.554 123.904 107.322 123.892 107.291 124.14C107.261 124.388 107.725 124.992 108.051 124.804C108.378 124.616 107.556 123.903 107.556 123.903L107.554 123.904Z" fill="#9A6C44"/>
    <path d="M110.078 122.45C110.078 122.45 110.185 122.244 110.414 122.342C110.645 122.442 110.933 123.144 110.607 123.332C110.281 123.52 110.076 122.451 110.076 122.451L110.078 122.45Z" fill="#9A6C44"/>
</svg>
