<svg xmlns="http://www.w3.org/2000/svg" width="16" height="16" viewBox="0 0 16 16" fill="none">
  <path d="M11.9677 11.097C11.8397 11.097 11.7171 11.0596 11.5997 10.985C11.4931 10.9103 11.4077 10.8143 11.3437 10.697C11.2904 10.5796 11.2691 10.457 11.2797 10.329C11.3011 10.201 11.3491 10.0836 11.4237 9.97696C11.6371 9.69963 11.9411 9.48629 12.3357 9.33696C12.7304 9.17696 13.1624 9.09696 13.6317 9.09696C14.1117 9.09696 14.5491 9.17696 14.9437 9.33696C15.3384 9.48629 15.6424 9.69963 15.8557 9.97696C15.9411 10.0836 15.9891 10.2063 15.9997 10.345C16.0104 10.473 15.9837 10.5956 15.9197 10.713C15.8664 10.8303 15.7811 10.9263 15.6637 11.001C15.5571 11.065 15.4397 11.097 15.3117 11.097H11.9677ZM13.6317 9.75296C13.2691 9.75296 12.9331 9.81163 12.6237 9.92896C12.3251 10.0463 12.1011 10.201 11.9517 10.393V10.409H15.3117V10.393C15.1624 10.1903 14.9331 10.0356 14.6237 9.92896C14.3251 9.81163 13.9944 9.75296 13.6317 9.75296ZM13.6317 8.74496C13.3117 8.74496 13.0397 8.63296 12.8157 8.40896C12.5917 8.18496 12.4797 7.91296 12.4797 7.59296C12.4797 7.27296 12.5917 7.00096 12.8157 6.77696C13.0397 6.55296 13.3117 6.44096 13.6317 6.44096C13.9517 6.44096 14.2237 6.55296 14.4477 6.77696C14.6717 7.00096 14.7837 7.27296 14.7837 7.59296C14.7837 7.91296 14.6717 8.18496 14.4477 8.40896C14.2237 8.63296 13.9517 8.74496 13.6317 8.74496ZM13.6317 7.11296C13.5357 7.11296 13.4451 7.13962 13.3597 7.19296C13.2744 7.24629 13.2104 7.32096 13.1677 7.41696C13.1357 7.50229 13.1304 7.59296 13.1517 7.68896C13.1731 7.78496 13.2157 7.87029 13.2797 7.94496C13.3544 8.00896 13.4397 8.05162 13.5357 8.07296C13.6317 8.09429 13.7224 8.08362 13.8077 8.04096C13.9037 7.99829 13.9784 7.93963 14.0317 7.86496C14.0851 7.77962 14.1117 7.68896 14.1117 7.59296C14.1117 7.45429 14.0637 7.34229 13.9677 7.25696C13.8717 7.16096 13.7597 7.11296 13.6317 7.11296ZM4.01574 11.097H0.687737C0.559737 11.097 0.43707 11.065 0.319737 11.001C0.21307 10.9263 0.127737 10.8303 0.063737 10.713C0.0104036 10.5956 -0.0109297 10.473 -0.000263021 10.345C0.0104036 10.2063 0.0584036 10.0836 0.143737 9.97696C0.35707 9.69963 0.66107 9.48629 1.05574 9.33696C1.4504 9.17696 1.8824 9.09696 2.35174 9.09696C2.83174 9.09696 3.26374 9.17696 3.64774 9.33696C4.0424 9.48629 4.35174 9.69963 4.57574 9.97696C4.6504 10.0836 4.69307 10.2063 4.70374 10.345C4.7144 10.473 4.69307 10.5956 4.63974 10.713C4.5864 10.8196 4.50107 10.9103 4.38374 10.985C4.27707 11.0596 4.1544 11.097 4.01574 11.097ZM2.36774 9.75296C2.00507 9.75296 1.66907 9.81163 1.35974 9.92896C1.06107 10.0463 0.83707 10.201 0.687737 10.393C0.67707 10.393 0.671737 10.3983 0.671737 10.409C0.671737 10.409 0.67707 10.409 0.687737 10.409H4.04774V10.393C3.8984 10.1903 3.66907 10.0356 3.35974 9.92896C3.06107 9.81163 2.7304 9.75296 2.36774 9.75296ZM2.36774 8.74496C2.04774 8.74496 1.7704 8.63296 1.53574 8.40896C1.31174 8.18496 1.19974 7.91296 1.19974 7.59296C1.19974 7.27296 1.31174 7.00096 1.53574 6.77696C1.7704 6.55296 2.0424 6.44096 2.35174 6.44096C2.67174 6.44096 2.94374 6.55296 3.16774 6.77696C3.4024 7.00096 3.51974 7.27296 3.51974 7.59296C3.51974 7.91296 3.4024 8.18496 3.16774 8.40896C2.94374 8.63296 2.67707 8.74496 2.36774 8.74496ZM2.36774 7.11296C2.26107 7.11296 2.16507 7.13962 2.07974 7.19296C2.00507 7.24629 1.9464 7.32096 1.90374 7.41696C1.87174 7.50229 1.86107 7.59296 1.87174 7.68896C1.89307 7.78496 1.94107 7.87029 2.01574 7.94496C2.0904 8.00896 2.17574 8.05162 2.27174 8.07296C2.36774 8.09429 2.4584 8.08362 2.54374 8.04096C2.62907 7.99829 2.6984 7.93963 2.75174 7.86496C2.81574 7.77962 2.84774 7.68896 2.84774 7.59296C2.84774 7.45429 2.79974 7.34229 2.70374 7.25696C2.60774 7.16096 2.49574 7.11296 2.36774 7.11296ZM6.22374 5.16096C6.09574 5.16096 5.97307 5.12896 5.85574 5.06496C5.74907 4.99029 5.66374 4.89963 5.59974 4.79296C5.5464 4.67562 5.52507 4.55296 5.53574 4.42496C5.5464 4.28629 5.5944 4.16363 5.67974 4.05696C5.89307 3.77963 6.19707 3.56629 6.59174 3.41696C6.9864 3.25696 7.4184 3.17696 7.88774 3.17696C8.36774 3.17696 8.80507 3.25696 9.19974 3.41696C9.5944 3.56629 9.8984 3.77963 10.1117 4.05696C10.1971 4.16363 10.2451 4.28096 10.2557 4.40896C10.2664 4.53696 10.2397 4.65962 10.1757 4.77696C10.1224 4.89429 10.0371 4.99029 9.91974 5.06496C9.81307 5.12896 9.69574 5.16096 9.56774 5.16096H6.22374ZM7.90374 3.83296C7.54107 3.83296 7.20507 3.89163 6.89574 4.00896C6.59707 4.12629 6.37307 4.28096 6.22374 4.47296V4.48896L6.23974 4.50496H9.56774C9.5784 4.50496 9.58374 4.49963 9.58374 4.48896V4.47296C9.4344 4.28096 9.20507 4.12629 8.89574 4.00896C8.59707 3.89163 8.2664 3.83296 7.90374 3.83296ZM7.90374 2.82496C7.66907 2.82496 7.4504 2.76096 7.24774 2.63296C7.05574 2.49429 6.91707 2.31829 6.83174 2.10496C6.7464 1.89163 6.72507 1.67296 6.76774 1.44896C6.8104 1.21429 6.91174 1.01696 7.07174 0.856958C7.2424 0.686292 7.43974 0.579625 7.66374 0.536958C7.8984 0.494292 8.1224 0.515625 8.33574 0.600959C8.54907 0.686292 8.71974 0.830292 8.84774 1.03296C8.9864 1.22496 9.05574 1.43829 9.05574 1.67296C9.05574 1.99296 8.94374 2.26496 8.71974 2.48896C8.49574 2.71296 8.22374 2.82496 7.90374 2.82496ZM7.90374 1.17696C7.79707 1.17696 7.70107 1.20896 7.61574 1.27296C7.54107 1.32629 7.4824 1.39563 7.43974 1.48096C7.40774 1.56629 7.39707 1.66229 7.40774 1.76896C7.42907 1.86496 7.47707 1.95029 7.55174 2.02496C7.6264 2.08896 7.71174 2.13163 7.80774 2.15296C7.90374 2.17429 7.9944 2.16363 8.07974 2.12096C8.17574 2.07829 8.2504 2.01963 8.30374 1.94496C8.35707 1.85962 8.38374 1.76896 8.38374 1.67296C8.38374 1.53429 8.33574 1.42229 8.23974 1.33696C8.14374 1.24096 8.03174 1.18763 7.90374 1.17696ZM6.44774 15.481C6.30907 15.481 6.18107 15.4436 6.06374 15.369C5.95707 15.305 5.87707 15.2143 5.82374 15.097C5.7704 14.9796 5.74907 14.857 5.75974 14.729C5.7704 14.601 5.81307 14.4836 5.88774 14.377C6.10107 14.0996 6.40507 13.881 6.79974 13.721C7.20507 13.561 7.6424 13.481 8.11174 13.481C8.58107 13.481 9.01307 13.561 9.40774 13.721C9.81307 13.881 10.1224 14.0996 10.3357 14.377C10.4104 14.4836 10.4531 14.601 10.4637 14.729C10.4744 14.857 10.4531 14.9796 10.3997 15.097C10.3464 15.2143 10.2611 15.305 10.1437 15.369C10.0371 15.4436 9.9144 15.481 9.77574 15.481H6.44774ZM8.09574 14.153C7.7224 14.153 7.38107 14.2063 7.07174 14.313C6.77307 14.4303 6.5544 14.585 6.41574 14.777V14.809H9.77574V14.777C9.6264 14.585 9.39707 14.4303 9.08774 14.313C8.78907 14.2063 8.4584 14.153 8.09574 14.153ZM8.09574 13.145C7.77574 13.145 7.50374 13.033 7.27974 12.809C7.05574 12.5743 6.94374 12.3023 6.94374 11.993C6.94374 11.673 7.05574 11.401 7.27974 11.177C7.50374 10.9423 7.7704 10.825 8.07974 10.825C8.39974 10.825 8.67174 10.9423 8.89574 11.177C9.1304 11.401 9.24774 11.673 9.24774 11.993C9.24774 12.3023 9.1304 12.5743 8.89574 12.809C8.67174 13.033 8.40507 13.145 8.09574 13.145ZM8.09574 11.497C7.95707 11.497 7.83974 11.545 7.74374 11.641C7.64774 11.737 7.59974 11.8543 7.59974 11.993C7.59974 12.121 7.64774 12.233 7.74374 12.329C7.83974 12.425 7.95174 12.473 8.07974 12.473C8.2184 12.473 8.33574 12.4303 8.43174 12.345C8.52774 12.249 8.57574 12.1316 8.57574 11.993C8.57574 11.8543 8.53307 11.737 8.44774 11.641C8.3624 11.545 8.24507 11.497 8.09574 11.497ZM2.73574 5.75296C2.67174 5.75296 2.61307 5.73696 2.55974 5.70496C2.48507 5.66229 2.43174 5.59829 2.39974 5.51296C2.3784 5.42763 2.38907 5.34763 2.43174 5.27296C2.86907 4.50496 3.42374 3.85963 4.09574 3.33696C4.2024 3.25162 4.31974 3.23029 4.44774 3.27296C4.50107 3.29429 4.54374 3.33163 4.57574 3.38496C4.6184 3.43829 4.64507 3.49696 4.65574 3.56096C4.6664 3.61429 4.65574 3.67296 4.62374 3.73696C4.6024 3.79029 4.56507 3.83296 4.51174 3.86496C3.89307 4.33429 3.39707 4.91029 3.02374 5.59296C2.94907 5.69962 2.85307 5.75296 2.73574 5.75296ZM13.2637 5.75296C13.1251 5.75296 13.0291 5.69429 12.9757 5.57696C12.5704 4.89429 12.0744 4.31829 11.4877 3.84896C11.4131 3.79563 11.3704 3.72629 11.3597 3.64096C11.3491 3.54496 11.3704 3.45963 11.4237 3.38496C11.4771 3.31029 11.5464 3.26763 11.6317 3.25696C11.7277 3.24629 11.8131 3.26763 11.8877 3.32096C12.5704 3.84362 13.1251 4.48896 13.5517 5.25696C13.6157 5.36363 13.6104 5.47562 13.5357 5.59296C13.4717 5.69962 13.3811 5.75296 13.2637 5.75296ZM4.30374 14.249C4.23974 14.249 4.1704 14.2223 4.09574 14.169C3.42374 13.6463 2.86907 13.001 2.43174 12.233C2.3784 12.1156 2.38374 12.009 2.44774 11.913C2.50107 11.7956 2.59707 11.737 2.73574 11.737C2.86374 11.7583 2.95974 11.817 3.02374 11.913C3.39707 12.5956 3.89307 13.1716 4.51174 13.641C4.56507 13.6943 4.6024 13.753 4.62374 13.817C4.64507 13.881 4.64507 13.945 4.62374 14.009C4.6024 14.0836 4.55974 14.1423 4.49574 14.185C4.4424 14.2276 4.3784 14.249 4.30374 14.249ZM11.6797 14.249C11.5731 14.249 11.4877 14.201 11.4237 14.105C11.3597 14.041 11.3384 13.961 11.3597 13.865C11.3597 13.7796 11.4024 13.705 11.4877 13.641C12.0744 13.193 12.5704 12.617 12.9757 11.913C12.9971 11.8596 13.0344 11.817 13.0877 11.785C13.1411 11.7423 13.1997 11.721 13.2637 11.721C13.4024 11.721 13.5037 11.7796 13.5677 11.897C13.6317 12.0036 13.6264 12.1156 13.5517 12.233C13.1251 13.001 12.5704 13.6463 11.8877 14.169C11.8131 14.2223 11.7437 14.249 11.6797 14.249Z" />
</svg>
