<svg xmlns="http://www.w3.org/2000/svg" width="20" height="21" viewBox="0 0 20 21" fill="none">
    <path d="M9.99963 0C8.7063 0 7.45963 0.24 6.25963 0.72C5.07296 1.2 4.01296 1.88667 3.07963 2.78C2.15963 3.66 1.43296 4.69333 0.899631 5.88C0.366298 7.06667 0.0729644 8.3 0.0196311 9.58C-0.0337023 10.86 0.152964 12.1067 0.579631 13.32C1.0063 14.5333 1.6463 15.6267 2.49963 16.6L3.37963 17.5C4.61963 18.5933 6.0463 19.3333 7.65963 19.72C9.21963 20.1067 10.7796 20.1067 12.3396 19.72C13.9396 19.3333 15.3596 18.5933 16.5996 17.5L17.4996 16.6C18.353 15.6267 18.993 14.5333 19.4196 13.32C19.8596 12.1067 20.053 10.86 19.9996 9.58C19.9463 8.3 19.653 7.06667 19.1196 5.88C18.5863 4.69333 17.853 3.66 16.9196 2.78C15.9863 1.88667 14.9263 1.2 13.7396 0.72C12.553 0.24 11.3063 0 9.99963 0ZM9.99963 1.26C11.5863 1.26 13.0596 1.66 14.4196 2.46C15.7396 3.22 16.7863 4.26 17.5596 5.58C18.3596 6.94 18.7596 8.41333 18.7596 10C18.7596 11.5867 18.3596 13.0533 17.5596 14.4C16.7863 15.72 15.7396 16.7667 14.4196 17.54C13.0596 18.34 11.5863 18.74 9.99963 18.74C8.41296 18.74 6.93963 18.34 5.57963 17.54C4.25963 16.78 3.21963 15.74 2.45963 14.42C1.65963 13.06 1.25963 11.5867 1.25963 10C1.25963 8.41333 1.65963 6.94 2.45963 5.58C3.21963 4.26 4.25963 3.22 5.57963 2.46C6.93963 1.66 8.41296 1.26 9.99963 1.26ZM9.99963 12.92C9.77296 12.92 9.57296 13 9.39963 13.16C9.23963 13.32 9.15963 13.5133 9.15963 13.74C9.15963 13.9667 9.23963 14.1667 9.39963 14.34C9.57296 14.5 9.77296 14.58 9.99963 14.58C10.2263 14.58 10.4196 14.5 10.5796 14.34C10.753 14.1667 10.8396 13.9667 10.8396 13.74C10.8396 13.5133 10.753 13.32 10.5796 13.16C10.4196 13 10.2263 12.92 9.99963 12.92ZM9.99963 4.58C9.77296 4.58 9.57296 4.66667 9.39963 4.84C9.23963 5 9.15963 5.19333 9.15963 5.42V10.42C9.15963 10.6467 9.23963 10.84 9.39963 11C9.57296 11.16 9.77296 11.24 9.99963 11.24C10.2263 11.24 10.4196 11.16 10.5796 11C10.753 10.84 10.8396 10.6467 10.8396 10.42V5.42C10.8396 5.19333 10.753 5 10.5796 4.84C10.4196 4.66667 10.2263 4.58 9.99963 4.58Z"/>
</svg>
