<svg xmlns="http://www.w3.org/2000/svg" width="20" height="20" viewBox="0 0 20 20" fill="none">
  <path d="M5 17.18C5.72 17.6867 6.5 18.0733 7.34 18.34C8.19333 18.62 9.08 18.76 10 18.76C10.92 18.76 11.8 18.62 12.64 18.34C13.4933 18.0733 14.28 17.6867 15 17.18C14.28 16.6867 13.5 16.3067 12.66 16.04C11.7933 15.76 10.9067 15.62 10 15.62C9.09333 15.62 8.20667 15.76 7.34 16.04C6.5 16.3067 5.72 16.6867 5 17.18ZM4 16.38C4.85333 15.74 5.78667 15.2467 6.8 14.9C7.82667 14.5533 8.89333 14.38 10 14.38C11.1067 14.38 12.18 14.5533 13.22 14.9C14.22 15.2467 15.1467 15.74 16 16.38C16.8667 15.5667 17.54 14.62 18.02 13.54C18.5133 12.42 18.76 11.24 18.76 10C18.76 8.41333 18.36 6.94 17.56 5.58C16.7867 4.26 15.74 3.21333 14.42 2.44C13.06 1.64 11.5867 1.24 10 1.24C8.41333 1.24 6.94 1.64 5.58 2.44C4.26 3.21333 3.22 4.26 2.46 5.58C1.66 6.94 1.26 8.41333 1.26 10C1.26 11.24 1.50667 12.42 2 13.54C2.46667 14.62 3.13333 15.5667 4 16.38ZM10 20C8.64 20 7.34 19.74 6.1 19.22C4.91333 18.7133 3.85333 17.9933 2.92 17.06C2 16.14 1.28667 15.0867 0.78 13.9C0.26 12.66 0 11.36 0 10C0 8.64 0.26 7.34 0.78 6.1C1.28667 4.91333 2 3.86 2.92 2.94C3.85333 2.00667 4.91333 1.28667 6.1 0.779999C7.34 0.26 8.64 0 10 0C11.36 0 12.66 0.26 13.9 0.779999C15.0867 1.28667 16.14 2.00667 17.06 2.94C17.9933 3.86 18.7133 4.91333 19.22 6.1C19.74 7.34 20 8.64 20 10C20 11.36 19.74 12.66 19.22 13.9C18.7133 15.0867 17.9933 16.14 17.06 17.06C16.14 17.9933 15.0867 18.7133 13.9 19.22C12.66 19.74 11.36 20 10 20ZM10 11.88C9.44 11.88 8.92 11.74 8.44 11.46C7.96 11.18 7.58 10.8 7.3 10.32C7.02 9.84 6.88 9.32 6.88 8.76C6.88 8.18667 7.02 7.66 7.3 7.18C7.58 6.7 7.96 6.32 8.44 6.04C8.92 5.76 9.44 5.62 10 5.62C10.56 5.62 11.08 5.76 11.56 6.04C12.04 6.32 12.42 6.7 12.7 7.18C12.98 7.66 13.12 8.18667 13.12 8.76C13.12 9.32 12.98 9.84 12.7 10.32C12.42 10.8 12.04 11.18 11.56 11.46C11.08 11.74 10.56 11.88 10 11.88ZM10 10.62C10.52 10.62 10.96 10.44 11.32 10.08C11.6933 9.70667 11.88 9.26667 11.88 8.76C11.88 8.24 11.6933 7.8 11.32 7.44C10.96 7.06667 10.52 6.88 10 6.88C9.48 6.88 9.03333 7.06667 8.66 7.44C8.3 7.8 8.12 8.24 8.12 8.76C8.12 9.26667 8.3 9.70667 8.66 10.08C9.03333 10.44 9.48 10.62 10 10.62Z" fill="white"/>
</svg>
