<svg xmlns="http://www.w3.org/2000/svg" width="18" height="13" fill="none" viewBox="0 0 18 13">
    <path fill-rule="evenodd" d="m18 6.69-4.757-4.583C10.9-.15 7.1-.15 4.757 2.107L0 6.69l4.757 4.583c2.343 2.258 6.143 2.258 8.486 0L18 6.69Zm-5.532-3.756 3.898 3.756-3.898 3.755c-1.909 1.84-5.027 1.84-6.936 0L1.634 6.69l3.898-3.756c1.909-1.838 5.027-1.838 6.936 0ZM9 3.837c1.553 0 2.813 1.278 2.813 2.853 0 1.576-1.26 2.853-2.813 2.853-1.553 0-2.813-1.277-2.813-2.853 0-1.575 1.26-2.853 2.813-2.853Zm1.688 2.853c0 .944-.757 1.712-1.688 1.712-.93 0-1.688-.768-1.688-1.712S8.07 4.98 9 4.98c.93 0 1.688.767 1.688 1.711Z" clip-rule="evenodd"/>
</svg>
