<svg xmlns="http://www.w3.org/2000/svg" width="20" height="19" fill="none" viewBox="0 0 20 19">
    <path fill-rule="evenodd" d="m.784 6.153 9.224-4.627 9.225 4.63.517-1.202L10 .063.25 4.96l.534 1.193ZM10 9.813A3.05 3.05 0 0 1 6.953 6.76 3.047 3.047 0 1 1 10 9.812Zm0-4.996a1.949 1.949 0 1 0 0 3.897 1.949 1.949 0 0 0 0-3.897Zm-8.531 3.78a2.437 2.437 0 1 0 4.874-.005 2.437 2.437 0 0 0-4.874.004Zm2.437-1.39a1.38 1.38 0 1 0 0 2.76 1.38 1.38 0 0 0 0-2.76Zm9.75 1.39a2.437 2.437 0 1 0 4.875-.004 2.437 2.437 0 0 0-4.875.003Zm2.435-1.388a1.38 1.38 0 1 0 0 2.76 1.38 1.38 0 0 0 0-2.76Zm2.72 6.322a7.423 7.423 0 0 0-3.25-.699c-.405.001-.81.032-1.21.092v-.23l-.322-.163a9.206 9.206 0 0 0-4.066-.89 9.246 9.246 0 0 0-3.994.857l-.33.16v.256a8.464 8.464 0 0 0-1.2-.09 7.422 7.422 0 0 0-3.25.7l-.33.16v5.27h18.282v-5.26l-.33-.163Zm-16.756 4.26h3.584V14.1a6.902 6.902 0 0 0-3.584.326v3.364Zm11.103 0H6.842v-4.405a8.294 8.294 0 0 1 3.121-.582 8.212 8.212 0 0 1 3.195.612v4.374Zm4.787 0v-3.365a6.913 6.913 0 0 0-3.594-.326v3.69h3.594Z" clip-rule="evenodd"/>
</svg>
