<svg xmlns="http://www.w3.org/2000/svg" width="25" height="18" fill="none" viewBox="0 0 25 18">
    <path fill-rule="evenodd" d="M15.258 5.251c.355 2.124 2.169 3.75 4.362 3.75 2.446 0 4.436-2.02 4.436-4.501 0-2.481-1.99-4.5-4.436-4.5-2.194 0-4.008 1.627-4.362 3.751H.394v1.5h14.864Zm1.404-.751c0-1.654 1.327-3 2.958-3 1.63 0 2.957 1.346 2.957 3s-1.327 3-2.957 3c-1.631 0-2.958-1.346-2.958-3ZM4.844 9c2.207 0 4.03 1.638 4.377 3.773h14.835v1.5H9.216C8.851 16.386 7.036 18 4.844 18c-2.453 0-4.45-2.018-4.45-4.5S2.391 9 4.844 9Zm2.945 4.5c0 1.654-1.327 3-2.958 3-1.63 0-2.958-1.346-2.958-3s1.327-3 2.958-3c1.63 0 2.958 1.346 2.958 3Z" clip-rule="evenodd"/>
</svg>
