<svg xmlns="http://www.w3.org/2000/svg" width="15" height="16" fill="none" viewBox="0 0 15 16">
  <path fill-rule="evenodd" d="M13.8158 6.2589c-.1635-.862-.344-1.8327-.4891-2.6526-.0535-.4083-.2593-.7776-.5721-1.0265-.3128-.2489-.7069-.357-1.0957-.3007l-.1728.026c-.3876.0577-.7374.275-.9724.6039-.2349.3288-.3358.7423-.2803 1.1494l.1543.7454L6.222.4286C5.9866.1813 5.6672.0427 5.3342.0433c-.3329.0006-.6519.1404-.8864.3885l-.0432.0454c-.19.2006-.3142.4593-.3549.739-.4806-.248-1.0582-.147-1.4364.251l-.034.0357c-.5095.5213-.5388 1.3714-.0663 1.93l.0108.0113c-.269.0524-.5167.1885-.7112.3905l-.0386.0405c-.4806.5082-.4867 1.3264-.0139 1.8425-.2369.0513-.4542.1747-.6248.3548l-.057.06C.5742 6.6548.5477 7.5 1.018 8.056l4.9942 5.2453c.844.8864 1.8128 1.904 3.2569 2.0531 1.3449.1305 2.6761-.3687 3.638-1.3644l.3518-.3695c.6746-.7317 1.1341-1.6521 1.3237-2.651.2222-1.0987-.0694-2.1017-.3626-3.0578a12.0121 12.0121 0 0 1-.327-1.2477l-.0772-.4051Zm-4.4542 8.1912c-1.1478-.1134-1.9609-.9674-2.7462-1.7922L1.6259 7.4175c-.142-.2087-.1164-.4953.0602-.6725l.0447-.047a.4008.4008 0 0 1 .292-.1295.4006.4006 0 0 1 .2927.1279L5.247 9.7752c.2343.2461.6143.2461.8486 0a.5308.5308 0 0 0 .1542-.3792c-.007-.1749-.0857-.338-.216-.4472L2.382 5.1132c-.1536-.1606-.1617-.419-.0185-.5898l.0447-.047c.1688-.1854.4416-.2123.6403-.0632l3.6642 3.8485c.1033.1289.2532.2064.4135.2139.1385-.0005.2708-.0609.3656-.1669.2344-.2461.2344-.6451 0-.8912l-4.3862-4.607c-.143-.2083-.1173-.4956.0601-.6724l.0463-.0486a.3964.3964 0 0 1 .5801 0l4.3986 4.6198c.1053.127.255.2035.415.2123.1358.0008.2658-.0572.3595-.1604.2344-.2461.2344-.6451 0-.8912L5.0047 1.7103c-.1579-.1657-.1606-.4335-.0062-.6028l.0432-.0454a.4005.4005 0 0 1 .29-.1261.4005.4005 0 0 1 .2901.1261l4.8677 5.1125c.166.2335.4705.3028.7137.1624.2432-.1403.3507-.4474.2521-.7198l-.3827-1.6982c-.0375-.3563.2007-.6796.5385-.7309l.1728-.0259.0077-.008a.6138.6138 0 0 1 .468.1425c.1317.111.2159.2725.234.4489.1435.8377.3302 1.8213.4952 2.6883l.0772.405c.0955.454.2134.9024.3533 1.3434l.0269.0923c.2526.866.4885 1.6746.3171 2.515-.1598.8295-.5432 1.5933-1.1046 2.2005l-.3379.3549c-.784.8069-1.8661 1.211-2.9592 1.1051Z" clip-rule="evenodd"/>
</svg>
