<svg xmlns="http://www.w3.org/2000/svg" width="15" height="15" fill="none" viewBox="0 0 15 15">
  <path fill-rule="evenodd" d="M7.5 0C11.6419 0 15 3.3581 15 7.5S11.6419 15 7.5 15 0 11.6419 0 7.5 3.3581 0 7.5 0Zm2.8408 4.1452.1242-.0169.0032.0032a.758.758 0 0 1 .8477.6602c.1142.65.2724 1.4362.404 2.09l.0056.0276c.0601.3057.1532.6038.2457.9.1996.6385.3963 1.268.2524 1.9443a3.3558 3.3558 0 0 1-.8688 1.6585l-.24.24a3.026 3.026 0 0 1-2.3735.8403c-.914-.0884-1.5448-.7023-2.164-1.3215L2.9707 7.5643c-.2316-.2316-.1874-.655.0463-.8887l.0327-.0327a.5957.5957 0 0 1 .8424 0l2.1166 2.1166a.1251.1251 0 0 0 .179-.0021c.0474-.0474.0073-.0874-.0432-.138L3.5057 5.9807a.5957.5957 0 0 1 0-.8424l.0315-.0316c.2338-.2338.656-.2812.8898-.0474L7.066 7.6981l.0084.0084c.0463.0467.0819.0824.1296.0347a.1281.1281 0 0 0 .001-.1821L4.0459 4.4c-.2317-.2317-.1875-.655.0473-.8899l.0316-.0316a.5957.5957 0 0 1 .8424 0l3.159 3.159.0084.0084c.0463.0467.082.0825.1307.0338a.128.128 0 0 0 0-.1811L5.4085 3.6418a.5957.5957 0 0 1 0-.8424l.0315-.0316a.5957.5957 0 0 1 .8424 0l3.5214 3.5213a.0938.0938 0 0 0 .0873.0285.0983.0983 0 0 0 .077-.1148l-.277-1.1973a.764.764 0 0 1 .6497-.8603Z" clip-rule="evenodd"/>
</svg>
