<svg xmlns="http://www.w3.org/2000/svg" width="32" height="26" fill="none" viewBox="0 0 32 26">
  <path fill-rule="evenodd" d="M6 2.166H4.8125c-.7935 0-1.4375.644-1.4375 1.4375v20.125H.5v1.4375h23v-1.4375h-2.875V17.166h-1.4375v6.5625H4.8125V3.6035H6V2.166Zm.9688 15.0938v1.4375h1.4375v-1.4375H6.9688Zm4.3124 0h1.4376v2.875h-1.4376v-2.875Zm4.3126 0v1.4375h1.4374v-1.4375h-1.4374Z" clip-rule="evenodd"/>
  <path fill-rule="evenodd" d="M8.9888 1.6548v12.5338h13.6418V1.6548H8.9888ZM8.4926.166c-.5482 0-.9926.4444-.9926.9926v13.5263c0 .5482.4444.9925.9925.9925h14.6343c.5482 0 .9926-.4443.9926-.9925V1.1586c0-.5482-.4444-.9926-.9926-.9926H8.4926Z" clip-rule="evenodd"/>
  <path fill-rule="evenodd" d="M24.1255 6.0256V9.817l5.8861 2.5015V3.524l-5.8861 2.5016Zm-.8845-1.2418a.9926.9926 0 0 0-.6043.9135v4.4481c0 .3981.2379.7577.6043.9135l6.8786 2.9234c.6546.2782 1.3808-.2022 1.3808-.9135V2.7738c0-.7112-.7262-1.1916-1.3808-.9134L23.241 4.7838Z" clip-rule="evenodd"/>
</svg>
