<svg xmlns="http://www.w3.org/2000/svg" width="32" height="32" fill="none">
	<path fill-rule="evenodd" d="m21.28 14.757-4.773 4.773a.75.75 0 0 1-1.06 0l-4.773-4.773a.75.75 0 0 1 1.06-1.06l3.493 3.492V5.75a.75.75 0 0 1 1.5 0v11.44l3.493-3.493a.75.75 0 1 1 1.06 1.06" clip-rule="evenodd"/>
	<path fill-rule="evenodd" d="M26.5 25v-4a.5.5 0 0 0-.5-.5h-3.172a.5.5 0 0 0-.353.146l-1.829 1.829a3.5 3.5 0 0 1-2.474 1.025h-4.344a3.5 3.5 0 0 1-2.474-1.025l-1.829-1.829a.5.5 0 0 0-.353-.146H6a.5.5 0 0 0-.5.5v4a.5.5 0 0 0 .5.5h20a.5.5 0 0 0 .5-.5M6 19a2 2 0 0 0-2 2v4a2 2 0 0 0 2 2h20a2 2 0 0 0 2-2v-4a2 2 0 0 0-2-2h-3.172a2 2 0 0 0-1.414.586l-1.828 1.828a2 2 0 0 1-1.414.586h-4.344a2 2 0 0 1-1.414-.586l-1.828-1.828A2 2 0 0 0 9.172 19z" clip-rule="evenodd"/>
</svg>