<svg xmlns="http://www.w3.org/2000/svg" width="22" height="17" viewBox="0 0 22 17">
    <path fill-rule="evenodd" d="m19.587 1.131-.111 14.065H21.5v1.006H.5v-1.006h2.01V3.363a1.003 1.003 0 0 1 1.003-1.004h7.032V1.131A1.01 1.01 0 0 1 11.551.125h7.032a1.006 1.006 0 0 1 1.004 1.006ZM3.513 15.196H13.56V9.502h-3.016v-6.14H3.513v11.834Zm14.96 0h-3.909V9.502c0-.554-.449-1.003-1.003-1.003h-2.01V1.13h7.032l-.11 14.065ZM5.02 9.226h1.003V8.218H5.021V9.225ZM9.037 13.8h.003v-2.01H8.034v2.01h1.003Zm.003-4.576H8.034V8.22H9.04v1.006Zm-.003-3.351h.003V4.87H8.034v1.003h1.003Zm7.035.782h1.003v1.003h-1.003V6.656Zm1.003-4.017h-1.003v1.004h1.003V2.639ZM13.06 6.656h1.004v1.003h-1.004V6.656Zm1.004-4.017h-1.004v1.004h1.004V2.639ZM5.02 4.871h1.003v1.003H5.021V4.87Zm1.003 6.92H5.021v1.004h1.003v-1.003Zm4.783 0h1.004v1.004h-1.004v-1.003Zm6.079 0h-1.003v2.01h1.003v-2.01Z" clip-rule="evenodd"/>
</svg>
