<svg xmlns="http://www.w3.org/2000/svg" width="24" height="24" viewBox="0 0 24 24">
  <path fill-rule="nonzero" d="M11.9737 0c3.259 0 5.901 2.642 5.901 5.901v3.1385h4.0726v13.4311A1.536 1.536 0 0 1 20.4013 24H3.546A1.5361 1.5361 0 0 1 2 22.4706V9.0395h4.0726V5.901C6.0726 2.642 8.7146 0 11.9736 0Zm8.4277 10.5754H3.5459V22.464h16.8555V10.5754Zm-7.437 3.4077v5.2361h-1.9848v-5.2361h1.9848ZM11.977 1.9083c-2.2323 0-4.0665 1.7623-4.1557 3.9928v3.1384h8.3114V5.901c-.0893-2.2305-1.9234-3.9928-4.1557-3.9928Z"/>
</svg>
