<svg xmlns="http://www.w3.org/2000/svg" width="16" height="17" viewBox="0 0 16 17" fill="none">
    <path d="M12.9671 1.912C13.7991 2.744 14.3644 3.72533 14.6631 4.856C14.9511 5.95467 14.9511 7.05333 14.6631 8.152C14.3644 9.28267 13.7991 10.264 12.9671 11.096L8.37509 16.008L3.78309 11.096C2.95109 10.264 2.38576 9.28267 2.08709 8.152C1.79909 7.05333 1.79909 5.95467 2.08709 4.856C2.38576 3.72533 2.95109 2.744 3.78309 1.912C4.61509 1.08 5.59643 0.514667 6.72709 0.216C7.82576 -0.072 8.92443 -0.072 10.0231 0.216C11.1538 0.514667 12.1351 1.08 12.9671 1.912ZM8.37509 14.552L12.2631 10.392C12.9671 9.688 13.4418 8.856 13.6871 7.896C13.9324 6.968 13.9324 6.04 13.6871 5.112C13.4418 4.152 12.9671 3.32 12.2631 2.616C11.5591 1.912 10.7271 1.43733 9.76709 1.192C8.83909 0.946667 7.91109 0.946667 6.98309 1.192C6.02309 1.43733 5.19109 1.912 4.48709 2.616C3.78309 3.32 3.30843 4.152 3.06309 5.112C2.81776 6.04 2.81776 6.97333 3.06309 7.912C3.31909 8.872 3.79909 9.70933 4.50309 10.424L8.37509 14.552ZM8.37509 9C7.92709 9 7.51109 8.888 7.12709 8.664C6.74309 8.44 6.43909 8.136 6.21509 7.752C5.99109 7.368 5.87909 6.952 5.87909 6.504C5.87909 6.056 5.99109 5.64 6.21509 5.256C6.43909 4.872 6.74309 4.568 7.12709 4.344C7.51109 4.12 7.92709 4.008 8.37509 4.008C8.82309 4.008 9.23909 4.12 9.62309 4.344C10.0071 4.568 10.3111 4.872 10.5351 5.256C10.7591 5.64 10.8711 6.056 10.8711 6.504C10.8711 6.952 10.7591 7.368 10.5351 7.752C10.3111 8.136 10.0071 8.44 9.62309 8.664C9.23909 8.888 8.82309 9 8.37509 9ZM8.37509 8.008C8.79109 8.008 9.14309 7.864 9.43109 7.576C9.72976 7.27733 9.87909 6.92 9.87909 6.504C9.87909 6.088 9.72976 5.736 9.43109 5.448C9.14309 5.14933 8.79109 5 8.37509 5C7.95909 5 7.60176 5.14933 7.30309 5.448C7.01509 5.736 6.87109 6.088 6.87109 6.504C6.87109 6.92 7.01509 7.27733 7.30309 7.576C7.60176 7.864 7.95909 8.008 8.37509 8.008Z" />
</svg>
