<svg xmlns="http://www.w3.org/2000/svg" width="16" height="16" viewBox="0 0 16 16" fill="none">
  <path d="M11.008 11.808L11.216 11.904L11.408 12V12.304C12.0587 12.0693 12.7627 11.9627 13.52 11.984C14.288 12.0053 14.9867 12.1493 15.616 12.416L16 12.608V14.992H0V12.608L0.208 12.512C0.805333 12.2133 1.47733 12.0427 2.224 12C2.98133 11.9467 3.70133 12.0213 4.384 12.224L4.592 12.304V12L4.784 11.904C5.38133 11.616 6.048 11.4187 6.784 11.312C7.52 11.2053 8.256 11.1947 8.992 11.28C9.728 11.3653 10.4 11.5413 11.008 11.808ZM0.928 12.976L0.72 13.056V14.288H4.592V13.056C3.99467 12.8213 3.38133 12.6987 2.752 12.688C2.12267 12.6773 1.51467 12.7733 0.928 12.976ZM5.52 12.368L5.296 12.448V14.272H10.704V12.448C9.872 12.1173 9.008 11.9467 8.112 11.936C7.22667 11.9147 6.36267 12.0587 5.52 12.368ZM11.616 12.976L11.408 13.056V14.272H15.28V13.056C14.6933 12.8213 14.0853 12.6987 13.456 12.688C12.8267 12.6773 12.2133 12.7733 11.616 12.976ZM14.88 8.192C15.1467 8.45867 15.312 8.77867 15.376 9.152C15.4507 9.51467 15.4133 9.872 15.264 10.224C15.1253 10.5653 14.896 10.8427 14.576 11.056C14.2667 11.2693 13.9253 11.376 13.552 11.376C13.2213 11.376 12.912 11.2907 12.624 11.12C12.336 10.9493 12.1067 10.7253 11.936 10.448C11.776 10.16 11.696 9.84533 11.696 9.504C11.696 9.13067 11.7973 8.784 12 8.464C12.2133 8.144 12.4907 7.91467 12.832 7.776C13.184 7.62667 13.5467 7.59467 13.92 7.68C14.2933 7.75467 14.6133 7.92533 14.88 8.192ZM2.448 7.632C2.77867 7.632 3.088 7.71733 3.376 7.888C3.664 8.05867 3.888 8.288 4.048 8.576C4.21867 8.85333 4.304 9.16267 4.304 9.504C4.304 9.84533 4.21867 10.16 4.048 10.448C3.888 10.7253 3.664 10.9493 3.376 11.12C3.088 11.2907 2.77333 11.376 2.432 11.376C2.10133 11.376 1.792 11.2907 1.504 11.12C1.216 10.9493 0.986667 10.7253 0.816 10.448C0.656 10.16 0.576 9.84533 0.576 9.504C0.576 9.16267 0.656 8.85333 0.816 8.576C0.986667 8.288 1.216 8.05867 1.504 7.888C1.792 7.71733 2.10667 7.632 2.448 7.632ZM13.552 8.352C13.2427 8.352 12.9707 8.464 12.736 8.688C12.512 8.912 12.4 9.184 12.4 9.504C12.4 9.73867 12.464 9.95733 12.592 10.16C12.7307 10.352 12.9067 10.4907 13.12 10.576C13.3333 10.6613 13.552 10.6827 13.776 10.64C14.0107 10.5973 14.208 10.496 14.368 10.336C14.5387 10.1653 14.6453 9.968 14.688 9.744C14.7307 9.50933 14.7093 9.28533 14.624 9.072C14.5387 8.85867 14.3947 8.688 14.192 8.56C14 8.42133 13.7867 8.352 13.552 8.352ZM2.448 8.352C2.29867 8.352 2.14933 8.384 2 8.448C1.86133 8.50133 1.73867 8.58133 1.632 8.688C1.408 8.912 1.296 9.184 1.296 9.504C1.296 9.73867 1.36 9.95733 1.488 10.16C1.616 10.352 1.78667 10.4907 2 10.576C2.21333 10.6613 2.432 10.6827 2.656 10.64C2.89067 10.5973 3.088 10.496 3.248 10.336C3.41867 10.1653 3.52533 9.968 3.568 9.744C3.62133 9.50933 3.6 9.28533 3.504 9.072C3.41867 8.85867 3.28 8.688 3.088 8.56C2.896 8.42133 2.68267 8.352 2.448 8.352ZM9.52 6.112C9.86133 6.44267 10.08 6.84267 10.176 7.312C10.272 7.78133 10.2293 8.24 10.048 8.688C9.86667 9.136 9.57333 9.49333 9.168 9.76C8.76267 10.0267 8.32 10.16 7.84 10.16C7.41333 10.16 7.01867 10.0533 6.656 9.84C6.304 9.62667 6.016 9.33867 5.792 8.976C5.57867 8.61333 5.472 8.21867 5.472 7.792C5.472 7.312 5.60533 6.87467 5.872 6.48C6.13867 6.07467 6.49067 5.78133 6.928 5.6C7.376 5.41867 7.83467 5.376 8.304 5.472C8.784 5.55733 9.18933 5.77067 9.52 6.112ZM7.84 6.128V6.144C7.54133 6.144 7.264 6.21867 7.008 6.368C6.76267 6.51733 6.56533 6.72 6.416 6.976C6.26667 7.22133 6.192 7.49333 6.192 7.792C6.192 8.12267 6.28267 8.42667 6.464 8.704C6.656 8.98133 6.90667 9.18933 7.216 9.328C7.52533 9.456 7.84 9.488 8.16 9.424C8.49067 9.36 8.77333 9.21067 9.008 8.976C9.25333 8.73067 9.408 8.44267 9.472 8.112C9.536 7.78133 9.504 7.46133 9.376 7.152C9.248 6.84267 9.04533 6.59733 8.768 6.416C8.49067 6.224 8.18133 6.128 7.84 6.128ZM12.624 0C13.1893 0 13.7067 0.138666 14.176 0.415999C14.6453 0.693333 15.0187 1.06667 15.296 1.536C15.5733 2.00533 15.712 2.51733 15.712 3.072C15.712 3.62667 15.5733 4.13867 15.296 4.608C15.0187 5.07733 14.6453 5.45067 14.176 5.728C13.7067 6.00533 13.1893 6.144 12.624 6.144C12.0693 6.144 11.5573 6.00533 11.088 5.728C10.6187 5.45067 10.2453 5.07733 9.968 4.608C9.69067 4.13867 9.552 3.62667 9.552 3.072C9.552 2.51733 9.69067 2.00533 9.968 1.536C10.2453 1.06667 10.6187 0.693333 11.088 0.415999C11.5573 0.138666 12.0693 0 12.624 0ZM12.624 0.656C12.1867 0.656 11.7813 0.768 11.408 0.992C11.0453 1.20533 10.7573 1.49867 10.544 1.872C10.3307 2.23467 10.224 2.63467 10.224 3.072C10.224 3.50933 10.3307 3.91467 10.544 4.288C10.7573 4.65067 11.0453 4.93867 11.408 5.152C11.7813 5.36533 12.1867 5.472 12.624 5.472C13.0613 5.472 13.4667 5.36533 13.84 5.152C14.2133 4.93867 14.5067 4.65067 14.72 4.288C14.9333 3.91467 15.04 3.50933 15.04 3.072C15.04 2.63467 14.9333 2.23467 14.72 1.872C14.5067 1.49867 14.2133 1.20533 13.84 0.992C13.4667 0.768 13.0613 0.656 12.624 0.656ZM12.928 1.136V2.832H14.448V3.504H12.256V1.136H12.928Z"/>
</svg>
