<svg xmlns="http://www.w3.org/2000/svg" width="16" height="16" viewBox="0 0 16 16" fill="none">
  <path d="M7.84 10.096C8.26667 10.096 8.656 9.98933 9.008 9.776C9.37067 9.56267 9.65867 9.28 9.872 8.928C10.0853 8.56533 10.192 8.17067 10.192 7.744C10.192 7.31733 10.0853 6.928 9.872 6.576C9.65867 6.21333 9.37067 5.92533 9.008 5.712C8.656 5.49867 8.26667 5.392 7.84 5.392C7.41333 5.392 7.01867 5.49867 6.656 5.712C6.304 5.91467 6.016 6.19733 5.792 6.56C5.57867 6.92267 5.472 7.31733 5.472 7.744C5.472 8.05333 5.53067 8.352 5.648 8.64C5.776 8.928 5.952 9.184 6.176 9.408C6.4 9.632 6.656 9.80267 6.944 9.92C7.232 10.0373 7.53067 10.096 7.84 10.096ZM13.552 11.28C13.8827 11.28 14.192 11.2 14.48 11.04C14.768 10.8693 14.992 10.64 15.152 10.352C15.312 10.064 15.392 9.75467 15.392 9.424C15.392 9.09333 15.3067 8.78933 15.136 8.512C14.976 8.224 14.752 8 14.464 7.84C14.1867 7.66933 13.8773 7.584 13.536 7.584C13.2053 7.584 12.896 7.66933 12.608 7.84C12.3307 8 12.1067 8.224 11.936 8.512C11.776 8.78933 11.696 9.09867 11.696 9.44C11.696 9.77067 11.776 10.08 11.936 10.368C12.1067 10.656 12.336 10.88 12.624 11.04C12.912 11.2 13.2213 11.28 13.552 11.28ZM2.448 11.28C2.77867 11.28 3.08267 11.2 3.36 11.04C3.648 10.8693 3.872 10.6453 4.032 10.368C4.20267 10.08 4.288 9.77067 4.288 9.44C4.288 9.09867 4.20267 8.78933 4.032 8.512C3.872 8.224 3.648 8 3.36 7.84C3.08267 7.66933 2.77333 7.584 2.432 7.584C2.10133 7.584 1.792 7.66933 1.504 7.84C1.216 8 0.986667 8.224 0.816 8.512C0.656 8.8 0.576 9.11467 0.576 9.456C0.576 9.78667 0.661333 10.096 0.832 10.384C1.00267 10.6613 1.232 10.88 1.52 11.04C1.808 11.2 2.11733 11.28 2.448 11.28ZM12.624 6.096C12.0693 6.096 11.5627 5.95733 11.104 5.68C10.6453 5.40267 10.2773 5.03467 10 4.576C9.73333 4.10667 9.6 3.59467 9.6 3.04C9.6 2.48533 9.73867 1.97867 10.016 1.52C10.2933 1.05067 10.6613 0.682666 11.12 0.415999C11.5893 0.138666 12.1013 0 12.656 0C13.2107 0 13.7173 0.138666 14.176 0.415999C14.6453 0.682666 15.0187 1.05067 15.296 1.52C15.5733 1.97867 15.712 2.48533 15.712 3.04C15.7013 3.456 15.616 3.85067 15.456 4.224C15.3067 4.59733 15.088 4.928 14.8 5.216C14.512 5.49333 14.176 5.712 13.792 5.872C13.4187 6.02133 13.0293 6.096 12.624 6.096ZM12.928 2.816V1.12H12.256V3.472H14.448V2.8L12.928 2.816ZM4.592 12.208V14.88H0L0 12.512L0.208 12.416C0.837333 12.1067 1.552 11.936 2.352 11.904C3.152 11.8613 3.89867 11.9627 4.592 12.208ZM16 12.512V14.88H11.408V12.208C12.1013 11.9733 12.848 11.8773 13.648 11.92C14.448 11.952 15.168 12.1173 15.808 12.416L16 12.512ZM10.704 11.6V14.88H5.296V11.6C6.17067 11.2907 7.072 11.136 8 11.136C8.928 11.136 9.82933 11.2907 10.704 11.6Z" />
</svg>
