<svg width="25" height="24" viewBox="0 0 25 24" fill="none" xmlns="http://www.w3.org/2000/svg">
<path fill-rule="evenodd" clip-rule="evenodd" d="M12.6053 0.514648C10.5209 0.514648 8.83109 2.22856 8.83109 4.34277H10.3408C10.3408 3.07424 11.3546 2.0459 12.6053 2.0459C13.856 2.0459 14.8698 3.07424 14.8698 4.34277H16.3795C16.3795 2.22856 14.6897 0.514648 12.6053 0.514648ZM24.6828 20.4199V16.2365L21.9694 14.985L19.6082 7.26338C19.2177 5.98325 18.0502 5.11044 16.7298 5.1084H8.48185C7.16037 5.11044 5.99288 5.98325 5.60238 7.26338L3.24124 14.985L0.527832 16.2365V20.4199H24.6828ZM23.1731 17.2226V18.8886H2.03752V17.2226L3.86624 16.3784L4.4832 16.0946L4.68349 15.4382L7.04362 7.71765C7.24089 7.07248 7.82061 6.63965 8.48588 6.63965H16.7247C17.39 6.63965 17.9697 7.07248 18.167 7.71765L20.5271 15.4382L20.7274 16.0946L21.3444 16.3784L23.1731 17.2226ZM16.9145 21.9521C15.8251 22.9003 14.423 23.4834 12.8734 23.4834C11.3239 23.4834 9.92168 22.9003 8.83109 21.9521H16.9145Z" fill="#474747"/>
</svg>
