<svg xmlns="http://www.w3.org/2000/svg" width="25" height="26" fill="none" viewBox="0 0 25 26">
  <path fill-rule="evenodd" d="M24.6823 23.7178h-3.0194V6.874c0-.8452-.6763-1.5312-1.5097-1.5312h-3.0193V2.2803c0-.8453-.6764-1.5313-1.5097-1.5313H5.0564c-.8334 0-1.5097.686-1.5097 1.5313v21.4375H.5273v1.5312h24.155v-1.5312ZM20.1532 6.874v16.8438H5.0564V2.2803h10.5678V6.874h4.529ZM7.3209 18.3584v-1.5313h1.5097v1.5313H7.3209Zm0-7.6563v1.5313h1.5097v-1.5313H7.3209Zm0-4.5937V4.5771h1.5097v1.5313H7.3209Zm6.0387 10.7187H11.85v3.0625h1.5096v-3.0625ZM11.85 12.2334v-1.5313h1.5096v1.5313H11.85Zm0-7.6563v1.5313h1.5096V4.5771H11.85Zm4.529 13.7813v-1.5313h1.5097v1.5313H16.379Zm0-7.6563v1.5313h1.5097v-1.5313H16.379Z" clip-rule="evenodd"/>
</svg>
