<svg xmlns="http://www.w3.org/2000/svg" width="19" height="18" fill="none" viewBox="0 0 19 18">
  <path fill-rule="evenodd" d="M5.3304 4.4945 8.8597.9148a.549.549 0 0 1 .7843 0l3.5293 3.5797c.2166.2196.2166.5758 0 .7955a.549.549 0 0 1-.7843 0L9.8064 2.6705v8.5874a.5546.5546 0 1 1-1.1092 0V2.6705L6.1148 5.29a.549.549 0 0 1-.7843 0c-.2166-.2197-.2166-.5758 0-.7955Z" clip-rule="evenodd"/>
  <path fill-rule="evenodd" d="M17.0338 15.75v-3c0-.2071-.1655-.375-.3697-.375h-2.3452a.3671.3671 0 0 0-.2614.1098l-1.352 1.3714c-.4854.4922-1.1436.7688-1.83.7688H7.664c-.6864 0-1.3447-.2766-1.83-.7688l-1.352-1.3714a.3672.3672 0 0 0-.2615-.1098H1.8754c-.2042 0-.3698.1679-.3698.375v3c0 .2071.1656.375.3698.375H16.664c.2042 0 .3697-.1679.3697-.375Zm-15.1584-4.5c-.8168 0-1.479.6716-1.479 1.5v3c0 .8284.6622 1.5 1.479 1.5H16.664c.8167 0 1.4789-.6716 1.4789-1.5v-3c0-.8284-.6622-1.5-1.4789-1.5h-2.3452c-.3922 0-.7684.158-1.0457.4393l-1.352 1.3714a1.4685 1.4685 0 0 1-1.0457.4393H7.664c-.3922 0-.7684-.158-1.0457-.4393l-1.352-1.3714a1.4684 1.4684 0 0 0-1.0458-.4393H1.8754Z" clip-rule="evenodd"/>
</svg>
