<svg width="20" height="21" viewBox="0 0 20 21" fill="none" xmlns="http://www.w3.org/2000/svg">
<path d="M19.8944 3.75725C19.7478 3.56125 19.5612 3.47725 19.3346 3.50525L17.9949 3.79925L15.3157 4.36625L11.4768 5.24825L4.9586 6.67625C2.94584 7.13825 1.45959 7.48125 0.499859 7.70525H0.45987C0.339904 7.74725 0.233268 7.82425 0.139961 7.93625C0.0599831 8.03425 0.0133296 8.15325 0 8.29325C0 8.43325 0.0333239 8.56625 0.0999718 8.69225C0.179949 8.81825 0.279921 8.91625 0.399887 8.98625C1.78616 9.75625 3.41904 10.6943 5.29851 11.8003C5.39181 11.8422 5.47179 11.9193 5.53844 12.0313L5.63841 12.6823L6.19825 15.7063C6.33155 16.4203 6.43152 16.9383 6.49817 17.2603C6.56482 17.5823 6.6248 17.7923 6.67812 17.8903C6.70478 17.9603 6.74477 18.0093 6.79808 18.0373C6.87806 18.0653 6.95137 18.0653 7.01802 18.0373C7.08467 18.0233 7.2313 17.9462 7.4579 17.8063C7.63118 17.6943 7.99108 17.4563 8.53759 17.0923C9.08411 16.7283 9.8239 16.2103 10.757 15.5382C10.8236 15.4823 10.8703 15.4543 10.8969 15.4543C10.9369 15.4543 10.9836 15.4823 11.0369 15.5382L14.316 17.8273C14.4759 17.9673 14.6692 18.0513 14.8958 18.0793L15.0358 18.0583C15.1424 18.0163 15.2357 17.9323 15.3157 17.8063C15.369 17.7222 15.429 17.5963 15.4956 17.4283L19.5345 5.64725C19.6945 5.19925 19.8277 4.80725 19.9344 4.47125C19.9877 4.35925 20.0077 4.24025 19.9944 4.11425C19.9944 3.98825 19.961 3.86925 19.8944 3.75725ZM8.11771 15.9163L8.65756 13.9003L9.79724 14.6982L8.11771 15.9163ZM15.2557 5.68925L13.1363 6.86525L6.21825 10.6873C6.11161 10.7573 6.00497 10.7573 5.89834 10.6873C4.59204 9.93125 3.61232 9.37125 2.95917 9.00725L2.21937 8.60825L15.2557 5.68925ZM6.85807 11.7793C8.77753 10.7153 10.2238 9.91725 11.1968 9.38525L13.1163 8.33525L12.0766 9.15425C11.2102 9.82625 9.91054 10.8483 8.1777 12.2203C7.96442 12.4023 7.80447 12.6473 7.69783 12.9553C7.60452 13.2633 7.47123 13.7113 7.29794 14.2993L7.19797 14.6982L6.7381 11.9052C6.77809 11.8352 6.81808 11.7933 6.85807 11.7793ZM14.5559 16.4833L9.37736 12.8713L18.1749 5.92025L14.5559 16.4833Z" fill="#979797"/>
</svg>
