<svg width="156" height="120" viewBox="0 0 156 120" fill="none" xmlns="http://www.w3.org/2000/svg">
<path d="M116.763 68.6121C125.553 73.6821 125.593 81.9121 116.873 86.9721C108.143 92.0421 93.943 92.0421 85.153 86.9721C76.383 81.9021 76.333 73.6821 85.063 68.6121C93.783 63.5421 107.983 63.5421 116.753 68.6121H116.763Z" fill="#FB7C4D"/>
<path d="M123.333 78.512C123.353 78.292 123.383 78.082 123.383 77.862L123.353 84.592C123.353 84.662 123.353 84.732 123.353 84.792C123.353 84.942 123.313 85.102 123.303 85.252C123.273 85.492 123.253 85.722 123.223 85.962C123.223 86.012 123.223 86.042 123.203 86.092C123.173 86.232 123.113 86.392 123.073 86.542C123.013 86.762 122.953 86.982 122.883 87.212C122.863 87.262 122.853 87.302 122.833 87.352C122.783 87.492 122.703 87.622 122.643 87.762C122.543 88.002 122.443 88.232 122.313 88.462C122.273 88.512 122.263 88.582 122.233 88.632C122.173 88.742 122.083 88.852 122.013 88.962C121.853 89.222 121.683 89.482 121.483 89.752C121.433 89.822 121.393 89.902 121.333 89.982C121.283 90.052 121.193 90.122 121.123 90.212C120.843 90.552 120.513 90.902 120.173 91.232C120.093 91.312 120.033 91.392 119.943 91.472C119.893 91.512 119.843 91.542 119.803 91.592C119.583 91.782 119.353 91.972 119.113 92.152C118.903 92.322 118.703 92.482 118.483 92.652C118.233 92.832 117.963 93.012 117.683 93.182C117.483 93.312 117.303 93.442 117.093 93.572C117.003 93.622 116.913 93.682 116.823 93.732C116.153 94.122 115.443 94.472 114.713 94.802C114.493 94.902 114.283 94.992 114.063 95.082C113.493 95.322 112.903 95.542 112.313 95.742C112.173 95.792 112.053 95.852 111.913 95.892C111.833 95.922 111.743 95.942 111.663 95.962C111.293 96.082 110.903 96.182 110.513 96.292C110.223 96.372 109.923 96.452 109.623 96.532C109.213 96.632 108.813 96.712 108.393 96.802C108.153 96.852 107.913 96.912 107.673 96.952C107.623 96.952 107.583 96.952 107.543 96.972C106.703 97.112 105.853 97.232 104.993 97.322C104.933 97.322 104.863 97.342 104.803 97.352C104.603 97.372 104.393 97.372 104.193 97.392C103.693 97.442 103.193 97.472 102.683 97.492C102.563 97.492 102.443 97.522 102.323 97.522C102.123 97.522 101.913 97.522 101.713 97.522C101.303 97.522 100.903 97.542 100.493 97.522C100.343 97.522 100.183 97.522 100.033 97.522C99.843 97.522 99.653 97.502 99.463 97.492C99.083 97.472 98.703 97.452 98.323 97.432C98.163 97.432 97.993 97.432 97.823 97.402C97.643 97.402 97.473 97.362 97.293 97.352C96.913 97.312 96.543 97.272 96.173 97.222C96.003 97.192 95.823 97.182 95.653 97.162C95.493 97.142 95.333 97.112 95.173 97.082C94.773 97.022 94.373 96.952 93.993 96.872C93.803 96.832 93.613 96.822 93.433 96.782C93.303 96.752 93.193 96.722 93.063 96.682C92.593 96.582 92.133 96.462 91.673 96.352C91.483 96.302 91.283 96.262 91.093 96.212C91.033 96.192 90.963 96.162 90.903 96.152C90.083 95.912 89.273 95.642 88.493 95.342C88.443 95.322 88.413 95.312 88.363 95.292C88.023 95.152 87.693 95.002 87.363 94.862C87.163 94.772 86.963 94.702 86.773 94.612C86.213 94.342 85.663 94.062 85.133 93.752C80.713 91.202 78.513 87.852 78.523 84.512L78.553 77.792C78.553 81.142 80.763 84.472 85.163 87.022C85.693 87.332 86.243 87.612 86.813 87.882C87.003 87.972 87.203 88.052 87.393 88.132C87.773 88.292 88.143 88.462 88.523 88.612C89.303 88.922 90.113 89.192 90.933 89.422C91.173 89.492 91.443 89.562 91.693 89.632C92.153 89.752 92.613 89.872 93.093 89.972C93.403 90.032 93.703 90.102 94.013 90.152C94.413 90.232 94.813 90.292 95.203 90.362C95.533 90.412 95.863 90.462 96.193 90.502C96.573 90.552 96.943 90.592 97.323 90.632C97.663 90.662 98.013 90.692 98.353 90.712C98.733 90.742 99.113 90.762 99.493 90.772C99.833 90.792 100.173 90.802 100.513 90.802C100.923 90.802 101.333 90.802 101.743 90.802C102.073 90.802 102.393 90.782 102.713 90.772C103.233 90.742 103.723 90.712 104.233 90.662C104.503 90.642 104.763 90.622 105.033 90.602C105.893 90.512 106.743 90.392 107.583 90.252C107.873 90.202 108.153 90.132 108.443 90.082C108.853 89.992 109.263 89.912 109.673 89.822C109.973 89.752 110.263 89.662 110.563 89.582C110.943 89.482 111.333 89.372 111.713 89.252C111.933 89.182 112.143 89.102 112.363 89.022C112.963 88.822 113.543 88.592 114.113 88.362C114.333 88.272 114.543 88.182 114.753 88.082C115.483 87.752 116.203 87.402 116.873 87.012C117.173 86.842 117.443 86.652 117.723 86.462C117.993 86.292 118.273 86.122 118.523 85.932C118.743 85.782 118.943 85.602 119.143 85.442C119.383 85.252 119.613 85.062 119.833 84.872C119.973 84.752 120.073 84.632 120.203 84.512C120.543 84.182 120.863 83.832 121.153 83.492C121.283 83.342 121.393 83.192 121.513 83.042C121.703 82.782 121.873 82.522 122.033 82.252C122.133 82.092 122.243 81.922 122.333 81.752C122.463 81.522 122.563 81.292 122.663 81.052C122.733 80.872 122.823 80.692 122.893 80.512C122.973 80.282 123.033 80.062 123.083 79.832C123.133 79.642 123.193 79.452 123.223 79.262C123.273 79.022 123.283 78.792 123.303 78.552L123.333 78.512Z" fill="#FB7C4D"/>
<path d="M78.5232 76.5918L78.5532 69.8818C78.5532 73.2218 80.7632 76.5618 85.1632 79.1018C85.6932 79.4118 86.2432 79.7018 86.8132 79.9618C87.0032 80.0518 87.2032 80.1318 87.3932 80.2118C87.7732 80.3818 88.1432 80.5418 88.5232 80.6918C89.3032 81.0018 90.1132 81.2718 90.9332 81.5018C91.1732 81.5718 91.4432 81.6418 91.6932 81.7118C92.1532 81.8318 92.6132 81.9518 93.0932 82.0518C93.4032 82.1118 93.7032 82.1818 94.0132 82.2418C94.4132 82.3118 94.8132 82.3818 95.2032 82.4418C95.5332 82.4918 95.8632 82.5418 96.1932 82.5818C96.5732 82.6318 96.9432 82.6718 97.3232 82.7118C97.6632 82.7518 98.0132 82.7718 98.3532 82.8018C98.7332 82.8218 99.1132 82.8518 99.4932 82.8518C99.8332 82.8718 100.173 82.8818 100.513 82.8818C100.923 82.8818 101.333 82.8818 101.743 82.8818C102.073 82.8818 102.393 82.8618 102.713 82.8518C103.233 82.8218 103.723 82.7918 104.233 82.7518C104.503 82.7218 104.763 82.7018 105.033 82.6818C105.893 82.5918 106.743 82.4718 107.583 82.3318C107.873 82.2818 108.153 82.2118 108.443 82.1618C108.853 82.0818 109.263 82.0018 109.673 81.9018C109.973 81.8318 110.263 81.7418 110.563 81.6618C110.943 81.5618 111.333 81.4518 111.713 81.3318C111.933 81.2618 112.143 81.1918 112.363 81.1018C112.963 80.9018 113.543 80.6718 114.113 80.4418C114.333 80.3518 114.543 80.2618 114.753 80.1618C115.483 79.8318 116.203 79.4818 116.873 79.0918C117.173 78.9218 117.443 78.7318 117.723 78.5518C117.993 78.3718 118.273 78.2018 118.523 78.0218C118.743 77.8618 118.943 77.6918 119.143 77.5218C119.383 77.3318 119.613 77.1418 119.833 76.9518C119.973 76.8318 120.073 76.7118 120.203 76.5918C120.543 76.2618 120.863 75.9118 121.153 75.5718C121.283 75.4218 121.393 75.2718 121.513 75.1218C121.703 74.8618 121.873 74.6018 122.033 74.3418C122.133 74.1718 122.243 74.0118 122.333 73.8318C122.463 73.6018 122.563 73.3718 122.663 73.1318C122.733 72.9518 122.823 72.7718 122.893 72.5918C122.973 72.3618 123.033 72.1418 123.083 71.9218C123.133 71.7318 123.193 71.5418 123.223 71.3418C123.273 71.1018 123.283 70.8718 123.303 70.6318C123.323 70.4118 123.353 70.2018 123.353 69.9818L123.323 76.7218C123.323 76.7818 123.323 76.8518 123.323 76.9118C123.323 77.0618 123.283 77.2218 123.273 77.3718C123.243 77.6118 123.223 77.8418 123.193 78.0818C123.193 78.1318 123.193 78.1618 123.173 78.2118C123.143 78.3518 123.083 78.5118 123.043 78.6618C122.983 78.8818 122.923 79.1018 122.853 79.3318C122.833 79.3818 122.823 79.4218 122.803 79.4718C122.753 79.6118 122.673 79.7418 122.613 79.8818C122.513 80.1218 122.413 80.3518 122.283 80.5818C122.243 80.6418 122.233 80.7018 122.203 80.7518C122.143 80.8618 122.053 80.9718 121.983 81.0818C121.823 81.3418 121.653 81.6018 121.453 81.8718C121.403 81.9418 121.363 82.0218 121.303 82.1018C121.253 82.1818 121.163 82.2418 121.093 82.3318C120.813 82.6718 120.483 83.0218 120.143 83.3518C120.063 83.4318 120.003 83.5118 119.913 83.5918C119.863 83.6418 119.813 83.6718 119.773 83.7118C119.553 83.9018 119.323 84.0918 119.083 84.2718C118.873 84.4418 118.673 84.6018 118.453 84.7718C118.203 84.9618 117.933 85.1318 117.653 85.3018C117.453 85.4418 117.273 85.5718 117.063 85.6918C116.973 85.7418 116.883 85.8018 116.793 85.8518C116.123 86.2418 115.413 86.5918 114.683 86.9218C114.463 87.0218 114.253 87.1118 114.033 87.2018C113.463 87.4418 112.873 87.6618 112.283 87.8618C112.143 87.9118 112.023 87.9718 111.883 88.0118C111.803 88.0418 111.713 88.0618 111.633 88.0818C111.263 88.2018 110.873 88.3118 110.483 88.4118C110.193 88.4918 109.893 88.5818 109.593 88.6518C109.183 88.7418 108.783 88.8218 108.363 88.9118C108.123 88.9618 107.883 89.0218 107.643 89.0618C107.593 89.0618 107.553 89.0618 107.513 89.0818C106.673 89.2218 105.823 89.3418 104.963 89.4318L104.773 89.4618C104.573 89.4818 104.363 89.4918 104.163 89.5118C103.663 89.5518 103.163 89.5818 102.653 89.6118C102.533 89.6118 102.413 89.6318 102.293 89.6318C102.093 89.6318 101.883 89.6318 101.683 89.6318C101.273 89.6318 100.873 89.6318 100.463 89.6318C100.313 89.6318 100.153 89.6318 100.003 89.6318C99.8132 89.6318 99.6232 89.6118 99.4332 89.6018C99.0532 89.5818 98.6732 89.5618 98.2932 89.5418C98.1332 89.5418 97.9632 89.5418 97.7932 89.5118C97.6132 89.5118 97.4432 89.4718 97.2632 89.4618C96.8832 89.4218 96.5132 89.3818 96.1432 89.3318C95.9732 89.3118 95.7932 89.2918 95.6232 89.2718C95.4632 89.2518 95.3032 89.2218 95.1432 89.1918C94.7432 89.1318 94.3432 89.0618 93.9632 88.9818C93.7732 88.9518 93.5832 88.9318 93.4032 88.8918C93.2732 88.8618 93.1632 88.8318 93.0332 88.8018C92.5632 88.6918 92.1032 88.5718 91.6432 88.4618C91.4532 88.4118 91.2532 88.3718 91.0632 88.3218C91.0032 88.3018 90.9332 88.2718 90.8732 88.2618C90.0532 88.0218 89.2432 87.7518 88.4632 87.4518C88.4132 87.4518 88.3832 87.4218 88.3332 87.4118C87.9932 87.2718 87.6632 87.1218 87.3332 86.9718C87.1332 86.8918 86.9332 86.8118 86.7432 86.7218C86.1832 86.4518 85.6332 86.1718 85.1032 85.8618C80.6832 83.3118 78.4832 79.9618 78.4932 76.6218L78.5232 76.5918Z" fill="#FB7C4D"/>
<path d="M116.763 60.7322C125.553 65.8022 125.593 74.0322 116.873 79.0922C108.143 84.1622 93.943 84.1622 85.153 79.0922C76.383 74.0222 76.333 65.8022 85.063 60.7322C93.783 55.6622 107.983 55.6622 116.753 60.7322H116.763Z" fill="#FEDACC"/>
<path d="M112.303 74.6118L114.573 75.9218L112.563 77.0818L110.293 75.7718C106.163 77.8218 101.803 77.8918 97.203 75.9718L99.9131 73.3018C102.593 74.5818 105.003 74.8018 107.153 73.9618L101.653 70.7918C100.833 71.0618 100.083 71.2918 99.3831 71.5018C95.5431 72.7818 92.2231 72.5818 89.4331 70.9018C86.5231 68.9518 86.873 66.7718 90.483 64.3518L88.213 63.0418L90.2231 61.8818L92.583 63.2418C95.843 61.6318 99.363 61.4818 103.143 62.7918L100.523 65.4118C99.123 64.8118 97.583 64.7218 95.893 65.1618L100.863 68.0318C101.333 67.9018 101.993 67.7118 102.873 67.4818C103.453 67.3518 103.893 67.2318 104.183 67.1318C107.903 66.2618 110.783 66.4418 112.823 67.6818C116.193 69.7618 116.023 72.0818 112.303 74.6318V74.6118ZM98.2531 68.8118L93.6231 66.1418C92.6331 67.1118 92.6031 67.9718 93.5331 68.7118C94.6931 69.4518 96.273 69.4818 98.243 68.8118H98.2531ZM104.363 70.0218L109.253 72.8418C110.303 71.7718 110.213 70.8718 108.993 70.1718C107.943 69.5018 106.493 69.4018 104.633 69.8718C104.573 69.9018 104.483 69.9518 104.373 70.0218H104.363Z" fill="#FB7C4D"/>
<path d="M76.6936 92.382C76.6736 92.622 76.6536 92.852 76.6136 93.092C76.5736 93.282 76.5236 93.472 76.4736 93.662C76.4136 93.882 76.3636 94.112 76.2836 94.332C76.2236 94.512 76.1336 94.692 76.0536 94.872C75.9536 95.102 75.8536 95.342 75.7236 95.572C75.6336 95.742 75.5236 95.902 75.4236 96.072C75.2636 96.332 75.0936 96.592 74.8936 96.852C74.7836 97.002 74.6536 97.152 74.5336 97.302C74.2436 97.652 73.9236 97.992 73.5836 98.322C73.4636 98.442 73.3436 98.562 73.2136 98.682C73.0036 98.872 72.7636 99.062 72.5236 99.252C72.3136 99.422 72.1136 99.582 71.8936 99.752C71.6436 99.932 71.3636 100.112 71.0936 100.282C70.8136 100.462 70.5436 100.652 70.2436 100.832C69.5736 101.222 68.8636 101.572 68.1336 101.902C67.9236 102.002 67.7036 102.082 67.4936 102.172C66.9236 102.412 66.3336 102.632 65.7336 102.842C65.5136 102.912 65.3036 102.992 65.0836 103.062C64.7036 103.182 64.3236 103.282 63.9336 103.392C63.6436 103.472 63.3436 103.562 63.0436 103.632C62.6336 103.732 62.2236 103.812 61.8136 103.892C61.5336 103.952 61.2436 104.012 60.9636 104.062C60.1236 104.212 59.2736 104.332 58.4136 104.412C58.1536 104.442 57.8836 104.452 57.6136 104.482C57.1136 104.522 56.6036 104.562 56.0936 104.582C55.7736 104.592 55.4436 104.602 55.1236 104.612C54.7136 104.612 54.3036 104.622 53.8936 104.612C53.5536 104.612 53.2136 104.602 52.8736 104.582C52.4936 104.562 52.1136 104.552 51.7336 104.522C51.3936 104.502 51.0436 104.472 50.7036 104.432C50.3236 104.392 49.9536 104.352 49.5836 104.302C49.2536 104.262 48.9136 104.212 48.5836 104.162C48.1836 104.102 47.7836 104.032 47.3936 103.952C47.0836 103.892 46.7736 103.832 46.4736 103.762C46.0036 103.662 45.5336 103.542 45.0736 103.422C44.8236 103.352 44.5636 103.292 44.3136 103.222C43.4936 102.982 42.6836 102.712 41.9036 102.412C41.5236 102.262 41.1436 102.102 40.7736 101.932C40.5836 101.842 40.3836 101.772 40.1936 101.682C39.6236 101.412 39.0736 101.132 38.5536 100.822C34.1436 98.272 31.9336 94.922 31.9436 91.582L31.9136 98.322C31.9136 101.662 34.1136 105.012 38.5236 107.562C39.0536 107.872 39.6036 108.152 40.1636 108.422C40.3536 108.512 40.5536 108.592 40.7436 108.672C41.0736 108.822 41.4036 108.972 41.7536 109.112C41.7936 109.132 41.8336 109.142 41.8736 109.152C42.6536 109.452 43.4536 109.722 44.2836 109.962C44.3536 109.982 44.4136 110.012 44.4736 110.032C44.6636 110.082 44.8536 110.122 45.0436 110.172C45.5036 110.292 45.9636 110.412 46.4336 110.512C46.5636 110.542 46.6836 110.572 46.8036 110.602C46.9836 110.642 47.1736 110.662 47.3636 110.702C47.7536 110.772 48.1536 110.842 48.5536 110.912C48.7136 110.932 48.8736 110.972 49.0336 110.992C49.2036 111.012 49.3836 111.032 49.5636 111.052C49.9336 111.102 50.3036 111.142 50.6836 111.172C50.8636 111.192 51.0436 111.212 51.2136 111.232C51.3836 111.242 51.5436 111.252 51.7136 111.262C52.0936 111.292 52.4736 111.312 52.8536 111.322C53.0436 111.322 53.2336 111.352 53.4236 111.352C53.5736 111.352 53.7236 111.352 53.8836 111.352C54.2936 111.352 54.7036 111.352 55.1136 111.352C55.3136 111.352 55.5236 111.352 55.7236 111.352C55.8436 111.352 55.9636 111.332 56.0836 111.332C56.5936 111.312 57.0936 111.272 57.5936 111.232C57.7936 111.212 58.0036 111.212 58.2036 111.192C58.2636 111.192 58.3236 111.172 58.3936 111.162C59.2536 111.072 60.1036 110.952 60.9436 110.812C60.9836 110.812 61.0236 110.802 61.0736 110.792C61.3236 110.752 61.5536 110.682 61.8036 110.632C62.2136 110.552 62.6336 110.462 63.0336 110.372C63.3336 110.302 63.6236 110.212 63.9236 110.132C64.3136 110.022 64.6936 109.922 65.0736 109.802C65.1536 109.772 65.2436 109.762 65.3236 109.732C65.4636 109.692 65.5836 109.632 65.7236 109.582C66.3236 109.382 66.9136 109.152 67.4836 108.912C67.7036 108.822 67.9136 108.732 68.1236 108.642C68.8536 108.312 69.5636 107.962 70.2336 107.572C70.3236 107.522 70.4136 107.462 70.5036 107.412C70.7136 107.292 70.8836 107.152 71.0836 107.022C71.3536 106.842 71.6336 106.672 71.8836 106.492C72.1036 106.332 72.3036 106.162 72.5136 105.992C72.7436 105.802 72.9836 105.622 73.2036 105.422C73.2436 105.382 73.3036 105.352 73.3436 105.312C73.4336 105.232 73.4936 105.142 73.5736 105.062C73.9136 104.732 74.2336 104.392 74.5236 104.042C74.5836 103.962 74.6736 103.892 74.7336 103.822C74.7936 103.742 74.8336 103.672 74.8836 103.592C75.0736 103.332 75.2436 103.072 75.4136 102.812C75.4836 102.702 75.5736 102.592 75.6336 102.482C75.6636 102.422 75.6836 102.372 75.7136 102.312C75.8336 102.082 75.9436 101.852 76.0436 101.612C76.1036 101.472 76.1836 101.342 76.2336 101.202C76.2536 101.152 76.2536 101.112 76.2736 101.062C76.3536 100.842 76.4036 100.612 76.4636 100.392C76.5036 100.242 76.5636 100.092 76.5936 99.942C76.5936 99.902 76.5936 99.862 76.6036 99.822C76.6436 99.592 76.6636 99.352 76.6836 99.112C76.6936 98.962 76.7336 98.802 76.7336 98.652C76.7336 98.582 76.7336 98.522 76.7336 98.452L76.7636 91.712C76.7636 91.932 76.7236 92.152 76.7036 92.372L76.6936 92.382Z" fill="#FB7C4D"/>
<path d="M70.1237 82.4822C78.9137 87.5522 78.9537 95.7822 70.2337 100.842C61.5037 105.912 47.3037 105.912 38.5137 100.842C29.7337 95.7722 29.6937 87.5522 38.4237 82.4822C47.1437 77.4122 61.3437 77.4122 70.1137 82.4822H70.1237Z" fill="#FB7C4D"/>
<path d="M65.6639 96.3621L67.9339 97.6721L65.9239 98.8321L63.6539 97.5221C59.5239 99.5721 55.1639 99.6421 50.5639 97.7221L53.2739 95.0521C55.9539 96.3321 58.3639 96.5521 60.5139 95.7021L55.0139 92.5321C54.1939 92.8021 53.4439 93.0321 52.7439 93.2421C48.9039 94.5221 45.5839 94.3221 42.7939 92.6421C39.8839 90.6921 40.2339 88.5121 43.8439 86.0921L41.5739 84.7821L43.5839 83.6221L45.9439 84.9821C49.2039 83.3721 52.7239 83.2221 56.5039 84.5321L53.8839 87.1521C52.4839 86.5521 50.9439 86.4621 49.2539 86.9021L54.2239 89.7721C54.6939 89.6421 55.3539 89.4521 56.2339 89.2221C56.8139 89.0921 57.2539 88.9721 57.5439 88.8721C61.2639 88.0021 64.1439 88.1821 66.1839 89.4221C69.5539 91.5021 69.3839 93.8221 65.6639 96.3721V96.3621ZM51.6139 90.5621L46.9839 87.8921C45.9939 88.8621 45.9639 89.7221 46.8939 90.4621C48.0539 91.2021 49.6339 91.2321 51.6039 90.5621H51.6139ZM57.7239 91.7721L62.6139 94.5921C63.6639 93.5221 63.5739 92.6221 62.3539 91.9221C61.3039 91.2521 59.8539 91.1521 57.9939 91.6221C57.9339 91.6521 57.8439 91.7021 57.7339 91.7721H57.7239Z" fill="#FB7C4D"/>
<path d="M76.6936 84.5119C76.6736 84.7519 76.6536 84.9819 76.6136 85.2219C76.5736 85.4119 76.5236 85.6019 76.4736 85.7919C76.4136 86.0119 76.3636 86.2419 76.2836 86.4619C76.2236 86.6419 76.1336 86.8219 76.0536 87.0019C75.9536 87.2319 75.8536 87.4719 75.7236 87.7019C75.6336 87.8719 75.5236 88.0319 75.4236 88.2019C75.2636 88.4619 75.0936 88.7219 74.8936 88.9819C74.7836 89.1319 74.6536 89.2819 74.5336 89.4319C74.2436 89.7819 73.9236 90.1219 73.5836 90.4519C73.4636 90.5719 73.3436 90.6919 73.2136 90.8119C73.0036 91.0019 72.7636 91.1919 72.5236 91.3819C72.3136 91.5519 72.1136 91.7119 71.8936 91.8819C71.6436 92.0619 71.3636 92.2419 71.0936 92.4119C70.8136 92.5919 70.5436 92.7819 70.2436 92.9619C69.5736 93.3519 68.8636 93.7019 68.1336 94.0319C67.9236 94.1319 67.7036 94.2119 67.4936 94.3019C66.9236 94.5419 66.3336 94.7619 65.7336 94.9719C65.5136 95.0419 65.3036 95.1219 65.0836 95.1919C64.7036 95.3119 64.3236 95.4119 63.9336 95.5219C63.6436 95.6019 63.3436 95.6919 63.0436 95.7619C62.6336 95.8619 62.2236 95.9419 61.8136 96.0219C61.5336 96.0819 61.2436 96.1419 60.9636 96.1919C60.1236 96.3419 59.2736 96.4619 58.4136 96.5419C58.1536 96.5719 57.8836 96.5819 57.6136 96.6119C57.1136 96.6519 56.6036 96.6919 56.0936 96.7119C55.7736 96.7219 55.4436 96.7319 55.1236 96.7419C54.7136 96.7419 54.3036 96.7519 53.8936 96.7419C53.5536 96.7419 53.2136 96.7319 52.8736 96.7119C52.4936 96.6919 52.1136 96.6819 51.7336 96.6519C51.3936 96.6319 51.0436 96.6019 50.7036 96.5619C50.3236 96.5219 49.9536 96.4819 49.5836 96.4319C49.2536 96.3919 48.9136 96.3419 48.5836 96.2919C48.1836 96.2319 47.7836 96.1619 47.3936 96.0819C47.0836 96.0219 46.7736 95.9619 46.4736 95.8919C46.0036 95.7919 45.5336 95.6719 45.0736 95.5519C44.8236 95.4819 44.5636 95.4219 44.3136 95.3519C43.4936 95.1119 42.6836 94.8419 41.9036 94.5419C41.5236 94.3919 41.1436 94.2319 40.7736 94.0619C40.5836 93.9719 40.3836 93.9019 40.1936 93.8119C39.6236 93.5419 39.0736 93.2619 38.5536 92.9519C34.1436 90.4019 31.9336 87.0519 31.9436 83.7119L31.9136 90.4519C31.9136 93.7919 34.1136 97.1419 38.5236 99.6919C39.0536 100.002 39.6036 100.282 40.1636 100.552C40.3536 100.642 40.5536 100.722 40.7436 100.802C41.0736 100.952 41.4036 101.102 41.7536 101.242C41.7936 101.262 41.8336 101.272 41.8736 101.282C42.6536 101.582 43.4536 101.852 44.2836 102.092C44.3536 102.112 44.4136 102.142 44.4736 102.162C44.6636 102.212 44.8536 102.252 45.0436 102.302C45.5036 102.422 45.9636 102.542 46.4336 102.642C46.5636 102.672 46.6836 102.702 46.8036 102.732C46.9836 102.772 47.1736 102.792 47.3636 102.832C47.7536 102.902 48.1536 102.972 48.5536 103.042C48.7136 103.062 48.8736 103.102 49.0336 103.122C49.2036 103.142 49.3836 103.162 49.5636 103.182C49.9336 103.232 50.3036 103.272 50.6836 103.302C50.8636 103.322 51.0436 103.342 51.2136 103.362C51.3836 103.372 51.5436 103.382 51.7136 103.392C52.0936 103.422 52.4736 103.442 52.8536 103.452C53.0436 103.452 53.2336 103.482 53.4236 103.482C53.5736 103.482 53.7236 103.482 53.8836 103.482C54.2936 103.482 54.7036 103.482 55.1136 103.482C55.3136 103.482 55.5236 103.482 55.7236 103.482C55.8436 103.482 55.9636 103.462 56.0836 103.462C56.5936 103.442 57.0936 103.402 57.5936 103.362C57.7936 103.342 58.0036 103.342 58.2036 103.322C58.2636 103.322 58.3236 103.302 58.3936 103.292C59.2536 103.202 60.1036 103.082 60.9436 102.942C60.9836 102.942 61.0236 102.932 61.0736 102.922C61.3236 102.882 61.5536 102.812 61.8036 102.762C62.2136 102.682 62.6336 102.592 63.0336 102.502C63.3336 102.432 63.6236 102.342 63.9236 102.262C64.3136 102.152 64.6936 102.052 65.0736 101.932C65.1536 101.902 65.2436 101.892 65.3236 101.862C65.4636 101.822 65.5836 101.752 65.7236 101.712C66.3236 101.512 66.9136 101.282 67.4836 101.042C67.7036 100.952 67.9136 100.862 68.1236 100.772C68.8536 100.442 69.5636 100.092 70.2336 99.7019C70.3236 99.6519 70.4136 99.5919 70.5036 99.5419C70.7136 99.4219 70.8836 99.2819 71.0836 99.1519C71.3536 98.9719 71.6336 98.8019 71.8836 98.6219C72.1036 98.4619 72.3036 98.2919 72.5136 98.1219C72.7436 97.9319 72.9836 97.7519 73.2036 97.5519C73.2436 97.5119 73.3036 97.4819 73.3436 97.4419C73.4336 97.3619 73.4936 97.2719 73.5736 97.1919C73.9136 96.8619 74.2336 96.5219 74.5236 96.1719C74.5836 96.0919 74.6736 96.0219 74.7336 95.9519C74.7936 95.8719 74.8336 95.8019 74.8836 95.7219C75.0736 95.4619 75.2436 95.2019 75.4136 94.9419C75.4836 94.8319 75.5736 94.7219 75.6336 94.6119C75.6636 94.5519 75.6836 94.5019 75.7136 94.4419C75.8336 94.2119 75.9436 93.9819 76.0436 93.7419C76.1036 93.6019 76.1836 93.4719 76.2336 93.3319C76.2536 93.2819 76.2536 93.2419 76.2736 93.1919C76.3536 92.9719 76.4036 92.7419 76.4636 92.5219C76.5036 92.3719 76.5636 92.2219 76.5936 92.0719C76.5936 92.0319 76.5936 91.9919 76.6036 91.9519C76.6436 91.7219 76.6636 91.4819 76.6836 91.2419C76.6936 91.0919 76.7336 90.9319 76.7336 90.7819C76.7336 90.7119 76.7336 90.6519 76.7336 90.5819L76.7636 83.8419C76.7636 84.0619 76.7236 84.2819 76.7036 84.5019L76.6936 84.5119Z" fill="#FB7C4D"/>
<path d="M70.1237 74.6023C78.9137 79.6723 78.9537 87.9023 70.2337 92.9623C61.5037 98.0323 47.3037 98.0323 38.5137 92.9623C29.7337 87.8923 29.6937 79.6723 38.4237 74.6023C47.1437 69.5323 61.3437 69.5323 70.1137 74.6023H70.1237Z" fill="#FB7C4D"/>
<path d="M65.6639 88.4927L67.9339 89.8027L65.9239 90.9627L63.6539 89.6527C59.5239 91.7027 55.1639 91.7727 50.5639 89.8527L53.2739 87.1827C55.9539 88.4627 58.3639 88.6827 60.5139 87.8427L55.0139 84.6727C54.1939 84.9427 53.4439 85.1727 52.7439 85.3827C48.9039 86.6627 45.5839 86.4627 42.7939 84.7827C39.8839 82.8327 40.2339 80.6527 43.8439 78.2327L41.5739 76.9227L43.5839 75.7627L45.9439 77.1227C49.2039 75.5127 52.7239 75.3627 56.5039 76.6727L53.8839 79.2927C52.4839 78.6927 50.9439 78.6027 49.2539 79.0427L54.2239 81.9127C54.6939 81.7827 55.3539 81.5927 56.2339 81.3627C56.8139 81.2327 57.2539 81.1127 57.5439 81.0127C61.2639 80.1427 64.1439 80.3227 66.1839 81.5627C69.5539 83.6427 69.3839 85.9627 65.6639 88.5127V88.4927ZM51.6139 82.6927L46.9839 80.0227C45.9939 80.9927 45.9639 81.8527 46.8939 82.5927C48.0539 83.3327 49.6339 83.3627 51.6039 82.6927H51.6139ZM57.7239 83.9027L62.6139 86.7227C63.6639 85.6527 63.5739 84.7527 62.3539 84.0527C61.3039 83.3827 59.8539 83.2827 57.9939 83.7527C57.9339 83.7827 57.8439 83.8327 57.7339 83.9027H57.7239Z" fill="#FB7C4D"/>
<path d="M76.6936 76.632C76.6736 76.872 76.6536 77.102 76.6136 77.342C76.5736 77.532 76.5236 77.722 76.4736 77.912C76.4136 78.132 76.3636 78.362 76.2836 78.582C76.2236 78.762 76.1336 78.942 76.0536 79.122C75.9536 79.352 75.8536 79.592 75.7236 79.822C75.6336 79.992 75.5236 80.152 75.4236 80.322C75.2636 80.582 75.0936 80.842 74.8936 81.102C74.7836 81.252 74.6536 81.402 74.5336 81.552C74.2436 81.902 73.9236 82.242 73.5836 82.572C73.4636 82.692 73.3436 82.812 73.2136 82.932C73.0036 83.122 72.7636 83.312 72.5236 83.502C72.3136 83.672 72.1136 83.832 71.8936 84.002C71.6436 84.182 71.3636 84.362 71.0936 84.532C70.8136 84.712 70.5436 84.902 70.2436 85.082C69.5736 85.472 68.8636 85.822 68.1336 86.152C67.9236 86.252 67.7036 86.332 67.4936 86.422C66.9236 86.662 66.3336 86.882 65.7336 87.092C65.5136 87.162 65.3036 87.242 65.0836 87.312C64.7036 87.432 64.3236 87.532 63.9336 87.642C63.6436 87.722 63.3436 87.812 63.0436 87.882C62.6336 87.982 62.2236 88.062 61.8136 88.142C61.5336 88.202 61.2436 88.262 60.9636 88.312C60.1236 88.462 59.2736 88.582 58.4136 88.662C58.1536 88.692 57.8836 88.702 57.6136 88.732C57.1136 88.772 56.6036 88.812 56.0936 88.832C55.7736 88.842 55.4436 88.852 55.1236 88.862C54.7136 88.862 54.3036 88.872 53.8936 88.862C53.5536 88.862 53.2136 88.852 52.8736 88.832C52.4936 88.812 52.1136 88.802 51.7336 88.772C51.3936 88.752 51.0436 88.722 50.7036 88.682C50.3236 88.642 49.9536 88.602 49.5836 88.552C49.2536 88.512 48.9136 88.462 48.5836 88.412C48.1836 88.352 47.7836 88.282 47.3936 88.202C47.0836 88.142 46.7736 88.082 46.4736 88.012C46.0036 87.912 45.5336 87.792 45.0736 87.672C44.8236 87.602 44.5636 87.542 44.3136 87.472C43.4936 87.232 42.6836 86.962 41.9036 86.662C41.5236 86.512 41.1436 86.352 40.7736 86.182C40.5836 86.092 40.3836 86.022 40.1936 85.932C39.6236 85.662 39.0736 85.382 38.5536 85.072C34.1436 82.522 31.9336 79.172 31.9436 75.832L31.9136 82.572C31.9136 85.912 34.1136 89.262 38.5236 91.812C39.0536 92.122 39.6036 92.402 40.1636 92.672C40.3536 92.762 40.5536 92.842 40.7436 92.922C41.0736 93.072 41.4036 93.222 41.7536 93.362C41.7936 93.382 41.8336 93.392 41.8736 93.402C42.6536 93.702 43.4536 93.972 44.2836 94.212C44.3536 94.232 44.4136 94.262 44.4736 94.282C44.6636 94.332 44.8536 94.372 45.0436 94.422C45.5036 94.542 45.9636 94.662 46.4336 94.762C46.5636 94.792 46.6836 94.822 46.8036 94.852C46.9836 94.892 47.1736 94.912 47.3636 94.952C47.7536 95.022 48.1536 95.092 48.5536 95.162C48.7136 95.182 48.8736 95.222 49.0336 95.242C49.2036 95.262 49.3836 95.282 49.5636 95.302C49.9336 95.352 50.3036 95.392 50.6836 95.422C50.8636 95.442 51.0436 95.462 51.2136 95.482C51.3836 95.492 51.5436 95.502 51.7136 95.512C52.0936 95.542 52.4736 95.562 52.8536 95.572C53.0436 95.572 53.2336 95.602 53.4236 95.602C53.5736 95.602 53.7236 95.602 53.8836 95.602C54.2936 95.602 54.7036 95.602 55.1136 95.602C55.3136 95.602 55.5236 95.602 55.7236 95.602C55.8436 95.602 55.9636 95.582 56.0836 95.582C56.5936 95.562 57.0936 95.522 57.5936 95.482C57.7936 95.462 58.0036 95.462 58.2036 95.442C58.2636 95.442 58.3236 95.422 58.3936 95.412C59.2536 95.322 60.1036 95.202 60.9436 95.062C60.9836 95.062 61.0236 95.052 61.0736 95.042C61.3236 95.002 61.5536 94.932 61.8036 94.882C62.2136 94.802 62.6336 94.712 63.0336 94.622C63.3336 94.552 63.6236 94.462 63.9236 94.382C64.3136 94.272 64.6936 94.172 65.0736 94.052C65.1536 94.022 65.2436 94.012 65.3236 93.982C65.4636 93.942 65.5836 93.882 65.7236 93.832C66.3236 93.632 66.9136 93.402 67.4836 93.162C67.7036 93.072 67.9136 92.982 68.1236 92.892C68.8536 92.562 69.5636 92.212 70.2336 91.822C70.3236 91.772 70.4136 91.712 70.5036 91.662C70.7136 91.542 70.8836 91.402 71.0836 91.272C71.3536 91.092 71.6336 90.922 71.8836 90.742C72.1036 90.582 72.3036 90.412 72.5136 90.242C72.7436 90.052 72.9836 89.872 73.2036 89.672C73.2436 89.632 73.3036 89.602 73.3436 89.562C73.4336 89.482 73.4936 89.392 73.5736 89.312C73.9136 88.982 74.2336 88.642 74.5236 88.292C74.5836 88.212 74.6736 88.142 74.7336 88.072C74.7936 87.992 74.8336 87.922 74.8836 87.842C75.0736 87.582 75.2436 87.322 75.4136 87.062C75.4836 86.952 75.5736 86.842 75.6336 86.732C75.6636 86.672 75.6836 86.622 75.7136 86.562C75.8336 86.332 75.9436 86.102 76.0436 85.862C76.1036 85.722 76.1836 85.592 76.2336 85.452C76.2536 85.402 76.2536 85.362 76.2736 85.312C76.3536 85.092 76.4036 84.862 76.4636 84.642C76.5036 84.492 76.5636 84.342 76.5936 84.192C76.5936 84.152 76.5936 84.112 76.6036 84.072C76.6436 83.842 76.6636 83.602 76.6836 83.362C76.6936 83.212 76.7336 83.052 76.7336 82.902C76.7336 82.832 76.7336 82.772 76.7336 82.702L76.7636 75.962C76.7636 76.182 76.7236 76.402 76.7036 76.622L76.6936 76.632Z" fill="#FB7C4D"/>
<path d="M70.1237 66.7224C78.9137 71.7924 78.9537 80.0224 70.2337 85.0824C61.5037 90.1524 47.3037 90.1524 38.5137 85.0824C29.7337 80.0124 29.6937 71.7924 38.4237 66.7224C47.1437 61.6524 61.3437 61.6524 70.1137 66.7224H70.1237Z" fill="#FB7C4D"/>
<path d="M76.6936 68.7619C76.6736 69.0019 76.6536 69.2319 76.6136 69.4719C76.5736 69.6619 76.5236 69.8519 76.4736 70.0419C76.4136 70.2619 76.3636 70.4919 76.2836 70.7119C76.2236 70.8919 76.1336 71.0719 76.0536 71.2519C75.9536 71.4819 75.8536 71.7219 75.7236 71.9519C75.6336 72.1219 75.5236 72.2819 75.4236 72.4519C75.2636 72.7119 75.0936 72.9719 74.8936 73.2319C74.7836 73.3819 74.6536 73.5319 74.5336 73.6819C74.2436 74.0319 73.9236 74.3719 73.5836 74.7019C73.4636 74.8219 73.3436 74.9419 73.2136 75.0619C73.0036 75.2519 72.7636 75.4419 72.5236 75.6319C72.3136 75.8019 72.1136 75.9619 71.8936 76.1319C71.6436 76.3119 71.3636 76.4919 71.0936 76.6619C70.8136 76.8419 70.5436 77.0319 70.2436 77.2119C69.5736 77.6019 68.8636 77.9519 68.1336 78.2819C67.9236 78.3819 67.7036 78.4619 67.4936 78.5519C66.9236 78.7919 66.3336 79.0119 65.7336 79.2219C65.5136 79.2919 65.3036 79.3719 65.0836 79.4419C64.7036 79.5619 64.3236 79.6619 63.9336 79.7719C63.6436 79.8519 63.3436 79.9419 63.0436 80.0119C62.6336 80.1119 62.2236 80.1919 61.8136 80.2719C61.5336 80.3319 61.2436 80.3919 60.9636 80.4419C60.1236 80.5919 59.2736 80.7119 58.4136 80.7919C58.1536 80.8219 57.8836 80.8319 57.6136 80.8619C57.1136 80.9019 56.6036 80.9419 56.0936 80.9619C55.7736 80.9719 55.4436 80.9819 55.1236 80.9919C54.7136 80.9919 54.3036 81.0019 53.8936 80.9919C53.5536 80.9919 53.2136 80.9819 52.8736 80.9619C52.4936 80.9419 52.1136 80.9319 51.7336 80.9019C51.3936 80.8819 51.0436 80.8519 50.7036 80.8119C50.3236 80.7719 49.9536 80.7319 49.5836 80.6819C49.2536 80.6419 48.9136 80.5919 48.5836 80.5419C48.1836 80.4819 47.7836 80.4119 47.3936 80.3319C47.0836 80.2719 46.7736 80.2119 46.4736 80.1419C46.0036 80.0419 45.5336 79.9219 45.0736 79.8019C44.8236 79.7319 44.5636 79.6719 44.3136 79.6019C43.4936 79.3619 42.6836 79.0919 41.9036 78.7919C41.5236 78.6419 41.1436 78.4819 40.7736 78.3119C40.5836 78.2219 40.3836 78.1519 40.1936 78.0619C39.6236 77.7919 39.0736 77.5119 38.5536 77.2019C34.1436 74.6519 31.9336 71.3019 31.9436 67.9619L31.9136 74.7019C31.9136 78.0419 34.1136 81.3919 38.5236 83.9419C39.0536 84.2519 39.6036 84.5319 40.1636 84.8019C40.3536 84.8919 40.5536 84.9719 40.7436 85.0519C41.0736 85.2019 41.4036 85.3519 41.7536 85.4919C41.7936 85.5119 41.8336 85.5219 41.8736 85.5319C42.6536 85.8319 43.4536 86.1019 44.2836 86.3419C44.3536 86.3619 44.4136 86.3919 44.4736 86.4119C44.6636 86.4619 44.8536 86.5019 45.0436 86.5519C45.5036 86.6719 45.9636 86.7919 46.4336 86.8919C46.5636 86.9219 46.6836 86.9519 46.8036 86.9819C46.9836 87.0219 47.1736 87.0419 47.3636 87.0819C47.7536 87.1519 48.1536 87.2219 48.5536 87.2919C48.7136 87.3119 48.8736 87.3519 49.0336 87.3719C49.2036 87.3919 49.3836 87.4119 49.5636 87.4319C49.9336 87.4819 50.3036 87.5219 50.6836 87.5519C50.8636 87.5719 51.0436 87.5919 51.2136 87.6119C51.3836 87.6219 51.5436 87.6319 51.7136 87.6419C52.0936 87.6719 52.4736 87.6919 52.8536 87.7019C53.0436 87.7019 53.2336 87.7319 53.4236 87.7319C53.5736 87.7319 53.7236 87.7319 53.8836 87.7319C54.2936 87.7319 54.7036 87.7319 55.1136 87.7319C55.3136 87.7319 55.5236 87.7319 55.7236 87.7319C55.8436 87.7319 55.9636 87.7119 56.0836 87.7119C56.5936 87.6919 57.0936 87.6519 57.5936 87.6119C57.7936 87.5919 58.0036 87.5919 58.2036 87.5719C58.2636 87.5719 58.3236 87.5519 58.3936 87.5419C59.2536 87.4519 60.1036 87.3319 60.9436 87.1919C60.9836 87.1919 61.0236 87.1819 61.0736 87.1719C61.3236 87.1319 61.5536 87.0619 61.8036 87.0119C62.2136 86.9319 62.6336 86.8419 63.0336 86.7519C63.3336 86.6819 63.6236 86.5919 63.9236 86.5119C64.3136 86.4019 64.6936 86.3019 65.0736 86.1819C65.1536 86.1519 65.2436 86.1419 65.3236 86.1119C65.4636 86.0719 65.5836 86.0019 65.7236 85.9619C66.3236 85.7619 66.9136 85.5319 67.4836 85.2919C67.7036 85.2019 67.9136 85.1119 68.1236 85.0219C68.8536 84.6919 69.5636 84.3419 70.2336 83.9519C70.3236 83.9019 70.4136 83.8419 70.5036 83.7919C70.7136 83.6719 70.8836 83.5319 71.0836 83.4019C71.3536 83.2219 71.6336 83.0519 71.8836 82.8719C72.1036 82.7119 72.3036 82.5419 72.5136 82.3719C72.7436 82.1819 72.9836 82.0019 73.2036 81.8019C73.2436 81.7619 73.3036 81.7319 73.3436 81.6919C73.4336 81.6119 73.4936 81.5219 73.5736 81.4419C73.9136 81.1119 74.2336 80.7719 74.5236 80.4219C74.5836 80.3419 74.6736 80.2719 74.7336 80.2019C74.7936 80.1219 74.8336 80.0519 74.8836 79.9719C75.0736 79.7119 75.2436 79.4519 75.4136 79.1919C75.4836 79.0819 75.5736 78.9719 75.6336 78.8619C75.6636 78.8019 75.6836 78.7519 75.7136 78.6919C75.8336 78.4619 75.9436 78.2319 76.0436 77.9919C76.1036 77.8519 76.1836 77.7219 76.2336 77.5819C76.2536 77.5319 76.2536 77.4919 76.2736 77.4419C76.3536 77.2219 76.4036 76.9919 76.4636 76.7719C76.5036 76.6219 76.5636 76.4719 76.5936 76.3219C76.5936 76.2819 76.5936 76.2419 76.6036 76.2019C76.6436 75.9719 76.6636 75.7319 76.6836 75.4919C76.6936 75.3419 76.7336 75.1819 76.7336 75.0319C76.7336 74.9619 76.7336 74.9019 76.7336 74.8319L76.7636 68.0919C76.7636 68.3119 76.7236 68.5319 76.7036 68.7519L76.6936 68.7619Z" fill="#FB7C4D"/>
<path d="M70.1237 58.8523C78.9137 63.9223 78.9537 72.1523 70.2337 77.2123C61.5037 82.2823 47.3037 82.2823 38.5137 77.2123C29.7337 72.1423 29.6937 63.9223 38.4237 58.8523C47.1437 53.7823 61.3437 53.7823 70.1137 58.8523H70.1237Z" fill="#FEDACC"/>
<path d="M65.6639 72.732L67.9339 74.042L65.9239 75.202L63.6539 73.892C59.5239 75.942 55.1639 76.0119 50.5639 74.0919L53.2739 71.422C55.9539 72.702 58.3639 72.922 60.5139 72.082L55.0139 68.912C54.1939 69.182 53.4439 69.412 52.7439 69.622C48.9039 70.902 45.5839 70.702 42.7939 69.0219C39.8839 67.0719 40.2339 64.892 43.8439 62.472L41.5739 61.162L43.5839 60.002L45.9439 61.362C49.2039 59.752 52.7239 59.602 56.5039 60.912L53.8839 63.532C52.4839 62.932 50.9439 62.842 49.2539 63.282L54.2239 66.152C54.6939 66.022 55.3539 65.832 56.2339 65.602C56.8139 65.472 57.2539 65.352 57.5439 65.252C61.2639 64.382 64.1439 64.562 66.1839 65.802C69.5539 67.882 69.3839 70.202 65.6639 72.752V72.732ZM51.6139 66.932L46.9839 64.262C45.9939 65.232 45.9639 66.092 46.8939 66.832C48.0539 67.572 49.6339 67.602 51.6039 66.932H51.6139ZM57.7239 68.142L62.6139 70.962C63.6639 69.892 63.5739 68.992 62.3539 68.292C61.3039 67.622 59.8539 67.522 57.9939 67.992C57.9339 68.022 57.8439 68.072 57.7339 68.142H57.7239Z" fill="#FB7C4D"/>
<path d="M116.923 100.862C116.903 101.102 116.883 101.332 116.843 101.572C116.803 101.762 116.753 101.952 116.703 102.142C116.643 102.362 116.593 102.592 116.513 102.812C116.453 102.992 116.363 103.172 116.283 103.352C116.183 103.582 116.083 103.822 115.953 104.052C115.863 104.222 115.753 104.382 115.653 104.552C115.493 104.812 115.323 105.072 115.123 105.332C115.013 105.482 114.883 105.632 114.763 105.782C114.473 106.132 114.153 106.472 113.813 106.802C113.693 106.922 113.573 107.042 113.443 107.162C113.233 107.352 112.993 107.542 112.753 107.732C112.543 107.902 112.343 108.062 112.123 108.232C111.873 108.412 111.593 108.592 111.323 108.762C111.043 108.942 110.773 109.132 110.473 109.312C109.803 109.702 109.093 110.052 108.363 110.382C108.153 110.482 107.933 110.562 107.723 110.652C107.153 110.892 106.563 111.112 105.963 111.322C105.743 111.392 105.533 111.472 105.313 111.542C104.933 111.662 104.553 111.762 104.163 111.872C103.873 111.952 103.573 112.042 103.273 112.112C102.863 112.212 102.453 112.292 102.043 112.372C101.763 112.432 101.473 112.492 101.193 112.542C100.353 112.692 99.5031 112.812 98.6431 112.892C98.3831 112.922 98.1131 112.932 97.8431 112.962C97.3431 113.002 96.8331 113.042 96.3231 113.062C96.0031 113.072 95.6731 113.082 95.3531 113.092C94.9431 113.092 94.5331 113.102 94.1231 113.092C93.7831 113.092 93.4431 113.082 93.1031 113.062C92.7231 113.042 92.3431 113.032 91.9631 113.002C91.6231 112.982 91.2731 112.952 90.9331 112.912C90.5531 112.872 90.1831 112.832 89.8131 112.782C89.4831 112.742 89.1431 112.692 88.8131 112.642C88.4131 112.582 88.0131 112.512 87.6231 112.432C87.3131 112.372 87.0031 112.312 86.7031 112.242C86.2331 112.142 85.7631 112.022 85.3031 111.902C85.0531 111.832 84.7931 111.772 84.5431 111.702C83.7231 111.462 82.9131 111.192 82.1331 110.892C81.7531 110.742 81.3731 110.582 81.0031 110.412C80.8131 110.322 80.6131 110.252 80.4231 110.162C79.8531 109.892 79.3031 109.612 78.7831 109.302C74.3731 106.752 72.1631 103.402 72.1731 100.062L72.1431 106.802C72.1431 110.142 74.3431 113.492 78.7531 116.042C79.2831 116.352 79.8331 116.632 80.3931 116.902C80.5831 116.992 80.7831 117.072 80.9731 117.152C81.3031 117.302 81.6331 117.452 81.9831 117.592C82.0231 117.612 82.0631 117.622 82.1031 117.632C82.8831 117.932 83.6831 118.202 84.5131 118.442C84.5831 118.462 84.6431 118.492 84.7031 118.512C84.8931 118.562 85.0831 118.602 85.2731 118.652C85.7331 118.772 86.1931 118.892 86.6631 118.992C86.7931 119.022 86.9131 119.052 87.0331 119.082C87.2131 119.122 87.4031 119.142 87.5931 119.182C87.9831 119.252 88.3831 119.322 88.7831 119.392C88.9431 119.412 89.1031 119.452 89.2631 119.472C89.4331 119.492 89.6131 119.512 89.7931 119.532C90.1631 119.582 90.5331 119.622 90.9131 119.652C91.0931 119.672 91.2731 119.692 91.4431 119.712C91.6131 119.722 91.7731 119.732 91.9431 119.742C92.3231 119.772 92.7031 119.792 93.0831 119.802C93.2731 119.802 93.4631 119.832 93.6531 119.832C93.8031 119.832 93.9531 119.832 94.1131 119.832C94.5231 119.832 94.9331 119.832 95.3431 119.832C95.5431 119.832 95.7531 119.832 95.9531 119.832C96.0731 119.832 96.1931 119.812 96.3131 119.812C96.8231 119.792 97.3231 119.752 97.8231 119.712C98.0231 119.692 98.2331 119.692 98.4331 119.672C98.4931 119.672 98.5531 119.652 98.6231 119.642C99.4831 119.552 100.333 119.432 101.173 119.292C101.213 119.292 101.253 119.282 101.303 119.272C101.553 119.232 101.783 119.162 102.033 119.112C102.443 119.032 102.863 118.942 103.263 118.852C103.563 118.782 103.853 118.692 104.153 118.612C104.543 118.502 104.923 118.402 105.303 118.282C105.383 118.252 105.473 118.242 105.553 118.212C105.693 118.172 105.813 118.112 105.953 118.062C106.553 117.862 107.143 117.632 107.713 117.392C107.933 117.302 108.143 117.212 108.353 117.122C109.083 116.792 109.793 116.442 110.463 116.052C110.553 116.002 110.643 115.942 110.733 115.892C110.943 115.772 111.113 115.632 111.313 115.502C111.583 115.322 111.863 115.152 112.113 114.972C112.333 114.812 112.533 114.642 112.743 114.472C112.973 114.282 113.213 114.102 113.433 113.902C113.473 113.862 113.533 113.832 113.573 113.792C113.663 113.712 113.723 113.622 113.803 113.542C114.143 113.212 114.463 112.872 114.753 112.522C114.813 112.442 114.903 112.372 114.963 112.302C115.023 112.222 115.063 112.152 115.113 112.072C115.303 111.812 115.473 111.552 115.643 111.292C115.713 111.182 115.803 111.072 115.863 110.962C115.893 110.902 115.913 110.852 115.943 110.792C116.063 110.562 116.173 110.332 116.273 110.092C116.333 109.952 116.413 109.822 116.463 109.682C116.483 109.632 116.483 109.592 116.503 109.542C116.583 109.322 116.633 109.092 116.693 108.872C116.733 108.722 116.793 108.572 116.823 108.422C116.823 108.382 116.823 108.342 116.833 108.302C116.873 108.072 116.893 107.832 116.913 107.592C116.923 107.442 116.963 107.282 116.963 107.132C116.963 107.062 116.963 107.002 116.963 106.932L116.993 100.192C116.993 100.412 116.953 100.632 116.933 100.852L116.923 100.862Z" fill="#9AA4BE"/>
<path d="M110.353 90.9519C119.143 96.0219 119.183 104.252 110.463 109.312C101.733 114.382 87.5332 114.382 78.7432 109.312C69.9632 104.242 69.9232 96.0219 78.6532 90.9519C87.3732 85.8819 101.573 85.8819 110.343 90.9519H110.353Z" fill="#D2D7E2"/>
<path d="M105.903 104.832L108.173 106.142L106.163 107.302L103.893 105.992C99.7631 108.042 95.4031 108.112 90.8031 106.192L93.5131 103.522C96.1931 104.802 98.6031 105.022 100.753 104.172L95.2531 101.002C94.4332 101.272 93.6831 101.502 92.9831 101.712C89.1431 102.992 85.8231 102.792 83.0331 101.112C80.1231 99.1618 80.4731 96.9818 84.0831 94.5618L81.8131 93.2518L83.8231 92.0918L86.1831 93.4518C89.4431 91.8418 92.9631 91.6918 96.7431 93.0018L94.1231 95.6218C92.7231 95.0218 91.1831 94.9318 89.4931 95.3718L94.4631 98.2418C94.9331 98.1118 95.5932 97.9218 96.4732 97.6918C97.0532 97.5618 97.4931 97.4418 97.7831 97.3418C101.503 96.4718 104.383 96.6518 106.423 97.8918C109.793 99.9718 109.623 102.292 105.903 104.842V104.832ZM91.8531 99.0318L87.2232 96.3618C86.2332 97.3318 86.2032 98.1918 87.1332 98.9318C88.2932 99.6718 89.8731 99.7018 91.8431 99.0318H91.8531ZM97.9631 100.242L102.853 103.062C103.903 101.992 103.813 101.092 102.593 100.392C101.543 99.7218 100.093 99.6218 98.2331 100.092C98.1731 100.122 98.0832 100.172 97.9732 100.242H97.9631Z" fill="#9AA4BE"/>
<path d="M130.243 42.392C130.193 42.572 130.143 42.752 130.083 42.922C130.033 43.062 129.953 43.202 129.893 43.342C129.813 43.502 129.743 43.672 129.643 43.832C129.563 43.962 129.473 44.092 129.393 44.212C129.283 44.372 129.173 44.542 129.043 44.702C128.953 44.812 128.843 44.932 128.743 45.042C128.583 45.222 128.413 45.392 128.223 45.562C128.113 45.662 127.993 45.762 127.883 45.852C127.613 46.072 127.323 46.292 127.003 46.492C126.893 46.562 126.783 46.642 126.673 46.712C126.483 46.832 126.273 46.932 126.063 47.042C125.883 47.142 125.703 47.242 125.513 47.332C125.293 47.432 125.053 47.532 124.823 47.622C124.583 47.722 124.343 47.822 124.093 47.922C123.523 48.122 122.923 48.282 122.323 48.432C122.143 48.472 121.973 48.512 121.793 48.552C121.323 48.652 120.843 48.732 120.353 48.802C120.173 48.822 120.003 48.852 119.823 48.882C119.513 48.922 119.203 48.942 118.893 48.962C118.653 48.982 118.423 49.002 118.183 49.012C117.863 49.032 117.533 49.032 117.203 49.032C116.973 49.032 116.753 49.042 116.523 49.032C115.863 49.032 115.193 48.992 114.523 48.932C114.313 48.912 114.113 48.892 113.903 48.862C113.513 48.822 113.123 48.772 112.733 48.722C112.483 48.682 112.233 48.642 111.993 48.602C111.673 48.552 111.363 48.492 111.053 48.422C110.793 48.372 110.533 48.312 110.273 48.252C109.983 48.182 109.693 48.112 109.413 48.042C109.153 47.972 108.893 47.902 108.633 47.822C108.353 47.742 108.073 47.652 107.793 47.562C107.543 47.482 107.293 47.392 107.053 47.312C106.753 47.202 106.463 47.092 106.173 46.982C105.943 46.892 105.713 46.802 105.493 46.702C105.143 46.552 104.803 46.392 104.473 46.232C104.293 46.142 104.103 46.062 103.923 45.962C103.323 45.662 102.753 45.332 102.203 44.992C101.933 44.822 101.673 44.642 101.413 44.462C101.273 44.372 101.133 44.282 101.003 44.182C100.613 43.892 100.233 43.592 99.8731 43.282C96.8731 40.692 95.6731 37.812 96.1631 35.252L95.1531 40.402C94.6631 42.962 95.8631 45.842 98.8631 48.432C99.2231 48.742 99.6031 49.042 99.9931 49.332C100.123 49.432 100.263 49.522 100.403 49.612C100.633 49.772 100.863 49.942 101.113 50.092C101.143 50.112 101.173 50.122 101.203 50.142C101.753 50.492 102.333 50.812 102.923 51.112C102.973 51.132 103.013 51.162 103.063 51.192C103.203 51.262 103.343 51.312 103.483 51.382C103.813 51.542 104.153 51.702 104.503 51.842C104.593 51.882 104.683 51.932 104.773 51.962C104.913 52.022 105.053 52.062 105.183 52.122C105.473 52.232 105.763 52.342 106.063 52.452C106.183 52.492 106.293 52.542 106.413 52.582C106.543 52.622 106.673 52.662 106.813 52.702C107.093 52.792 107.363 52.882 107.653 52.962C107.783 53.002 107.923 53.052 108.053 53.082C108.183 53.112 108.303 53.142 108.433 53.172C108.723 53.252 109.003 53.322 109.293 53.382C109.433 53.412 109.583 53.452 109.723 53.492C109.843 53.522 109.953 53.532 110.073 53.552C110.383 53.612 110.693 53.672 111.013 53.722C111.173 53.752 111.323 53.782 111.483 53.812C111.573 53.822 111.673 53.832 111.763 53.842C112.153 53.902 112.543 53.942 112.933 53.982C113.093 54.002 113.253 54.022 113.413 54.042C113.463 54.042 113.513 54.042 113.563 54.042C114.233 54.102 114.903 54.132 115.563 54.142C115.593 54.142 115.633 54.142 115.663 54.142C115.853 54.142 116.053 54.132 116.243 54.132C116.573 54.132 116.903 54.132 117.223 54.112C117.463 54.102 117.693 54.082 117.933 54.062C118.243 54.042 118.553 54.012 118.863 53.982C118.933 53.982 118.993 53.982 119.063 53.962C119.173 53.952 119.283 53.922 119.393 53.902C119.883 53.832 120.363 53.752 120.833 53.652C121.013 53.612 121.193 53.582 121.363 53.532C121.973 53.382 122.563 53.222 123.133 53.022C123.213 52.992 123.293 52.962 123.363 52.942C123.543 52.872 123.693 52.802 123.863 52.732C124.093 52.632 124.333 52.542 124.553 52.442C124.743 52.352 124.923 52.252 125.103 52.152C125.313 52.042 125.523 51.932 125.713 51.822C125.753 51.802 125.793 51.782 125.833 51.752C125.913 51.702 125.973 51.642 126.043 51.592C126.353 51.382 126.643 51.172 126.913 50.952C126.973 50.902 127.043 50.862 127.103 50.812C127.163 50.762 127.203 50.712 127.253 50.662C127.443 50.492 127.603 50.322 127.773 50.142C127.843 50.072 127.923 50.002 127.993 49.922C128.023 49.882 128.043 49.842 128.083 49.802C128.213 49.642 128.323 49.482 128.433 49.312C128.493 49.212 128.583 49.122 128.633 49.032C128.653 49.002 128.663 48.962 128.683 48.932C128.773 48.772 128.853 48.612 128.923 48.452C128.973 48.342 129.043 48.232 129.093 48.122C129.103 48.092 129.113 48.062 129.123 48.032C129.193 47.862 129.233 47.682 129.283 47.502C129.313 47.382 129.363 47.272 129.393 47.162C129.403 47.112 129.413 47.062 129.423 47.012L130.433 41.862C130.403 42.032 130.343 42.192 130.293 42.352L130.243 42.392Z" fill="#9AA4BE"/>
<path d="M126.663 33.8624C132.643 39.0224 131.483 45.3124 124.073 47.9224C116.663 50.5324 105.803 48.4624 99.8231 43.3024C93.8531 38.1524 95.0131 31.8524 102.423 29.2424C109.823 26.6324 120.683 28.7024 126.663 33.8524V33.8624Z" fill="#9AA4BE"/>
<path d="M132.013 36.5121C131.963 36.6921 131.913 36.8721 131.853 37.0421C131.803 37.1821 131.723 37.3221 131.663 37.4621C131.583 37.6221 131.513 37.7921 131.413 37.9521C131.333 38.0821 131.243 38.2121 131.163 38.3321C131.053 38.4921 130.943 38.6621 130.813 38.8221C130.723 38.9421 130.613 39.0521 130.513 39.1621C130.353 39.3421 130.183 39.5121 129.993 39.6821C129.883 39.7821 129.763 39.8821 129.653 39.9721C129.383 40.1921 129.093 40.4121 128.773 40.6121C128.663 40.6821 128.553 40.7621 128.443 40.8321C128.253 40.9521 128.043 41.0521 127.833 41.1621C127.653 41.2621 127.473 41.3621 127.283 41.4521C127.063 41.5521 126.823 41.6521 126.593 41.7421C126.353 41.8421 126.113 41.9421 125.863 42.0421C125.293 42.2421 124.693 42.4021 124.093 42.5521C123.913 42.5921 123.743 42.6321 123.563 42.6721C123.093 42.7721 122.613 42.8521 122.123 42.9221C121.943 42.9421 121.773 42.9721 121.593 43.0021C121.283 43.0421 120.973 43.0621 120.663 43.0821C120.423 43.1021 120.193 43.1221 119.953 43.1321C119.633 43.1521 119.303 43.1521 118.973 43.1521C118.743 43.1521 118.523 43.1621 118.293 43.1521C117.633 43.1521 116.963 43.1121 116.293 43.0521C116.083 43.0321 115.883 43.0121 115.673 42.9821C115.283 42.9421 114.893 42.8921 114.503 42.8421C114.253 42.8021 114.003 42.7621 113.763 42.7221C113.443 42.6721 113.133 42.6121 112.823 42.5421C112.563 42.4921 112.303 42.4321 112.043 42.3721C111.753 42.3021 111.463 42.2321 111.183 42.1621C110.923 42.0921 110.663 42.0221 110.403 41.9421C110.123 41.8621 109.843 41.7721 109.563 41.6821C109.313 41.6021 109.063 41.5121 108.823 41.4321C108.523 41.3221 108.233 41.2121 107.943 41.1021C107.713 41.0121 107.483 40.9221 107.263 40.8221C106.913 40.6721 106.573 40.5121 106.243 40.3521C106.063 40.2621 105.873 40.1821 105.693 40.0821C105.093 39.7821 104.523 39.4521 103.973 39.1121C103.703 38.9421 103.443 38.7621 103.183 38.5821C103.043 38.4921 102.903 38.4021 102.773 38.3021C102.383 38.0121 102.003 37.7121 101.643 37.4021C98.6431 34.8121 97.4431 31.9321 97.9331 29.3721L96.9231 34.5221C96.4331 37.0821 97.6331 39.9621 100.633 42.5521C100.993 42.8621 101.373 43.1621 101.763 43.4521C101.893 43.5521 102.033 43.6321 102.173 43.7321C102.403 43.8921 102.633 44.0621 102.883 44.2121C102.913 44.2321 102.943 44.2421 102.973 44.2621C103.523 44.6121 104.103 44.9321 104.693 45.2321C104.743 45.2521 104.783 45.2821 104.833 45.3121C104.973 45.3821 105.113 45.4421 105.253 45.5021C105.583 45.6621 105.923 45.8221 106.273 45.9621C106.363 46.0021 106.453 46.0521 106.543 46.0821C106.683 46.1421 106.823 46.1821 106.953 46.2421C107.243 46.3521 107.533 46.4621 107.833 46.5721C107.953 46.6121 108.063 46.6621 108.183 46.7021C108.313 46.7421 108.443 46.7821 108.583 46.8221C108.863 46.9121 109.143 47.0021 109.423 47.0821C109.553 47.1221 109.693 47.1721 109.823 47.2021C109.953 47.2321 110.073 47.2621 110.203 47.2921C110.493 47.3721 110.773 47.4421 111.063 47.5021C111.203 47.5321 111.353 47.5721 111.493 47.6121C111.613 47.6421 111.723 47.6521 111.843 47.6721C112.153 47.7321 112.463 47.7921 112.783 47.8421C112.943 47.8721 113.093 47.9021 113.253 47.9321C113.343 47.9421 113.443 47.9521 113.533 47.9621C113.923 48.0221 114.313 48.0621 114.703 48.1021C114.863 48.1221 115.023 48.1421 115.183 48.1621C115.233 48.1621 115.283 48.1621 115.333 48.1621C116.003 48.2221 116.673 48.2521 117.333 48.2621C117.363 48.2621 117.403 48.2621 117.433 48.2621C117.623 48.2621 117.823 48.2521 118.013 48.2521C118.343 48.2521 118.673 48.2521 118.993 48.2321C119.233 48.2221 119.473 48.2021 119.703 48.1821C120.013 48.1621 120.323 48.1321 120.633 48.1021C120.703 48.1021 120.763 48.1021 120.833 48.0821C120.943 48.0721 121.053 48.0421 121.163 48.0221C121.653 47.9521 122.133 47.8721 122.603 47.7721C122.783 47.7321 122.963 47.7021 123.133 47.6521C123.743 47.5021 124.333 47.3421 124.903 47.1421C124.983 47.1121 125.063 47.0821 125.133 47.0621C125.313 46.9921 125.463 46.9221 125.633 46.8521C125.863 46.7521 126.103 46.6621 126.323 46.5621C126.513 46.4721 126.693 46.3721 126.873 46.2721C127.083 46.1621 127.293 46.0521 127.483 45.9421C127.523 45.9221 127.563 45.9021 127.603 45.8721C127.683 45.8221 127.743 45.7621 127.813 45.7121C128.123 45.5021 128.413 45.2921 128.683 45.0721C128.743 45.0221 128.813 44.9821 128.873 44.9321C128.933 44.8821 128.973 44.8321 129.023 44.7821C129.203 44.6121 129.373 44.4421 129.543 44.2621C129.613 44.1921 129.693 44.1221 129.763 44.0421C129.793 44.0021 129.813 43.9621 129.853 43.9221C129.983 43.7621 130.093 43.6021 130.203 43.4321C130.263 43.3321 130.353 43.2421 130.403 43.1521C130.423 43.1221 130.433 43.0821 130.453 43.0521C130.543 42.8921 130.623 42.7321 130.693 42.5721C130.743 42.4621 130.813 42.3521 130.863 42.2421C130.873 42.2121 130.883 42.1821 130.893 42.1521C130.963 41.9821 131.003 41.8021 131.053 41.6221C131.083 41.5021 131.133 41.3921 131.163 41.2821C131.173 41.2321 131.183 41.1821 131.193 41.1321L132.203 35.9821C132.173 36.1521 132.113 36.3121 132.063 36.4721L132.013 36.5121Z" fill="#9AA4BE"/>
<path d="M128.433 27.9718C134.413 33.1318 133.253 39.4218 125.843 42.0318C118.433 44.6418 107.573 42.5718 101.593 37.4118C95.6231 32.2618 96.7831 25.9618 104.193 23.3518C111.593 20.7418 122.453 22.8118 128.433 27.9618V27.9718Z" fill="#9AA4BE"/>
<path d="M133.683 30.6224C133.633 30.8024 133.583 30.9824 133.523 31.1524C133.473 31.2924 133.393 31.4324 133.333 31.5724C133.253 31.7324 133.183 31.9024 133.083 32.0624C133.003 32.1924 132.913 32.3224 132.833 32.4424C132.723 32.6024 132.613 32.7724 132.483 32.9324C132.393 33.0524 132.283 33.1624 132.183 33.2724C132.023 33.4524 131.853 33.6224 131.663 33.7924C131.553 33.8924 131.433 33.9924 131.323 34.0824C131.053 34.3024 130.763 34.5224 130.443 34.7224C130.333 34.7924 130.223 34.8724 130.113 34.9424C129.923 35.0624 129.713 35.1624 129.503 35.2724C129.323 35.3724 129.143 35.4724 128.953 35.5624C128.733 35.6624 128.493 35.7624 128.263 35.8524C128.023 35.9524 127.783 36.0524 127.533 36.1524C126.963 36.3524 126.363 36.5124 125.763 36.6624C125.583 36.7024 125.413 36.7424 125.233 36.7824C124.763 36.8824 124.283 36.9624 123.793 37.0324C123.613 37.0524 123.443 37.0824 123.263 37.1124C122.953 37.1524 122.643 37.1724 122.333 37.1924C122.093 37.2124 121.863 37.2324 121.623 37.2424C121.303 37.2624 120.973 37.2624 120.643 37.2624C120.413 37.2624 120.193 37.2724 119.963 37.2624C119.303 37.2624 118.633 37.2224 117.963 37.1624C117.753 37.1424 117.553 37.1224 117.343 37.0924C116.953 37.0524 116.563 37.0024 116.173 36.9524C115.923 36.9124 115.673 36.8724 115.433 36.8324C115.113 36.7824 114.803 36.7224 114.493 36.6524C114.233 36.6024 113.973 36.5424 113.713 36.4824C113.423 36.4124 113.133 36.3424 112.853 36.2724C112.593 36.2024 112.333 36.1324 112.073 36.0524C111.793 35.9724 111.513 35.8824 111.233 35.7924C110.983 35.7124 110.733 35.6224 110.493 35.5424C110.193 35.4324 109.903 35.3224 109.613 35.2124C109.383 35.1224 109.153 35.0324 108.933 34.9324C108.583 34.7824 108.243 34.6224 107.913 34.4624C107.733 34.3724 107.543 34.2924 107.363 34.1924C106.763 33.8924 106.193 33.5624 105.643 33.2224C105.373 33.0524 105.113 32.8724 104.853 32.6924C104.713 32.6024 104.573 32.5124 104.443 32.4124C104.053 32.1224 103.673 31.8224 103.313 31.5124C100.313 28.9224 99.113 26.0424 99.603 23.4824L98.593 28.6324C98.103 31.1924 99.303 34.0724 102.303 36.6624C102.663 36.9724 103.043 37.2724 103.433 37.5624C103.563 37.6624 103.703 37.7424 103.843 37.8424C104.073 38.0024 104.303 38.1724 104.553 38.3224C104.583 38.3424 104.613 38.3524 104.643 38.3724C105.193 38.7224 105.773 39.0424 106.363 39.3424C106.413 39.3624 106.453 39.3924 106.503 39.4224C106.643 39.4924 106.783 39.5424 106.923 39.6124C107.253 39.7724 107.593 39.9324 107.943 40.0724C108.033 40.1124 108.123 40.1624 108.213 40.1924C108.353 40.2524 108.493 40.2924 108.623 40.3524C108.913 40.4624 109.203 40.5824 109.503 40.6824C109.623 40.7224 109.733 40.7724 109.853 40.8124C109.983 40.8524 110.113 40.8924 110.253 40.9324C110.533 41.0224 110.813 41.1124 111.093 41.1924C111.223 41.2324 111.363 41.2824 111.493 41.3124C111.623 41.3424 111.743 41.3724 111.873 41.4024C112.163 41.4824 112.443 41.5524 112.733 41.6124C112.873 41.6424 113.023 41.6824 113.163 41.7224C113.283 41.7424 113.393 41.7624 113.513 41.7824C113.823 41.8424 114.133 41.9024 114.453 41.9524C114.613 41.9824 114.763 42.0124 114.923 42.0424C115.013 42.0524 115.113 42.0624 115.203 42.0724C115.593 42.1324 115.983 42.1724 116.373 42.2124C116.533 42.2324 116.693 42.2524 116.853 42.2724C116.903 42.2724 116.953 42.2724 117.003 42.2724C117.673 42.3324 118.343 42.3624 119.003 42.3724C119.033 42.3724 119.073 42.3724 119.103 42.3724C119.293 42.3724 119.493 42.3624 119.683 42.3624C120.013 42.3624 120.343 42.3624 120.663 42.3424C120.903 42.3324 121.143 42.3124 121.373 42.2924C121.683 42.2724 121.993 42.2424 122.303 42.2124C122.373 42.2124 122.433 42.2124 122.503 42.1924C122.613 42.1824 122.723 42.1524 122.833 42.1324C123.323 42.0624 123.803 41.9824 124.273 41.8824C124.453 41.8424 124.633 41.8124 124.803 41.7624C125.413 41.6124 126.003 41.4524 126.573 41.2524C126.653 41.2224 126.733 41.1924 126.803 41.1724C126.983 41.1024 127.133 41.0324 127.303 40.9624C127.533 40.8624 127.773 40.7724 127.993 40.6724C128.183 40.5824 128.363 40.4824 128.543 40.3824C128.753 40.2724 128.963 40.1624 129.153 40.0524C129.193 40.0324 129.233 40.0124 129.273 39.9824C129.353 39.9324 129.413 39.8724 129.483 39.8224C129.793 39.6124 130.083 39.4024 130.353 39.1824C130.413 39.1324 130.483 39.0924 130.543 39.0424C130.603 38.9924 130.643 38.9424 130.693 38.8924C130.873 38.7224 131.043 38.5524 131.213 38.3724C131.283 38.3024 131.363 38.2324 131.433 38.1524C131.463 38.1124 131.483 38.0724 131.523 38.0324C131.653 37.8724 131.763 37.7124 131.873 37.5424C131.933 37.4424 132.023 37.3524 132.073 37.2624C132.093 37.2324 132.103 37.1924 132.123 37.1624C132.213 37.0024 132.293 36.8424 132.363 36.6824C132.413 36.5724 132.483 36.4624 132.533 36.3524C132.543 36.3224 132.553 36.2924 132.563 36.2624C132.633 36.0924 132.673 35.9124 132.723 35.7324C132.753 35.6124 132.803 35.5024 132.833 35.3924C132.843 35.3424 132.853 35.2924 132.863 35.2424L133.873 30.0924C133.843 30.2624 133.783 30.4224 133.733 30.5824L133.683 30.6224Z" fill="#9AA4BE"/>
<path d="M130.103 22.0924C136.083 27.2524 134.923 33.5424 127.513 36.1524C120.103 38.7624 109.243 36.6924 103.263 31.5324C97.293 26.3824 98.453 20.0824 105.863 17.4724C113.263 14.8724 124.123 16.9324 130.103 22.0824V22.0924Z" fill="#D2D7E2"/>
<path d="M138.023 25.3421C137.973 25.5221 137.923 25.7021 137.863 25.8721C137.813 26.0121 137.733 26.1521 137.673 26.2921C137.593 26.4521 137.523 26.6221 137.423 26.7821C137.343 26.9121 137.253 27.0421 137.173 27.1621C137.063 27.3221 136.953 27.4921 136.823 27.6521C136.733 27.7721 136.623 27.8821 136.523 27.9921C136.363 28.1721 136.193 28.3421 136.003 28.5121C135.893 28.6121 135.773 28.7121 135.663 28.8021C135.393 29.0221 135.103 29.2421 134.783 29.4421C134.673 29.5121 134.563 29.5921 134.453 29.6621C134.263 29.7821 134.053 29.8821 133.843 29.9921C133.663 30.0921 133.483 30.1921 133.293 30.2821C133.073 30.3821 132.833 30.4821 132.603 30.5721C132.363 30.6721 132.123 30.7821 131.873 30.8721C131.303 31.0721 130.703 31.2321 130.103 31.3821C129.923 31.4221 129.753 31.4621 129.573 31.5021C129.103 31.6021 128.623 31.6821 128.133 31.7521C127.953 31.7721 127.783 31.8021 127.603 31.8321C127.293 31.8721 126.983 31.8921 126.673 31.9121C126.433 31.9321 126.203 31.9521 125.963 31.9621C125.643 31.9821 125.313 31.9821 124.983 31.9821C124.753 31.9821 124.533 31.9921 124.303 31.9821C123.643 31.9821 122.973 31.9421 122.303 31.8821C122.093 31.8621 121.893 31.8421 121.683 31.8121C121.293 31.7721 120.903 31.7221 120.513 31.6721C120.263 31.6321 120.013 31.5921 119.773 31.5521C119.453 31.5021 119.143 31.4421 118.833 31.3721C118.573 31.3221 118.313 31.2621 118.053 31.2021C117.763 31.1321 117.473 31.0621 117.193 30.9921C116.933 30.9221 116.673 30.8521 116.413 30.7721C116.133 30.6921 115.853 30.6021 115.573 30.5121C115.323 30.4321 115.073 30.3421 114.833 30.2621C114.533 30.1521 114.243 30.0421 113.953 29.9321C113.723 29.8421 113.493 29.7521 113.273 29.6521C112.923 29.5021 112.583 29.3421 112.253 29.1821C112.073 29.0921 111.883 29.0121 111.703 28.9121C111.103 28.6121 110.533 28.2821 109.983 27.9421C109.713 27.7721 109.453 27.5921 109.193 27.4121C109.053 27.3221 108.913 27.2321 108.783 27.1321C108.393 26.8421 108.013 26.5421 107.653 26.2321C104.653 23.6421 103.453 20.7621 103.943 18.2021L102.933 23.3521C102.443 25.9121 103.643 28.7921 106.643 31.3821C107.003 31.6921 107.383 31.9921 107.773 32.2821C107.903 32.3821 108.043 32.4621 108.183 32.5621C108.413 32.7221 108.643 32.8921 108.893 33.0421C108.923 33.0621 108.953 33.0721 108.983 33.0921C109.533 33.4421 110.113 33.7621 110.703 34.0621C110.753 34.0821 110.793 34.1121 110.843 34.1421C110.983 34.2121 111.123 34.2722 111.263 34.3321C111.593 34.4921 111.933 34.6521 112.283 34.7921C112.373 34.8321 112.463 34.8821 112.553 34.9121C112.693 34.9721 112.833 35.0121 112.963 35.0721C113.253 35.1821 113.543 35.3021 113.843 35.4021C113.963 35.4422 114.073 35.4921 114.193 35.5321C114.323 35.5721 114.453 35.6121 114.593 35.6521C114.873 35.7421 115.143 35.8321 115.433 35.9121C115.563 35.9521 115.703 36.0021 115.833 36.0321C115.963 36.0621 116.083 36.0921 116.213 36.1221C116.503 36.2021 116.783 36.2722 117.073 36.3321C117.213 36.3622 117.363 36.4021 117.503 36.4421C117.623 36.4721 117.733 36.4821 117.853 36.5021C118.163 36.5621 118.473 36.6221 118.793 36.6721C118.953 36.7021 119.103 36.7321 119.263 36.7621C119.353 36.7721 119.453 36.7821 119.543 36.7921C119.933 36.8521 120.323 36.8921 120.713 36.9321C120.873 36.9521 121.033 36.9721 121.193 36.9921C121.243 36.9921 121.293 36.9921 121.343 36.9921C122.013 37.0521 122.683 37.0821 123.343 37.0921C123.373 37.0921 123.413 37.0921 123.443 37.0921C123.633 37.0921 123.833 37.0821 124.023 37.0821C124.353 37.0821 124.683 37.0821 125.003 37.0621C125.243 37.0521 125.483 37.0321 125.713 37.0121C126.023 36.9921 126.333 36.9621 126.643 36.9321C126.713 36.9321 126.773 36.9321 126.843 36.9121C126.953 36.9021 127.063 36.8721 127.173 36.8521C127.663 36.7821 128.143 36.7021 128.613 36.6021C128.793 36.5621 128.973 36.5321 129.143 36.4821C129.753 36.3321 130.343 36.1721 130.913 35.9721C130.993 35.9421 131.073 35.9121 131.143 35.8921C131.323 35.8221 131.473 35.7521 131.643 35.6821C131.873 35.5821 132.113 35.4921 132.333 35.3921C132.523 35.3021 132.703 35.2021 132.883 35.1021C133.093 34.9921 133.303 34.8821 133.493 34.7721C133.533 34.7521 133.573 34.7321 133.613 34.7021C133.693 34.6521 133.753 34.5921 133.823 34.5421C134.133 34.3321 134.423 34.1221 134.693 33.9021C134.753 33.8521 134.823 33.8121 134.883 33.7621C134.943 33.7121 134.983 33.6621 135.033 33.6121C135.213 33.4421 135.383 33.2721 135.553 33.0921C135.623 33.0221 135.703 32.9521 135.773 32.8721C135.803 32.8321 135.823 32.7921 135.863 32.7521C135.993 32.5921 136.103 32.4321 136.213 32.2621C136.273 32.1621 136.363 32.0721 136.413 31.9821C136.433 31.9521 136.443 31.9121 136.463 31.8821C136.553 31.7221 136.633 31.5621 136.703 31.4021C136.753 31.2921 136.823 31.1821 136.873 31.0721C136.883 31.0421 136.893 31.0121 136.903 30.9821C136.973 30.8121 137.013 30.6321 137.063 30.4521C137.093 30.3321 137.143 30.2221 137.173 30.1121C137.183 30.0621 137.193 30.0121 137.203 29.9621L138.213 24.8121C138.183 24.9821 138.123 25.1421 138.073 25.3021L138.023 25.3421Z" fill="#9AA4BE"/>
<path d="M134.443 16.8126C140.423 21.9726 139.263 28.2626 131.853 30.8726C124.443 33.4826 113.583 31.4126 107.603 26.2526C101.633 21.1026 102.793 14.8026 110.203 12.1926C117.603 9.5826 128.463 11.6526 134.443 16.8026V16.8126Z" fill="#D2D7E2"/>
<path d="M129.013 26.7823L130.553 28.1123L128.853 28.7023L127.313 27.3723C123.853 28.3423 120.513 27.7523 117.273 25.6223L119.733 23.9723C121.593 25.3423 123.413 25.8523 125.173 25.5323L121.433 22.3023C120.773 22.3923 120.163 22.4623 119.593 22.5123C116.473 22.9323 113.963 22.2923 112.073 20.6023C110.133 18.6923 110.713 17.0723 113.823 15.7423L112.283 14.4123L113.983 13.8223L115.583 15.2023C118.313 14.4423 121.023 14.8423 123.723 16.3923L121.343 18.0123C120.363 17.3423 119.193 17.0623 117.843 17.1423L121.233 20.0623C121.613 20.0323 122.143 19.9823 122.853 19.9323C123.313 19.9123 123.673 19.8923 123.903 19.8523C126.883 19.7223 129.053 20.2923 130.433 21.5323C132.713 23.6123 132.243 25.3623 129.023 26.7723L129.013 26.7823ZM119.113 20.3023L115.963 17.5823C115.063 18.1823 114.923 18.8323 115.523 19.5323C116.303 20.2623 117.503 20.5223 119.113 20.2923V20.3023ZM123.613 22.1123L126.943 24.9823C127.903 24.3123 127.963 23.6223 127.133 22.9023C126.433 22.2323 125.333 21.9523 123.843 22.0323C123.793 22.0523 123.723 22.0723 123.623 22.1123H123.613Z" fill="#9AA4BE"/>
<path d="M115.983 40.5525L113.283 40.9025C113.283 40.9025 111.523 41.6025 111.303 41.6725C111.303 41.6725 110.233 41.7725 109.933 41.8225C109.633 41.8825 109.463 42.8525 110.073 43.3925C110.653 43.6625 111.233 43.2725 111.233 43.2725C111.233 43.2725 110.283 44.7125 110.193 44.7725C110.113 44.8325 109.363 45.6325 109.223 45.7125C109.083 45.7925 109.143 46.2625 109.363 46.3925C109.363 46.3925 109.093 46.3925 109.083 46.5525C109.083 46.7125 109.203 47.1925 109.543 47.2125C109.633 47.2125 109.783 47.2125 109.783 47.2125C109.783 47.2125 109.763 47.3425 109.883 47.5725C110.003 47.8025 110.253 47.8225 110.333 47.8225C110.423 47.8225 110.713 47.8225 110.713 47.8225C110.713 47.8225 110.743 48.1225 110.973 48.1625C111.203 48.2025 112.123 47.5025 112.583 47.2625C113.073 47.0025 114.383 46.2325 114.673 45.8925C114.993 45.5225 115.543 44.7725 115.543 44.7725L117.083 43.8725L115.963 40.5225L115.983 40.5525Z" fill="#FCE2CE"/>
<path d="M151.653 97.8717L148.823 97.4717C148.003 97.9417 147.603 97.7317 146.283 97.9017C145.633 97.9217 145.223 97.5717 144.653 97.4717C144.033 97.3617 142.593 97.3017 142.073 97.9917C141.243 99.1017 142.553 100.732 143.633 100.992C144.473 101.192 145.343 101.092 146.193 101.242C146.903 101.362 147.483 101.732 148.063 102.142C148.753 102.642 149.093 102.752 149.933 102.812C151.233 102.912 151.703 101.672 151.513 100.552C151.323 99.4217 151.653 97.8817 151.653 97.8817V97.8717Z" fill="#2D2D2D"/>
<path d="M133.623 97.8717L130.793 97.4717C129.973 97.9417 129.573 97.7317 128.253 97.9017C127.603 97.9217 127.193 97.5717 126.623 97.4717C126.003 97.3617 124.563 97.3017 124.043 97.9917C123.213 99.1017 124.523 100.732 125.603 100.992C126.443 101.192 127.313 101.092 128.163 101.242C128.873 101.362 129.453 101.732 130.033 102.142C130.723 102.642 131.063 102.752 131.903 102.812C133.203 102.912 133.673 101.672 133.483 100.552C133.293 99.4217 133.623 97.8817 133.623 97.8817V97.8717Z" fill="#2D2D2D"/>
<path d="M137.774 5.99172C137.634 7.80172 138.084 13.7917 141.384 14.9717C141.384 14.9717 147.244 13.0717 142.874 6.16172C142.474 5.53172 141.314 3.82172 139.744 4.01172C139.164 4.08172 137.814 5.47172 137.774 5.99172Z" fill="#E9A97F"/>
<path d="M151.403 42.7121C151.403 42.7121 153.903 47.3721 154.523 50.0221C155.333 53.4921 155.743 55.1521 154.953 59.9821C153.733 67.4521 152.293 68.0721 151.603 74.6721C151.603 74.6721 152.613 87.3322 152.263 97.4122C152.233 98.3521 146.763 98.0322 145.143 96.7221C145.143 96.7221 146.073 93.0021 145.953 89.2121C145.743 82.4421 144.853 77.7421 144.853 77.7421C145.263 69.5421 143.893 57.2421 143.633 57.7621C142.663 59.7021 140.983 62.9321 139.463 66.1021C137.383 70.4421 136.613 73.4722 136.513 76.8722C136.513 76.8722 136.973 93.5321 135.183 98.1821C134.283 99.0121 130.433 99.2521 128.173 96.9921L129.563 72.3521C129.563 72.3521 129.793 70.1821 131.303 62.6221C132.863 54.8021 135.153 47.5621 135.763 43.2221C135.763 43.2221 146.013 47.9121 151.403 42.7021V42.7121Z" fill="#415385"/>
<path d="M155.023 30.5614C154.853 31.6714 154.693 32.5014 154.643 32.9914C154.603 33.3714 154.413 33.7114 154.123 33.9614C152.873 35.0114 150.773 37.0914 150.773 37.0914C150.753 34.7714 150.943 32.4714 151.193 30.5414C151.533 27.7514 151.983 25.7714 151.983 25.7714C153.653 19.9314 151.913 17.5614 150.763 16.6614C150.283 16.3014 149.903 16.1814 149.903 16.1814C150.463 16.0514 150.973 16.0214 151.413 16.0814C153.993 16.4214 154.683 19.5214 154.683 19.5214C155.843 23.8814 155.433 27.9514 155.033 30.5614H155.023Z" fill="#62719A"/>
<path d="M151.183 30.5422C150.863 32.6422 151.043 36.6922 151.263 38.8122C151.463 40.7122 152.043 44.4722 152.563 46.3022C153.133 48.2822 134.743 48.2222 134.743 48.2222C134.743 48.2222 134.803 48.2022 135.443 45.0822C136.903 38.0022 136.133 33.1822 135.373 30.6022L130.913 40.3422C130.683 40.8422 130.223 41.2122 129.673 41.3222L116.503 43.9622L115.383 40.6122L126.373 36.6122C126.853 36.4422 127.233 36.0622 127.403 35.5822L133.163 20.0222C133.363 19.4822 133.823 19.0722 134.383 18.9422C135.753 18.6122 138.313 17.9922 139.123 17.6922C139.483 17.5722 140.283 16.9822 140.283 16.7622C140.283 16.7622 146.423 16.8822 147.113 15.4922C147.113 15.4922 147.403 16.0422 147.873 16.3622C149.203 16.3022 149.943 16.0922 150.763 16.1322C152.813 16.2222 153.363 19.4722 153.413 20.9522C153.443 22.1022 153.273 23.2222 153.043 24.3422C152.483 27.1022 151.623 27.7522 151.183 30.5422Z" fill="#62719A"/>
<path d="M149.273 3.99215C148.043 1.12215 145.923 -1.90785 139.113 1.53215C139.113 1.53215 137.253 1.43215 136.603 3.09215C135.953 4.75215 137.293 6.35215 138.983 6.38215L139.973 6.40215C139.973 6.40215 142.583 16.8321 138.233 19.7822C138.233 19.7822 140.323 20.8221 143.693 20.2621C144.023 20.2122 144.363 20.1322 144.713 20.0422C145.173 19.9321 145.653 19.7722 146.153 19.5921C146.453 19.4821 146.753 19.3621 147.063 19.2221C147.663 18.9621 148.273 18.6622 148.913 18.2922C152.653 16.1222 150.113 5.97215 149.253 3.98215L149.273 3.99215Z" fill="#AA2417"/>
<path d="M32.3739 55.2129C30.5639 53.7029 32.4739 51.1629 35.3439 47.3729C38.2139 43.5729 37.8238 38.3829 41.8938 35.5429C45.9638 32.7029 51.4938 36.3029 48.5038 40.7729C45.5238 45.2429 38.3739 53.0629 35.6539 54.7729C32.9339 56.4929 32.3739 55.2229 32.3739 55.2229V55.2129Z" fill="#415385"/>
<path d="M15.8136 60.3727C21.2036 58.0527 28.9336 52.3027 32.2636 51.8127C35.5936 51.3227 35.9336 53.8227 35.0636 55.2327C34.1936 56.6427 23.6236 61.2827 17.8336 61.9427C12.0436 62.6127 15.8136 60.3727 15.8136 60.3727Z" fill="#8F705C"/>
<path d="M20.2734 57.6532C24.6034 55.1332 29.8834 51.7132 32.2134 51.3632C35.5434 50.8732 36.3134 53.8632 35.4434 55.2632C34.7334 56.4132 27.6434 59.8032 21.8734 61.3332L20.2734 57.6432V57.6532Z" fill="#415385"/>
<path d="M57.4636 73.292C57.3136 61.272 25.9436 64.582 20.8336 64.352C15.7236 64.122 11.1336 69.352 20.8836 73.782C30.6336 78.212 46.1436 81.252 51.6036 78.042C57.0636 74.822 57.4636 73.292 57.4636 73.292Z" fill="#D04A02"/>
<path d="M57.1535 66.5429C48.4235 62.6929 26.7435 72.4329 22.5435 73.3829C17.5535 74.5128 13.6635 79.0529 24.2335 80.7429C34.8035 82.4329 51.4235 81.0929 56.8335 78.4829C61.5235 76.2229 60.8535 69.5529 59.8435 67.9229C59.0135 66.5829 57.8935 66.8729 57.1535 66.5529V66.5429Z" fill="#AA2417"/>
<path d="M41.6135 35.9525C41.1535 36.8325 41.0535 39.9225 41.0935 42.8725C41.1335 46.2325 41.6435 49.5625 42.6235 52.7725L46.9135 66.8425C46.9135 66.8425 48.6435 70.1125 52.6635 69.8425C53.1335 69.8125 53.5835 69.7625 54.0335 69.6925C57.3835 69.2025 59.8535 67.9125 59.8535 67.9125L59.0935 39.5625C61.9735 32.9325 43.5835 32.2125 41.6235 35.9425L41.6135 35.9525Z" fill="#415385"/>
<path d="M48.6835 36.3722C48.4435 36.4422 48.2035 36.4822 47.9635 36.5022C46.5635 36.6022 45.2235 35.7922 44.7935 34.4922" fill="#9A6C44"/>
<path d="M31.4633 62.6729L14.1033 63.8529L8.16334 49.4529C8.00334 49.0629 8.27334 48.6329 8.69334 48.6029L24.6133 47.5229C24.9633 47.5029 25.2933 47.7029 25.4333 48.0329L31.4733 62.6729H31.4633Z" fill="#203570"/>
<path d="M46.8643 61.6105L15.5263 63.736C15.5153 63.7367 15.507 63.7462 15.5077 63.7573L15.5652 64.6053C15.566 64.6163 15.5755 64.6247 15.5865 64.6239L46.9245 62.4985C46.9356 62.4977 46.9439 62.4882 46.9431 62.4772L46.8856 61.6291C46.8849 61.6181 46.8753 61.6098 46.8643 61.6105Z" fill="#1A2A5A"/>
<path d="M15.1432 61.0522C15.1632 61.3522 14.9332 61.6222 14.6332 61.6422L12.4232 61.8022C12.1232 61.8222 11.8532 61.5922 11.8332 61.2922C11.8132 60.9922 12.0433 60.7222 12.3433 60.7022L14.5532 60.5422C14.8532 60.5222 15.1232 60.7522 15.1432 61.0522Z" fill="#9A6C44"/>
<path d="M14.6735 59.9829C14.6935 60.2829 14.4635 60.5529 14.1635 60.5729L11.9535 60.7329C11.6535 60.7529 11.3835 60.5229 11.3635 60.2229C11.3435 59.9229 11.5735 59.6529 11.8735 59.6329L14.0835 59.4729C14.3835 59.4529 14.6535 59.6829 14.6735 59.9829Z" fill="#9A6C44"/>
<path d="M13.4735 59.0024C13.4935 59.3024 13.2635 59.5724 12.9635 59.5924L11.4135 59.7124C11.1135 59.7324 10.8435 59.5024 10.8235 59.2024C10.8035 58.9024 11.0335 58.6324 11.3335 58.6124L12.8835 58.4924C13.1835 58.4724 13.4535 58.7024 13.4735 59.0024Z" fill="#9A6C44"/>
<path d="M14.8636 62.1323C14.8836 62.4323 14.6536 62.7023 14.3536 62.7223L12.8036 62.8423C12.5036 62.8623 12.2336 62.6323 12.2136 62.3323C12.1936 62.0323 12.4236 61.7623 12.7236 61.7423L14.2736 61.6223C14.5736 61.6023 14.8436 61.8323 14.8636 62.1323Z" fill="#9A6C44"/>
<path d="M18.6935 75.4221C25.3835 73.4421 28.0035 81.3321 28.5535 85.9021C29.0935 90.4721 32.3235 107.892 32.3235 107.892L25.9335 107.352C25.9335 107.352 18.2535 82.6221 17.6935 79.5321C17.1335 76.4421 18.7035 75.4221 18.7035 75.4221H18.6935Z" fill="#AA2417"/>
<path d="M9.13359 91.3023L6.68359 98.7023L9.4836 98.2123L12.8436 91.1523L9.13359 91.3023Z" fill="#9A6C44"/>
<path d="M17.3435 64.9023C24.0535 66.8323 22.4535 75.7923 20.4335 79.9723C18.4035 84.1523 12.2835 98.0523 12.2835 98.0523L6.3335 96.7423C6.3335 96.7423 13.0535 70.7923 14.2635 67.8623C15.4735 64.9323 17.3435 64.9123 17.3435 64.9123V64.9023Z" fill="#D04A02"/>
<path d="M66.133 58.1524C64.003 59.1624 62.243 57.0424 59.993 52.8424C57.743 48.6424 53.513 46.1324 52.633 41.2424C51.753 36.3624 56.933 32.8724 59.743 37.4424C62.553 42.0224 66.673 51.7824 67.093 54.9724C67.513 58.1624 66.133 58.1424 66.133 58.1424V58.1524Z" fill="#415385"/>
<path d="M46.1132 56.0527C51.9732 55.8727 61.2832 53.3627 64.5532 54.1327C67.8332 54.9027 67.2232 57.3527 65.9032 58.3427C64.5732 59.3327 53.0432 59.7627 47.4132 58.2527C41.7832 56.7427 46.1132 56.0427 46.1132 56.0427V56.0527Z" fill="#9A6C44"/>
<path d="M49.1431 55.6125C54.7731 54.9525 61.7631 52.9425 64.5031 53.5925C67.7831 54.3625 67.6331 57.3025 66.3031 58.2925C65.2531 59.0725 55.3231 60.0125 49.4731 59.4125L49.1431 55.6125Z" fill="#415385"/>
<path d="M40.6535 58.1519C40.9235 58.2019 41.1035 58.4619 41.0535 58.7319L40.5035 61.6719C40.4535 61.9419 40.1935 62.1219 39.9235 62.0719C39.6535 62.0219 39.4735 61.7619 39.5235 61.4919L40.0735 58.5519C40.1235 58.2819 40.3835 58.1019 40.6535 58.1519Z" fill="#9A6C44"/>
<path d="M40.4435 58.6324C40.6635 58.7924 40.7235 59.1024 40.5635 59.3224L38.8535 61.7724C38.6935 61.9924 38.3835 62.0524 38.1635 61.8924C37.9435 61.7324 37.8835 61.4224 38.0435 61.2024L39.7535 58.7524C39.9135 58.5324 40.2235 58.4724 40.4435 58.6324Z" fill="#9A6C44"/>
<path d="M45.8631 57.1122C46.5531 57.3222 46.8732 58.1022 46.5432 58.7422L46.4832 58.8522C46.2832 59.2322 45.8932 59.4622 45.4632 59.4622L44.2231 59.6122C43.7931 59.6622 43.4232 59.9122 43.1232 60.2222L42.7231 60.6422C42.3031 61.0822 41.4431 61.2222 41.1731 60.8822C41.0431 60.7222 41.0732 60.4822 41.2332 60.3622L44.7732 57.3322C45.0732 57.0722 45.4832 56.9922 45.8532 57.1122H45.8631Z" fill="#7C5B43"/>
<path d="M45.6733 56.092L41.7333 57.092C41.5933 57.132 41.4633 57.182 41.3433 57.262L36.8833 60.212C36.7733 60.282 36.7533 60.442 36.8333 60.542C37.1033 60.852 37.5533 60.942 37.9233 60.752L41.0333 59.172C41.4233 58.972 41.8633 58.892 42.2933 58.932L43.9433 59.082C43.9433 59.082 46.1933 60.202 47.0633 58.182C47.6033 56.912 46.9033 56.362 46.4033 56.152C46.1733 56.052 45.9133 56.032 45.6733 56.102V56.092Z" fill="#9A6C44"/>
<path d="M49.4335 28.5323C49.4335 28.5323 51.7835 25.4923 51.5135 23.1423C51.2435 20.7923 50.9635 19.3223 50.9635 19.3223L47.3735 20.4923L47.8635 27.6623L49.4435 28.5323H49.4335Z" fill="#2D2D2D"/>
<path d="M47.4639 30.4426C47.4639 30.4426 47.6139 30.3526 47.8939 30.2926C48.1739 30.2326 48.1039 30.2326 48.4839 30.0526C48.8639 29.8626 49.1539 30.0026 49.3739 29.5626C49.5939 29.1226 49.9539 29.6026 50.0539 29.1226C50.1539 28.6426 50.5639 28.9226 50.7439 28.4026C50.9239 27.8826 51.1739 28.1826 51.3539 27.6226C51.5439 27.0626 51.6439 27.5926 51.8339 26.9626C52.0139 26.3326 52.4239 26.6126 52.2239 26.0326C52.0239 25.4526 52.7239 25.8726 52.5439 25.1126C52.3639 24.3426 53.1539 24.6126 52.7139 24.1126C52.2739 23.6126 53.0339 23.7826 52.8239 23.1826C52.6139 22.5826 52.9439 22.8626 52.7439 22.2926C52.7439 22.2926 52.5539 22.1926 52.4739 21.8526C52.3839 21.5126 52.8839 21.4226 52.6739 21.1026C52.4639 20.7826 52.3139 20.0326 52.2639 19.8326C52.2139 19.6326 52.6839 18.9426 52.2639 18.5526C51.8539 18.1726 52.0439 18.3826 51.7739 18.1226C51.5039 17.8626 51.9139 18.7426 51.3739 18.3426C50.8339 17.9426 50.8239 18.0726 50.4239 17.7526C50.0239 17.4326 49.5939 17.5926 49.1739 17.2826C48.7539 16.9726 49.2839 17.2426 48.3839 16.7726C48.3839 16.7726 48.3439 16.9326 47.7239 16.9526C47.7239 16.9526 47.4139 16.6726 46.9839 16.8826C46.9839 16.8826 46.5539 16.5826 46.2039 16.7826C46.2039 16.7826 45.5339 16.6726 45.1239 16.9126C44.7139 17.1526 44.8739 16.5726 44.2339 16.9126C43.5939 17.2426 43.9939 16.8626 43.5239 17.0826L47.4439 30.4626L47.4639 30.4426Z" fill="#2D2D2D"/>
<path d="M44.8035 34.493L44.5935 33.873L42.9935 29.023L40.8135 22.433L47.1235 21.793L47.6535 23.403L49.3435 28.543L50.7335 32.753C51.2335 34.273 50.3135 35.893 48.6735 36.383" fill="#9A6C44"/>
<g style="mix-blend-mode:multiply">
<path d="M49.3537 28.5323L44.5937 33.8723L42.9937 29.0123L47.6637 23.4023L49.3537 28.5323Z" fill="#DEDEDE"/>
</g>
<path d="M49.8939 22.9527C49.8939 22.9527 49.8639 22.9527 49.8539 22.9427C50.4039 21.8427 50.8039 21.4827 50.1939 19.3327C48.8339 14.5527 43.8239 16.2427 40.3139 16.8427C36.2639 17.5327 37.5039 29.6627 40.0039 30.8527C42.5039 32.0527 48.6239 29.9227 48.7139 28.2727C48.7739 27.3327 48.8539 26.5627 48.9639 25.9127C49.5139 25.9327 50.0939 25.5627 50.3939 24.9327C50.7639 24.1427 50.5439 23.2527 49.9039 22.9527H49.8939Z" fill="#9A6C44"/>
<path d="M37.2837 19.2625C37.2837 19.2625 37.4237 19.9925 37.8937 19.6525C38.3637 19.3125 38.1437 18.9225 38.4537 18.9725C38.8137 19.0325 38.8537 19.3725 39.1837 19.1325C39.3437 19.0125 39.2837 18.7625 39.6737 18.8025C40.0637 18.8425 40.2837 19.1025 40.5537 18.6925C40.8137 18.2825 41.2037 18.5225 41.4937 18.7625C41.7937 19.0025 41.9137 18.8725 42.2937 18.8225C42.6737 18.7725 42.1137 19.2425 43.2637 19.1225C43.8437 19.0625 43.4037 19.9425 44.2037 19.7225C44.6837 19.5925 45.1237 19.7225 45.1237 20.1725C45.1237 20.6325 45.4637 20.6625 45.3837 21.0725C45.3037 21.4825 45.4337 22.0025 45.9537 22.0125C46.4737 22.0225 46.1237 22.2425 46.5237 22.5925C46.9237 22.9425 46.9537 22.6425 47.0737 23.0025C47.1937 23.3625 46.9437 23.5325 47.2737 23.7125C47.8537 24.0325 47.5337 24.0525 47.7037 24.4825C47.8737 24.9125 47.7637 25.0425 47.9037 25.0725C48.0437 25.1025 48.4937 24.9325 48.4837 24.4825C48.4837 24.0225 48.9637 23.3025 49.4937 23.0925C50.0237 22.8925 50.5337 22.9825 50.5337 22.9825C50.5337 22.9825 50.5637 22.8025 50.7037 22.5625C50.8437 22.3225 50.8037 22.3725 50.9037 21.9625C51.0137 21.5525 51.3137 21.4325 51.1237 20.9725C50.9337 20.5125 51.9337 20.5325 51.6437 20.1425C51.3837 19.8025 52.7437 19.4025 52.3337 18.7025C52.0537 18.2225 52.4537 18.2425 52.1437 17.7225C51.8337 17.2125 51.9037 17.5025 51.5437 16.9525C51.1837 16.4025 51.2637 16.3025 50.6937 16.0725C50.1237 15.8425 50.9037 15.5925 50.2037 15.2225C49.5037 14.8525 50.2237 14.4325 49.5437 14.4325C48.8637 14.4325 49.5037 13.9725 48.9037 13.7325C48.3037 13.4925 48.7737 13.8325 48.1937 13.6025C48.1937 13.6025 47.9937 13.6725 47.6737 13.5125C47.3537 13.3525 47.3737 13.2325 46.9937 13.1825C46.6137 13.1325 46.5437 13.3025 46.3537 13.2025C46.1637 13.1025 45.6237 12.8825 45.0637 12.9425C44.4937 13.0025 44.7837 12.9925 44.4137 13.0225C44.0337 13.0525 44.3737 12.7725 43.7137 12.9125C43.0537 13.0525 43.3737 12.8325 42.8637 12.9125C42.3537 13.0025 42.4337 13.1125 41.9237 13.2225C41.4137 13.3325 41.9637 13.1125 41.0137 13.4825C41.0137 13.4825 40.7837 13.3825 40.3837 13.8525C40.3837 13.8525 39.9637 13.8925 39.8337 14.3625C39.8337 14.3625 39.3137 14.4925 39.2437 14.8825C39.2437 14.8825 38.7137 15.3125 38.6237 15.7825C38.5337 16.2525 38.1937 15.7425 38.0237 16.4425C37.8537 17.1425 37.8337 16.5925 37.6737 17.0925C37.5137 17.5925 37.8037 17.4025 37.5337 18.0825C37.2637 18.7625 37.2937 19.2825 37.2937 19.2825L37.2837 19.2625Z" fill="#2D2D2D"/>
<path d="M50.2536 25.6721C50.2836 26.0721 50.0636 26.4021 49.7636 26.4321C49.4636 26.4621 49.2036 26.1421 49.1736 25.7521C49.1436 25.3621 49.3636 25.0121 49.6636 24.9921C49.9636 24.9721 50.2236 25.2821 50.2536 25.6721Z" fill="#BFBFBF"/>
<path d="M27.3038 107.422C27.3038 107.422 23.5338 109.992 22.2738 110.122C19.3838 110.432 19.9238 112.332 19.9238 112.332C19.9238 112.332 29.8638 112.332 31.6138 112.332C31.9538 112.332 32.2338 112.002 32.2438 111.672C32.2938 109.502 31.6138 107.612 31.6138 107.612L27.3138 107.432L27.3038 107.422Z" fill="black"/>
<path d="M6.28722 98.47C6.28722 98.47 3.36721 101.98 2.18721 102.45C-0.502786 103.54 0.527225 105.22 0.527225 105.22C0.527225 105.22 10.0872 102.5 11.7672 102.01C12.0872 101.92 12.2772 101.53 12.1872 101.2C11.6372 99.1 10.8072 98 10.8072 98L6.27723 98.47H6.28722Z" fill="black"/>
</svg>
