<svg xmlns="http://www.w3.org/2000/svg" width="21" height="16" fill="none" viewBox="0 0 21 16">
  <path fill-rule="evenodd" d="M3.7491 3.4058c0 1.8088 1.4015 3.2817 3.1246 3.2817 1.7222 0 3.1237-1.473 3.1237-3.2817C9.9974 1.5969 8.5959.125 6.8737.125c-1.7231 0-3.1246 1.472-3.1246 3.2808Zm9.3724 7.6963c.9412-.3041 1.9997-.4771 3.1235-.4771 1.6546 0 3.1675.3749 4.3744.9913v4.2587H.625v-5.1601c1.7221-.8717 3.883-1.4024 6.2476-1.4024 2.3645 0 4.5254.5307 6.2489 1.4024v.3872Zm-1.2497.5142v-.0437c-1.4707-.611-3.1913-.9476-4.9992-.9476-1.808 0-3.5284.3366-4.998.9474v2.9901h9.9972v-2.9462ZM6.8732 5.375c1.0333 0 1.8745-.8828 1.8745-1.9688 0-1.0852-.8412-1.9687-1.8745-1.9687-1.0332 0-1.8744.8835-1.8744 1.9688 0 1.086.8412 1.9687 1.8744 1.9687Zm6.8731 1.3125c0 1.448 1.1216 2.625 2.4993 2.625s2.4993-1.177 2.4993-2.625c0-1.447-1.1216-2.625-2.4993-2.625s-2.4993 1.178-2.4993 2.625ZM16.2456 8c.6888 0 1.2496-.5885 1.2496-1.3125 0-.7235-.5608-1.3125-1.2496-1.3125-.6888 0-1.2497.589-1.2497 1.3125 0 .724.5609 1.3125 1.2497 1.3125Zm3.1241 4.4856v2.0769h-6.2482v-2.0772c.9303-.3535 2.0008-.5478 3.1235-.5478s2.1935.1943 3.1247.5481Z" clip-rule="evenodd"/>
</svg>
