<svg xmlns="http://www.w3.org/2000/svg" width="24" height="24" viewBox="0 0 24 24">
  <path fill-rule="nonzero" d="M12.0003 13.5c5.107 0 9.5149 2.1059 11.5659 5.1502 1.061 1.5737.053 3.8498-1.693 3.8498H2.1264c-1.746 0-2.753-2.2761-1.693-3.8498 2.051-3.0443 6.46-5.1502 11.5669-5.1502Zm0 1.5c-4.5247 0-8.5223 1.8157-10.3228 4.4881C1.2563 20.1135 1.647 21 2.1264 21h19.7468c.4797 0 .8705-.8864.449-1.5117C20.5213 16.8155 16.5246 15 12.0001 15Zm-.3742-4.499c-2.4855 0-4.5-2.0146-4.5-4.501 0-2.4854 2.0145-4.5 4.5-4.5 2.4854 0 4.5 2.0146 4.5 4.5 0 2.4864-2.0146 4.501-4.5 4.501Zm0-7.501c-1.6547 0-3 1.3462-3 3 0 1.6547 1.3453 3.0009 3 3.0009s3-1.3462 3-3.0009c0-1.6538-1.3453-3-3-3Z"/>
</svg>
