<svg xmlns="http://www.w3.org/2000/svg" width="22" height="22" fill="none" viewBox="0 0 22 22">
  <path fill-rule="evenodd" d="M13.5269 20.724a8.721 8.721 0 0 0 3.3004.7726 3.5721 3.5721 0 0 0 2.592-.9563L20.8596 19.1a2.1779 2.1779 0 0 0-.452-3.4258l-4.8573-2.7961a2.181 2.181 0 0 0-2.624.3499l-.9563.9563a.0496.0496 0 0 1-.0642 0 27.0828 27.0828 0 0 1-2.1517-1.9359 27.168 27.168 0 0 1-1.9388-2.1546.0468.0468 0 0 1 0-.0613l.9563-.9563a2.1809 2.1809 0 0 0 .347-2.624L6.3311 1.5948a2.178 2.178 0 0 0-3.4345-.4519L1.4564 2.5832C.2494 3.7902.1823 5.8837 1.2698 8.4814c.9796 2.3208 2.7873 4.8691 5.0877 7.1695 2.3004 2.3003 4.8369 4.1022 7.1694 5.0731ZM3.8239 2.07a.8484.8484 0 0 1 .6093-.2536h.1166a.8747.8747 0 0 1 .6356.4315l2.796 4.8574a.8747.8747 0 0 1-.137 1.0438l-.9563.9563a1.3557 1.3557 0 0 0-.1079 1.8018 27.6632 27.6632 0 0 0 2.041 2.2596 28.1961 28.1961 0 0 0 2.2595 2.0409c.5408.434 1.322.39 1.8106-.1021l.9563-.9563a.8749.8749 0 0 1 1.0438-.137l4.8515 2.796a.8747.8747 0 0 1 .4315.6356.8745.8745 0 0 1-.2478.726l-1.4403 1.4403c-.796.796-2.4229.7581-4.4638-.0933-2.1692-.9067-4.5687-2.6094-6.7525-4.7932-2.1837-2.1838-3.8835-4.5804-4.7902-6.7496-.8572-2.0438-.8922-3.6707-.0963-4.4637L3.8238 2.07Z" clip-rule="evenodd"/>
</svg>
