<svg xmlns="http://www.w3.org/2000/svg" width="24" height="25" viewBox="0 0 24 25" fill="none">
  <path d="M20.496 4.004C21.648 5.156 22.528 6.484 23.136 7.988C23.712 9.428 24 10.932 24 12.5C24 14.068 23.712 15.572 23.136 17.012C22.528 18.516 21.648 19.844 20.496 20.996C19.344 22.148 18.016 23.02 16.512 23.612C15.072 24.204 13.568 24.5 12 24.5C10.432 24.5 8.928 24.204 7.488 23.612C5.984 23.02 4.656 22.148 3.504 20.996C2.352 19.844 1.472 18.516 0.864 17.012C0.288 15.572 0 14.068 0 12.5C0 10.932 0.288 9.428 0.864 7.988C1.472 6.484 2.352 5.156 3.504 4.004C4.656 2.852 5.984 1.98 7.488 1.388C8.928 0.796 10.432 0.5 12 0.5C13.568 0.5 15.072 0.796 16.512 1.388C18.016 1.98 19.344 2.852 20.496 4.004ZM19.416 19.916C20.76 18.572 21.672 16.988 22.152 15.164C22.616 13.388 22.616 11.612 22.152 9.836C21.672 8.012 20.76 6.428 19.416 5.084C18.424 4.092 17.288 3.332 16.008 2.804C14.744 2.26 13.408 1.988 12 1.988C10.592 1.988 9.248 2.26 7.968 2.804C6.704 3.332 5.576 4.092 4.584 5.084C3.24 6.428 2.328 8.012 1.848 9.836C1.384 11.612 1.384 13.388 1.848 15.164C2.328 16.988 3.24 18.572 4.584 19.916C5.576 20.908 6.704 21.668 7.968 22.196C9.248 22.74 10.592 23.012 12 23.012C13.408 23.012 14.744 22.74 16.008 22.196C17.288 21.668 18.424 20.908 19.416 19.916ZM12.744 5.756V11.756H18.744V13.244H12.744V19.244H11.256V13.244H5.256V11.756H11.256V5.756H12.744Z" fill="#415385"/>
</svg>
