<svg xmlns="http://www.w3.org/2000/svg" width="16" height="16" viewBox="0 0 16 16" fill="none">
  <g clip-path="url(#clip0_13004_64284)">
    <path d="M8.49902 2.05691V3.62135C8.49902 3.89913 8.27458 4.12358 7.99902 4.12358C7.72347 4.12358 7.49902 3.89913 7.49902 3.62135V2.05691C7.49902 1.77913 7.72347 1.55469 7.99902 1.55469C8.27458 1.55469 8.49902 1.78135 8.49902 2.05691ZM6.2968 2.25691C6.24125 2.13469 6.13902 2.04358 6.01458 1.99691C5.89013 1.95024 5.75236 1.95691 5.63236 2.01469C5.38125 2.13247 5.27458 2.43247 5.39013 2.68358L6.04791 4.10135C6.10347 4.22358 6.20569 4.31469 6.33013 4.36135C6.38569 4.38135 6.44347 4.39247 6.50125 4.39247C6.57236 4.39247 6.64569 4.37691 6.71236 4.3458C6.83458 4.28802 6.92569 4.18802 6.97236 4.06135C7.01902 3.93469 7.01236 3.79913 6.95458 3.67691L6.2968 2.25913V2.25691ZM10.3657 2.01247C10.2435 1.95469 10.1079 1.95024 9.98347 1.99469C9.8568 2.04135 9.7568 2.13247 9.70125 2.25469L9.04347 3.67247C8.98791 3.79469 8.98125 3.93024 9.02569 4.05691C9.07014 4.18358 9.16347 4.28358 9.28347 4.34135C9.35013 4.37247 9.42347 4.38802 9.49458 4.38802C9.55236 4.38802 9.61014 4.37691 9.66569 4.35691C9.79236 4.31024 9.89236 4.21913 9.94791 4.09691L10.6057 2.67913C10.7212 2.42802 10.6146 2.12802 10.3635 2.01024L10.3657 2.01247ZM15.9968 6.49024C15.9635 5.89913 15.479 5.43469 14.8946 5.43469H14.8412C14.7746 5.43469 14.7079 5.44135 14.6435 5.45469C14.4768 5.06358 14.0946 4.80358 13.679 4.80358H13.6457C13.559 4.80358 13.4724 4.81469 13.3879 4.83469C13.2101 4.43024 12.8212 4.17024 12.379 4.17024H12.3435C12.0168 4.17024 11.7079 4.32802 11.5079 4.59247C11.4012 4.55691 11.2924 4.53913 11.179 4.53913H11.1412C10.8612 4.53913 10.5968 4.65024 10.399 4.85247C10.199 5.05469 10.0901 5.3258 10.0901 5.61469V8.38802C9.94791 8.29247 9.78347 8.23024 9.61236 8.2058C9.29902 8.15913 8.98569 8.24358 8.73013 8.43913L8.64347 8.5058C8.12791 8.91024 8.02569 9.6658 8.41236 10.1902C8.71014 10.6325 9.04569 11.1458 9.2768 11.4969L9.40569 11.6947C9.53236 11.8969 9.65014 12.1102 9.75902 12.328C10.0101 12.8302 10.3235 13.4547 10.9435 13.8658C11.4768 14.228 12.0968 14.428 12.7412 14.4391H13.0435C13.9457 14.4325 14.7946 14.0214 15.3724 13.3125C16.0012 12.5391 16.0012 11.6414 16.0012 10.8525V6.49247L15.9968 6.49024ZM15.1057 10.4036V10.848C15.1057 11.5169 15.1057 12.2102 14.6812 12.7347C14.2724 13.2391 13.6724 13.5302 13.0324 13.5369H12.7412C12.2724 13.528 11.8168 13.3836 11.4235 13.1191C11.0257 12.8569 10.8012 12.4258 10.5657 11.968L10.5412 11.9191C10.4212 11.6747 10.2879 11.4325 10.1435 11.2014L10.0124 10.9991C9.70347 10.5236 9.40125 10.0658 9.13014 9.6658C9.02347 9.53024 9.04569 9.33247 9.18125 9.22135L9.26569 9.15691C9.32125 9.11469 9.38791 9.09469 9.45014 9.09469C9.53902 9.09469 9.62347 9.13247 9.68125 9.2058L10.2035 10.0702C10.2546 10.1702 10.339 10.2436 10.4435 10.2791C10.5346 10.308 10.6279 10.3036 10.7168 10.2702L10.7079 10.2502C10.8168 10.1925 10.879 10.0769 10.8701 9.95247V5.71469C10.8701 5.55691 10.9968 5.4258 11.1524 5.4258H11.1901C11.3435 5.42802 11.4657 5.55913 11.4657 5.71469V9.15913C11.4657 9.3458 11.6212 9.49913 11.8012 9.49247C11.8701 9.49247 11.9368 9.46358 11.9857 9.41247C12.0435 9.34802 12.0724 9.25913 12.0657 9.17247V5.34358C12.0657 5.1858 12.1924 5.05469 12.3479 5.05469H12.3879C12.5479 5.04802 12.6946 5.16802 12.7212 5.33691V9.15913C12.7212 9.24802 12.7568 9.33247 12.819 9.39469C12.8835 9.45913 12.9635 9.48802 13.059 9.49247C13.1301 9.49247 13.1968 9.46358 13.2457 9.41247C13.3035 9.34802 13.3324 9.26135 13.3257 9.17247V5.98135C13.3524 5.81247 13.4946 5.69691 13.6546 5.69469H13.6968C13.8524 5.69913 13.9724 5.8258 13.9724 5.98358V9.16135C13.9635 9.25913 13.9924 9.35024 14.0524 9.41691C14.1012 9.46802 14.1746 9.4858 14.2457 9.49469C14.4257 9.49469 14.5724 9.3458 14.5724 9.16135V6.61024C14.5724 6.45469 14.6946 6.3258 14.8457 6.32135H14.8857C15.0479 6.32358 15.1879 6.43913 15.2168 6.59469V6.6058L15.1124 10.4058L15.1057 10.4036ZM-0.000976562 10.8547C-0.000976562 11.6458 -0.000976562 12.5414 0.627912 13.3147C1.20569 14.0236 2.05458 14.4347 2.9568 14.4414H3.25902C3.90347 14.4302 4.52347 14.2302 5.0568 13.868C5.67458 13.4569 5.99014 12.8325 6.24125 12.3302C6.34791 12.1125 6.46569 11.8991 6.59458 11.6969L6.72347 11.4991C6.95236 11.148 7.29014 10.6369 7.58791 10.1925C7.97458 9.66802 7.87236 8.91024 7.3568 8.50802L7.27014 8.44136C7.01236 8.24358 6.69902 8.16135 6.38791 8.20802C6.2168 8.23247 6.05458 8.29469 5.91014 8.39024V5.61691C5.91014 5.32802 5.79902 5.05691 5.60125 4.85469C5.40347 4.65247 5.13902 4.54135 4.85902 4.54135H4.82125C4.71013 4.54135 4.59902 4.55913 4.49236 4.59469C4.29458 4.33024 3.98569 4.17247 3.6568 4.17247H3.62125C3.18125 4.17247 2.79013 4.43024 2.61236 4.83691C2.52791 4.81691 2.44125 4.8058 2.35458 4.8058H2.32125C1.90569 4.8058 1.52347 5.0658 1.3568 5.45691C1.29236 5.44358 1.22569 5.43691 1.15902 5.43691H1.10569C0.521246 5.43691 0.0390234 5.90135 0.00346788 6.49247V10.8547H-0.000976562ZM0.783468 6.6058V6.59469C0.814579 6.43913 0.954579 6.32358 1.1168 6.32135H1.1568C1.30791 6.3258 1.43236 6.45469 1.43013 6.61024V9.16135C1.43013 9.3458 1.5768 9.49469 1.7568 9.49469C1.83013 9.4858 1.90125 9.4658 1.95013 9.41691C2.01013 9.35024 2.03902 9.25913 2.03013 9.16135V5.98358C2.03013 5.8258 2.15013 5.69913 2.30569 5.69469H2.34791C2.50791 5.69691 2.65013 5.81247 2.6768 5.98135V9.17247C2.66791 9.26135 2.69902 9.35024 2.7568 9.41247C2.80569 9.46358 2.87458 9.49247 2.94347 9.49247C3.03902 9.4858 3.11902 9.45913 3.18347 9.39469C3.24569 9.33247 3.28125 9.24802 3.28125 9.15913V5.33913C3.30791 5.17024 3.45458 5.05024 3.61458 5.05691H3.65458C3.81013 5.05691 3.9368 5.1858 3.9368 5.3458V9.17469C3.93013 9.26358 3.96125 9.35247 4.0168 9.41469C4.06569 9.4658 4.13236 9.49469 4.20125 9.49469C4.38125 9.50135 4.5368 9.34802 4.5368 9.16135V5.71691C4.5368 5.56135 4.65902 5.43247 4.81236 5.42802H4.85013C5.00569 5.42802 5.13236 5.55691 5.13236 5.71691V9.95469C5.12347 10.0791 5.18569 10.1947 5.29458 10.2525L5.28569 10.2725C5.37236 10.308 5.46791 10.3125 5.55902 10.2814C5.66347 10.248 5.74791 10.1725 5.79902 10.0725L6.32125 9.20802C6.37902 9.13691 6.46347 9.09691 6.55236 9.09691C6.6168 9.09691 6.68125 9.11691 6.7368 9.15913L6.82125 9.22358C6.9568 9.33469 6.97902 9.53247 6.87236 9.66802C6.59902 10.068 6.29902 10.528 5.99013 11.0014L5.85902 11.2036C5.71236 11.4347 5.57902 11.6769 5.46125 11.9214L5.4368 11.9702C5.19902 12.428 4.97458 12.8591 4.57902 13.1214C4.18791 13.388 3.73236 13.5325 3.26125 13.5391H2.97013C2.33013 13.5325 1.73013 13.2414 1.32125 12.7369C0.896801 12.2125 0.896801 11.5191 0.896801 10.8502V10.4058L0.790135 6.6058H0.783468Z"/>
  </g>
  <defs>
    <clipPath id="clip0_13004_64284">
      <rect width="16" height="16" fill="white"/>
    </clipPath>
  </defs>
</svg>
