<svg xmlns="http://www.w3.org/2000/svg" width="24" height="24" fill="none" viewBox="0 0 24 24">
  <path d="M12 0c1.632 0 3.192.312 4.68.936 1.424.608 2.688 1.472 3.792 2.592 1.12 1.104 1.984 2.368 2.592 3.792.624 1.488.936 3.048.936 4.68 0 1.632-.312 3.192-.936 4.68-.608 1.424-1.472 2.688-2.592 3.792-1.104 1.12-2.368 1.984-3.792 2.592-1.488.624-3.048.936-4.68.936-1.632 0-3.192-.312-4.68-.936-1.424-.608-2.696-1.472-3.816-2.592C2.4 19.368 1.544 18.104.936 16.68.312 15.192 0 13.632 0 12c0-1.632.312-3.192.936-4.68.608-1.424 1.464-2.688 2.568-3.792C4.624 2.408 5.896 1.544 7.32.936 8.808.312 10.368 0 12 0Zm0 22.512c1.904 0 3.672-.48 5.304-1.44 1.584-.928 2.84-2.184 3.768-3.768.96-1.632 1.44-3.4 1.44-5.304 0-1.904-.48-3.672-1.44-5.304-.928-1.584-2.184-2.84-3.768-3.768-1.632-.96-3.4-1.44-5.304-1.44-1.888 0-3.648.48-5.28 1.44-1.584.928-2.84 2.184-3.768 3.768-.96 1.632-1.44 3.4-1.44 5.304 0 1.904.48 3.672 1.44 5.304.928 1.584 2.184 2.84 3.768 3.768 1.632.96 3.392 1.44 5.28 1.44Zm-.168-5.256v-1.752h1.392v1.752h-1.392Zm2.76-10.416c.32.272.576.616.768 1.032.208.4.312.864.312 1.392 0 .672-.152 1.232-.456 1.68-.24.416-.56.808-.96 1.176-.336.336-.56.552-.672.648-.064.064-.128.136-.192.216l-.048.072-.024.096c-.016.08-.032.152-.048.216-.032.256-.048.544-.048.864l-1.488-.024c0-.368.016-.712.048-1.032.048-.32.128-.592.24-.816.144-.24.32-.464.528-.672.176-.144.392-.36.648-.648.336-.32.592-.616.768-.888.144-.24.216-.536.216-.888 0-.288-.056-.536-.168-.744-.112-.224-.256-.408-.432-.552-.16-.16-.36-.272-.6-.336-.272-.112-.584-.16-.936-.144-.352.016-.656.08-.912.192s-.488.272-.696.48c-.208.208-.36.448-.456.72-.112.368-.168.72-.168 1.056H8.328c0-.576.08-1.096.24-1.56.16-.48.416-.896.768-1.248.352-.368.768-.648 1.248-.84C11 6.112 11.472 6.016 12 6c.528-.016 1.008.056 1.44.216.448.144.832.352 1.152.624Z"/>
</svg>
