<svg xmlns="http://www.w3.org/2000/svg" width="21" height="21" fill="none" viewBox="0 0 21 21">
  <path fill-rule="evenodd" d="M10.5 0C16.2986 0 21 4.7014 21 10.5 21 16.2995 16.2986 21 10.5 21 4.7005 21 0 16.2995 0 10.5 0 4.7014 4.7005 0 10.5 0ZM9.2812 15.7504h2.2558v-2.2111H9.2812v2.2111Zm4.7541-7.7275c0 .4594-.0604.8382-.1794 1.1349-.1199.2966-.2686.5503-.4454.7612-.1776.21-.3736.3903-.5889.5381a14.4473 14.4473 0 0 0-.6107.4454 2.874 2.874 0 0 0-.5101.5101c-.1479.1917-.2415.4314-.28.7175v.546h-1.939v-.6466c.0288-.4112.1084-.756.237-1.0334.1296-.2782.28-.5153.4525-.7113.1723-.1952.3543-.3658.5459-.5102a8.8895 8.8895 0 0 0 .5312-.4296c.1627-.1444.2949-.3019.3955-.4751.1006-.1715.1461-.3876.1365-.6458 0-.441-.1076-.7656-.3238-.9765-.2152-.2117-.5145-.3167-.8977-.3167-.2581 0-.4813.0507-.6677.1513a1.331 1.331 0 0 0-.4593.4017c-.1199.168-.2083.3648-.2652.5888-.0586.2258-.0866.4664-.0866.7263H6.9688c.0096-.518.098-.9914.265-1.4227.168-.4314.4026-.8042.7045-1.12.301-.3168.665-.5627 1.091-.7394.4262-.1776.903-.2669 1.429-.2669.6807 0 1.2477.0936 1.7027.2809.455.1872.8208.4191 1.099.6965.2774.2782.476.5775.5959.8977.119.3212.1794.6204.1794.8978Z" clip-rule="evenodd"/>
</svg>
