<svg xmlns="http://www.w3.org/2000/svg" width="24" height="19" fill="none" viewBox="0 0 24 19">
    <path fill-rule="evenodd" d="m4.55 4.076 1.197.643a7.573 7.573 0 0 1 13.866 4.213v.617l-1.904-1.914a.667.667 0 0 0-.48-.196.667.667 0 0 0-.48.196.666.666 0 0 0 0 .96l3.54 3.55 3.513-3.513a.678.678 0 0 0-.96-.957L20.97 9.55v-.617A8.926 8.926 0 0 0 4.551 4.076Zm14.9 10.246-1.197-.644A7.573 7.573 0 0 1 4.387 9.465V8.85l1.903 1.913c.127.127.3.198.48.197a.667.667 0 0 0 .48-.197.667.667 0 0 0 0-.96l-3.54-3.55L.199 9.765a.678.678 0 0 0 .96.957L3.03 8.849v.616a8.926 8.926 0 0 0 16.418 4.857Z" clip-rule="evenodd"/>
</svg>
