<svg xmlns="http://www.w3.org/2000/svg" width="18" height="20" viewBox="0 0 18 20" fill="none">
  <path d="M13.0799 4.78H8.89991C7.64658 4.78 6.47325 5.1 5.37991 5.74C4.32658 6.35333 3.49325 7.18667 2.87991 8.24C2.23991 9.33333 1.91991 10.5133 1.91991 11.78C1.91991 13.0333 2.23991 14.2067 2.87991 15.3C3.49325 16.3533 4.32658 17.1867 5.37991 17.8C6.47325 18.44 7.64658 18.76 8.89991 18.76C10.1666 18.76 11.3399 18.44 12.4199 17.8C13.4732 17.1867 14.3066 16.3533 14.9199 15.3C15.5599 14.2067 15.8799 13.0267 15.8799 11.76H17.1399C17.1399 13.2533 16.7666 14.64 16.0199 15.92C15.2866 17.16 14.2999 18.1467 13.0599 18.88C11.7799 19.6267 10.3932 20 8.89991 20C7.40658 20 6.01991 19.6267 4.73991 18.88C3.49991 18.1467 2.51325 17.16 1.77991 15.92C1.03325 14.64 0.659912 13.2533 0.659912 11.76C0.659912 10.2667 1.03325 8.88667 1.77991 7.62C2.51325 6.38 3.49991 5.39333 4.73991 4.66C6.01991 3.91333 7.40658 3.54 8.89991 3.54H13.0799L10.6199 1.06C10.4999 0.939999 10.4399 0.793333 10.4399 0.619999C10.4399 0.446666 10.4999 0.3 10.6199 0.18C10.7399 0.06 10.8866 0 11.0599 0C11.2332 0 11.3799 0.06 11.4999 0.18L15.4799 4.16L11.4999 8.14C11.3799 8.26 11.2332 8.32 11.0599 8.32C10.8866 8.32 10.7399 8.25333 10.6199 8.12C10.4999 7.98667 10.4399 7.84 10.4399 7.68C10.4399 7.50667 10.4999 7.36 10.6199 7.24L13.0799 4.78Z"/>
</svg>
