<svg xmlns="http://www.w3.org/2000/svg" width="20" height="18" fill="none" viewBox="0 0 20 18">
  <path fill-rule="evenodd" d="M19.6249 9c0-4.556-3.694-8.25-8.25-8.25-3.8445 0-7.0743 2.6294-7.9901 6.1875h1.0714c.8895-2.9788 3.6544-5.1563 6.9187-5.1563 3.9806 0 7.2187 3.2382 7.2187 7.2188s-3.2381 7.2188-7.2187 7.2188a7.187 7.187 0 0 1-2.4121-.4144l-.3679.9655c.8686.3108 1.8045.4801 2.78.4801 4.556 0 8.25-3.6939 8.25-8.25Zm-7.7341-.5156h4.5994v1.0313h-5.6306V3.885h1.0312v4.5993Z" clip-rule="evenodd"/>
  <path d="M1.75 8.6563h7.5625v1.0312H1.75V8.6562ZM1.0625 11.4062H8.625v1.0313H1.0625v-1.0313ZM.375 14.1562h7.5625v1.0313H.375v-1.0313Z"/>
</svg>
