<svg xmlns="http://www.w3.org/2000/svg" width="25" height="26" fill="none" viewBox="0 0 25 26">
  <path fill-rule="evenodd" d="M.5278 4.0673H3.547V.7496H23.173c.833.0019 1.5079.6863 1.5097 1.5312v21.4375c-.0018.8449-.6767 1.5294-1.5097 1.5313H3.5471v-3.3381H.5278v-1.5313H3.547v-6.6558H.5278v-1.5483H3.547V5.5986H.5278V4.0673Zm22.6452 19.651V2.2808H5.0568v21.4375H23.173Z" clip-rule="evenodd"/>
  <path fill-rule="evenodd" d="M10.1883 7.5587c.6582-1.61 2.2082-2.6591 3.9266-2.6577 2.3423.0037 4.2402 1.9287 4.2439 4.3045.0014 1.743-1.0329 3.3151-2.6203 3.9827-1.5874.6677-3.4151.2993-4.6302-.9332-1.2151-1.2324-1.5783-3.0862-.92-4.6963Zm6.7661.4582c-.4755-1.1652-1.5962-1.925-2.8395-1.925-1.6951.002-3.0693 1.3943-3.073 3.1136-.0014 1.261.7465 2.3986 1.8947 2.8821 1.1482.4835 2.4705.2177 3.3501-.6735.8796-.8912 1.1431-2.232.6677-3.3972ZM7.7742 15.9634a15.8608 15.8608 0 0 1 6.3407-1.2454 15.8516 15.8516 0 0 1 6.3373 1.242.4836.4836 0 0 1 .2852.4424v4.2126c0 .2669-.2133.4832-.4764.4832H7.9655a.473.473 0 0 1-.3369-.1415.4867.4867 0 0 1-.1395-.3417v-4.2092a.4904.4904 0 0 1 .2851-.4424Zm11.789.9154a15.0503 15.0503 0 0 0-5.4483-.9698 15.068 15.068 0 0 0-5.4516.9698v3.0284h10.8999v-3.0284Z" clip-rule="evenodd"/>
</svg>
