<svg xmlns="http://www.w3.org/2000/svg" width="33" height="33" viewBox="0 0 33 33" fill="none">
    <path d="M20.9043 0C21.1405 0 21.366 0.0644198 21.5807 0.193259L26.7343 3.15658C27.0135 3.32837 27.2067 3.55384 27.3141 3.83299C27.4214 4.11214 27.4322 4.40203 27.3463 4.70266L26.5088 7.69819C27.153 8.53565 27.7113 9.50195 28.1838 10.5971L31.1793 11.3379C31.4799 11.4238 31.7269 11.5849 31.9201 11.8211C32.1134 12.0573 32.21 12.3257 32.21 12.6263V18.5852C32.21 18.8858 32.1134 19.165 31.9201 19.4226C31.7269 19.6588 31.4799 19.8199 31.1793 19.9058L28.1838 20.6466C27.7113 21.7203 27.153 22.6866 26.5088 23.5455L27.3463 26.541C27.4322 26.8202 27.4214 27.0993 27.3141 27.3785C27.2067 27.6791 27.0135 27.9153 26.7343 28.0871L21.5807 31.0504C21.366 31.1793 21.1405 31.2437 20.9043 31.2437C20.5392 31.2437 20.2171 31.1041 19.938 30.825L17.7799 28.5703C17.0498 28.6562 16.4915 28.6991 16.105 28.6991C15.7185 28.6991 15.1602 28.6562 14.4301 28.5703L12.272 30.825C11.9929 31.1041 11.6708 31.2437 11.3057 31.2437C11.091 31.2437 10.8655 31.1793 10.6293 31.0504L5.4757 28.0871C5.19655 27.9153 5.00329 27.6791 4.89592 27.3785C4.78855 27.0993 4.77782 26.8202 4.86371 26.541L5.70117 23.5455C5.05697 22.6866 4.49866 21.7203 4.02625 20.6466L1.03072 19.9058C0.730093 19.8199 0.48315 19.6588 0.28989 19.4226C0.09663 19.165 0 18.8858 0 18.5852V12.6263C0 12.3257 0.09663 12.0573 0.28989 11.8211C0.48315 11.5849 0.730093 11.4238 1.03072 11.3379L4.02625 10.5971C4.49866 9.50195 5.05697 8.53565 5.70117 7.69819L4.86371 4.70266C4.77782 4.40203 4.78855 4.11214 4.89592 3.83299C5.00329 3.55384 5.19655 3.32837 5.4757 3.15658L10.6293 0.193259C10.8655 0.0644198 11.091 0 11.3057 0C11.6922 0 12.0143 0.139577 12.272 0.41873L14.4301 2.64122C14.9884 2.5768 15.5467 2.54459 16.105 2.54459C16.6848 2.54459 17.2431 2.5768 17.7799 2.64122L19.938 0.41873C20.1957 0.139577 20.5178 0 20.9043 0ZM21.0331 2.19028L19.2294 4.05846L18.5208 4.76708L17.5222 4.63824C16.9854 4.57382 16.513 4.54161 16.105 4.54161C15.7185 4.54161 15.2461 4.57382 14.6878 4.63824L13.6893 4.76708L12.9806 4.05846L11.1769 2.19028L6.92515 4.63824L7.63377 7.15062L7.92366 8.11692L7.31167 8.92217C6.68894 9.73816 6.21653 10.5541 5.89443 11.3701L5.50791 12.3042L4.5094 12.5297L2.02923 13.1739V18.0698L5.50791 18.9395L5.89443 19.8736C6.25948 20.7325 6.73189 21.5485 7.31167 22.3215L7.92366 23.1268L7.63377 24.0931L6.92515 26.6055L11.1769 29.0534L13.6893 26.4444L14.6878 26.5733C15.2461 26.6377 15.7185 26.6699 16.105 26.6699C16.513 26.6699 16.9854 26.6377 17.5222 26.5733L18.5208 26.4444L21.0331 29.0534L25.2849 26.6055L24.5762 24.0931L24.2863 23.1268L24.8983 22.3215C25.4781 21.5485 25.9505 20.7325 26.3156 19.8736L26.7021 18.9395L27.7006 18.6818L30.213 18.0698V13.1739L27.7006 12.5297L26.7021 12.3042L26.3156 11.3701C25.9935 10.5541 25.5211 9.73816 24.8983 8.92217L24.2863 8.11692L24.5762 7.15062L25.2849 4.63824L21.0331 2.19028ZM16.105 20.6466C15.2031 20.6466 14.3657 20.4211 13.5926 19.9702C12.8196 19.5193 12.2076 18.9073 11.7566 18.1342C11.3057 17.3612 11.0802 16.5237 11.0802 15.6219C11.0802 14.72 11.3057 13.8825 11.7566 13.1095C12.2076 12.3364 12.8196 11.7244 13.5926 11.2735C14.3657 10.8226 15.2031 10.5971 16.105 10.5971C17.0069 10.5971 17.8443 10.8226 18.6174 11.2735C19.3904 11.7244 20.0024 12.3364 20.4534 13.1095C20.9043 13.8825 21.1298 14.72 21.1298 15.6219C21.1298 16.5237 20.9043 17.3612 20.4534 18.1342C20.0024 18.9073 19.3904 19.5193 18.6174 19.9702C17.8443 20.4211 17.0069 20.6466 16.105 20.6466ZM16.105 12.5941C15.2675 12.5941 14.5482 12.8947 13.9469 13.496C13.3672 14.0758 13.0773 14.7844 13.0773 15.6219C13.0773 16.1587 13.2061 16.6633 13.4638 17.1357C13.7429 17.5867 14.1187 17.9517 14.5911 18.2309C15.0635 18.51 15.5682 18.6496 16.105 18.6496C16.6418 18.6496 17.1465 18.51 17.6189 18.2309C18.0913 17.9517 18.4563 17.5867 18.714 17.1357C18.9932 16.6633 19.1327 16.1587 19.1327 15.6219C19.1327 14.7844 18.8321 14.0758 18.2309 13.496C17.6511 12.8947 16.9425 12.5941 16.105 12.5941Z"/>
</svg>
