<svg xmlns="http://www.w3.org/2000/svg" width="4" height="20" fill="none" viewBox="0 0 4 20">
  <path fill-rule="evenodd" d="M3.4286 1.7143C3.4286.7673 2.6613 0 1.7143 0S0 .7672 0 1.7143c0 .947.7672 1.7143 1.7143 1.7143.947 0 1.7143-.7673 1.7143-1.7143Zm0 16.5715c0-.947-.7673-1.7143-1.7143-1.7143S0 17.3388 0 18.2858c0 .9471.7672 1.7143 1.7143 1.7143.947 0 1.7143-.7672 1.7143-1.7143Zm-1.7143-10c.947 0 1.7143.7671 1.7143 1.7142 0 .947-.7673 1.7143-1.7143 1.7143S0 10.947 0 10s.7672-1.7143 1.7143-1.7143Z" clip-rule="evenodd"/>
</svg>
