<svg xmlns="http://www.w3.org/2000/svg" width="24" height="24" fill="none" viewBox="0 0 24 24">
  <path fill-rule="evenodd" d="M3 17.8485V24l5.2032-3.252A10.534 10.534 0 0 0 10.5 21h3C19.299 21 24 16.299 24 10.5S19.299 0 13.5 0h-3C4.701 0 0 4.701 0 10.5c0 2.861 1.1442 5.4547 3 7.3485Zm4.9296 1.3016L4.5 21.2936V17.236l-.4286-.4374C2.4327 15.1264 1.5 12.8887 1.5 10.5c0-4.9706 4.0294-9 9-9h3c4.9706 0 9 4.0294 9 9s-4.0294 9-9 9h-3a9.0344 9.0344 0 0 1-1.9702-.216l-.6002-.1339Z" clip-rule="evenodd"/>
</svg>
