<svg xmlns="http://www.w3.org/2000/svg" width="22" height="26" fill="none" viewBox="0 0 26 24" >
    <path d="M16.8639 13.836L22.2399 9.588L15.3999 9.3L12.9999 2.868L10.5999 9.3L3.75989 9.588L9.13589 13.836L7.28789 20.436L12.9999 16.644L18.7119 20.436L16.8639 13.836ZM12.9999 18.588L7.26389 22.428C6.76789 22.748 6.35189 22.9 6.01589 22.884C5.69589 22.884 5.47989 22.724 5.36789 22.404C5.25589 22.084 5.27989 21.644 5.43989 21.084L7.28789 14.436L1.86389 10.164C1.39989 9.796 1.11989 9.452 1.02389 9.132C0.927893 8.812 1.01589 8.548 1.28789 8.34C1.55989 8.132 1.99189 8.02 2.58389 8.004L9.47189 7.716L11.8719 1.26C12.0799 0.716001 12.3199 0.348001 12.5919 0.156C12.8639 -0.052 13.1359 -0.052 13.4079 0.156C13.6799 0.348001 13.9199 0.716001 14.1279 1.26L16.5279 7.716L23.4399 8.004C24.0159 8.02 24.4399 8.132 24.7119 8.34C24.9839 8.548 25.0719 8.812 24.9759 9.132C24.8799 9.452 24.5999 9.796 24.1359 10.164L18.7119 14.436L20.5839 21.084C20.7439 21.644 20.7679 22.084 20.6559 22.404C20.5439 22.724 20.3199 22.884 19.9839 22.884C19.6479 22.9 19.2319 22.748 18.7359 22.428L12.9999 18.588Z"/>
</svg>
