<svg width="74" height="125" viewBox="0 0 74 125" fill="none" xmlns="http://www.w3.org/2000/svg">
<path d="M59.6804 1.36328L61.3004 2.29327L59.6804 3.22327L58.0703 2.29327L59.6804 1.36328Z" fill="#FB7C4D"/>
<path d="M61.3002 2.29297V114.563L59.6802 115.493V3.22296L61.3002 2.29297Z" fill="#D04A02"/>
<path d="M59.6804 3.22296V115.493L58.0703 114.563V2.29297L59.6804 3.22296Z" fill="#FB7C4D"/>
<path d="M65.9206 29.3828L67.5406 30.3128L65.9206 31.2428L64.3105 30.3128L65.9206 29.3828Z" fill="#FB7C4D"/>
<path d="M67.5404 30.3125V118.122L65.9204 119.052V31.2425L67.5404 30.3125Z" fill="#D04A02"/>
<path d="M65.9206 31.2425V119.052L64.3105 118.122V30.3125L65.9206 31.2425Z" fill="#FB7C4D"/>
<path d="M72.1603 42.6729L73.7703 43.6028L72.1603 44.5329L70.5503 43.6028L72.1603 42.6729Z" fill="#FB7C4D"/>
<path d="M73.7701 43.6025V121.703L72.1602 122.633V44.5326L73.7701 43.6025Z" fill="#D04A02"/>
<path d="M72.1603 44.5326V122.633L70.5503 121.703V43.6025L72.1603 44.5326Z" fill="#FB7C4D"/>
<path d="M24.0201 16.3237C24.0201 16.3237 26.4601 16.6237 25.0301 17.3337L25.95 17.9037C25.95 17.9537 25.7 18.7137 25.7 18.7637C25.74 18.7637 26.1101 19.6737 26.1101 19.6737L26.7 19.8737L25.63 20.9337L26.8301 21.6037C26.2601 23.0837 29.11 23.1437 29.07 23.1937L33.1101 23.4337C33.0801 22.1337 32.8501 21.0637 32.5401 20.1637C33.1101 19.1237 33.6901 17.5337 32.7101 16.4837C30.6801 14.2737 31.1101 10.8937 31.1501 10.6037C31.1501 10.5937 31.1501 10.5837 31.1501 10.5837C31.1901 10.4637 31.22 10.3337 31.25 10.2137C31.28 10.0937 31.3101 9.96374 31.3401 9.84374C31.3601 9.76374 31.37 9.69372 31.39 9.61372C31.39 9.56372 31.4101 9.51371 31.4201 9.47371C31.4201 9.47371 31.4201 9.45371 31.4201 9.44371C31.4201 9.44371 31.4201 9.44373 31.4201 9.43373C31.4201 9.42373 31.4201 9.41373 31.4201 9.40373C31.9001 7.02373 32.1201 5.37371 29.9201 2.85371C24.9501 -2.84629 18.7301 1.75374 18.7301 1.75374C18.7301 1.75374 16.4301 2.39373 15.4801 4.87373C15.1701 5.67373 15.1001 6.55372 15.0801 7.42372V6.49373C15.0501 6.71373 14.5501 11.4537 14.9701 14.0337C15.0901 14.7937 15.2501 15.5437 15.4101 16.2237C14.7001 17.5837 13.7 19.2337 13.51 21.7837C13.5 21.9337 13.5901 22.8137 13.6501 23.4037L18.6101 20.6437C18.5501 20.6037 18.5 20.5437 18.5 20.4637C18.5 20.3437 18.6001 20.2437 18.7201 20.2437C18.8401 20.2437 18.95 20.3437 18.95 20.4537L19.69 20.0437L19.7401 20.0137L19.7701 19.9937C19.9401 19.8737 20.0701 19.6837 20.1201 19.4837L20.4801 18.0137C20.4801 18.0137 20.48 18.0137 20.5 18.0137C20.54 18.0137 20.6301 18.0237 20.7801 18.0437C20.7801 17.9937 20.7801 17.9437 20.7801 17.8837V16.9237" fill="#623F2D"/>
<path d="M20.1602 110.074C18.7502 109.964 17.3402 109.834 15.9302 109.854C16.1502 111.224 16.4002 112.604 16.6602 113.964C16.9302 115.404 17.1401 118.804 18.0201 119.964C19.2601 121.574 20.3202 122.984 22.4102 123.174C23.2702 123.254 25.0101 121.384 25.2101 120.814C24.4901 119.044 23.0402 118.294 22.2902 116.654C21.1902 114.274 20.2702 113.134 20.1602 110.064V110.074Z" fill="#E9A97F"/>
<path d="M34.3002 114.104C32.6302 112.004 31.9202 109.344 31.8602 106.074C30.4502 106.094 29.0501 106.114 27.6401 106.124C28.2101 108.844 28.7901 111.584 28.5001 113.534C28.2901 114.994 30.6202 115.934 30.6202 115.934C30.6202 115.934 34.7302 117.334 37.6102 117.334C35.9802 116.494 35.2502 115.304 34.3002 114.114V114.104Z" fill="#E9A97F"/>
<path d="M23.9802 118.553C23.9102 118.063 25.4702 121.093 28.6102 121.873C29.6602 122.133 29.6602 123.623 28.6102 124.063C27.0002 124.733 25.0602 125.173 22.8302 124.763C19.5102 124.153 19.3902 123.343 17.0602 122.143C15.9202 121.553 16.8502 116.023 16.8502 116.023C16.8502 116.023 17.9702 119.333 21.8802 119.783C23.4102 119.953 24.1602 119.913 23.9802 118.563V118.553Z" fill="#415385"/>
<path d="M34.9803 114.734C34.9203 114.274 36.3903 117.124 39.3503 117.864C40.3403 118.114 40.3403 119.514 39.3503 119.924C37.8303 120.554 35.9503 120.124 33.8603 119.424C32.5503 118.984 30.4503 119.244 28.4803 117.934C27.5603 117.324 28.2603 112.334 28.2603 112.334C28.2603 112.334 29.3202 115.454 33.0002 115.874C34.4402 116.034 35.1503 116.004 34.9803 114.724V114.734Z" fill="#415385"/>
<path d="M19.71 12.4434C19.71 12.4434 20.5399 14.0934 20.5099 17.8334L26.5699 21.5034C26.5699 21.5034 25.78 18.5234 25.95 15.7334L19.71 12.4434Z" fill="#E9A97F"/>
<path d="M34.33 22.7336C37.49 23.1236 39.15 22.3637 43.8 21.9637C44.7 21.8837 45.11 21.2537 46.6 20.3737C49.63 18.6037 52.47 17.5136 54.6 15.3536C55.72 14.2136 55.39 13.2737 56.26 11.9337C56.7 11.2437 57.18 9.56365 57.44 9.14365C57.79 8.57365 58.54 8.79365 58.4 9.45365C57.61 13.2936 58.77 15.3137 58.21 16.3737C57.47 17.7737 56.91 17.2737 55.43 18.6837C52.73 21.2737 49.64 23.4037 46.33 25.1237C45.91 25.3437 45.48 25.5536 45.05 25.7636C41.3 27.5536 37.29 28.8437 33.21 29.6537C32.49 29.7937 31.74 29.8237 31.03 29.6537C29.41 29.2837 28.97 28.3436 28.23 27.2236C27.31 25.8136 26.09 23.6837 26.46 22.3137C26.92 20.6337 31.47 22.2336 32.75 22.4836C33.27 22.5836 33.8 22.6736 34.33 22.7336Z" fill="#E9A97F"/>
<path d="M34.1799 34.7741C34.7699 32.3641 33.7899 29.8341 32.6499 27.6241C32.2099 26.7641 30.6999 23.3241 30.0499 22.5841C29.3599 21.7941 28.5099 21.5841 27.7199 20.9441C26.8499 20.2441 26.2298 19.5641 25.9998 18.1641C25.9998 18.1641 26.0199 18.8641 23.8799 18.7741C21.4299 18.6741 20.4099 17.6641 20.4099 17.6641C20.2399 18.9541 19.7999 19.1941 18.5799 19.6341C17.3599 20.0741 15.1899 21.2241 15.1599 22.5241C15.1099 24.6841 15.2399 27.9541 15.2399 27.9541C16.8099 31.8841 17.1599 32.0941 18.5199 36.3441C19.1799 40.4041 19.4499 42.6341 18.6499 45.1241C18.5599 45.3941 18.2299 47.0841 18.1399 47.3541L26.4099 47.8041L33.1699 46.1941C32.6199 43.9141 32.1799 40.7741 32.5699 38.9441C32.8799 37.4741 33.8299 36.2141 34.1899 34.7641L34.1799 34.7741Z" fill="#9AA4BE"/>
<path d="M27.6299 15.0536C28.2999 14.2436 28.5399 13.5836 28.7799 12.7136C29.5699 9.82364 28.2899 5.13362 27.9299 5.38362C27.5699 5.63362 27.8699 5.31362 27.5699 5.63362C26.7499 6.54362 23.5199 6.78365 22.4199 7.31365C21.5299 7.74365 19.5099 8.91364 18.9799 9.83364C17.7799 11.8936 19.3299 15.9036 21.9999 16.5236C23.6099 17.0336 26.5999 16.2936 27.6299 15.0536Z" fill="#E9A97F"/>
<path d="M19.2601 22.3334C17.9901 19.1234 14.6001 20.5334 12.8301 22.3834C11.6801 23.5834 10.8501 25.0534 10.0101 26.4934C8.38008 29.2934 6.75012 32.0934 5.12012 34.8934C4.46012 36.0234 3.82011 37.1834 3.48011 38.4434C3.31011 39.0534 3.39008 39.9834 3.58008 41.0134C3.62008 41.7434 3.68012 42.4934 3.74012 43.0334C3.94012 44.8234 4.15009 49.8634 4.15009 49.8634C4.15009 49.8634 2.5601 50.4534 1.1001 51.3934C0.760104 51.6134 0.990085 52.6934 0.830085 53.0634L0.19007 54.5034C-0.0199298 54.9834 -0.0599054 55.5234 0.0900946 56.0234L0.340095 56.8634C0.430095 57.1834 0.750075 57.3834 1.07008 57.3334L3.46009 56.9834C3.82009 56.9334 4.12008 56.6934 4.26008 56.3634L4.90009 54.8434L6.38007 53.6034C6.38007 53.6034 7.28008 52.4834 6.83008 51.1034C6.83008 51.1034 7.51007 46.0834 7.88007 43.3134C8.41007 41.5834 8.53012 39.1734 8.68012 38.9934C9.59012 37.8734 14.0401 32.8534 15.2701 31.2034C16.4101 29.6834 17.1001 28.7734 18.2401 27.1734C19.1601 25.8834 19.8901 23.9034 19.2601 22.3234V22.3334Z" fill="#E9A97F"/>
<path d="M61.64 8.97413C62.04 9.14413 62.22 9.70415 62 10.0841C62.38 10.2941 62.56 10.6942 62.45 11.1242C62.36 11.2642 62.34 11.2942 62.27 11.3442C62.52 11.5242 62.6701 11.8341 62.6601 12.1341C62.6501 12.4441 62.47 12.7341 62.2 12.8941C62.46 13.0241 62.51 13.3941 62.38 13.6441C62.25 13.8941 61.9901 14.0642 61.7301 14.1842C61.4101 14.3342 61.0401 14.4541 60.7201 14.3241C60.3901 14.1941 60.2201 13.7041 60.4901 13.4741C60.2401 13.4341 60.01 13.2341 59.95 12.9841C59.89 12.7341 59.98 12.4541 60.19 12.2941C59.91 12.3341 59.6101 12.1741 59.4701 11.9241C59.3401 11.6741 59.38 11.3342 59.57 11.1242C59.36 11.1642 59.17 10.9642 59.15 10.7542C59.14 10.5442 59.25 10.3442 59.38 10.1842C59.74 9.73415 61.02 8.70413 61.64 8.97413Z" fill="#E9A97F"/>
<path d="M34.2901 49.3839C33.9601 48.3339 33.4901 46.9539 33.1001 45.5039C26.6601 47.9539 18.4501 45.6939 18.3801 45.8939C16.8801 49.9339 15.1801 53.9239 13.7601 57.9839C12.8701 60.5339 12.5501 62.9039 12.4901 65.3439C12.4701 66.2839 13.2301 77.9039 14.0001 89.1039C14.7101 99.4639 15.4201 109.464 15.5001 110.334C17.5901 110.814 19.0301 111.024 21.8301 110.134C20.7701 107.604 21.6001 90.5339 21.6001 90.5339L26.0601 67.1139L27.4201 89.1039C27.4201 89.1039 26.5101 104.324 26.2601 107.474C28.3301 108.624 31.0601 108.354 33.0201 107.404C33.0801 107.374 33.4701 91.4239 33.4701 91.4239C33.4701 91.4239 37.6501 68.2339 37.0801 62.8739C36.5901 58.3139 35.6901 53.8039 34.2901 49.3939V49.3839Z" fill="#415385"/>
<path d="M19.1703 13.5638C18.5003 13.5638 17.6303 13.5038 17.6803 11.7838C17.7003 11.0138 17.8702 10.5837 18.0802 10.3438C18.1402 11.1237 18.5003 11.8838 18.9203 12.5038" fill="#E9A97F"/>
</svg>
