<svg xmlns="http://www.w3.org/2000/svg" width="16" height="16" viewBox="0 0 16 16" fill="none">
  <path d="M15.0158 13.0229C15.0584 13.2362 15.0211 13.4389 14.9038 13.6309C14.7971 13.8122 14.6424 13.9402 14.4398 14.0149L8.93577 15.8709L6.91977 15.9189L5.25577 15.9349C5.04244 15.9669 4.84511 15.9349 4.66377 15.8389C4.09844 15.6362 2.98377 15.2949 1.31977 14.8149L0.967773 14.7029V9.29487L5.30377 10.4629L5.92777 10.9429L9.91177 11.3909C10.1144 11.4122 10.2798 11.4975 10.4078 11.6469C10.5464 11.7962 10.6211 11.9722 10.6318 12.1749L12.8718 11.9509C13.4158 11.8975 13.8051 11.8655 14.0398 11.8549C14.2851 11.8442 14.4504 11.8442 14.5358 11.8549C14.5998 11.8655 14.6584 11.8975 14.7118 11.9509L14.7438 11.9829L14.7598 12.0309C14.8558 12.3082 14.9411 12.6389 15.0158 13.0229ZM1.94377 10.5589V13.9669L4.32777 14.7029C4.69044 14.8095 4.94111 14.8949 5.07977 14.9589C5.78377 14.9589 7.01044 14.9375 8.75977 14.8949L14.0398 13.1189C14.0291 13.0762 14.0131 13.0122 13.9918 12.9269L13.9758 12.8309L10.6158 13.1669C10.5731 13.4015 10.4664 13.5935 10.2958 13.7429C10.1251 13.8922 9.92244 13.9669 9.68777 13.9669H5.27177V12.9909H9.65577V12.3669L5.54377 11.8869L4.87177 11.3589L1.94377 10.5589ZM7.76777 4.04687C7.40511 4.04687 7.06911 3.95621 6.75977 3.77487C6.46111 3.59354 6.22111 3.35354 6.03977 3.05487C5.85844 2.74554 5.76777 2.40954 5.76777 2.04687C5.76777 1.68421 5.85844 1.35354 6.03977 1.05487C6.22111 0.745541 6.46111 0.500208 6.75977 0.318874C7.06911 0.137541 7.40511 0.046875 7.76777 0.046875C8.13044 0.046875 8.46111 0.137541 8.75977 0.318874C9.06911 0.500208 9.31444 0.745541 9.49577 1.05487C9.67711 1.35354 9.76777 1.68421 9.76777 2.04687C9.76777 2.40954 9.67711 2.74554 9.49577 3.05487C9.31444 3.35354 9.06911 3.59354 8.75977 3.77487C8.46111 3.95621 8.13044 4.04687 7.76777 4.04687ZM6.63177 2.04687C6.63177 2.35621 6.74377 2.62287 6.96777 2.84687C7.19177 3.07087 7.45844 3.18287 7.76777 3.18287C8.07711 3.18287 8.34377 3.07087 8.56777 2.84687C8.79177 2.62287 8.90377 2.35621 8.90377 2.04687C8.90377 1.73754 8.79177 1.47088 8.56777 1.24687C8.34377 1.02287 8.07711 0.910874 7.76777 0.910874C7.45844 0.910874 7.19177 1.02287 6.96777 1.24687C6.74377 1.47088 6.63177 1.73754 6.63177 2.04687ZM4.27977 4.81487C3.86377 4.81487 3.50644 4.66554 3.20777 4.36687C3.06911 4.22821 2.96244 4.06821 2.88777 3.88687C2.81311 3.70554 2.77577 3.51354 2.77577 3.31087C2.77577 2.89487 2.91977 2.54287 3.20777 2.25487C3.49577 1.95621 3.84777 1.80688 4.26377 1.80688C4.67977 1.80688 5.03177 1.95621 5.31977 2.25487C5.61844 2.54287 5.76777 2.89487 5.76777 3.31087C5.76777 3.71621 5.61844 4.06821 5.31977 4.36687C5.03177 4.65487 4.68511 4.80421 4.27977 4.81487ZM3.52777 3.31087H3.54377C3.54377 3.51354 3.61311 3.68954 3.75177 3.83887C3.90111 3.97754 4.07711 4.04687 4.27977 4.04687C4.48244 4.04687 4.65311 3.97754 4.79177 3.83887C4.94111 3.68954 5.01577 3.51354 5.01577 3.31087C5.01577 3.10821 4.94111 2.93754 4.79177 2.79887C4.65311 2.64954 4.47711 2.57487 4.26377 2.57487C4.06111 2.57487 3.88511 2.64954 3.73577 2.79887C3.59711 2.93754 3.52777 3.10821 3.52777 3.31087ZM11.7678 4.81487C11.3518 4.81487 10.9944 4.67087 10.6958 4.38287C10.4078 4.08421 10.2638 3.72687 10.2638 3.31087C10.2638 2.89487 10.4078 2.54287 10.6958 2.25487C10.9944 1.95621 11.3518 1.80688 11.7678 1.80688C12.1838 1.80688 12.5358 1.95621 12.8238 2.25487C13.1224 2.54287 13.2718 2.89487 13.2718 3.31087C13.2718 3.72687 13.1224 4.08421 12.8238 4.38287C12.5358 4.67087 12.1838 4.81487 11.7678 4.81487ZM11.7678 2.57487C11.5651 2.57487 11.3891 2.64954 11.2398 2.79887C11.1011 2.93754 11.0318 3.10821 11.0318 3.31087C11.0318 3.51354 11.1011 3.68954 11.2398 3.83887C11.3891 3.97754 11.5651 4.04687 11.7678 4.04687C11.9811 4.04687 12.1571 3.97754 12.2958 3.83887C12.4344 3.68954 12.5038 3.51354 12.5038 3.31087C12.5038 3.10821 12.4291 2.93754 12.2798 2.79887C12.1411 2.64954 11.9704 2.57487 11.7678 2.57487ZM11.0638 5.77487C11.7358 5.75354 12.3918 5.89221 13.0318 6.19087L13.2718 6.31887V9.11887H2.26377V6.31887L2.50377 6.19087C3.14377 5.89221 3.79977 5.75354 4.47177 5.77487C4.61044 5.77487 4.81844 5.78554 5.09577 5.80687V5.69487L5.33577 5.58288C6.07177 5.22021 6.87177 5.03887 7.73577 5.03887C8.59977 5.03887 9.42111 5.22554 10.1998 5.59887L10.4398 5.72687V5.80687C10.7171 5.78554 10.9251 5.77487 11.0638 5.77487ZM3.15977 8.23887H5.09577V6.70287C4.44511 6.59621 3.79977 6.65487 3.15977 6.87887V8.23887ZM5.99177 8.23887H9.54377V6.27087C8.96777 6.04688 8.37577 5.93487 7.76777 5.93487C7.15977 5.92421 6.56777 6.03087 5.99177 6.25487V8.23887ZM10.4398 8.23887H12.3758V6.87887C11.7358 6.65487 11.0904 6.59621 10.4398 6.70287V8.23887Z" />
</svg>
