<svg xmlns="http://www.w3.org/2000/svg" width="22" height="22" fill="none" viewBox="0 0 22 22">
    <path fill-rule="evenodd" d="M13.527 20.724c1.039.471 2.16.733 3.3.773a3.572 3.572 0 0 0 2.592-.957l1.44-1.44a2.178 2.178 0 0 0-.451-3.426l-4.858-2.796a2.18 2.18 0 0 0-2.624.35l-.956.956a.05.05 0 0 1-.064 0 27.083 27.083 0 0 1-2.152-1.935 27.168 27.168 0 0 1-1.939-2.155.047.047 0 0 1 0-.061l.957-.957a2.18 2.18 0 0 0 .347-2.624L6.33 1.595a2.178 2.178 0 0 0-3.434-.452l-1.44 1.44C.248 3.79.181 5.883 1.27 8.482c.98 2.32 2.787 4.869 5.087 7.169s4.837 4.102 7.17 5.073ZM3.824 2.07a.848.848 0 0 1 .61-.253h.116a.875.875 0 0 1 .635.431l2.796 4.857a.875.875 0 0 1-.137 1.044l-.956.957a1.356 1.356 0 0 0-.108 1.801c.639.79 1.32 1.545 2.041 2.26.716.72 1.47 1.402 2.26 2.04.54.435 1.322.39 1.81-.101l.957-.957a.875.875 0 0 1 1.043-.137l4.852 2.796a.874.874 0 0 1 .431.636.874.874 0 0 1-.247.726l-1.44 1.44c-.797.796-2.424.758-4.464-.093-2.17-.907-4.57-2.61-6.753-4.793-2.184-2.184-3.883-4.58-4.79-6.75-.857-2.044-.892-3.67-.096-4.463l1.44-1.44Z" clip-rule="evenodd"/>
</svg>
