<svg xmlns="http://www.w3.org/2000/svg" width="18" height="21" fill="none" viewBox="0 0 18 21">
    <path fill-rule="evenodd" d="M17.357 2.75H.643a.642.642 0 1 0 0 1.286h16.714a.642.642 0 1 0 0-1.286Zm-2.163 15.244.232-11.339h1.286L16.48 18.02a2.787 2.787 0 0 1-2.788 2.73H4.403a2.787 2.787 0 0 1-2.786-2.73L1.384 6.655h1.285l.233 11.338c.017.811.69 1.471 1.501 1.471h9.29a1.51 1.51 0 0 0 1.501-1.47Zm-3.148-9.619.796.796-2.813 2.812 2.813 2.813-.796.795-2.813-2.813-2.812 2.813-.796-.795 2.813-2.813-2.813-2.812.796-.796 2.812 2.813 2.813-2.813Z" clip-rule="evenodd"/>
    <path d="M12.562 1.625h-6.75a.562.562 0 1 1 0-1.125h6.75a.562.562 0 1 1 0 1.125Z"/>
</svg>
