<svg width="60" height="116" viewBox="0 0 60 116" fill="none" xmlns="http://www.w3.org/2000/svg">
<path d="M57.393 58.3904L40.873 67.9904V95.0604L57.393 85.4604C57.393 85.4604 57.443 85.4304 57.463 85.4104C58.383 84.8504 59.273 83.9604 59.313 82.8204C59.313 82.8004 59.313 82.7804 59.313 82.7604V55.6904L57.393 58.3904Z" fill="#62719A"/>
<path d="M14.8931 58.3904C13.5831 57.6304 12.9331 56.6404 12.9331 55.6504V82.7204C12.9331 83.7104 13.5631 84.7004 14.8731 85.4604L31.5131 95.0604V67.9904L14.8931 58.3904Z" fill="#62719A"/>
<path d="M40.8732 67.9902H31.5132V95.0602C31.8132 95.2302 32.1132 95.3802 32.4532 95.5202C32.4732 95.5202 32.4932 95.5302 32.5132 95.5402C34.6832 96.3702 37.3732 96.3902 39.5632 95.6402C40.0232 95.4802 40.4732 95.3002 40.8732 95.0702V68.0002V67.9902Z" fill="#62719A"/>
<path d="M57.3931 52.9604L40.7631 43.3604C38.1631 41.8604 33.9631 41.8604 31.3831 43.3604L14.8631 52.9604C12.2931 54.4504 12.3031 56.8904 14.9031 58.3904L31.5231 67.9904C34.1131 69.4804 38.3131 69.4804 40.8831 67.9904L57.4031 58.3904C59.9831 56.8904 59.9831 54.4604 57.4031 52.9604H57.3931Z" fill="#D2D7E2"/>
<path d="M15.4332 88.5502C14.7432 88.5002 11.7831 88.2902 11.0031 88.2402C11.0231 90.1302 10.9431 91.7502 10.7231 92.8602C10.7231 92.8602 9.97315 97.0402 8.26315 97.5702L3.22314 99.6102V100.36L9.86314 101.32L16.2932 97.1402L15.3331 92.7502C15.3331 92.7502 15.2832 90.6602 15.4332 88.5502Z" fill="#E9A97F"/>
<path d="M15.743 93.7305C15.743 93.7305 15.023 96.0005 10.083 98.2405C10.023 98.2705 9.94297 98.2705 9.88297 98.2605C9.88297 98.2605 7.36297 96.5105 6.45297 97.0305C5.86297 97.3705 5.51297 98.3605 3.62297 99.1405C1.12297 100.18 0.872966 99.8905 0.162966 100.28C-0.337034 100.71 0.372973 101.21 1.48297 101.89C3.05297 102.64 3.26297 102.81 5.12297 102.92C5.89297 102.97 7.30296 102.67 8.42296 102.2C14.113 99.7805 16.003 99.2205 16.943 98.0705C16.943 98.0705 17.083 96.6805 15.743 93.7305Z" fill="#2D2D2D"/>
<path d="M30.2429 99.2402H25.8229C25.8229 100.91 25.7429 102.35 25.5429 103.36C25.5429 103.36 25.5429 106.44 22.7929 109.56L21.4429 112.2L21.9929 113.63L27.7029 113.85L30.0029 108.47L30.1529 103.26C30.1529 103.26 30.1129 101.29 30.2429 99.2502V99.2402Z" fill="#E9A97F"/>
<path d="M30.1129 105.17C30.1629 105.3 30.0929 105.57 30.0729 105.7C30.0129 106.17 29.9129 106.64 29.7629 107.09C29.5529 107.75 29.2529 108.39 28.8829 108.97C28.6029 109.41 28.3329 109.88 27.9129 110.19C27.4429 110.54 26.7329 110.62 26.1629 110.68C25.3529 110.77 24.4629 110.73 23.7429 110.31C23.0329 109.89 23.2129 109.27 23.5529 108.61C23.8629 108 21.2329 111.4 20.6729 112.2C19.8229 113.41 20.1129 114.13 21.0729 114.65C22.7829 115.69 25.8929 115.91 27.6929 115.41C29.0329 115.04 29.4529 113.84 29.6729 112.75C30.0029 111.1 30.3029 109.76 30.7729 108.58C30.7729 108.58 31.2029 107.85 30.1129 105.18V105.17Z" fill="#2D2D2D"/>
<path d="M48.5931 47.9202L33.083 44.7002C30.473 46.0202 14.563 54.1402 13.253 54.7102C11.233 55.5902 10.233 57.1102 9.10305 58.9202C8.22305 60.3202 8.41306 61.9802 8.34306 63.5902C8.34306 65.6302 8.28305 67.5702 8.44305 69.6102C8.60305 71.6602 10.0131 92.6102 10.2631 92.7102C12.1031 93.4702 14.053 93.5002 16.113 93.5902C16.493 90.1002 16.8831 86.6102 17.2631 83.1202C17.4931 81.0002 17.7231 78.8802 17.9631 76.7602C18.2631 73.9802 18.483 71.3202 18.173 68.5302C18.123 68.0502 17.4431 64.5202 17.8731 64.3202L25.273 61.0502C23.883 62.1802 22.783 63.5502 22.333 65.5602C21.873 67.6302 22.273 70.4702 22.723 72.5402C23.803 77.5602 23.5331 82.9002 23.7031 88.0002C23.8831 93.2802 24.0831 98.5602 24.3131 103.83C24.4431 104.74 30.3231 104.86 30.4631 104.12C33.2031 89.8202 34.503 69.3202 34.303 69.6202C40.343 66.8802 45.3031 63.5602 46.9031 61.8202C48.5731 60.0002 48.9231 57.4002 48.9731 55.0302C48.9831 54.3502 48.343 48.0302 48.613 47.9302L48.5931 47.9202Z" fill="#D04A02"/>
<path d="M23.2232 28.8398C23.2232 28.8398 22.7932 36.0299 24.3332 40.1699C25.4432 43.1499 22.9232 46.7698 23.4732 49.0898L27.5732 50.4099C27.5732 50.4099 29.9132 44.9999 30.2032 40.0199C30.2032 40.0199 29.3232 37.0898 29.0332 31.5298C29.0332 31.5298 26.0732 30.2098 23.2232 28.8398Z" fill="#E9A97F"/>
<path d="M29.3332 60.85L36.1732 55.32L22.3032 48.54L12.4932 53.44L29.3332 60.85Z" fill="#1A2A5A"/>
<path d="M47.2331 47.9203C47.1331 48.1903 41.6531 49.1803 33.9031 48.3803C31.8431 48.1703 29.2031 47.8503 27.9931 45.9603C27.0831 44.5403 27.4631 43.1103 27.2531 41.4603C27.0931 40.2103 27.0431 38.9403 27.0631 37.6803C27.0631 37.1603 26.8131 32.5003 26.6431 32.4203C25.1931 31.6903 24.1631 31.7303 21.4531 29.2303C21.6131 28.0503 22.8331 27.1603 23.1131 26.0003C23.8431 22.9703 24.9731 20.5303 27.2231 18.8803C27.8431 18.4203 28.5331 17.8303 30.2131 17.6003C38.6231 16.4603 45.2831 19.3903 45.8231 19.6203C50.0131 21.3303 51.7931 22.3703 52.7931 23.5603C54.8931 26.0403 55.1831 29.2403 53.5131 33.9703C53.5131 33.9703 50.2831 33.1403 47.3631 32.5503C47.3631 32.5503 50.1631 40.0403 47.2431 47.9403L47.2331 47.9203Z" fill="#415385"/>
<path d="M54.6428 31.2407L47.1228 32.9007C47.1228 32.9007 46.4628 41.1307 47.1228 46.4507L32.8628 53.1907L30.6528 52.1407C30.4528 52.0407 30.2228 52.0507 30.0328 52.1607C29.3328 52.5707 27.6328 53.5707 27.1528 53.9607L27.8628 58.9007L29.3428 57.3607L31.1828 57.4507C31.4428 57.4607 31.7128 57.4007 31.9428 57.2707L34.1628 56.0407C38.6528 55.2007 43.1828 54.4107 47.5128 52.9107C48.2328 52.6607 48.9228 52.3407 49.6128 52.0407C50.7128 51.5507 51.1328 51.1007 51.8228 50.0707C52.7628 48.6807 52.6228 46.0807 53.1228 44.5007C54.2328 41.0407 54.8828 37.3707 54.7028 33.7307C54.6528 32.6607 55.1628 32.1707 54.6228 31.2207L54.6428 31.2407Z" fill="#E9A97F"/>
<path d="M6.61282 37.3603L25.8928 45.1503C26.3728 45.3403 26.7128 45.7703 26.8028 46.2803L28.8928 58.2803C29.0928 59.4203 27.9828 60.3403 26.9028 59.9303L6.81284 52.3803C6.28284 52.1803 5.91283 51.7003 5.85283 51.1403L4.57283 38.8903C4.45283 37.7703 5.57282 36.9303 6.61282 37.3503V37.3603Z" fill="#203570"/>
<path d="M46.8432 34.4903C46.8432 34.4903 52.9732 35.1703 55.3832 33.6403C55.3832 33.6403 54.6832 31.1703 53.8632 26.7803L46.7832 29.3903L46.8332 34.4903H46.8432Z" fill="#415385"/>
<path d="M33.81 16.5102L33.45 16.4102L31 17.1201C31.18 19.9001 31.99 24.0602 31.99 24.0602L36.32 20.6701C33.7 18.9701 33.81 16.5102 33.81 16.5102Z" fill="#D2D7E2"/>
<path d="M39.2197 20.7602L42.5297 25.1201C42.5297 25.1201 44.0497 22.8601 45.0997 20.0501L42.9897 16.4102C42.9897 16.4102 41.4497 19.7202 39.2197 20.7602Z" fill="#D2D7E2"/>
<path d="M36.3199 20.6699L37.4398 26.9999L39.2198 20.7599L41.2198 23.3099L38.1099 31.0799L36.3199 26.8399L32.5898 23.5899L36.3199 20.6699Z" fill="#415385"/>
<path d="M33.963 16.6802C36.213 17.2602 39.893 15.7102 40.453 12.2102C41.013 8.70022 41.143 3.4902 38.743 2.4402C34.493 0.580196 32.633 2.45022 32.013 5.90022C31.393 9.35022 31.713 16.1002 33.963 16.6802Z" fill="#E9A97F"/>
<path d="M43.3166 18.47C42.8766 16.44 41.4466 7.66 41.4466 7.66L32.2666 5L32.4966 11.27L34.6866 16.71C34.4666 17.06 34.6166 17.21 34.2766 17.61C33.8666 18.1 34.6266 19.52 35.3166 20.05C36.1666 20.7 36.9366 27.66 37.8066 27.77C38.2466 27.83 39.5266 21.22 40.0366 21.18C41.1566 21.09 41.5666 21.07 42.3266 20.57C43.0466 20.1 43.4966 19.3 43.3166 18.46V18.47Z" fill="#E9A97F"/>
<path d="M31.2396 0C29.1696 2.46 29.8696 4.61002 32.0296 4.71002C34.1896 4.82002 36.1296 5.05001 38.7696 4.10001C37.3696 6.57001 40.3796 11.79 38.8796 12.6C37.3696 13.41 35.2496 11.39 32.3396 12.11C30.5496 12.55 31.4496 18.33 33.4996 18.45C35.5396 18.56 40.1796 17.41 40.4796 15.52C40.7696 13.63 39.0096 9.47 39.8796 8.16C40.7496 6.85 40.5396 6.52001 40.5396 7.48001C40.5396 8.44001 40.8696 13.21 40.8696 13.21C40.8696 13.21 42.5996 12.99 42.7596 11.52C43.0196 9.13002 42.8896 6.85002 42.7296 5.40002C42.4396 2.61002 40.3896 0.190001 37.5996 0.720001C34.8196 1.25 34.5196 1.55001 32.8196 1.26001C31.1296 0.97001 31.2496 0 31.2496 0H31.2396Z" fill="#D04A02"/>
</svg>
