<svg width="58" height="106" viewBox="0 0 58 106" fill="none" xmlns="http://www.w3.org/2000/svg">
<path d="M44.4599 57.0603L27.9399 66.6603V93.7303L44.4599 84.1303C44.4599 84.1303 44.5099 84.1004 44.5299 84.0804C45.4499 83.5204 46.3399 82.6303 46.3799 81.4903C46.3799 81.4703 46.3799 81.4503 46.3799 81.4303V54.3604L44.4599 57.0603Z" fill="#62719A"/>
<path d="M1.95999 57.0603C0.649992 56.3003 0 55.3103 0 54.3203V81.3903C0 82.3803 0.630002 83.3703 1.94 84.1303L18.58 93.7303V66.6603L1.95999 57.0603Z" fill="#62719A"/>
<path d="M27.9401 66.6699H18.5801V93.7399C18.8801 93.9099 19.1801 94.0599 19.5201 94.1999C19.5401 94.1999 19.5601 94.2099 19.5801 94.2199C21.7501 95.0499 24.4401 95.0699 26.6301 94.3199C27.0901 94.1599 27.5401 93.9799 27.9401 93.7499V66.6799V66.6699Z" fill="#62719A"/>
<path d="M44.4498 51.64L27.8198 42.04C25.2198 40.54 21.0198 40.54 18.4398 42.04L1.91978 51.64C-0.650225 53.13 -0.640231 55.57 1.95977 57.07L18.5798 66.67C21.1698 68.16 25.3698 68.16 27.9398 66.67L44.4598 57.07C47.0398 55.57 47.0398 53.14 44.4598 51.64H44.4498Z" fill="#D2D7E2"/>
<path d="M48.1598 95.4298C49.5098 97.2598 52.6598 98.2298 55.6998 96.4598C53.2098 94.0298 52.1398 93.9698 51.4998 91.5798C50.3398 87.2498 50.8398 82.3898 50.7598 78.3198C50.6298 71.9898 48.9398 61.8698 46.6398 55.9798C44.3398 50.0798 38.7198 44.9198 32.4098 45.4598L29.7998 51.0198L45.0398 64.8398C45.0398 64.8398 46.0098 92.8698 48.1598 95.4398V95.4298Z" fill="#674937"/>
<path d="M51.8097 97.01C56.3697 97.68 53.1097 94.03 53.2097 94.09C54.8497 95.18 56.4297 96.89 56.7997 97.37C57.3197 98.06 58.2597 99.86 56.0697 100.41C54.3997 100.83 51.4297 98.04 49.8097 97.23C47.3797 95.77 46.8697 95.39 46.0997 94.51C45.5197 93.86 45.6897 87.04 45.6897 87.04C45.6897 87.04 47.8497 96.42 51.8197 97L51.8097 97.01Z" fill="#D04A02"/>
<path d="M40.0099 69.6703C40.0099 80.1103 46.0899 92.0203 45.4599 97.2003C45.4399 97.3403 45.3099 98.6703 45.2799 98.8103C46.6599 99.6903 47.9399 101.28 49.2499 101.76C49.9999 102.04 52.7399 102.57 54.3799 101.42C49.3099 98.8903 47.4899 88.8003 47.3999 82.8003C47.3299 78.7403 47.5499 70.8303 46.4699 66.9203C44.9499 61.4203 39.3999 59.0203 35.0599 55.3003C30.7899 51.6303 20.9299 42.1303 17.3599 49.9003C16.2799 52.2403 18.2799 56.4603 22.1199 60.3103C24.4999 62.6903 40.0099 68.6103 40.0099 69.6803V69.6703Z" fill="#623F2D"/>
<path d="M9.12992 24.2802C9.87992 22.4002 11.1699 22.7002 10.9899 20.6802C10.8399 19.0902 9.93991 17.5302 10.3199 15.9702C10.6099 14.8002 11.5599 13.9402 12.5099 13.2002C13.7999 12.1902 15.1799 11.2702 16.2899 10.0502C16.9899 9.28022 20.3499 7.60025 20.6699 6.61025C20.9099 5.86025 21.0199 5.06025 21.3499 4.33025C21.6899 3.58025 22.2699 2.97023 22.8499 2.40023C26.1099 -0.819773 28.6799 -0.549756 32.5499 1.73024C36.1699 3.87024 36.0599 8.88024 34.0899 12.5102C33.4499 13.6802 32.5199 14.7802 32.4099 16.1102C32.3299 17.1802 32.8099 18.2002 33.0999 19.2302C34.0499 22.6002 32.4199 22.7302 30.4399 21.9702C29.3999 19.8202 28.7499 18.1402 28.3799 18.0802C27.4399 17.9303 26.0099 17.4802 27.4599 15.6702C27.6599 15.5602 27.8799 15.4802 28.1099 15.3802C28.5399 15.1902 27.7599 14.5302 28.1299 14.2502C28.8699 13.6802 29.4999 12.9502 29.9899 12.1602C30.9899 10.5602 31.4799 8.69023 31.4599 6.81023C31.4499 5.79023 30.7999 6.56024 29.7899 6.41024C27.1099 6.03024 26.0099 6.80025 24.7499 9.67025C24.3299 10.6302 24.0899 11.7202 23.7799 12.7602C23.7099 13.0102 23.6299 13.2502 23.5399 13.4902C23.1799 14.5102 22.6899 15.4102 21.7799 15.9902C20.5799 16.7502 19.1099 16.9002 17.7699 17.3902C16.9699 17.6802 18.1899 22.3802 18.1899 22.3802C19.7299 26.2202 19.8499 27.0402 20.5299 29.9802C20.9699 32.7602 20.9599 34.6202 20.2599 36.7902C19.9099 37.8702 20.1599 36.9702 19.8099 38.0502C19.7599 38.2002 18.4199 38.1902 18.2499 38.1902C17.6999 38.1902 17.1499 38.1603 16.5999 38.0802C15.4999 37.9202 14.4299 37.5902 13.4199 37.1202C11.4499 36.1902 9.70992 34.6602 8.76992 32.6702C7.49992 30.0002 8.04992 26.9402 9.09992 24.3002L9.12992 24.2802Z" fill="#2D2D2D"/>
<path d="M51.3597 101.67C54.3597 102.32 52.5197 99.9199 53.2797 100.69C54.4997 101.91 56.4197 102.3 56.7897 102.97C57.1397 103.62 56.4797 105.69 53.0797 105.4C51.6197 105.28 50.3597 103.5 48.2797 102.12C47.1797 101.39 45.8797 100.83 45.2997 100.17C44.7197 99.5199 45.2797 96.46 45.2797 96.46C45.2797 96.46 47.4397 100.82 51.3597 101.67Z" fill="#D04A02"/>
<path d="M32.8997 21.4099C33.3697 22.6099 33.6397 23.9699 33.8597 25.0899C34.2197 26.9899 34.2197 28.9199 34.0597 30.8499C33.9797 31.8699 33.3997 34.7599 33.5597 35.7599C33.7197 36.7699 34.1797 38.5399 35.0597 39.0599L30.8397 39.7899L28.4297 18.1699C29.6797 18.3699 30.9497 18.5099 31.8297 19.5299C32.2797 20.0499 32.6297 20.6999 32.9097 21.4099H32.8997Z" fill="#623F2D"/>
<path d="M20.2998 32.5705C20.2998 32.5705 21.1498 34.4805 21.1398 34.5005C21.1398 34.5205 19.7798 38.6705 19.7798 38.6805C18.9698 40.9305 18.1498 43.1705 17.3398 45.4205C16.3198 48.5105 15.4998 51.9404 15.7098 53.7404C15.7098 53.7404 15.5098 55.9905 17.9098 58.4705C19.5998 60.2105 24.1798 62.7204 29.3098 64.3004C29.3098 64.3004 27.1298 61.9105 28.4398 58.6305C29.0798 57.0305 31.2598 55.2304 33.6698 54.7104C38.6898 53.6204 37.5098 52.5105 39.4498 51.1305C42.1598 49.2005 42.5598 49.6305 43.1098 50.1705C43.3498 50.4105 42.9198 49.7705 42.7898 49.6405C41.0398 47.7505 38.5398 45.5805 35.7398 44.7805C34.7398 44.4905 34.4498 42.0505 33.6098 40.6105C32.2298 38.2605 30.3498 35.6305 30.9298 32.9705C31.2098 31.6905 32.0298 30.5905 32.3398 29.3205C32.8498 27.2205 31.9998 25.0205 31.0098 23.0905C30.8098 22.7105 30.6298 22.3405 30.4598 21.9705C29.4198 19.8205 28.7698 18.1405 28.3998 18.0805C27.4598 17.9305 26.0298 17.4805 27.4798 15.6705C25.3998 16.1105 24.0198 14.9905 23.5598 13.4805C23.1998 14.4905 22.7098 15.4005 21.7998 15.9805C20.6098 16.7405 19.1298 16.8905 17.7998 17.3705C16.9998 17.6605 16.3598 18.1405 15.8198 18.7205C15.9198 18.8705 18.2198 22.3605 18.2198 22.3605C19.7498 26.2005 19.2098 27.3604 19.8898 30.3004C20.0198 31.1504 20.1798 31.8804 20.3098 32.5504L20.2998 32.5705Z" fill="#FDAB8D"/>
<path d="M43.0998 50.1701C42.5598 49.6201 42.1598 49.2001 39.4398 51.1301C37.4998 52.5101 38.6798 53.6201 33.6598 54.7101C31.2498 55.2301 29.0698 57.0301 28.4298 58.6301C27.1198 61.9001 29.2998 64.3001 29.2998 64.3001C24.1698 62.7201 19.5898 60.2101 17.8998 58.4701C15.4898 55.9901 15.6998 53.7401 15.6998 53.7401C15.4298 51.5101 16.7598 46.7801 18.0798 43.3001C18.2298 42.9101 18.3698 42.5201 18.5098 42.1301L31.0498 35.6201C31.5398 37.3601 32.6798 39.0401 33.5898 40.6001C34.4298 42.0401 34.7098 44.4801 35.7198 44.7701C38.5198 45.5701 41.0198 47.7401 42.7698 49.6301C42.8998 49.7701 43.3298 50.4001 43.0898 50.1601L43.0998 50.1701Z" fill="#FDAB8D"/>
<path d="M31.0598 35.6203C30.2698 35.7703 29.0898 36.0103 27.6798 36.3603C25.1698 36.9703 23.5898 34.9503 22.5798 35.4303C21.4998 35.9403 19.7098 39.5803 18.0898 43.3003C18.4698 42.2103 18.8498 41.1203 19.2298 40.0303C19.4598 39.3803 19.8298 38.1703 20.2798 36.7803C20.3998 36.3903 20.4798 36.0303 20.5298 35.6803C20.5998 35.1903 20.7498 34.5603 20.6198 33.7003C20.5698 33.3503 20.4699 32.9803 20.2999 32.5703C22.3099 33.0703 24.0198 34.2303 26.0398 34.7203C27.5798 35.1003 29.4198 34.8103 30.9598 35.1903C30.9998 35.3303 31.0298 35.4803 31.0698 35.6203H31.0598Z" fill="#FB7C4D"/>
<path d="M26.61 52.3103L21.87 49.9503C21.58 49.7803 21.57 49.3603 21.86 49.1803L29.88 44.3903C29.96 44.3403 30.06 44.3103 30.16 44.3203L37.11 45.0103C37.54 45.0503 37.67 45.6103 37.31 45.8403L27.07 52.2903C26.93 52.3803 26.75 52.3803 26.6 52.2903L26.61 52.3103Z" fill="#1A2A5A"/>
<path d="M22.8801 45.0802C21.0201 43.1302 15.5801 38.9002 14.9401 36.1902C14.2701 33.3402 14.4301 29.8802 14.1301 26.9402C13.8401 24.0802 13.6601 20.8402 15.5601 18.6802C16.2601 17.8802 17.2901 17.2902 18.3501 17.3802C21.0501 17.6302 19.5501 22.8902 19.2101 24.4002C18.7101 26.6002 18.2501 30.2202 18.4001 34.1902C18.4001 34.1902 19.2801 36.5002 19.5101 37.0902L22.8901 45.0802H22.8801Z" fill="#623F2D"/>
<path d="M17.9301 34.3398C20.7901 36.2098 21.4301 41.6299 23.0701 42.6099C23.1501 42.5499 23.2302 42.4998 23.3102 42.4598C23.3102 42.4598 24.4602 41.7899 25.3102 41.9499C26.1602 42.1099 26.6801 42.6599 27.2601 43.0999C27.8401 43.5399 28.1002 43.5799 28.2402 43.8499C28.3402 44.0399 28.2702 44.5499 27.5202 44.2899C26.7702 44.0299 26.1401 43.1899 25.7601 43.1399C25.3801 43.0999 25.3002 43.6098 25.8602 44.4598C26.4202 45.3098 27.2602 46.1398 27.8302 46.4998C28.4502 46.8898 29.3002 47.1699 29.1602 47.5399C29.0202 47.8999 28.3901 47.7098 28.0401 47.5598C27.5701 47.3598 27.4402 47.2198 27.4402 47.2198C27.4402 47.2198 27.6901 47.4699 27.3201 47.6599C26.8501 47.8999 26.4702 47.3899 26.4702 47.3899C26.4702 47.3899 26.4802 47.7299 26.1302 47.8299C25.7802 47.9299 25.5802 47.5699 25.5802 47.5699C25.5802 47.5699 25.5801 47.6598 25.2101 47.8098C24.8801 47.9398 24.2901 47.2299 24.2901 47.2299C24.2901 47.2299 23.0202 45.6498 22.5302 44.6198C22.5202 44.5898 22.5102 44.5599 22.5002 44.5399L17.9102 34.3499L17.9301 34.3398Z" fill="#623F2D"/>
<path d="M42.8298 32.0607V42.4906C42.8298 42.9606 42.5798 43.3907 42.1798 43.6207L27.5198 52.0907C26.6498 52.5907 25.5698 51.9606 25.5698 50.9606V40.6707C25.5698 40.2107 25.8098 39.7806 26.2098 39.5506L40.8698 30.9407C41.7398 30.4307 42.8298 31.0607 42.8298 32.0607Z" fill="#203570"/>
<path d="M24.9599 6.78034C24.9599 6.78034 25.05 6.84033 25.1 6.87033C26.58 4.88033 28.78 4.11036 30.35 4.86036C31.56 5.43036 32.0599 6.00034 32.2999 6.91034C32.6599 8.31034 32.0799 10.0504 31.2299 11.9204C30.5599 13.3804 29.51 14.5903 28.74 15.4403C28.17 16.0603 27.5899 16.4303 26.9699 16.4703C26.9399 16.4703 26.8799 16.4703 26.7999 16.4703C26.7999 16.4703 26.3199 16.4703 25.8099 16.2903C25.4199 16.1403 24.1599 15.4404 23.6499 13.9504C23.4099 13.2604 23.44 12.7003 23.49 11.6503C23.54 10.6803 23.6999 9.89036 23.8299 9.33036C23.8299 9.33036 23.8199 9.33036 23.8099 9.33036C23.6199 9.24036 23.4699 9.10033 23.3699 8.93033C23.1399 8.56033 23.1099 8.04034 23.3299 7.56034C23.5099 7.17034 23.7399 6.80033 24.0499 6.65033C24.2999 6.53033 24.5999 6.55035 24.9799 6.79035L24.9599 6.78034Z" fill="#623F2D"/>
</svg>
