<svg xmlns="http://www.w3.org/2000/svg" width="25" height="17" fill="none" viewBox="0 0 25 17">
  <path fill-rule="evenodd" d="M2.037 2.3643v12.8909H15.87V2.3642H2.037ZM1.5338.833C.9779.833.5273 1.29.5273 1.8538v13.9119c0 .5638.4506 1.0208 1.0065 1.0208h14.8394c.5558 0 1.0064-.457 1.0064-1.0208V1.8538c0-.5637-.4506-1.0208-1.0064-1.0208H1.5338Z" clip-rule="evenodd"/>
  <path fill-rule="evenodd" d="M17.3847 6.8605V10.76l5.9685 2.5728V4.2876l-5.9685 2.5728Zm-.8969-1.2772c-.3716.1601-.6128.53-.6128.9395v4.5749c0 .4094.2412.7793.6128.9395l6.975 3.0067c.6637.2861 1.4001-.208 1.4001-.9395V3.5161c0-.7316-.7364-1.2257-1.4001-.9395l-6.975 3.0067Z" clip-rule="evenodd"/>
</svg>
