<svg xmlns="http://www.w3.org/2000/svg" width="5100" height="2117" fill="none"><path stroke="#613000" stroke-dasharray="1000 220" stroke-linecap="round" stroke-linejoin="round" stroke-width="100" d="M50 1058.17C50-205.331 1250-205.331 2150 637.006l800 842.334c900 842.34 2100 842.34 2100-421.17 0-1263.501-1200-1263.501-2100-421.164l-800 842.334C1250 2321.68 50 2321.68 50 1058.17"/><path fill="#613000" d="M2227.27 1666.78h-36.68l-5.88 17.36h-25.06l35.56-98.28h27.72l35.56 98.28h-25.34zm-6.16-18.48-12.18-35.98-12.04 35.98zm43.44-3.36c0-8.02 1.5-15.07 4.48-21.14 3.08-6.06 7.24-10.73 12.46-14 5.23-3.26 11.06-4.9 17.5-4.9 5.14 0 9.8 1.08 14 3.22 4.3 2.15 7.66 5.04 10.08 8.68v-36.26h23.94v103.6h-23.94v-11.2c-2.24 3.74-5.46 6.72-9.66 8.96-4.1 2.24-8.91 3.36-14.42 3.36-6.44 0-12.27-1.63-17.5-4.9-5.22-3.36-9.38-8.07-12.46-14.14-2.98-6.16-4.48-13.25-4.48-21.28m58.52.14c0-5.97-1.68-10.68-5.04-14.14-3.26-3.45-7.28-5.18-12.04-5.18s-8.82 1.73-12.18 5.18c-3.26 3.36-4.9 8.03-4.9 14 0 5.98 1.64 10.74 4.9 14.28 3.36 3.46 7.42 5.18 12.18 5.18s8.78-1.72 12.04-5.18c3.36-3.45 5.04-8.16 5.04-14.14m36.5-.14c0-8.02 1.5-15.07 4.48-21.14 3.08-6.06 7.24-10.73 12.46-14 5.23-3.26 11.06-4.9 17.5-4.9 5.14 0 9.8 1.08 14 3.22 4.3 2.15 7.66 5.04 10.08 8.68v-36.26h23.94v103.6h-23.94v-11.2c-2.24 3.74-5.46 6.72-9.66 8.96-4.1 2.24-8.91 3.36-14.42 3.36-6.44 0-12.27-1.63-17.5-4.9-5.22-3.36-9.38-8.07-12.46-14.14-2.98-6.16-4.48-13.25-4.48-21.28m58.52.14c0-5.97-1.68-10.68-5.04-14.14-3.26-3.45-7.28-5.18-12.04-5.18s-8.82 1.73-12.18 5.18c-3.26 3.36-4.9 8.03-4.9 14 0 5.98 1.64 10.74 4.9 14.28 3.36 3.46 7.42 5.18 12.18 5.18s8.78-1.72 12.04-5.18c3.36-3.45 5.04-8.16 5.04-14.14m53.3-47.18c-4.2 0-7.65-1.21-10.36-3.64-2.61-2.52-3.92-5.6-3.92-9.24 0-3.73 1.31-6.81 3.92-9.24 2.71-2.52 6.16-3.78 10.36-3.78q6.165 0 10.08 3.78c2.71 2.43 4.06 5.51 4.06 9.24 0 3.64-1.35 6.72-4.06 9.24-2.61 2.43-5.97 3.64-10.08 3.64m11.9 8.12v78.12h-23.94v-78.12zm12.59 39.06c0-8.12 1.64-15.21 4.9-21.28 3.36-6.06 7.98-10.73 13.86-14 5.98-3.26 12.79-4.9 20.44-4.9 9.8 0 17.97 2.57 24.5 7.7 6.63 5.14 10.97 12.37 13.02 21.7h-25.48c-2.14-5.97-6.3-8.96-12.46-8.96-4.38 0-7.88 1.73-10.5 5.18-2.61 3.36-3.92 8.22-3.92 14.56 0 6.35 1.31 11.25 3.92 14.7q3.93 5.04 10.5 5.04c6.16 0 10.32-2.98 12.46-8.96h25.48c-2.05 9.15-6.39 16.34-13.02 21.56-6.62 5.23-14.79 7.84-24.5 7.84-7.65 0-14.46-1.63-20.44-4.9-5.88-3.26-10.5-7.93-13.86-14-3.26-6.06-4.9-13.16-4.9-21.28m133.07 18.76v20.3h-12.18c-8.68 0-15.45-2.1-20.3-6.3-4.85-4.29-7.28-11.24-7.28-20.86v-31.08h-9.52v-19.88h9.52v-19.04h23.94v19.04h15.68v19.88h-15.68v31.36q0 3.51 1.68 5.04c1.12 1.03 2.99 1.54 5.6 1.54zm77.31-77.98v19.18h-40.04v20.72h29.96v18.62h-29.96v39.76h-23.94v-98.28zm36.53 33.18q4.2-6.435 10.5-10.08c4.2-2.52 8.86-3.78 14-3.78v25.34h-6.58c-5.98 0-10.46 1.31-13.44 3.92-2.99 2.52-4.48 7-4.48 13.44v36.26h-23.94v-78.12h23.94zm109.58 24.78c0 2.24-.14 4.58-.42 7h-54.18c.37 4.86 1.91 8.59 4.62 11.2 2.8 2.52 6.21 3.78 10.22 3.78 5.97 0 10.13-2.52 12.46-7.56h25.48q-1.965 7.71-7.14 13.86c-3.36 4.11-7.61 7.33-12.74 9.66-5.13 2.34-10.87 3.5-17.22 3.5-7.65 0-14.47-1.63-20.44-4.9-5.97-3.26-10.64-7.93-14-14-3.36-6.06-5.04-13.16-5.04-21.28s1.63-15.21 4.9-21.28c3.36-6.06 8.03-10.73 14-14 5.97-3.26 12.83-4.9 20.58-4.9 7.56 0 14.28 1.59 20.16 4.76 5.88 3.18 10.45 7.7 13.72 13.58q5.04 8.82 5.04 20.58m-24.5-6.3c0-4.1-1.4-7.37-4.2-9.8-2.8-2.42-6.3-3.64-10.5-3.64-4.01 0-7.42 1.17-10.22 3.5-2.71 2.34-4.39 5.65-5.04 9.94zm110.77 6.3c0 2.24-.14 4.58-.42 7h-54.18c.37 4.86 1.91 8.59 4.62 11.2 2.8 2.52 6.21 3.78 10.22 3.78 5.97 0 10.13-2.52 12.46-7.56h25.48q-1.965 7.71-7.14 13.86c-3.36 4.11-7.61 7.33-12.74 9.66-5.13 2.34-10.87 3.5-17.22 3.5-7.65 0-14.47-1.63-20.44-4.9-5.97-3.26-10.64-7.93-14-14-3.36-6.06-5.04-13.16-5.04-21.28s1.63-15.21 4.9-21.28c3.36-6.06 8.03-10.73 14-14 5.97-3.26 12.83-4.9 20.58-4.9 7.56 0 14.28 1.59 20.16 4.76 5.88 3.18 10.45 7.7 13.72 13.58q5.04 8.82 5.04 20.58m-24.5-6.3c0-4.1-1.4-7.37-4.2-9.8-2.8-2.42-6.3-3.64-10.5-3.64-4.01 0-7.42 1.17-10.22 3.5-2.71 2.34-4.39 5.65-5.04 9.94zM2268.31 1775.42v4.15h-16.96v13.16h13.77v4.14h-13.77v17.59h-5.1v-39.04zm11.25 13.33c.9-1.75 2.17-3.12 3.81-4.09 1.68-.97 3.72-1.45 6.11-1.45v5.26h-1.35c-5.71 0-8.57 3.1-8.57 9.3v16.69h-5.09v-30.69h5.09zm43.8 9.19c0 .97-.06 1.99-.17 3.08h-24.53c.19 3.02 1.22 5.39 3.08 7.11 1.91 1.68 4.2 2.52 6.89 2.52 2.2 0 4.03-.51 5.49-1.51 1.49-1.05 2.54-2.43 3.13-4.15h5.49c-.82 2.95-2.46 5.36-4.93 7.23-2.46 1.82-5.52 2.74-9.18 2.74-2.91 0-5.52-.65-7.84-1.96-2.28-1.31-4.07-3.16-5.38-5.54-1.3-2.43-1.96-5.23-1.96-8.4 0-3.18.64-5.96 1.91-8.35s3.04-4.22 5.32-5.49c2.31-1.3 4.96-1.96 7.95-1.96 2.91 0 5.49.64 7.73 1.91s3.96 3.02 5.15 5.26c1.23 2.2 1.85 4.71 1.85 7.51m-5.27-1.07c0-1.94-.42-3.6-1.28-4.98a8.07 8.07 0 0 0-3.53-3.19c-1.46-.75-3.08-1.12-4.87-1.12-2.58 0-4.78.82-6.61 2.46-1.79 1.64-2.82 3.92-3.08 6.83zm40 1.07c0 .97-.06 1.99-.17 3.08h-24.53c.19 3.02 1.21 5.39 3.08 7.11 1.9 1.68 4.2 2.52 6.89 2.52 2.2 0 4.03-.51 5.49-1.51a8.3 8.3 0 0 0 3.13-4.15h5.49c-.82 2.95-2.46 5.36-4.93 7.23-2.46 1.82-5.52 2.74-9.18 2.74-2.91 0-5.53-.65-7.84-1.96-2.28-1.31-4.07-3.16-5.38-5.54-1.31-2.43-1.96-5.23-1.96-8.4 0-3.18.64-5.96 1.91-8.35 1.26-2.39 3.04-4.22 5.32-5.49 2.31-1.3 4.96-1.96 7.95-1.96 2.91 0 5.49.64 7.73 1.91s3.95 3.02 5.15 5.26c1.23 2.2 1.85 4.71 1.85 7.51m-5.27-1.07q0-2.91-1.29-4.98c-.86-1.42-2.03-2.49-3.52-3.19-1.46-.75-3.08-1.12-4.88-1.12-2.57 0-4.78.82-6.6 2.46-1.8 1.64-2.82 3.92-3.08 6.83zm10.09 2.13c0-3.14.63-5.88 1.9-8.23 1.27-2.39 3.01-4.24 5.21-5.55 2.24-1.3 4.74-1.96 7.5-1.96 2.39 0 4.61.56 6.67 1.68 2.05 1.09 3.62 2.52 4.7 4.32v-16.24h5.15v41.44h-5.15v-5.77c-1.01 1.83-2.5 3.34-4.48 4.53-1.98 1.16-4.29 1.74-6.94 1.74-2.73 0-5.21-.67-7.45-2.02-2.2-1.34-3.94-3.23-5.21-5.65-1.27-2.43-1.9-5.19-1.9-8.29m25.98.06c0-2.32-.46-4.34-1.4-6.05-.93-1.72-2.2-3.03-3.81-3.92-1.56-.94-3.3-1.4-5.2-1.4-1.91 0-3.64.45-5.21 1.34-1.57.9-2.82 2.2-3.75 3.92-.94 1.72-1.4 3.73-1.4 6.05 0 2.35.46 4.4 1.4 6.16.93 1.72 2.18 3.04 3.75 3.98 1.57.89 3.3 1.34 5.21 1.34 1.9 0 3.64-.45 5.2-1.34 1.61-.94 2.88-2.26 3.81-3.98.94-1.76 1.4-3.79 1.4-6.1m27.15 15.9c-2.87 0-5.49-.65-7.84-1.96-2.31-1.31-4.14-3.16-5.49-5.54-1.3-2.43-1.96-5.23-1.96-8.4 0-3.14.67-5.9 2.02-8.29 1.38-2.43 3.25-4.28 5.6-5.55 2.35-1.3 4.98-1.96 7.89-1.96 2.92 0 5.55.66 7.9 1.96 2.35 1.27 4.2 3.1 5.54 5.49 1.39 2.39 2.08 5.17 2.08 8.35q0 4.755-2.13 8.4c-1.38 2.38-3.27 4.23-5.66 5.54s-5.04 1.96-7.95 1.96m0-4.48c1.83 0 3.55-.43 5.15-1.29 1.61-.86 2.9-2.15 3.87-3.86 1-1.72 1.51-3.81 1.51-6.27 0-2.47-.49-4.56-1.46-6.28-.97-1.71-2.24-2.98-3.81-3.8-1.56-.86-3.26-1.29-5.09-1.29-1.87 0-3.59.43-5.15 1.29-1.53.82-2.77 2.09-3.7 3.8-.93 1.72-1.4 3.81-1.4 6.28 0 2.5.45 4.61 1.34 6.32.94 1.72 2.17 3.01 3.7 3.87q2.295 1.23 5.04 1.23m59.34-27.27c2.39 0 4.52.5 6.38 1.51 1.87.97 3.35 2.44 4.43 4.42q1.62 2.97 1.62 7.23v18.09h-5.04v-17.36c0-3.07-.76-5.4-2.29-7-1.5-1.65-3.53-2.47-6.11-2.47q-3.975 0-6.33 2.58c-1.56 1.68-2.35 4.12-2.35 7.33v16.92h-5.04v-17.36c0-3.07-.76-5.4-2.29-7-1.5-1.65-3.53-2.47-6.11-2.47q-3.975 0-6.33 2.58c-1.56 1.68-2.35 4.12-2.35 7.33v16.92h-5.09v-30.69h5.09v4.42c1.01-1.6 2.35-2.84 4.03-3.69 1.72-.86 3.61-1.29 5.66-1.29 2.58 0 4.85.58 6.83 1.73 1.98 1.16 3.46 2.86 4.43 5.1.85-2.17 2.27-3.85 4.25-5.04 1.98-1.2 4.18-1.79 6.61-1.79m46.59 31.75c-2.36 0-4.47-.39-6.33-1.18-1.87-.82-3.34-1.94-4.43-3.36-1.08-1.45-1.68-3.11-1.79-4.98h5.27c.14 1.53.85 2.78 2.12 3.75 1.31.97 3.01 1.46 5.1 1.46q2.91 0 4.59-1.29c1.12-.86 1.68-1.94 1.68-3.25 0-1.34-.6-2.33-1.79-2.97-1.2-.67-3.04-1.32-5.54-1.96-2.28-.59-4.15-1.19-5.6-1.79-1.42-.63-2.66-1.55-3.7-2.74-1.01-1.23-1.51-2.84-1.51-4.82 0-1.57.46-3 1.4-4.31.93-1.31 2.26-2.33 3.97-3.08 1.72-.78 3.68-1.18 5.88-1.18 3.4 0 6.14.86 8.24 2.58 2.09 1.72 3.21 4.07 3.36 7.06h-5.1c-.11-1.61-.77-2.9-1.96-3.87-1.16-.97-2.73-1.45-4.7-1.45-1.83 0-3.29.39-4.37 1.17-1.09.79-1.63 1.81-1.63 3.08q0 1.515.96 2.52c.67.64 1.49 1.16 2.46 1.57q1.515.555 4.14 1.29c2.21.59 4 1.19 5.38 1.79a8.9 8.9 0 0 1 3.53 2.58c1.01 1.15 1.53 2.66 1.57 4.53 0 1.68-.47 3.19-1.4 4.54-.94 1.34-2.26 2.41-3.98 3.19-1.68.75-3.62 1.12-5.82 1.12m24.6-26.99v18.09c0 1.49.32 2.55.96 3.19.63.59 1.73.89 3.3.89h3.75v4.32h-4.59c-2.84 0-4.96-.66-6.38-1.96-1.42-1.31-2.13-3.46-2.13-6.44v-18.09h-3.98v-4.2h3.98v-7.73h5.09v7.73h8.01v4.2zm12.28 11.03c0-3.14.64-5.88 1.91-8.23 1.27-2.39 3-4.24 5.21-5.55 2.24-1.3 4.72-1.96 7.44-1.96 2.69 0 5.02.58 7 1.74s3.46 2.61 4.43 4.37v-5.6h5.15v30.69h-5.15v-5.72c-1.01 1.8-2.52 3.29-4.54 4.48-1.98 1.16-4.29 1.74-6.94 1.74-2.73 0-5.19-.67-7.39-2.02-2.21-1.34-3.94-3.23-5.21-5.65-1.27-2.43-1.91-5.19-1.91-8.29m25.99.06c0-2.32-.47-4.34-1.4-6.05-.94-1.72-2.21-3.03-3.81-3.92-1.57-.94-3.3-1.4-5.21-1.4-1.9 0-3.64.45-5.21 1.34-1.56.9-2.82 2.2-3.75 3.92s-1.4 3.73-1.4 6.05c0 2.35.47 4.4 1.4 6.16.93 1.72 2.19 3.04 3.75 3.98 1.57.89 3.31 1.34 5.21 1.34 1.91 0 3.64-.45 5.21-1.34 1.6-.94 2.87-2.26 3.81-3.98.93-1.76 1.4-3.79 1.4-6.1m18.86-10.31c.89-1.75 2.16-3.12 3.81-4.09 1.68-.97 3.71-1.45 6.1-1.45v5.26h-1.34c-5.72 0-8.57 3.1-8.57 9.3v16.69h-5.1v-30.69h5.1zm22.01-.78v18.09c0 1.49.32 2.55.95 3.19.63.59 1.74.89 3.3.89h3.76v4.32h-4.6c-2.83 0-4.96-.66-6.38-1.96-1.42-1.31-2.13-3.46-2.13-6.44v-18.09h-3.97v-4.2h3.97v-7.73h5.1v7.73h8.01v4.2zm25.04 26.99c-2.35 0-4.46-.39-6.32-1.18-1.87-.82-3.35-1.94-4.43-3.36-1.08-1.45-1.68-3.11-1.79-4.98h5.26q.225 2.295 2.13 3.75c1.31.97 3.01 1.46 5.1 1.46q2.91 0 4.59-1.29c1.12-.86 1.68-1.94 1.68-3.25 0-1.34-.6-2.33-1.79-2.97-1.2-.67-3.04-1.32-5.55-1.96-2.27-.59-4.14-1.19-5.6-1.79-1.41-.63-2.65-1.55-3.69-2.74-1.01-1.23-1.51-2.84-1.51-4.82 0-1.57.46-3 1.4-4.31.93-1.31 2.25-2.33 3.97-3.08 1.72-.78 3.68-1.18 5.88-1.18 3.4 0 6.14.86 8.23 2.58s3.21 4.07 3.36 7.06h-5.09c-.11-1.61-.77-2.9-1.96-3.87-1.16-.97-2.73-1.45-4.71-1.45-1.83 0-3.28.39-4.36 1.17-1.09.79-1.63 1.81-1.63 3.08 0 1.01.32 1.85.95 2.52.68.64 1.5 1.16 2.47 1.57q1.515.555 4.14 1.29c2.2.59 4 1.19 5.38 1.79a8.9 8.9 0 0 1 3.53 2.58c1 1.15 1.53 2.66 1.56 4.53 0 1.68-.46 3.19-1.4 4.54-.93 1.34-2.25 2.41-3.97 3.19-1.68.75-3.62 1.12-5.83 1.12m74.21-31.19-9.58 30.69h-5.26l-7.39-24.36-7.4 24.36h-5.26l-9.63-30.69h5.21l7.05 25.76 7.62-25.76h5.21l7.44 25.81 6.95-25.81zm7.69-4.99c-.97 0-1.79-.33-2.47-1-.67-.68-1-1.5-1-2.47s.33-1.79 1-2.46c.68-.67 1.5-1.01 2.47-1.01.93 0 1.71.34 2.35 1.01.67.67 1.01 1.49 1.01 2.46s-.34 1.79-1.01 2.47c-.64.67-1.42 1-2.35 1m2.46 4.99v30.69h-5.09v-30.69zm14.9 4.2v18.09c0 1.49.32 2.55.95 3.19.64.59 1.74.89 3.31.89h3.75v4.32h-4.59c-2.84 0-4.97-.66-6.39-1.96-1.41-1.31-2.12-3.46-2.12-6.44v-18.09h-3.98v-4.2h3.98v-7.73h5.09v7.73h8.01v4.2zm29.42-4.76c2.31 0 4.4.5 6.27 1.51 1.87.97 3.32 2.44 4.37 4.42q1.62 2.97 1.62 7.23v18.09h-5.04v-17.36c0-3.07-.76-5.4-2.3-7-1.53-1.65-3.62-2.47-6.27-2.47-2.69 0-4.83.84-6.44 2.52-1.57 1.68-2.35 4.13-2.35 7.34v16.97h-5.1v-41.44h5.1v15.12c1.01-1.57 2.39-2.79 4.14-3.64 1.8-.86 3.79-1.29 6-1.29m23.22-4.43c-.97 0-1.79-.33-2.47-1-.67-.68-1-1.5-1-2.47s.33-1.79 1-2.46c.68-.67 1.5-1.01 2.47-1.01.93 0 1.71.34 2.35 1.01.67.67 1.01 1.49 1.01 2.46s-.34 1.79-1.01 2.47c-.64.67-1.42 1-2.35 1m2.46 4.99v30.69h-5.09v-30.69zm23.64-.56c3.73 0 6.76 1.14 9.07 3.41 2.32 2.24 3.47 5.49 3.47 9.75v18.09h-5.04v-17.36c0-3.07-.76-5.4-2.29-7-1.53-1.65-3.62-2.47-6.28-2.47-2.68 0-4.83.84-6.44 2.52-1.56 1.68-2.35 4.13-2.35 7.34v16.97h-5.09v-30.69h5.09v4.37c1.01-1.57 2.37-2.79 4.09-3.64 1.76-.86 3.68-1.29 5.77-1.29m22.49 31.58c-.97 0-1.79-.33-2.46-1.01-.68-.67-1.01-1.49-1.01-2.46s.33-1.79 1.01-2.46c.67-.68 1.49-1.01 2.46-1.01.93 0 1.72.33 2.35 1.01.67.67 1.01 1.49 1.01 2.46s-.34 1.79-1.01 2.46c-.63.68-1.42 1.01-2.35 1.01"/></svg>