<svg xmlns="http://www.w3.org/2000/svg" width="434" height="194" fill="none"><g clip-path="url(#a)"><path fill="#fb7c4d" d="m141.626 124.775-9.8 68.554-2.426-.252 5.945-67.326zM166.108 129.05l21.38 64.254h2.458l-17.482-64.254zM333.221 126.166l-21.381 64.261h-2.457l17.482-64.261zM361.033 122.653l8.801 69.933 2.426.409-4.96-69.284z"/><path fill="#fce2ce" d="M110.433 189.419c-.328-.126-2.369-.642-3.784-1.379-1.415-.736-4.707-3.777-8.321-6.805-.922-.775-1.706-2.399-1.706-2.399-1.624-17.011-.468-30.433-.468-30.433.588-5.339.898-8.273.942-16.306-.057-.34-.158-3.312-.145-3.664.29-8.027-4.322-9.891-11.152-11.421-5.648-1.265-17.773-2.499-17.773-2.499l-4.852 15.449s2.976.051 10.065 1.518c3.525.73 5.566.931 8.024.749.954-.076 2.097-.409 2.742-.623-2.534 10.665-.537 18.799.442 22.985 2.679 11.477 4.322 15.859 4.688 23.187.126 1.675-.815 4.64-.815 4.64-1.857 2.758 9.85 6.963 15.858 8.613 4.36 1.196 12.7.913 6.268-1.605z"/><path fill="#464646" d="M112.973 192.857h-4.833a29 29 0 0 1-3.128-.158c-.101-.006-.214-.012-.315-.031a4 4 0 0 1-.398-.044c-.19-.026-.386-.044-.575-.076a3 3 0 0 1-.361-.057c-.063-.006-.126-.025-.189-.031-.265-.044-.518-.094-.771-.139a43 43 0 0 1-1.295-.289c-.316-.076-.619-.164-.929-.252a40 40 0 0 1-.96-.29c-.266-.088-.543-.17-.822-.251-.271-.089-.562-.164-.853-.252-.972-.265-2.002-.529-3.026-.812-.013-.007-.038-.007-.057-.013-.29-.075-.575-.157-.853-.233-.297-.075-.594-.164-.897-.252-.19-.056-.379-.107-.562-.163-.417.591-.461 2.172-.461 2.933 0 .252.006.416.006.416l-2.18.025a3 3 0 0 0-.1-.441c-.33-1.183-1.353-4.104-1.422-4.306 0-.006-.007-.006-.007-.012-.455-.731-1.232-2.903-.492-4.256.037-.07.107-.214.183-.366h.006q.048-.094.076-.169c.063-.126.126-.259.183-.366.013-.037.038-.075.057-.107.057-.119.088-.195.088-.195l2.667 1.133c4.062 2.752 8.005 4.174 14.822 6.145.84.246 2.173.252 3.241.132h.013s.012 0 .025-.006h.012c.228-.025.443-.057.626-.095.044-.006.095-.012.139-.031.272-.063.499-.132.651-.214.025-.006.044-.025.063-.038.126-.075.158-.17.088-.258.525.157.853.264 1.157.365.044.025.101.038.151.057.291.107 1.257.352 1.902.529.619.17.057 2.48-.657 2.48z"/><path fill="#2d2d2d" d="m104.391 93.241-31.73.11.01 2.399 31.728-.11zM98.334 75.517a.827.827 0 0 0-1.08.434L91.2 90.137a.824.824 0 0 0 .436 1.076.827.827 0 0 0 1.08-.434l6.053-14.184a.825.825 0 0 0-.436-1.077"/><path fill="#d2d7e2" d="M38.692 109.722c-7.373 1.158-14.74.686-22.29.61-.518 3.35-.506 6.252-.436 8.443.126 3.878 1.73 11.389 10.829 11.143 6.722-.182 30.8.321 41.093.598a103 103 0 0 0 8.573-14.87c-11.259-2.713-31.116-7.681-31.116-7.681s-4.404 1.392-6.653 1.744z"/><path fill="#fce2ce" d="M54.386 84.325c-4.031-1.253-7.72 4.25-7.746 6.56-.025 2.317 2.736 3.173 5.705 4.092 2.97.926 33.606.466 33.606.466 1.466-3.954-.228-5.823-.228-5.823l-31.337-5.302z"/><path fill="#000" d="M65.36 91.326a5.6 5.6 0 0 1-1.276-.888 14 14 0 0 1-1.8-1.077c-1.53-.724-2.345-1.832-2.616-3.047a3.9 3.9 0 0 1-.19-1.127l-5.099-.862c-4.03-1.253-7.72 4.25-7.745 6.56-.026 2.317 2.735 3.173 5.705 4.099 2.495.774 24.527.572 31.495.49q-1.508-.151-3.007-.295c-5.39-.51-10.614-1.36-15.467-3.853" opacity=".06"/><path fill="#415385" d="m69.025 86.805-14.273-2.41s-.025-.045-.044-.064c-3.576-4.867-17.621-21.078-20.527-25.284-1.662-2.404-3.974-3.135-6.021-3.028-2.515.133-1.055 2.046-1.517 4.514a10.8 10.8 0 0 0 .146 4.546c1.124 4.652 17.475 29.91 25.701 31.031.285.038 10.596-.037 18.108-.535-.265-2.826-.733-5.615-1.478-8.323q-.055-.225-.102-.44z"/><path fill="#fce2ce" d="m34.136 41.715-5.49 8.191c2.06 3.456 6.173 5.754 7.986 5.71a2.49 2.49 0 0 0 1.731-.724c-.233-3.979.904-6.956 2.3-11.13l-6.527-2.04z"/><path fill="#000" d="M31.616 45.474c1.706 2.87 4.094 4.873 6.861 6.264.322-2.587 1.181-4.973 2.186-7.983l-6.526-2.04z" opacity=".06"/><path fill="#fce2ce" d="m48.169 46.122-.708.044c-1.067 2.859-2.742 4.773-8.485 3.74-3.481-.63-8.94-5.055-8.94-5.055-2.199-5.68-3.658-12.68-2.748-16.262.903-3.582 9.054-8.342 15.94-5.798 5.857 2.159 6.704 11.754 5.907 17.357l.045-.057.632 3.242c.322 1.65.044 2.689-1.637 2.79z"/><path fill="#000" d="M38.787 19.939c-5.851-.504-9.566 1.806-15.884 10.62s-3.33 10.665-1.491 13.536c3.228 5.043 11.714 4.25 11.714 4.25-.342-6.208 5.635-14.713 5.635-14.713l11.347 2.235c2.856-9.507-2.287-15.148-11.315-15.922z"/><path fill="#fce2ce" d="M94.013 86.314c-1.15.17-1.814-1.467-2.47-1.63-.658-.164-9.023 5.282-9.023 5.282l3.43 5.483s11.222.044 11.879.038c.657 0 2.274-7.385 1.118-8.53-1.156-1.146-3.784-.806-4.934-.636z"/><path fill="#fb7c4d" d="M8.315 193.171c1.314 0 2.622-.012 3.936-.006l9.976-49.22-7.917.025-5.99 49.201zM64.052 143.794l3.956 49.157 3.892-.012-1.043-49.17zM376.474 62.416l-26.694.094c-13.476 37.642 5.927 47.495 5.927 47.495s-27.471-4.47-33.29 1.259c-7.114 7.014-.013 15.047-.013 15.047l50.109-.176c7.834-5.251 3.588-20.896-.638-32.89-4.234-11.993 4.599-30.823 4.599-30.823z"/><path fill="#000" d="M349.774 62.51c-13.476 37.642 5.926 47.495 5.926 47.495s-27.471-4.47-33.29 1.259c-4.22 4.162-3.437 8.682-2.103 11.672a252 252 0 0 1 29.056-4.268c4.916-.434 9.838-.705 14.766-.926 1.421-.062 3.013 0 4.41-.22.36-.057 2.179-.938 1.965-.497 1.206-1.675.707-6.611.676-8.72-.07-4.489-.487-8.959-.525-13.447-.019-2.374.013-4.785.133-7.203-.765-11.483 5.68-25.233 5.68-25.233l-26.694.095z" opacity=".1"/><path fill="#fedacc" d="M367.85 37.856c-19.788-9.966-40.335-2.707-44.226 5.477-2.471 5.194 8.927 53.218 8.927 53.218l35.627 5.71c.967-24.326 2.098-51.108 2.401-60.256.063-1.82-1.105-3.33-2.735-4.149z"/><path fill="#000" d="M353.584 73.521c-5.977 8.191-13.123 14.14-22.594 16.25.929 4.117 1.561 6.78 1.561 6.78l35.627 5.71c.841-21.147 1.801-44.133 2.243-55.792-3.336 3.393-5.433 8.008-7.613 12.176a118 118 0 0 1-9.224 14.883z" opacity=".06"/><path fill="#8f705c" d="m349.951 22.539-9.363.239s-.544 4.627-.512 11.842c0 1.725.581 3.885 2.963 4.218 2.199.309 8.087.668 8.567-4.967 0 0-2.123-3.079-1.655-11.332"/><path fill="#000" d="m349.951 22.532-9.363.24s-.449 3.853-.506 9.99c3.715-.301 7.405-1.164 10.084-3.701-.24-1.668-.367-3.815-.215-6.535z" opacity=".07"/><path fill="#8f705c" d="M357.962 8.273c-2.312-4.237-18.739-4.779-18.739-4.779s-11.663 26.001.335 26.744 10.98-3.336 10.98-3.336 10.387-13.202 7.424-18.63"/><path fill="#fedacc" d="M329.215 38.605c-6.286.844-9.117 13.977-14.411 27.135-4.663 11.597-15.568 28.192-15.568 28.192l16.383.227 19.453-36.301s-1.068-19.895-5.857-19.253"/><path fill="#000" d="M318.948 75.039c-4.138 6.742-9.085 13.302-14.854 18.956l11.518.157 11.929-22.255a96 96 0 0 1-1.352-8.757c-2.243 4.123-4.897 8.077-7.241 11.892z" opacity=".06"/><path fill="#2d2d2d" d="M349.496.762c-2.881-1.02-10.854-1.127-11.929.352-.562.775.026 6.095.228 6.139 13.003 2.738 14.626 7.46 14.696 8.316.063.775-3.273 12.818-2.344 13.196 2.717-4.715 8.921-10.709 9.698-17.52.588-5.144-7.468-9.463-10.349-10.483"/><path fill="#8f705c" d="M353.306 20.511c-.834-.503-2.951-.05-2.951-.05l-3.121 4.52c3.317 3.136 7.936-3.343 6.065-4.47z"/><path fill="#415385" d="M309.168 111.075c-7.076.491-7.102 10.514-7.108 10.621-.158 3.224 11.202 61.453 11.202 61.453l10.336 2.09c-.208-9.318-2.236-23.471-2.186-30.528.221-29.842-5.876-34.973-5.876-34.973s15.701-12.258 13.938-14.82c-1.011-1.467-19.219 6.082-20.3 6.157z"/><path fill="#415385" d="M310.337 109.665c-10.387.51-7.197 12.258-2.42 15.544l53.564-7.687s-39.627-8.417-51.138-7.857z"/><path fill="#415385" d="M339.362 97.074s-25.045-.491-34.813.938c-9.767 1.429-3.519 10.369-1.421 12.446.113.107 49.615 7.826 57.235 7.259 9.768-.73 8.037-17.13 8.037-17.13l-29.044-3.513z"/><path fill="#415385" d="M297.107 96.62c-1.024 8.89-12.921 81.794-12.921 81.794l8.82-.377c3.38-7.039 7.209-20.581 9.629-26.795 11.891-30.591 5.958-43.485 5.958-43.485s-6.546-5.552-11.48-11.137z"/><g fill="#415385" opacity=".1"><path d="M339.362 97.074s-25.045-.491-34.813.938c-9.767 1.429-3.519 10.369-1.421 12.446.113.107 49.615 7.826 57.235 7.259 9.768-.73 8.037-17.13 8.037-17.13l-29.044-3.513z"/><path d="M297.107 96.62c-1.024 8.89-12.921 81.794-12.921 81.794l8.82-.377c3.38-7.039 7.209-20.581 9.629-26.795 11.891-30.591 5.958-43.485 5.958-43.485s-6.546-5.552-11.48-11.137z"/></g><path fill="#415385" d="M314.33 107.927c-2.578-.232-6.287-.805-8.681.397-6.337 3.186-3.583 13.265-3.589 13.372-.158 3.224 11.202 61.453 11.202 61.453l10.336 2.09c-.208-9.318-2.236-23.471-2.186-30.528.221-29.842-3.329-30.862-3.329-30.862l34.901-5.653s-22.069-8.795-38.654-10.275z"/><path fill="#8f705c" d="m332.658 89.695-9.698-2.31s-1.838.377-2.685.793c-1.005.49-10.608 5.653-10.608 5.653s.259 1.285 2.173.7l7.727-1.625 6.489 1.775s4.979.485 7.556-1.347l5.011-1.158-.316-2.62-5.655.133z"/><path fill="#fedacc" d="M364.293 37.623c-7.948 1.574-.771 36.54 1.605 46.186l-33.221 5.559.019 5.427s27.294-.34 39.564-.674c.063.063.114.132.177.195 10.039-1.29 4.808-36.666 2.723-45.864-2.11-9.337-7.5-11.496-10.867-10.829"/><path fill="#000" d="M375.015 76.524c-6.116 14.266-28.084 17.055-41.592 17.22-.253 0-.493-.026-.733-.051V94.8s27.3-.34 39.57-.674c.063.063.114.133.177.195 7.708-.988 6.413-22.04 4.454-35.942.43 5.994.398 12.85-1.876 18.15z" opacity=".06"/><path fill="#464646" fill-rule="evenodd" d="M271.544 183.734c10.052-5.301 15.315-8.373 16.041-9.078q.693-.546-.113-1.631c-.316-.453-.626-.812-.796-1.146-.468-.9-1.068-1.297-2.092.164-2.451 2.77-4.7 4.816-6.747 6.126-.98.623-2.016 1.108-3.008 1.744-2.565 1.643-3.607 2.952-3.285 3.827z" clip-rule="evenodd"/><path fill="#ebebeb" fill-rule="evenodd" d="M266.129 185.22c.588 2.72 7.411 1.964 9.547 1.851.038 0 .076-.006.114-.006 5.041-.422 20.679-2.563 22.359-3.343.676-1.102.581-2.424-.303-3.979l-19.422 3.488c-1.251.232-2.363.339-3.235.346v-.019a35 35 0 0 1-3.449.245c.082-.44.417-1.347 1.042-2.373-3.709 1.064-5.358 1.555-5.869 1.863.316.095.669.177 1.042.246a12 12 0 0 1-1.074-.227c-.625.441-.922 1.071-.745 1.914z" clip-rule="evenodd"/><path fill="#000" fill-rule="evenodd" d="M297.846 179.743c-.594-2.468-1.504-4.351-2.736-5.66-.24-.051-.613.113-.84.522-.727 1.322-1.757 3.192-5.99.605q-3.032-2.512-3.942-1.549a28 28 0 0 1-3.456 3.425c-1.529 1.202-3.279 2.222-5.2 3.16-1.712.838-2.856.888-4.214 3.658 3.077.592 26.27-2.273 26.378-4.168z" clip-rule="evenodd"/><path fill="#464646" fill-rule="evenodd" d="M272.782 181.424c-.366.68-.6 1.208-.809 1.611-.303.573-.499.875-.499.875.171-1.492.215-2.165.215-2.165.783-.227 1.005-.284 1.093-.315z" clip-rule="evenodd"/><path fill="#dedede" fill-rule="evenodd" d="M274.418 180.303a.281.281 0 0 0-.562.019c.007.208.063.453.158.73.095.265.228.567.411.907a.28.28 0 0 0 .499-.258 6 6 0 0 1-.373-.838 1.8 1.8 0 0 1-.126-.573zM277.142 178.584a.283.283 0 0 0-.285-.283.28.28 0 0 0-.284.283c0 .315.032.586.152.894.113.296.303.63.612 1.077a.28.28 0 0 0 .462-.321c-.285-.409-.455-.699-.55-.957a1.8 1.8 0 0 1-.114-.693zM279.473 177.004a.29.29 0 0 0-.322-.239.28.28 0 0 0-.24.321c.05.34.145.692.309 1.07.165.372.398.768.733 1.203a.283.283 0 0 0 .398.05.28.28 0 0 0 .051-.397 5 5 0 0 1-.664-1.089 3.5 3.5 0 0 1-.265-.932zM281.867 174.958a.28.28 0 0 0-.24-.321.284.284 0 0 0-.322.239c-.076.516.038.976.303 1.429.247.428.626.844 1.093 1.297a.287.287 0 0 0 .398 0 .28.28 0 0 0 0-.396c-.435-.422-.783-.806-.998-1.178-.202-.346-.29-.692-.234-1.07" clip-rule="evenodd"/><path fill="#464646" fill-rule="evenodd" d="M299.166 189.608c10.469-4.432 15.979-7.045 16.762-7.681q.738-.49.025-1.63c-.278-.479-.556-.863-.695-1.215-.385-.938-.954-1.385-2.097-.019-2.679 2.556-5.093 4.394-7.247 5.527-1.03.542-2.104.932-3.14 1.48-2.698 1.423-3.848 2.631-3.601 3.532z" clip-rule="evenodd"/><path fill="#ebebeb" fill-rule="evenodd" d="M293.644 190.628c.354 2.758 7.216 2.581 9.351 2.65h.114c5.061 0 20.824-.799 22.568-1.429.764-1.038.79-2.361.038-3.991l-19.649 1.826c-1.264.126-2.382.138-3.254.069v-.019a33 33 0 0 1-3.462-.05c.12-.435.53-1.31 1.238-2.279-3.785.742-5.472 1.089-6.009 1.359q.465.181 1.024.334a13 13 0 0 1-1.055-.315c-.664.384-1.011.989-.904 1.845" clip-rule="evenodd"/><path fill="#000" fill-rule="evenodd" d="M325.715 187.858q-.567-3.76-2.243-5.868c-.234-.075-.619.057-.878.447-.834 1.253-2.022 3.028-6.021.095q-2.806-2.757-3.791-1.876a28 28 0 0 1-3.741 3.122c-1.63 1.071-3.456 1.933-5.446 2.707-1.775.687-2.919.643-4.511 3.287 3.014.85 26.365-.038 26.637-1.914z" clip-rule="evenodd"/><path fill="#464646" fill-rule="evenodd" d="M300.594 187.405c-.423.648-.701 1.152-.941 1.536-.348.547-.569.824-.569.824.297-1.466.398-2.14.398-2.14.796-.157 1.024-.195 1.119-.227z" clip-rule="evenodd"/><path fill="#dedede" fill-rule="evenodd" d="M302.319 186.429a.283.283 0 0 0-.272-.296.284.284 0 0 0-.297.271c-.012.207.026.459.095.742.07.271.183.586.329.939a.276.276 0 0 0 .366.151.276.276 0 0 0 .152-.366 6 6 0 0 1-.303-.862 2 2 0 0 1-.083-.579zM305.181 184.949a.28.28 0 0 0-.259-.302.28.28 0 0 0-.303.258c-.032.315-.019.586.076.907.088.308.246.648.518 1.12a.285.285 0 0 0 .385.107.285.285 0 0 0 .108-.384c-.247-.428-.392-.736-.468-1.001a1.8 1.8 0 0 1-.057-.705M307.639 183.57a.286.286 0 0 0-.297-.264.285.285 0 0 0-.265.296c.019.346.082.705.214 1.095.133.384.329.8.632 1.266.082.132.259.17.392.088a.28.28 0 0 0 .088-.39 5 5 0 0 1-.568-1.14 3.7 3.7 0 0 1-.19-.951zM310.198 181.738a.28.28 0 0 0-.209-.34.284.284 0 0 0-.341.208c-.12.504-.044.976.177 1.448.208.447.55.894.973 1.385.101.12.278.133.398.032a.28.28 0 0 0 .031-.397c-.398-.459-.707-.869-.89-1.253-.171-.359-.228-.711-.139-1.083" clip-rule="evenodd"/><path fill="#415385" d="M200.036 48.83s-11.417 12.446-7.165 19.516c0 0 16.143 20.134 18.683 21.645s2.041 3.538 4.922 3.696c2.874.157 11.359-2.078 11.359-2.078l2.686-6.252s-7.152-2.833-12.58-8.216c-5.433-5.382-14.506-26.467-17.899-28.311z"/><path fill="#000" d="M196.403 55.428a8 8 0 0 1-.164-.46c-1.858 3.513-5.977 9.475-3.81 13.076 0 0 16.143 20.134 18.683 21.645s2.04 3.538 4.921 3.695c2.875.158 12.055-1.536 12.055-1.536v-.019c-14.683-6.346-25.601-21.581-31.685-36.395z" opacity=".06"/><path fill="#fb7c4d" d="M143.3 116.987s18.436-9.173 5.332-43.654l-25.461.088s8.548 17.231 4.593 28.274-7.898 25.441-.392 30.207l44.928-.158s2.976-6.245-2.041-11.981c-5.01-5.735-26.965-2.782-26.965-2.782z"/><path fill="#000" d="M143.3 116.987s18.436-9.173 5.332-43.654h-1.143a9 9 0 0 1-1.011.29c-1.055.232-3.753-.454-4.846-.146-1.82 3.211-3.797 24.774-6.312 31.133-2.085 5.263-6.071 9.726-7.961 14.996-.575 1.612-.859 3.274-.707 4.974.025.012.095.233.17.51l46.097-.164c-.354-1.643-1.137-3.425-2.654-5.163-5.01-5.735-26.971-2.782-26.971-2.782z" opacity=".1"/><path fill="#7c5b43" d="m205.021 87.347-8.397-1.12-6.76-.574-.878 7.278 6.514.447c2.628 1.492 7.303 1.24 7.303 1.24l5.984-2.335 7.493.787c1.876.371 1.996-.882 1.996-.882s-9.622-3.972-10.627-4.344c-.846-.315-2.622-.49-2.622-.49z"/><path fill="#9aa4be" d="M206.487 110.578c-8.58-2.808-25.481-4.734-25.481-4.734l-36.411 3.009s-4.258 14.814 8.991 16.136c8.744.869 32.354.888 32.354.888s-2.716 18.276-9.458 59.217l7.689 2.097s23.952-58.922 26.302-63.486c1.232-2.399 4.448-10.363-3.986-13.121z"/><path fill="#415385" d="M173.936 40.079s-13.982 1.265-19.554 3.141c-5.573 1.876-10.45 9.557-10.45 14.751 0 1.6-1.959 16.488-1.7 32.114.177 10.772 2.06 19.769 2.06 19.769l44.365-3.992s6.691-30.634 7.354-35.193 5.409-19.201 5.409-19.201.044-9.274-27.471-11.396z"/><path fill="#623f2d" d="M186.718 42.1c-.67 6.944-21.166 8.688-22.044-.939-.006-.044-.013-.075-.013-.12 0-.012 1.415-.717 1.422-.723.082-.12.594-.517 1.036-2.072.101-.34.196-.73.284-1.183a1 1 0 0 1 .019-.164c.025-.126.051-.258.07-.396a31 31 0 0 0 .24-2.267q.007-.018.006-.038l.019-.371c0-.044.006-.076.006-.113v-.05c.064-1.071.064-2.267 0-3.62l.904.037 12.731.466 1.244.05s1.435 2.72 1.46 7.184v.516c0 .195-.006.403-.013.604a11 11 0 0 1-.025.787c0 .076-.006.107-.006.107l-.019.416c0 .044-.007.075-.007.12v.024l-.019.429c-.025.308 1.39.617 2.193.931.126.05.24.107.322.158.126.07.196.138.196.22z"/><path fill="#000" d="M184.102 37.793v.516c0 .196-.006.403-.013.605a11 11 0 0 1-.025.787c0 .075-.006.107-.006.107-.007.132-.013 1.68-.019 1.826-5.92.994-10.16-1.43-13.072-3.092-1.384-.787-3.223-2.077-3.279-3.651a1.7 1.7 0 0 1 .012-.403c-.006 0 .013-.12.038-.24q.007-.018.006-.037c.026-.139.057-.283.051-.29.303-1.347.202-1.655.253-2.67 0-.043.006-.075.006-.112 0 0 .006-.038.013-.05.12-.36.341-.693.606-1.002l12.731.466 1.245.05s1.434 2.72 1.459 7.184z" opacity=".07"/><path fill="#623f2d" d="M172.338 13.561c-4.246 4.117-1.39 19.252-1.39 19.252s.853 7.694 12.25 6.497c18.828-1.976 7.551-24.773 7.551-24.773s-15.101-4.193-18.411-.982z"/><path fill="#623f2d" d="M171.504 23.716c-.626-2.418 18.259-12.856 18.259-12.856 1.181.787 3.816 7.41 3.443 8.638l1.693 1.34c.588.467.828 1.254.582 1.965-.411 1.177-.841 2.562-.518 3.469.568 1.593.29 1.706.334 2.575.038.724.234 4.627-2.9 6.85-.556.396-1.528 1.441-3.184 1.756l-2.489 1.152"/><path fill="#464646" d="m219.862 95.09 14.405-.05a2.9 2.9 0 0 0 2.774-2.065l7.771-26.051c.556-1.858-.847-3.721-2.793-3.715l-14.405.05a2.9 2.9 0 0 0-2.773 2.065l-7.772 26.052c-.556 1.857.847 3.72 2.793 3.715"/><path fill="#2d2d2d" d="M195.051 93.97c0 1.17.96 2.115 2.129 2.109l37.315-.132a2.115 2.115 0 0 0 2.116-2.122v-.434l-41.56.144zM187.874 180.196s2.413 7.139 13.931 10.369c1.125.315 3.519 2.015 2.123 2.89h-27.667s-1.2-4.999-.48-12.535l12.099-.718zM194.754 8.518c.101 1.933-2.691 7.738-8.194 7.75-6.59.025-6.849-1.133-9.977 2.04-.751.768.253 2.266.411 2.915a.64.64 0 0 1-.341.718l-.076.044a1.6 1.6 0 0 1-1.782-.214c-.644-.536-1.516-1.121-2.009-.73-.221.176-.36.534-.36 1.202 0 .422.019.944.057 1.517.164 3.746.676 10.01-1.011 8.971-6.634-.604-3.999-5.678-4.448-8.725-.442-3.048-1.541-2.878-2.268-5.767-.72-2.903 2.565-7.404 2.565-7.404s-.189-6.044 7.051-5.351c2.799-1.184 5.2-1.6 7.291-1.574 2.035.019 4.189.44 6.141.957h.013c5.591-2.097 6.722 2.707 6.906 3.494q.007.01.006.037c.006.038.013.07.013.082a.2.2 0 0 1 .006.038z"/><path fill="#fb7c4d" d="m50.633 193.027 2.571-.007 18.373-95.587-10.31.031zM411.312 96.224l19.055 97.344 2.578-.013-10.69-97.37z"/><path fill="#fb7c4d" d="M433.964 94.48 49.393 95.819l.032 9.375 384.572-1.338z"/><path fill="#464646" d="m286.189 94.807 34.042-.12a2.48 2.48 0 0 0 1.402-2.234L316.2 73.748a2.483 2.483 0 0 0-2.502-2.474l-31.887.113a2.487 2.487 0 0 0-2.483 2.493l5.433 18.705a2.47 2.47 0 0 0 1.422 2.222z"/><path fill="#2d2d2d" d="m309.875 94.725 4.581-8.153 3.393 8.122h1.2l-4.245-10.797-32.393.113-5.295 10.829z"/><path fill="#000" d="M169.128 68.057c-.859-4.552-1.276-26.656-13.078-22.482 0 0-6.558 1.888-4.789 11.804 1.225 6.863 4.17 26.398 7.063 32.12 2.894 5.73 2.894 4.716 4.075 4.71 1.182 0 12.447.756 35.944.403l1.592-9.758-25.961-5.478s-3.987-6.767-4.852-11.326z" opacity=".06"/><path fill="#000" d="M179.452 91.105c-4.328-.396-8.997-.931-12.718-3.129-2.559-1.246-4.796-2.996-6.375-5.565-.828-1.341-.973-2.663-.676-3.822-1.258-3.336-2.047-6.931-2.799-10.016-1.826-7.555-2.338-14.996-1.352-22.658-1.428 1.02-5.289 4.482-4.278 11.464.999 6.9 4.17 26.398 7.064 32.12 2.894 5.73 2.894 4.716 4.075 4.71 1.182 0 11.695.648 35.198.302l.259-.484c-5.238-.813-10.456-1.94-15.884-2.607-.821-.1-1.668-.201-2.52-.308z" opacity=".06"/><path fill="#8f705c" d="m335.786 13.284-2.521 3.727a3.056 3.056 0 0 0 1.51 4.59l2.622.938-1.618-9.249z"/><path fill="#9aa4be" d="M219.628 110.528c-9.035-2.802-28.722-4.943-28.722-4.943l-28.273 3.224s-4.486 14.814 9.465 16.129c9.211.869 32.955.019 32.955.019s-.051.095-.133.271c6.274-1.933 12.617-2.298 19.295-2.38 1.422-3.022 3.475-9.821-4.593-12.327z"/><path fill="#9aa4be" d="M225.668 117.975c-5.781-5.149-17.576 2.67-19.358 8.569-6.912 22.847-4.202 22.62-5.352 61.1l9.623.296s13.59-62.271 15.081-67.018c.07-.227-.069-2.632.013-2.947z"/><path fill="#415385" d="M28.646 49.906S8.618 65.098 12.226 85.66c5.256 29.943 4.037 26.902 4.037 26.902l29.448-3.595-.499-11.023c-1.82-7.574-2.894-15.3-3.273-23.074-.417-8.6-1.377-19.322-3.57-19.983-3.69-1.114-5.774 0-9.723-4.98"/><path fill="#fb7c4d" d="m69.467 129.276-49.199-.623L5.44 69.013c-.316-1.34-1.643-2.228-3.058-2.04-1.504.202-2.559 1.53-2.357 2.985l9.926 72.092c.246 1.769 1.807 3.085 3.658 3.079l57.766-.208c2.028-.006 3.67-1.599 3.665-3.557l-.02-5.666c-.012-3.11-2.33-6.277-5.547-6.422z"/><path fill="#2d2d2d" d="M212.021 182.538s3.614 4.678 15.126 7.907c1.124.315 3.519 2.015 2.123 2.89h-27.667s-1.201-2.89-.48-10.426z"/></g><defs><clipPath id="a"><path fill="#fff" d="M0 0h434v193.568H0z"/></clipPath></defs></svg>