<svg width="296" height="280" viewBox="0 0 296 280" fill="none" xmlns="http://www.w3.org/2000/svg">
<path d="M252.836 119.336C252.836 142.066 293.558 169.705 286.084 205.609C278.61 241.513 220.581 280 172.681 280C133.818 280 101.547 280.516 71.9076 237.38C42.2683 194.243 0 204.171 0 160.664C0 126.214 17.0104 91.439 56.7013 60.701C96.3923 29.9631 156.741 0 204.64 0C249.768 0 275.015 22.1302 279.898 48.0023C284.781 73.8745 252.836 96.6051 252.836 119.336Z" fill="#FFFAF8"/>
<path d="M125.341 235.913C125.341 235.913 141.445 226.098 152.262 221.23C163.466 216.187 180.509 210.456 193.244 205.397C213.59 197.314 228.578 191.479 228.578 191.479C228.578 191.479 211.702 181.691 201.657 175.136C197.256 172.264 173.331 149.74 155.387 134.66C151.844 131.683 145.775 127.358 141.085 124.104C137.34 121.507 134.114 117.295 134.114 117.295L122.336 124.104C122.336 124.104 88.5602 137.155 67.0522 145.896C59.7025 148.883 49.8225 152.977 43.3762 155.656C39.4267 157.298 34.7231 157.388 34.7231 157.388C34.7231 157.388 48.4311 167.999 57.678 175.136C61.8843 178.382 113.886 225.372 116.808 227.231C119.729 229.09 125.341 235.913 125.341 235.913Z" fill="#9AA4BE"/>
<path d="M124.74 232.083C124.74 232.083 141.445 224.055 152.262 219.187C163.466 214.144 181.591 209.562 194.326 204.503C214.672 196.42 227.977 188.798 227.977 188.798C227.977 188.798 211.702 179.648 201.657 173.093C197.256 170.221 173.331 147.697 155.387 132.617C151.844 129.64 145.775 125.315 141.085 122.061C137.34 119.464 134.114 115.252 134.114 115.252L122.336 122.061C122.336 122.061 88.5602 135.112 67.0522 143.853C59.7025 146.84 49.8225 150.934 43.3762 153.613C39.4267 155.255 34.8432 155.728 34.8432 155.728C34.8432 155.728 49.8732 165.956 59.1201 173.093C63.3265 176.339 114.247 225.627 117.168 227.486C120.09 229.345 124.74 232.083 124.74 232.083Z" fill="white"/>
<path d="M59.0321 160.722C57.8783 160.148 57.989 158.414 59.2106 157.926L111 137.245C111.258 137.142 111.541 137.132 111.801 137.216C112.871 137.563 112.887 139.111 111.825 139.548L60.2266 160.76C59.8359 160.92 59.4025 160.907 59.0321 160.722Z" fill="#132043"/>
<path d="M64.8032 165.172C64.1772 164.837 64.2456 163.888 64.9157 163.612L135.282 134.596C135.383 134.554 135.492 134.544 135.596 134.566C136.121 134.675 136.17 135.422 135.666 135.634L65.5032 165.201C65.2739 165.297 65.018 165.287 64.8032 165.172Z" fill="#132043"/>
<path d="M72.5427 170.111C71.8185 169.877 71.7996 168.833 72.514 168.527L104.07 155.012C104.148 154.979 104.232 154.964 104.315 154.969C104.886 155.003 105.004 155.805 104.473 156.043L73.1191 170.077C72.9351 170.16 72.7304 170.172 72.5427 170.111Z" fill="#132043"/>
<path d="M108.457 154.075C107.852 153.944 107.833 153.067 108.431 152.871L111.344 151.916C111.381 151.903 111.42 151.896 111.459 151.894C111.945 151.871 112.084 152.556 111.634 152.76L108.831 154.034C108.712 154.088 108.581 154.102 108.457 154.075Z" fill="#132043"/>
<path d="M142.287 178.711L147.442 176.923L251.848 166.581L253.057 167.741C254.082 168.723 254.354 170.255 253.73 171.53C253.218 172.576 252.187 173.27 251.026 173.351L207.065 176.413L158.574 181.137L142.287 178.711Z" fill="#D2D7E2"/>
<path d="M142.299 176.921L155.699 171.464L252.594 163.581C253.97 166.125 254.278 169.174 253.446 172.02L253.427 172.086L156.979 179.261L142.299 176.921Z" fill="#9AA4BE"/>
<path d="M218.259 174.911L216.848 175.018C216.644 175.034 216.483 174.845 216.531 174.645C217.134 172.129 216.872 169.483 215.787 167.134L215.739 167.03C215.648 166.834 215.78 166.607 215.994 166.588L217.074 166.493C217.219 166.48 217.356 166.558 217.419 166.689L217.644 167.158C218.763 169.494 219.077 172.134 218.537 174.668C218.509 174.802 218.395 174.901 218.259 174.911Z" fill="#1A2A5A"/>
<path d="M155.658 171.462L142.299 176.921L157.126 179.261L157.143 179.144C157.513 176.49 156.991 173.788 155.658 171.462Z" fill="#DDDDDD"/>
<path d="M141.954 176.523L141.88 176.605C141.719 176.785 141.766 177.068 141.977 177.185C142.033 177.217 142.096 177.233 142.16 177.233H144.547L144.59 177.112C144.722 176.745 144.706 176.341 144.547 175.985L142.223 176.374C142.119 176.392 142.024 176.444 141.954 176.523Z" fill="#1A2A5A"/>
<path d="M252.547 163.664L252.615 163.86C253.535 166.499 253.814 169.319 253.428 172.086C258.422 170.915 257.673 163.48 252.547 163.664Z" fill="#1A2A5A"/>
<path d="M251.378 161.984L221.24 164.414C220.521 164.472 220.3 165.419 220.919 165.789C221.142 165.922 221.418 165.929 221.648 165.807L222.267 165.479C222.389 165.413 222.524 165.375 222.663 165.364L250.198 163.352C251.257 163.352 252.299 163.623 253.224 164.137L254.896 165.068L254.723 164.727C254.167 163.629 253.285 162.73 252.198 162.153C251.947 162.02 251.662 161.961 251.378 161.984Z" fill="#1A2A5A"/>
<path opacity="0.3" d="M208.147 122.913C213.555 119.465 234.707 131.723 225.573 143.981C219.148 152.604 189.914 149.904 170.812 145.872V146.1C170.921 146.233 171.028 146.364 170.812 146.316C163.399 144.683 156.751 142.418 154.665 140.916C151.506 138.642 152.394 135.167 154.665 132.307C154.802 132.135 154.876 132.278 154.955 132.425L155.274 132.555C157.24 130.418 160.1 127.604 162.117 126.36C175.657 126.36 203.82 125.671 208.147 122.913Z" fill="#D9D9D9"/>
<path d="M227.784 110.553C228.469 106.253 224.789 103.144 222.627 102.196L219.632 100.951L229.614 103.974L231.943 109.842L229.614 117.665L224.623 124.6L216.804 124.956L210.316 123.178C210.26 121.34 210.582 118.163 212.312 120.155C214.475 122.644 220.092 121.098 222.088 120.742C224.084 120.386 227.015 115.379 227.784 110.553Z" fill="#FB7C4D"/>
<path d="M219.822 96.3714C218.478 96.228 217.47 97.0288 217.134 97.4472L215.117 98.8815L215.789 102.647L218.31 101.392L226.879 102.288L232.424 107.846C232.256 99.9572 221.502 96.5507 219.822 96.3714Z" fill="#FB7C4D"/>
<path fill-rule="evenodd" clip-rule="evenodd" d="M220.299 126.488C227.128 126.488 232.664 117.056 232.664 109.801C232.664 102.546 227.128 100.215 220.299 100.215C213.47 100.215 207.934 109.647 207.934 116.902C207.934 124.157 213.47 126.488 220.299 126.488ZM220.299 124.358C226.021 124.358 230.659 116.455 230.659 110.377C230.659 104.298 226.021 102.345 220.299 102.345C214.578 102.345 209.94 110.247 209.94 116.326C209.94 122.405 214.578 124.358 220.299 124.358Z" fill="#D04A02"/>
<path d="M222.809 85.629L220.405 90.6087L159.833 97.8867L153.944 92.2686L155.627 89.3318L163.439 86.5228L173.654 84.7352L192.884 82.4369L212.353 82.1815L219.804 83.0753L222.809 85.629Z" fill="#D04A02"/>
<ellipse cx="32.5324" cy="5.75708" rx="32.5324" ry="5.75708" transform="matrix(0.995134 -0.0985298 0.0873836 0.996175 155.562 90.7282)" fill="#773829"/>
<path d="M164.339 132.782L153.538 94.1711C153.294 93.301 154.238 92.5798 155.014 93.0433L158.631 95.2053H171.852H189.699L214.997 91.7578L221.757 86.9368C222.489 86.4149 223.485 87.0486 223.321 87.9327L215.043 132.752C215.014 132.906 214.909 133.035 214.763 133.094C198.684 139.587 180.689 139.577 164.61 133.085C164.478 133.031 164.378 132.919 164.339 132.782Z" fill="#FB7C4D"/>
<path fill-rule="evenodd" clip-rule="evenodd" d="M212.503 92.728C206.434 94.2038 198.053 95.5454 188.786 96.4186C179.52 97.2917 171.047 97.5381 164.828 97.2201C161.733 97.0619 159.116 96.7603 157.216 96.2969C156.279 96.0685 155.399 95.7736 154.7 95.3653C154.092 95.0098 153.069 94.2402 152.952 92.8386C152.835 91.437 153.715 90.4882 154.255 90.0246C154.875 89.4919 155.692 89.037 156.577 88.6371C158.37 87.8256 160.897 87.0394 163.917 86.3049C169.986 84.8291 178.368 83.4875 187.634 82.6143C196.9 81.7412 205.373 81.4948 211.592 81.8128C214.687 81.971 217.304 82.2726 219.204 82.736C220.141 82.9644 221.021 83.2593 221.72 83.6676C222.328 84.0231 223.351 84.7926 223.468 86.1943C223.585 87.5959 222.706 88.5447 222.166 89.0083C221.545 89.541 220.728 89.9959 219.844 90.3958C218.05 91.2073 215.524 91.9935 212.503 92.728ZM188.616 94.3836C207.031 92.6485 221.777 89.0628 221.552 86.3748C221.328 83.6867 221.72 81.1743 187.634 83.3306C156.348 86.2674 154.643 89.9701 154.868 92.6581C155.092 95.3462 170.202 96.1187 188.616 94.3836Z" fill="#FB7C4D"/>
<path opacity="0.5" d="M182.169 58.7996C179.855 70.2603 182.337 85.7172 183.867 92.0131C183.867 86.7043 184.418 72.9014 186.621 60.1602C188.824 47.419 184.571 27.9071 182.169 19.7438C183.133 27.9871 184.482 47.339 182.169 58.7996Z" fill="#F3F3F3"/>
<path opacity="0.5" d="M189.861 34.1403C187.547 26.0004 190.029 15.0222 191.559 10.5505C191.559 14.3211 192.11 24.1246 194.313 33.174C196.516 42.2234 192.263 56.0817 189.861 61.8797C190.824 56.0248 192.174 42.2802 189.861 34.1403Z" fill="#F3F3F3"/>
</svg>
