<svg xmlns="http://www.w3.org/2000/svg" width="571" height="555" fill="none" viewBox="0 0 571 555">
  <path fill="#FFFAF8" d="M502.385 236.54c0 45.056 80.915 99.839 66.063 171.006-14.851 71.167-130.155 147.453-225.331 147.453-77.22 0-141.344 1.024-200.237-84.478C83.9869 385.018 0 404.696 0 318.459c0-68.286 33.7996-137.214 112.665-198.141C191.531 59.3911 311.444 0 406.62 0c89.668 0 139.835 43.8652 149.537 95.1475 9.703 51.2825-53.772 96.3375-53.772 141.3925Z"/>
  <mask id="a" width="213" height="368" x="227" y="113" maskUnits="userSpaceOnUse" style="mask-type:alpha">
    <path fill="#D9D9D9" d="M227.972 244.297H439.68v235.92H227.972z"/>
    <path fill="#D9D9D9" fill-rule="evenodd" d="M330.448 113.715c-29.456.923-55.879 13.882-74.514 34.122l57.462 57.462c4.769-3.828 10.635-6.346 17.052-7.005v-84.579Zm6.757 84.579c6.564.674 12.552 3.293 17.378 7.271l57.42-57.42c-18.65-20.416-45.192-33.502-74.798-34.43v84.579Zm-109.232 21.222c0-25.214 8.816-48.37 23.533-66.552l57.085 57.085c-4.637 5.639-7.421 12.858-7.421 20.728h-73.197v-11.261Zm131.355-9.14c4.477 5.589 7.156 12.682 7.156 20.401h73.197v-11.261c0-25.063-8.71-48.092-23.269-66.224l-57.084 57.084Z" clip-rule="evenodd"/>
    <path fill="#FCF2EC" fill-rule="evenodd" d="M307.362 230.774h51.801c-.961-14.162-12.19-25.336-25.9-25.336-13.711 0-24.94 11.174-25.901 25.336Z" clip-rule="evenodd"/>
  </mask>
  <g mask="url(#a)">
    <rect width="7.7958" height="1.7324" x="385.084" y="374.32" fill="#FB7C4D" rx=".8662"/>
    <path fill="#FCF2EC" d="M-134.36 107.641h896.245v229.786H-134.36V107.641Z"/>
    <path fill="#E9EDF6" d="M-13.3916 337.09H525.3v47.409H-13.3916V337.09Z"/>
    <path fill="#E9EDF6" d="M-13.3916 382.203H525.3v47.41H-13.3916v-47.41Z"/>
    <path fill="#E9EDF6" d="M-13.7412 427.512H525.227v70.234H-13.7412v-70.234Z"/>
    <path fill="#FB7C4D" d="M421.137 329.932c0 18.007-14.597 8.981-32.604 8.981-18.007 0-32.604 9.026-32.604-8.981 0-18.006 14.597-32.604 32.604-32.604 18.007 0 32.604 14.598 32.604 32.604Z"/>
    <path fill="#FDAB8D" d="M418.867 340.106c0 23.68-4.471 26.419-28.151 26.419-23.681 0-32.05.726-32.05-22.954 19.056 0 5.771-3.465 29.451-3.465s7.363-.001 30.75 0Z"/>
    <path fill="#E9EDF6" d="M-60.8018 343.016c0-3.273 2.6533-5.926 5.9262-5.926H602.162c3.273 0 5.926 2.653 5.926 5.926s-2.653 5.926-5.926 5.926H-54.8756c-3.2729 0-5.9262-2.653-5.9262-5.926ZM264.549 378.872c0-.818.663-1.481 1.481-1.481h29.631c.819 0 1.482.663 1.482 1.481 0 .818-.663 1.482-1.482 1.482H266.03c-.818 0-1.481-.664-1.481-1.482ZM411.52 353.09c0-.982.796-1.778 1.777-1.778h52.744c.981 0 1.777.796 1.777 1.778s-.796 1.778-1.777 1.778h-52.744c-.981 0-1.777-.796-1.777-1.778ZM310.18 353.09c0-.982.796-1.778 1.778-1.778h52.743c.982 0 1.778.796 1.778 1.778s-.796 1.778-1.778 1.778h-52.743c-.982 0-1.778-.796-1.778-1.778ZM314.329 359.015c0 .982.796 1.778 1.778 1.778h52.743c.982 0 1.778-.796 1.778-1.778s-.796-1.778-1.778-1.778h-52.743c-.982 0-1.778.796-1.778 1.778Z"/>
    <path fill="#D2D7E2" d="M269.845 359.015c0 .982.796 1.778 1.778 1.778h52.743c.982 0 1.778-.796 1.778-1.778s-.796-1.778-1.778-1.778h-52.743c-.982 0-1.778.796-1.778 1.778Z"/>
    <path fill="#FDAB8D" d="M394.334 358.423c0-1.964 1.592-3.556 3.556-3.556h36.742c1.964 0 3.556 1.592 3.556 3.556s-1.592 3.556-3.556 3.556H397.89c-1.964 0-3.556-1.592-3.556-3.556Z"/>
    <path fill="#FDAB8D" d="M364.109 364.94c0-1.637 1.327-2.963 2.963-2.963h39.706c1.637 0 2.963 1.326 2.963 2.963 0 1.636-1.326 2.963-2.963 2.963h-39.706c-1.636 0-2.963-1.327-2.963-2.963Z"/>
    <path fill="#FDAB8D" d="M342.183 362.867c0-1.145.928-2.074 2.074-2.074h44.446c1.146 0 2.074.929 2.074 2.074 0 1.146-.928 2.074-2.074 2.074h-44.446c-1.146 0-2.074-.928-2.074-2.074ZM395.52 371.46c0-1.309 1.061-2.37 2.37-2.37h25.483c1.309 0 2.37 1.061 2.37 2.37 0 1.31-1.061 2.371-2.37 2.371H397.89c-1.309 0-2.37-1.061-2.37-2.371ZM393.741 350.127c0-.655.531-1.186 1.185-1.186h37.336c.654 0 1.185.531 1.185 1.186 0 .654-.531 1.185-1.185 1.185h-37.336c-.654 0-1.185-.531-1.185-1.185ZM340.404 350.127c0-.655.531-1.186 1.186-1.186h37.335c.654 0 1.185.531 1.185 1.186 0 .654-.531 1.185-1.185 1.185H341.59c-.655 0-1.186-.531-1.186-1.185ZM346.331 356.052c0-.654.531-1.185 1.185-1.185h37.335c.655 0 1.186.531 1.186 1.185 0 .655-.531 1.186-1.186 1.186h-37.335c-.654 0-1.185-.531-1.185-1.186Z"/>
    <path fill="#FEDACC" d="M390.506 353.82c0 .677-.55 1.227-1.227 1.227h-16.334c-.678 0-1.227-.55-1.227-1.227 0-.678.549-1.227 1.227-1.227h16.334c.677 0 1.227.549 1.227 1.227ZM411.07 355.488c0 .677-.549 1.227-1.227 1.227h-15.426c-.678 0-1.227-.55-1.227-1.227 0-.678.549-1.227 1.227-1.227h15.426c.678 0 1.227.549 1.227 1.227ZM396.608 361.255c0 .614-.393 1.112-.877 1.112h-11.034c-.485 0-.878-.498-.878-1.112 0-.614.393-1.112.878-1.112h11.034c.484 0 .877.498.877 1.112ZM400.5 361.255c0 .614-.393 1.112-.878 1.112h-1.025c-.484 0-.877-.498-.877-1.112 0-.614.393-1.112.877-1.112h1.025c.485 0 .878.498.878 1.112Z"/>
    <path fill="#E9EDF6" d="M271.661 382.13c0-1.964 1.592-3.556 3.556-3.556h13.038c1.963 0 3.555 1.592 3.555 3.556s-1.592 3.556-3.555 3.556h-13.038c-1.964 0-3.556-1.592-3.556-3.556Z"/>
    <path fill="#D2D7E2" d="M253.453 380.943c0-.422.653-.763 1.458-.763h19.987c.805 0 1.457.341 1.457.763s-.652.764-1.457.764h-19.987c-.805 0-1.458-.342-1.458-.764Z"/>
    <path fill="#E9EDF6" d="M189.88 372.421c0-2.454 1.99-4.444 4.445-4.444h56.891c2.455 0 4.445 1.99 4.445 4.444 0 2.455-1.99 4.445-4.445 4.445h-56.891c-2.455 0-4.445-1.99-4.445-4.445ZM287.069 382.426c0-1.146.929-2.074 2.075-2.074h28.445c1.146 0 2.074.928 2.074 2.074 0 1.145-.928 2.074-2.074 2.074h-28.445c-1.146 0-2.075-.929-2.075-2.074ZM346.331 366.423c0-.818.663-1.482 1.482-1.482h30.816c.818 0 1.481.664 1.481 1.482s-.663 1.482-1.481 1.482h-30.816c-.819 0-1.482-.664-1.482-1.482Z"/>
    <path fill="#D2D7E2" d="M301.848 366.423c0-.818.663-1.482 1.481-1.482h30.816c.819 0 1.482.664 1.482 1.482s-.663 1.482-1.482 1.482h-30.816c-.818 0-1.481-.664-1.481-1.482Z"/>
    <path fill="#FDAB8D" d="M366.48 370.869c0-1.636 1.327-2.963 2.964-2.963h39.113c1.636 0 2.963 1.327 2.963 2.963 0 1.637-1.327 2.963-2.963 2.963h-39.113c-1.637 0-2.964-1.326-2.964-2.963Z"/>
    <path fill="#E9EDF6" d="M405.001 365.532c0-1.963 1.592-3.555 3.556-3.555h49.187c1.964 0 3.556 1.592 3.556 3.555 0 1.964-1.592 3.556-3.556 3.556h-49.187c-1.964 0-3.556-1.592-3.556-3.556Z"/>
    <path fill="#D2D7E2" d="M393.828 380.438c0-1.074 1.588-1.946 3.547-1.946h49.067c1.959 0 3.547.872 3.547 1.946 0 1.075-1.588 1.947-3.547 1.947h-49.067c-1.959 0-3.547-.872-3.547-1.947Z"/>
    <path fill="#fff" d="M408.424 385.512c0-.453.397-.821.887-.821h14.631c.489 0 .886.368.886.821 0 .453-.397.82-.886.82h-14.631c-.49 0-.887-.367-.887-.82Z"/>
    <path fill="#D2D7E2" d="M358.379 396.633c0-.453.397-.821.887-.821h14.631c.49 0 .887.368.887.821 0 .453-.397.82-.887.82h-14.631c-.49 0-.887-.367-.887-.82Z"/>
    <path fill="#fff" d="M321.962 372.507c0-.328.265-.593.593-.593h7.704c.327 0 .592.265.592.593a.592.592 0 0 1-.592.592h-7.704a.5922.5922 0 0 1-.593-.592ZM239.659 347.757c0-.328.266-.593.593-.593h10.074c.328 0 .593.265.593.593 0 .327-.265.592-.593.592h-10.074c-.327 0-.593-.265-.593-.592ZM255.068 347.757c0-.328.266-.593.593-.593h4.741c.327 0 .593.265.593.593 0 .327-.266.592-.593.592h-4.741c-.327 0-.593-.265-.593-.592ZM333.813 372.507c0-.328.266-.593.593-.593h1.778c.327 0 .593.265.593.593 0 .327-.266.592-.593.592h-1.778c-.327 0-.593-.265-.593-.592ZM248.548 350.128c0-.328.265-.593.592-.593h3.556c.327 0 .593.265.593.593 0 .327-.266.592-.593.592h-3.556a.592.592 0 0 1-.592-.592Z"/>
    <path fill="#fff" d="M451.096 208.571c-21.427-4.563-50.326.332-62.097 3.35 9.926 0 35.732 1.086 59.553 5.431 23.822 4.346 60.302-4.043 75.564-8.781-15.412 1.901-51.593 4.563-73.02 0Z" opacity=".3"/>
    <path stroke="#D2D7E2" stroke-linecap="round" stroke-width="2" d="M55.9658 431.855H249.399"/>
    <path fill="#fff" fill-rule="evenodd" d="M184.835 171.219c9.814.834 20.809 2.123 31.411 4.057 16.796 3.063 39.884-.203 57.392-4.057h-88.803Z" clip-rule="evenodd" opacity=".3"/>
    <path fill="#D2D7E2" d="M16.2383 268.05c-48.832-18.252-129.6853 2.667-158.8223 14.816v54.521c190.0336-1.975 561.804.711 519.135 0-53.335-.889-64.595-20.445-107.56-24.001-42.965-3.556-68.152-19.26-116.746-15.705-48.595 3.556-74.9668-6.815-136.0067-29.631Z"/>
    <path fill="#62719A" d="M14.1572 320.492c-12.3265-3.793-17.7786 9.68-18.9638 16.89H321.727c-6.519-1.58-21.571-4.741-29.631-4.741-10.074 0-21.334-2.37-29.927-5.037s-13.927 2.667-25.779 5.037c-11.853 2.371-27.261-9.482-52.743-12.149-25.483-2.667-49.484 7.112-59.855 7.112-10.371 0-5.63-4.445-14.223-4.445s-10.3708 7.112-18.0749 7.112c-7.704 0-16.8896-9.779-29.631-2.667-12.7413 7.111-32.2978-2.371-47.7059-7.112Z"/>
    <path fill="#9AA4BE" d="M448.424 322.864c-17.068 9.482-33.088 13.631-46.225 14.52h303.718l16.297-37.632c-5.63 8.001-25.482-17.186-48.595-24.001-15.548-4.585-31.705 8.593-77.04 17.186-45.336 8.593-50.669 22.223-71.115 29.927-20.445 7.704-55.706-11.852-77.04 0Z"/>
    <path fill="#62719A" fill-rule="evenodd" d="M387.482 132.496c4.013 2.474 7.522 4.803 8.715 6.034 2.016 2.08-9.001-.405-18.203-2.805-1.965 5.212-3.625 10.424-5.012 15.544 5.128-.555 10.271.298 12.641 1.385 2.033.932-2.204 4.677-8.098 9.885-2.673 2.362-5.687 5.026-8.611 7.864-1.282 8.243-1.858 15.849-1.897 22.336l-1.36 23.017c13.228-19.165 35.176-51.347 56.392-83.26h-34.567ZM430.511 133.152c-1.307 2.52-2.57 5.101-3.779 7.737 8.685 5.151 18.791 11.609 15.715 11.641-2.792.029-11.608-2.125-18.959-4.092-2.024 5.047-3.827 10.267-5.342 15.626 7.21 3.565 15.901 8.427 15.89 10.644-.011 2.15-10.407 4.04-19.398 5.195-.398 2.494-.726 5.01-.977 7.544 5.728.374 12.063 1.27 12.874 3.123.845 1.93-6.573 3.439-13.385 4.335-.556 14.849 1.645 30.225 7.776 45.57 2.861-1.98 6.044-3.752 6.901-2.766.936 1.079-1.483 5.863-3.809 9.799 3.346 6.966 7.54 13.907 12.694 20.771 8.161-31.59 19.837-87.641 29.286-135.127H446.54c-.274.769-.699 1.086-1.333.847-.518-.195-1.111-.48-1.756-.847h-12.94Z" clip-rule="evenodd"/>
    <path fill="#62719A" d="M436.521 405.295c24.434-27.594 53.596 1.957 65.123 20.182l18.175 66.234-143.626 3.67c4.796-6.177 9.037-22.237-12.368-37.062-26.757-18.531 10.096-53.024 26.756-38.162 16.659 14.861 15.397 19.631 45.94-14.862Z"/>
    <path stroke="#fff" stroke-linecap="round" stroke-width="1.5" d="M397.704 460.732c1.29-3.64 3.096-11.75 0-15.064-3.097-3.314-4.193-8.662-4.354-10.922M390.754 449.902c-7.94-1.155-24.513-4.157-27.285-6.929"/>
    <path stroke="#fff" stroke-linecap="round" stroke-width="1.5" d="M405.047 481.954c-2.31-11.117-10.395-34.822-24.254-40.712"/>
  </g>
  <path fill="#FB7C4D" fill-rule="evenodd" d="M268.613 84.8451c-2.035-.9549-4.384-1.0236-6.433-.1007-21.68 9.7639-39.732 26.1576-51.572 46.5976-.952 1.645-.086 3.724 1.736 4.266l25.071 7.453c1.564.465 3.248-.07 4.294-1.323 15.035-18.029 35.387-31.468 58.646-37.91 1.837-.509 2.106-3.096.38-3.9058l-32.122-15.0771ZM195.434 187.99c0-15.959 3.303-31.148 9.263-44.918.593-1.369 2.122-2.058 3.552-1.633l23.455 6.974c1.963.583 2.778 2.92 1.663 4.638-11.887 18.325-18.791 40.184-18.791 63.655v11.157c0 1.168-.998 2.088-2.163 1.993l-14.224-1.162c-1.557-.127-2.755-1.428-2.755-2.99V187.99Zm3.244 54.302c-1.747-.143-3.244 1.237-3.244 2.99v249.87c0 1.431 1.458 2.399 2.777 1.843l13.307-5.612a4.9996 4.9996 0 0 0 3.058-4.607V245.434c0-1.041-.799-1.908-1.837-1.993l-14.061-1.149Zm118.237-142.239a3.037 3.037 0 0 0 1.63.266 118.455 118.455 0 0 1 13.135-.7282h4.504c17.688 0 34.459 3.9212 49.493 10.9432 2.032.949 3.996-1.53 2.399-3.106-20.434-20.165-48.503-32.6116-79.479-32.6116-9.248 0-18.237 1.1095-26.841 3.2025-2.653.6454-2.913 4.164-.442 5.3242l35.601 16.7099Z" clip-rule="evenodd"/>
  <path fill="#FDAB8D" fill-rule="evenodd" d="M257.349 149.201c-.758-.758-.786-1.98-.047-2.756 18.075-18.986 43.138-31.259 71.061-32.706 1.128-.058 2.065.849 2.065 1.979v.041c0 1.066-.838 1.943-1.902 2.014-26.643 1.794-50.542 13.612-67.948 31.716-.786.818-2.095.846-2.898.043l-.331-.331Zm154-.487c-.399.398-1.047.392-1.442-.011-18.129-18.466-43.097-30.204-70.813-31.111-1.057-.035-1.908-.895-1.908-1.953 0-1.091.904-1.969 1.995-1.916 28.485 1.393 54.002 14.049 72.197 33.6.367.395.353 1.009-.029 1.391Zm4.387 5.167c-.329.329-.351.854-.053 1.211 14.679 17.647 23.627 40.222 23.995 64.867l.001-.341c.076-24.784-8.387-47.597-22.619-65.661-.329-.418-.948-.452-1.324-.076Zm-162.591.67c-.84-.84-2.225-.767-2.952.173-13.742 17.776-21.944 40.051-22.018 64.245l-.031 9.998c-.003.939.757 1.702 1.696 1.702.935 0 1.694-.756 1.696-1.691l.024-7.745c.072-24.026 8.291-46.128 22.036-63.699.631-.807.573-1.96-.152-2.684l-.299-.299Zm-24.064 325.462c-.943 0-1.706-.765-1.703-1.707l.714-232.437c.003-.935.762-1.692 1.697-1.692.939 0 1.699.763 1.696 1.702l-.702 232.437c-.003.938-.764 1.697-1.702 1.697Z" clip-rule="evenodd"/>
  <rect width="1.6042" height="81.0657" x="256.124" y="148.02" fill="#FDAB8D" rx=".8021" transform="rotate(-45 256.124 148.02)"/>
  <rect width="2.5051" height="82.6678" x="336.972" y="116.148" fill="#FDAB8D" rx="1.2525"/>
  <rect width="1.6892" height="80.5026" x="416.086" y="153.555" fill="#FDAB8D" rx=".8446" transform="rotate(45 416.086 153.555)"/>
  <path fill="#FDAB8D" fill-rule="evenodd" d="M308.317 230.782c.554 0 1.008-.437 1.057-.989 1.13-12.812 11.908-22.86 25.037-22.86 5.211 0 10.052 1.584 14.066 4.294-4.354-3.613-9.951-5.786-16.056-5.786-13.882 0-25.135 11.233-25.135 25.089 0 .14.114.252.253.252h.778Z" clip-rule="evenodd"/>
</svg>
