<svg xmlns="http://www.w3.org/2000/svg" width="225" height="244" fill="none"><path fill="#9aa4be" d="M78.036 243.5s13.868-10.606 23.183-15.866c9.648-5.448 24.325-11.641 35.292-17.107a4715 4715 0 0 1 30.428-15.038s-14.533-10.576-23.183-17.658c-3.79-3.103-24.393-27.44-39.846-43.734-3.05-3.216-8.277-7.889-12.316-11.405-3.225-2.806-6.003-7.357-6.003-7.357l-10.142 7.357s-29.087 14.102-47.609 23.546c-6.329 3.227-14.837 7.65-20.388 10.546C4.05 158.558 0 158.654 0 158.654s11.805 11.466 19.768 19.177c3.622 3.507 48.404 54.278 50.92 56.287s7.348 9.382 7.348 9.382"/><path fill="#f3f3f3" d="M77.518 239.361s14.385-8.674 23.7-13.934c9.648-5.448 25.257-10.399 36.224-15.865 17.521-8.734 28.979-16.97 28.979-16.97s-14.016-9.886-22.666-16.969c-3.79-3.103-24.393-27.439-39.846-43.733-3.05-3.216-8.277-7.89-12.316-11.405-3.225-2.806-6.003-7.358-6.003-7.358l-10.142 7.358S46.36 134.586 27.839 144.03c-6.329 3.228-14.837 7.651-20.388 10.546-3.401 1.774-7.348 2.285-7.348 2.285s12.943 11.051 20.906 18.762c3.622 3.508 47.472 56.763 49.988 58.771s6.52 4.967 6.52 4.967"/><path fill="#132043" d="M19.902 161.613c-.64-.4-.483-1.542.264-1.916l45.508-22.801a.83.83 0 0 1 .686-.042l.7.285c.748.304.66 1.557-.14 1.969l-45.052 23.237c-.274.142-.573.139-.81-.009zM25.85 167.029c-.55-.369-.407-1.361.243-1.698l60.457-31.279a.5.5 0 0 1 .355-.046c.483.126.468.908-.023 1.167l-60.28 31.872c-.256.136-.536.129-.752-.016M32.508 172.377c-.653-.265-.584-1.354.108-1.726l27.066-14.543a.5.5 0 0 1 .283-.064c.54.04.591.882.071 1.174l-26.888 15.101a.74.74 0 0 1-.64.058M63.451 155.063c-.557-.152-.497-1.075.086-1.315l2.427-.999a.4.4 0 0 1 .135-.031c.47-.028.554.696.11.949L63.872 155a.56.56 0 0 1-.42.063"/><path fill="#d2d7e2" d="m92.629 181.694 4.44-1.932 89.909-11.175 1.14 1.372a3.668 3.668 0 0 1-2.502 6.001l-37.203 3.25-41.758 5.105z"/><path fill="#9aa4be" d="m92.64 179.76 11.539-5.897 83.442-8.517.072.168c1.145 2.656 1.376 5.883.645 9.022l-83.057 7.751z"/><path fill="#1a2a5a" d="m157.941 177.599-.933.088a.398.398 0 0 1-.428-.47 15.1 15.1 0 0 0-.66-8.044l-.02-.053a.403.403 0 0 1 .334-.539l.664-.074a.444.444 0 0 1 .464.284l.143.372a15.45 15.45 0 0 1 .798 8.099.41.41 0 0 1-.362.337"/><path fill="#ddd" d="M104.144 173.862 92.64 179.76l12.768 2.528.035-.316a15.4 15.4 0 0 0-1.299-8.11"/><path fill="#1a2a5a" d="m92.322 179.357-.083.116a.394.394 0 0 0 .321.624h2.015l.04-.138a2 2 0 0 0-.04-1.21l-1.949.409a.5.5 0 0 0-.304.199M188.339 174.536l.726-.214c5.143-1.513 3.871-9.127-1.485-8.886l.282 1.013c.649 2.336.845 4.775.577 7.185z"/><path fill="#1a2a5a" d="m159.654 167.215.715.536a.5.5 0 0 0 .577.016l.611-.407a.5.5 0 0 1 .232-.082l23.767-2.179c.905 0 1.789.278 2.531.796l1.514 1.057-.267-.662a5.34 5.34 0 0 0-1.989-2.442 1.34 1.34 0 0 0-.875-.218l-26.566 2.688a.5.5 0 0 0-.25.897"/><path fill="#d9d9d9" d="M149.344 121.405c4.657-3.725 22.872 9.519 15.007 22.763-5.534 9.318-30.709 6.401-47.159 2.044v.246c.095.144.187.286 0 .234-6.383-1.765-12.108-4.213-13.904-5.835-2.721-2.457-1.956-6.212 0-9.302.117-.185.182-.031.249.127l.275.141c1.694-2.309 4.156-5.349 5.893-6.693 11.66 0 35.913-.745 39.639-3.725" opacity=".3"/><path fill="#fb7c4d" d="M166.256 108.05c.589-4.645-2.579-8.005-4.442-9.03l-2.578-1.344 8.596 3.266 2.005 6.34-2.005 8.453-4.298 7.493-6.734.384-5.587-1.921c-.048-1.985.229-5.418 1.719-3.266 1.863 2.69 6.699 1.019 8.419.635 1.719-.385 4.243-5.795 4.905-11.01"/><path fill="#fb7c4d" d="M159.398 92.728c-1.157-.155-2.026.71-2.315 1.162l-1.736 1.55.578 4.068 2.171-1.356 7.379.968 4.775 6.006c-.145-8.524-9.405-12.205-10.852-12.398"/><path fill="#d04a02" d="M159.81 96.88c5.88 0 10.648 2.519 10.648 10.358s-4.768 18.03-10.648 18.03c-5.881 0-10.648-2.519-10.648-10.357 0-7.839 4.767-18.03 10.648-18.03m0 2.302c-4.928 0-8.921 8.539-8.921 15.106s3.994 8.678 8.921 8.678 8.92-8.538 8.92-15.106-3.993-8.678-8.92-8.678M161.971 81.12l-2.07 5.381-52.162 7.864-5.071-6.07 1.449-3.174 6.727-3.035 8.797-1.931 16.56-2.483 16.766-.276 6.417.966z"/><ellipse cx="28.093" cy="6.212" fill="#773829" rx="28.093" ry="6.212" transform="matrix(.99237 -.12328 .06974 .99757 104.061 86.63)"/><path fill="#fb7c4d" d="m111.638 132.152-8.724-39.128c-.404-1.812 1.666-3.15 3.152-2.035l.638.479h11.385c10.227 0 20.437-.867 30.518-2.59l6.637-1.135 3.438-3.077c1.394-1.247 3.585-.069 3.312 1.782l-6.726 45.688a.33.33 0 0 1-.176.245 47.9 47.9 0 0 1-43.282-.007.33.33 0 0 1-.172-.222"/><path fill="#fb7c4d" fill-rule="evenodd" d="M153.095 88.791c-5.227 1.595-12.444 3.044-20.424 3.988-7.98.943-15.276 1.21-20.631.866-2.666-.171-4.92-.497-6.556-.998-.806-.247-1.564-.565-2.166-1.006-.524-.385-1.405-1.216-1.505-2.73-.101-1.515.656-2.54 1.121-3.04.534-.576 1.238-1.068 2-1.5 1.544-.877 3.72-1.726 6.321-2.52 5.227-1.594 12.444-3.044 20.424-3.987s15.276-1.21 20.631-.867c2.666.171 4.919.497 6.556.998.806.247 1.564.565 2.166 1.007.524.384 1.404 1.215 1.505 2.73s-.656 2.54-1.121 3.04c-.534.576-1.238 1.067-2 1.5-1.544.876-3.72 1.725-6.321 2.52m-20.57 1.789c15.857-1.875 28.556-5.75 28.363-8.653-.193-2.905.144-5.62-29.209-3.29-26.942 3.174-28.41 7.174-28.217 10.079.193 2.904 13.205 3.739 29.063 1.864" clip-rule="evenodd"/><path fill="#f3f3f3" d="M126.973 52.132c-1.992 12.383.145 29.084 1.463 35.887 0-5.736.474-20.65 2.371-34.417 1.897-13.766-1.765-34.848-3.834-43.669.83 8.907 1.992 29.816 0 42.2M133.598 25.488c-1.992-8.795.145-20.656 1.463-25.488 0 4.074.474 14.667 2.371 24.444 1.897 9.778-1.765 24.751-3.834 31.016.83-6.326 1.992-21.177 0-29.972" opacity=".5"/></svg>