<svg xmlns="http://www.w3.org/2000/svg" width="299" height="252" fill="none" viewBox="0 0 299 252">
  <path fill="#FFFAF8" d="M298.5 162.5c0 55.843-70.748 89.5-126.819 89.5-38.862 0-71.134.516-100.7733-42.62C41.2683 166.243 0 190.507 0 147c0-34.45 32.5-48.9999 65-108.5 32.5-59.5 177.5-42 183 9s50.5 81.5 50.5 115Z"/>
  <path fill="#E45C2B" d="m88.4312 125.519 34.9408-18.774 35.985 2.26 3.824 4.346-39.809 25.554-32.6809 2.434-5.5628-5.737v-5.041l3.3029-5.042Z"/>
  <path fill="#132043" d="M162.312 105.697h9.387v89.7h-9.387v-89.7Z"/>
  <path fill="#132043" fill-rule="evenodd" d="M162.312 197.997v-7.986c2.748-.336 5.884-.527 9.213-.527h.174v9.039c-.058 0-.116.001-.174.001-3.329 0-6.465-.191-9.213-.527Z" clip-rule="evenodd"/>
  <path fill="#203570" d="M171.7 104.313h10.083v91.091H171.7v-91.091Z"/>
  <path fill="#203570" fill-rule="evenodd" d="M171.7 198.533v-9.039c3.693.007 7.144.249 10.083.664v7.711c-2.939.415-6.39.656-10.083.664Z" clip-rule="evenodd"/>
  <path fill="#FB7C4D" d="m216.531 99.6156-53.02 8.1704-.348-30.0739v-12.864l-1.39-10.0825-3.825-6.2581-7.475-4.8675-5.562-2.9552c7.764 1.5645 28.509 5.3889 49.891 9.9087 20.339 4.2993 21.729 12.3424 21.729 28.857v20.1651Z"/>
  <path fill="#472B24" d="M123.008 61.3512c0-10.4529 8.474-18.9266 18.927-18.9266 11.245 0 20.36 9.1157 20.36 20.3605v42.9159l-39.287-3.476V61.3512Z"/>
  <path fill="#E45C2B" fill-rule="evenodd" d="M141.883 40.3376c-11.193 0-20.266 9.0736-20.266 20.2666V104.08l42.068 3.706V62.1395c0-12.0408-9.761-21.8019-21.802-21.8019Zm.051 2.086c-10.453 0-18.927 8.4738-18.927 18.9267v40.8737l39.287 3.476V62.7841c0-11.2448-9.115-20.3605-20.36-20.3605Z" clip-rule="evenodd"/>
  <path fill="#D04A02" d="M89.6312 120.653c11.2998-6.432 31.9858-16.862 31.9858-16.862l2.799 4.172c-8.518 4.868-27.553 15.437-32.6986 18.079-5.1455 2.642-5.0992 7.591-4.5197 9.387-1.2169-.521-2.2599-1.043-3.6508-2.26-4.3458-4.867 1.3611-9.827 6.0843-12.516Z"/>
  <path fill="#A7452C" d="m121.635 103.617 1.732 4.963 39.818 4.077.519-4.963-42.069-4.077Z"/>
  <path fill="#FB7C4D" d="m139.348 125.346 24.338-17.557c.347 1.043.933 2.966 1.39 4.519.869 2.956.41 3.383-.695 4.172-9.735 6.954-19.37 13.907-23.99 17.037-25.867 17.522-50.7438 13.559-54.063 8.344-2.6071-4.097-3.7685-9.301-4.071-10.847-.0807-.284-.0834-.453-.0834-.453s.0265.162.0834.453c.272.956 1.429 3.22 6.3484 4.762 8.952 2.806 27.4996 3.273 50.7426-10.43Z"/>
  <path fill="#E45C2B" d="m123.199 102.398 26.668-5.0028a3.471 3.471 0 0 1 1.108-.033l8.216.9849c.955.1252 1.627 1.0028 1.559 1.9629-.087 1.232-.121 2.811.172 3.653.468 1.348 1.39 1.738 1.39 1.738l-39.113-3.303Z"/>
  <path fill="#62719A" d="m162.478 201.297 12.012-3.809s-1.808-5.544-2.403-9.999c-.696-5.219-.235-10.78-.961-14.761-.987-5.419-2.882-13.808-2.882-13.808s1.002 7.333.961 11.427c-.034 3.352-.961 7.619-.961 7.619s-3.912-9.763-6.727-15.713c-2.814-5.95-9.129-13.808-9.129-13.808s6.315 9.912 9.129 18.093c2.815 8.182 2.763 16.14 2.763 16.14s-.361-.903-6.126-7.569c-5.766-6.666-19.7-13.808-19.7-13.808s13.934 9.523 17.297 14.76c3.364 5.238 6.247 14.761 6.247 14.761s-6.038-7.369-10.571-11.428c-4.678-4.188-12.973-9.523-12.973-9.523s12.199 10.822 18.258 19.522c2.78 3.991 5.766 11.904 5.766 11.904Z"/>
  <path fill="#9AA4BE" d="m174.49 198.267-9.61 3.03s-3.782-8.237-6.006-11.412c-4.847-6.92-12.011-6.011-12.011-6.011s7.668-1.524 11.411 1.807c3.626 3.229 6.222 7.283 6.222 7.283s-2.931-5.519-5.622-9.685c-2.69-4.166-5.405-15.691-5.405-15.691s2.595 8.587 7.207 13.889c4.613 5.303 5.646 5.01 5.646 5.01s-2.193-3.301-4.445-9.809c-2.251-6.508-5.069-17.423-5.069-17.423s4.019 12.311 6.271 17.044c2.251 4.733 4.804 5.779 4.804 5.779s-1.588-2.139-1.561-4.805c.031-3.057 1.908-5.666 2.139-5.975.015-.021.023-.031.023-.031s-.008.011-.023.031c-.179.246-1.307 1.997-.578 5.975.581 3.167 4.128 8.889 4.685 13.04.475 3.544 1.922 7.954 1.922 7.954Z"/>
  <path fill="#415385" d="m177.493 190.486 7.807 5.405s1.127-4.261 3.003-6.606c1.877-2.346 6.607-4.805 6.607-4.805s-4.378 1.479-6.607 3.003c-2.228 1.525-4.804 4.204-4.804 4.204s2.224-7.598 4.804-13.813c2.58-6.216 11.412-13.814 11.412-13.814s-10.033 6.706-12.613 10.811c-2.58 4.104-3.603 7.807-3.603 7.807s-1.098-6.926-1.802-10.21c-.704-3.283-3.003-8.408-3.003-8.408s2.168 9.592 2.402 13.814c.235 4.222 0 7.807 0 7.807l-2.102-3.903c-.821-1.525-3.303-3.904-3.303-3.904s2.285 5.945 2.402 8.408c.118 2.463-.6 4.204-.6 4.204Z"/>
  <path fill="#9AA4BE" d="m177.133 192.005 6.246 4.488s.901-3.538 2.402-5.485c1.501-1.947 1.922-7.128 1.922-7.128s-.62 3.369-2.402 4.635c-1.783 1.266-2.403.771-2.403.771s.055-2.403.898-4.511c.843-2.107 7.27-7.728 7.27-7.728s-4.564 2.629-6.366 4.431c-1.802 1.802-2.763 4.045-2.763 4.045s-.278-1.32-.84-4.046c-.563-2.726 1.201-9.609 1.201-9.609s-2.47 6.162-2.283 9.667c.188 3.504 0 6.481 0 6.481s-.664-.468-1.321-1.734c-.657-1.266-4.204-2.402-4.204-2.402s2.909 1.559 3.003 3.603c.094 2.045-.36 4.522-.36 4.522Z"/>
  <path fill="#D1D1D1" d="M176.973 196.517c0 7.31-3.317 7.942-9.43 7.942-6.114 0-11.071-.632-11.071-7.942 0-7.311 4.957-13.237 11.071-13.237 6.113 0 9.43 5.926 9.43 13.237Z"/>
  <path fill="#D9D9D9" d="M176.893 196.493c0 6.634-2.891 7.207-8.22 7.207-5.328 0-8.597-1.053-8.597-7.687s1.051-11.532 8.597-11.532c5.329 0 8.22 5.378 8.22 12.012Z"/>
  <path fill="#D1D1D1" d="M191.491 201.596c0 2.82-1.674 3.064-4.76 3.064s-5.588-.244-5.588-3.064c0-2.82 2.502-5.106 5.588-5.106 3.086 0 4.76 2.286 4.76 5.106Z"/>
  <path fill="#D1D1D1" d="M191.492 201.984c0 2.679-1.445 2.91-4.109 2.91-2.665 0-4.299-.425-4.299-3.104 0-2.679.525-4.657 4.299-4.657 2.664 0 4.109 2.172 4.109 4.851Z"/>
  <path fill="#D1D1D1" d="M188.904 198.768c0 5.237-3.109 5.689-8.841 5.689-5.731 0-10.378-.452-10.378-5.689 0-5.238 4.647-9.483 10.378-9.483 5.732 0 8.841 4.245 8.841 9.483Z"/>
  <path fill="#D9D9D9" d="M187.743 198.878c0 4.675-2.521 5.079-7.171 5.079-4.649 0-7.501-.743-7.501-5.418s.917-8.126 7.501-8.126c4.65 0 7.171 3.79 7.171 8.465Z"/>
  <path fill="#773829" d="M179.294 28.7772a.6889.6889 0 0 1 .323-.5855l1.052-.6574 3.874 1.5495c.259.1035.43.3528.433.6314l.656 59.3516c.015 1.393-1.048 2.5614-2.436 2.6771-2.01.1675-3.736-1.4157-3.741-3.4327l-.161-59.534Z"/>
  <path fill="#E45C2B" d="M182.733 45.2475V31.9993l13.512 3.1392c1.233.2863 1.459 1.9433.348 2.5491l-13.86 7.5599Z"/>
  <path fill="#E45C2B" d="M180.502 27.7881c0-.2491.25-.4206.482-.3307l4.527 1.7512a.7713.7713 0 0 1 .493.7192v59.1003c0 1.43-1.159 2.5893-2.589 2.5893-1.609 0-2.913-1.3042-2.913-2.913V27.7881Z"/>
  <ellipse cx="183.378" cy="88.986" fill="#A7452C" rx="1.9219" ry="1.8018"/>
  <path stroke="#9AA4BE" stroke-linecap="round" d="M97.4 204.398h120.329M222.986 204.398h7.514"/>
</svg>
