<svg xmlns="http://www.w3.org/2000/svg" width="128" height="167" fill="none" viewBox="0 0 128 167">
  <path fill="#E45C2B" d="m6.8397 92.4138 32.8307-17.6404 33.8108 2.1234 3.5934 4.0834-37.4042 24.0108-30.7073 2.286-5.2268-5.39v-4.7364l3.1034-4.7368Z"/>
  <path fill="#132043" d="M76.2578 73.7891h8.8202v84.2819h-8.8202V73.7891Z"/>
  <path fill="#132043" fill-rule="evenodd" d="M76.2578 160.514v-7.503c2.5818-.316 5.5284-.495 8.6569-.495h.1633v8.493h-.1633c-3.1285 0-6.0751-.179-8.6569-.495Z" clip-rule="evenodd"/>
  <path fill="#203570" d="M85.0791 72.4883h9.4735v85.5887h-9.4735V72.4883Z"/>
  <path fill="#203570" fill-rule="evenodd" d="M85.0791 161.017v-8.494c3.4702.007 6.7118.235 9.4735.624v7.246c-2.7617.389-6.0033.617-9.4735.624Z" clip-rule="evenodd"/>
  <path fill="#FB7C4D" d="m127.202 68.0782-49.8177 7.6769-.3267-28.2573V35.4109l-1.3067-9.4736-3.5934-5.8801-7.0235-4.5734-5.2268-2.7768c7.2957 1.4701 26.7873 5.0635 46.8778 9.3102 19.11 4.0396 20.417 11.5969 20.417 27.1139v18.9471Z"/>
  <path fill="#472B24" d="M39.3281 32.1233c0-9.8215 7.9619-17.7835 17.7835-17.7835 10.5656 0 19.1307 8.5651 19.1307 19.1307v40.324l-36.9142-3.2668V32.1233Z"/>
  <path fill="#E45C2B" fill-rule="evenodd" d="M57.063 12.3789c-10.5169 0-19.0425 8.5256-19.0425 19.0424v40.8502l39.5275 3.4821V32.864c0-11.3136-9.1715-20.4851-20.485-20.4851Zm.0477 1.96c-9.8216 0-17.7835 7.962-17.7835 17.7835v38.4044l36.9141 3.2668v-40.324c0-10.5656-8.5651-19.1307-19.1306-19.1307Z" clip-rule="evenodd"/>
  <path fill="#D04A02" d="M7.9672 87.8437C18.584 81.8002 38.021 72 38.021 72l2.63 3.9201c-8.0035 4.5734-25.889 14.5043-30.7237 16.987-4.8348 2.4827-4.7912 7.1319-4.2468 8.8199-1.1434-.49-2.1234-.98-3.4302-2.1231-4.0834-4.5734 1.2789-9.234 5.7168-11.7602Z"/>
  <path fill="#A7452C" d="m38.0381 71.8359 1.6266 4.6631 37.4129 3.8305.488-4.6632-39.5275-3.8304Z"/>
  <path fill="#FB7C4D" d="m54.6812 92.2509 22.8671-16.497c.3267.98.8775 2.7872 1.3068 4.2468.8166 2.7767.3847 3.1786-.6534 3.92-9.1469 6.5335-18.2004 13.067-22.5404 16.0071C31.3567 116.392 7.9821 112.668 4.8634 107.768c-2.4496-3.849-3.5408-8.7392-3.825-10.1919C.9625 97.3094.96 97.151.96 97.151s.0249.1517.0784.4251c.2555.8983 1.3426 3.0259 5.9649 4.4749 8.4112 2.637 25.8386 3.075 47.6779-9.8001Z"/>
  <path fill="#E45C2B" d="m39.5068 70.6895 25.0569-4.701a3.2664 3.2664 0 0 1 1.0417-.0311l7.7194.9255c.897.1176 1.5285.9422 1.4647 1.8447-.0819 1.1576-.1136 2.6411.1614 3.432.4405 1.2666 1.3067 1.6333 1.3067 1.6333l-36.7508-3.1034Z"/>
  <path fill="#62719A" d="m76.4143 163.617 11.2863-3.579s-1.6989-5.21-2.2573-9.396c-.6541-4.903-.2211-10.128-.9029-13.868-.928-5.092-2.7087-12.975-2.7087-12.975s.942 6.89.9029 10.738c-.032 3.149-.9029 7.158-.9029 7.158s-3.6757-9.173-6.3203-14.764c-2.6445-5.591-8.5775-12.974-8.5775-12.974s5.933 9.313 8.5775 17.001c2.6446 7.687 2.5959 15.165 2.5959 15.165s-.3386-.849-5.756-7.113c-5.4174-6.263-18.5095-12.974-18.5095-12.974s13.0921 8.948 16.2522 13.869c3.1602 4.921 5.8689 13.869 5.8689 13.869s-5.6727-6.924-9.9319-10.737c-4.3957-3.935-12.1892-8.948-12.1892-8.948s11.4617 10.168 17.1551 18.343c2.6115 3.75 5.4174 11.185 5.4174 11.185Z"/>
  <path fill="#9AA4BE" d="m87.7006 160.768-9.029 2.847s-3.5539-7.739-5.6431-10.722c-4.5548-6.502-11.2863-5.648-11.2863-5.648s7.2054-1.432 10.7219 1.698c3.4074 3.033 5.8463 6.843 5.8463 6.843s-2.7538-5.186-5.2819-9.1c-2.5282-3.915-5.0789-14.744-5.0789-14.744s2.4379 8.069 6.7718 13.051c4.3339 4.982 5.3045 4.707 5.3045 4.707s-2.0603-3.102-4.1759-9.217c-2.1156-6.115-4.7628-16.37-4.7628-16.37s3.7758 11.567 5.8914 16.015c2.1157 4.447 4.5145 5.429 4.5145 5.429s-1.4928-2.009-1.4672-4.514c.0294-2.873 1.793-5.324 2.0098-5.615a.5043.5043 0 0 1 .0218-.028s-.0076.009-.0218.028c-.1676.232-1.2277 1.877-.5426 5.615.5454 2.975 3.8784 8.352 4.4017 12.252.4467 3.33 1.8058 7.473 1.8058 7.473Z"/>
  <path fill="#415385" d="m90.522 153.459 7.3361 5.079s1.0586-4.004 2.8219-6.208c1.763-2.204 6.207-4.514 6.207-4.514s-4.114 1.389-6.207 2.821c-2.0939 1.433-4.5148 3.95-4.5148 3.95s2.0903-7.139 4.5148-12.979c2.424-5.84 10.722-12.979 10.722-12.979s-9.427 6.301-11.8509 10.158c-2.4242 3.856-3.3859 7.336-3.3859 7.336s-1.0318-6.508-1.693-9.594c-.6611-3.085-2.8215-7.9-2.8215-7.9s2.0368 9.012 2.2572 12.979c.2204 3.967 0 7.336 0 7.336l-1.9751-3.668c-.7713-1.432-3.1037-3.668-3.1037-3.668s2.1471 5.587 2.2573 7.9c.1101 2.314-.5644 3.951-.5644 3.951Z"/>
  <path fill="#9AA4BE" d="m90.1844 154.886 5.8688 4.216s.8469-3.323 2.2573-5.153c1.4104-1.83 1.8055-6.697 1.8055-6.697s-.5821 3.165-2.257 4.355c-1.6748 1.189-2.2572.724-2.2572.724s.0512-2.258.8434-4.238c.7922-1.981 6.8308-7.262 6.8308-7.262s-4.2883 2.471-5.9813 4.163c-1.6929 1.693-2.5958 3.802-2.5958 3.802s-.2612-1.241-.7901-3.802c-.5289-2.562 1.1287-9.029 1.1287-9.029s-2.3207 5.79-2.1444 9.083c.1763 3.293 0 6.09 0 6.09s-.6247-.44-1.2417-1.63c-.6171-1.189-3.9502-2.257-3.9502-2.257s2.7334 1.465 2.8215 3.386c.0882 1.921-.3383 4.249-.3383 4.249Z"/>
  <path fill="#D1D1D1" d="M90.0334 159.125c0 6.869-3.1159 7.462-8.8605 7.462-5.7445 0-10.4014-.593-10.4014-7.462s4.6569-12.437 10.4014-12.437c5.7446 0 8.8605 5.568 8.8605 12.437Z"/>
  <path fill="#D9D9D9" d="M89.958 159.103c0 6.233-2.7158 6.771-7.7226 6.771-5.0069 0-8.0782-.99-8.0782-7.223s.9876-10.835 8.0782-10.835c5.0068 0 7.7226 5.053 7.7226 11.287Z"/>
  <path fill="#D1D1D1" d="M103.676 163.895c0 2.65-1.573 2.879-4.4731 2.879-2.8999 0-5.2508-.229-5.2508-2.879 0-2.649 2.3509-4.797 5.2508-4.797 2.9001 0 4.4731 2.148 4.4731 4.797Z"/>
  <path fill="#D1D1D1" d="M103.677 164.261c0 2.517-1.358 2.735-3.8616 2.735-2.5034 0-4.039-.4-4.039-2.917 0-2.518.4937-4.376 4.039-4.376 2.5036 0 3.8616 2.041 3.8616 4.558Z"/>
  <path fill="#D1D1D1" d="M101.245 161.238c0 4.921-2.9216 5.346-8.3071 5.346-5.3856 0-9.7514-.425-9.7514-5.346s4.3658-8.91 9.7514-8.91c5.3855 0 8.3071 3.989 8.3071 8.91Z"/>
  <path fill="#D9D9D9" d="M101.244 161.922c0 4.675-2.5214 5.079-7.1706 5.079s-7.5011-.743-7.5011-5.418.917-8.126 7.5011-8.126c4.6492 0 7.1706 3.79 7.1706 8.465Z"/>
  <path fill="#773829" d="M92.2148 1.5155a.6467.6467 0 0 1 .304-.55l.9884-.6178 3.6399 1.456a.6467.6467 0 0 1 .4064.5932l.6162 55.7666c.0145 1.3088-.9845 2.4066-2.2889 2.5153-1.8886.1574-3.5096-1.3302-3.5148-3.2253l-.1512-55.938Z"/>
  <path fill="#E45C2B" d="M95.4463 16.9909V4.5429l12.6957 2.9496c1.158.269 1.37 1.826.327 2.3952l-13.0227 7.1032Z"/>
  <path fill="#E45C2B" d="M93.3496.5877c0-.234.2351-.3952.4534-.3107l4.2535 1.6454a.7245.7245 0 0 1 .4631.6757v55.5305c0 1.3437-1.0893 2.433-2.4329 2.433-1.5117 0-2.7371-1.2255-2.7371-2.7371V.5877Z"/>
  <ellipse cx="96.0519" cy="58.0875" fill="#A7452C" rx="1.8058" ry="1.6929"/>
</svg>
