<svg xmlns="http://www.w3.org/2000/svg" width="371" height="378" fill="none">
	<path fill="#20192f" d="M0 201.699c67.934 0 172.36-9.813 172.36 88.013S67.934 377.726 0 377.726z"/>
	<path d="M0 201.699c67.934 0 172.36-9.813 172.36 88.013S67.934 377.726 0 377.726z"/><path fill="#c1f705" d="M370.784 176.301c-67.934 0-172.36 9.813-172.36-88.013S302.85.274 370.784.274z"/><path d="M370.784 176.301c-67.934 0-172.36 9.813-172.36-88.013S302.85.274 370.784.274z"/>
	<path fill="#ff4757" d="M198.031 377.727c0-66.86-11.2-176.028 86.181-176.028s86.18 109.168 86.18 176.028z"/><path d="M198.031 377.727c0-66.86-11.2-176.028 86.181-176.028s86.18 109.168 86.18 176.028z"/><path fill="#6f42c1" d="M172.753.273c0 66.86 11.2 176.028-86.18 176.028S.392 67.133.392.273z"/>
	<path d="M172.753.273c0 66.86 11.2 176.028-86.18 176.028S.392 67.133.392.273z"/>
</svg>